<?xml version="1.0" encoding="utf-8"?>
<!-- Generator: Adobe Illustrator 16.0.0, SVG Export Plug-In . SVG Version: 6.00 Build 0)  -->
<!DOCTYPE svg PUBLIC "-//W3C//DTD SVG 1.1//EN" "http://www.w3.org/Graphics/SVG/1.1/DTD/svg11.dtd">
<svg version="1.1" id="Layer_1" xmlns="http://www.w3.org/2000/svg" xmlns:xlink="http://www.w3.org/1999/xlink" x="0px" y="0px"
	 width="273.744px" height="21.25px" viewBox="0 0 273.744 21.25" enable-background="new 0 0 273.744 21.25" xml:space="preserve">
<g>
	<path fill="#FFFFFF" d="M44.527,13.323h-0.353c0,0,0.07-3.295-1.106-4.192c-1.175-0.897-2.984-1.345-4.461-1.649
		c-1.479-0.307-2.001-0.464-2.925-1.324c-0.923-0.86-3.305-2.848-3.305-2.848s-2.733-2.007-6.236-2.007L3.868,1.25
		c0,0-1.298,0.054-1.792,1.602C1.583,4.4,0.933,7.52,0.832,14.013l-0.397,0.044c0,0-0.491-0.055-0.429,0.629
		c0.062,0.687,0.062,0.964,0.062,0.964s0.016,0.48,0.508,0.489c0.492,0.008,1.229-0.021,1.229-0.021s0.31,1.009,1.506,1.009h3.851
		h1.215c0,1.618,1.311,2.93,2.93,2.93s2.93-1.312,2.93-2.93h1.032h16.771h0.979c0,1.723,1.396,3.119,3.121,3.119
		c1.723,0,3.12-1.396,3.12-3.119h0.887h2.909c0,0,0.832-0.097,1.195-0.953c0.362-0.855,0.766-0.09,0.791-1.224l0.025-1.134
		C45.065,13.816,45.087,13.323,44.527,13.323"/>
	<path fill="#FFFFFF" d="M101.027,13.323h-0.354c0,0,0.071-3.295-1.104-4.192c-1.174-0.897-2.984-1.345-4.461-1.649
		c-1.479-0.307-2.001-0.464-2.925-1.324c-0.923-0.86-3.305-2.848-3.305-2.848s-2.733-2.007-6.235-2.007L60.367,1.25
		c0,0-1.297,0.054-1.791,1.602C58.083,4.4,57.432,7.52,57.331,14.013l-0.397,0.044c0,0-0.491-0.055-0.429,0.629
		c0.063,0.687,0.063,0.964,0.063,0.964s0.016,0.48,0.508,0.489c0.492,0.008,1.229-0.021,1.229-0.021s0.311,1.009,1.506,1.009h3.851
		h1.216c0,1.618,1.311,2.93,2.929,2.93c1.619,0,2.93-1.312,2.93-2.93h1.032h16.771h0.979c0,1.723,1.396,3.119,3.12,3.119
		c1.723,0,3.121-1.396,3.121-3.119h0.887h2.909c0,0,0.831-0.097,1.195-0.953c0.362-0.855,0.766-0.09,0.791-1.224l0.025-1.134
		C101.564,13.816,101.585,13.323,101.027,13.323"/>
	<path fill="#FFFFFF" d="M155.53,13.323h-0.354c0,0,0.07-3.295-1.105-4.192c-1.174-0.897-2.983-1.345-4.461-1.649
		c-1.479-0.307-2.001-0.464-2.924-1.324c-0.924-0.86-3.307-2.848-3.307-2.848s-2.732-2.007-6.235-2.007L114.871,1.25
		c0,0-1.299,0.054-1.791,1.602c-0.493,1.549-1.145,4.668-1.246,11.161l-0.397,0.044c0,0-0.491-0.055-0.429,0.629
		c0.062,0.687,0.062,0.964,0.062,0.964s0.017,0.48,0.509,0.489c0.493,0.008,1.23-0.021,1.23-0.021s0.31,1.009,1.505,1.009h3.851
		h1.215c0,1.618,1.312,2.93,2.93,2.93c1.619,0,2.93-1.312,2.93-2.93h1.032h16.771h0.979c0,1.723,1.396,3.119,3.121,3.119
		c1.723,0,3.119-1.396,3.119-3.119h0.889h2.908c0,0,0.83-0.097,1.194-0.953c0.364-0.855,0.766-0.09,0.79-1.224l0.026-1.134
		C156.068,13.816,156.088,13.323,155.53,13.323z"/>
	<path fill="#FFFFFF" d="M209.723,13.323h-0.354c0,0,0.07-3.295-1.105-4.192c-1.174-0.897-2.983-1.345-4.461-1.649
		c-1.479-0.307-2.001-0.464-2.924-1.324c-0.924-0.86-3.307-2.848-3.307-2.848s-2.732-2.007-6.236-2.007L169.064,1.25
		c0,0-1.3,0.054-1.791,1.602c-0.493,1.549-1.146,4.668-1.245,11.161l-0.397,0.044c0,0-0.491-0.055-0.43,0.629
		c0.062,0.687,0.062,0.964,0.062,0.964s0.018,0.48,0.51,0.489c0.492,0.008,1.229-0.021,1.229-0.021s0.31,1.009,1.506,1.009h3.851
		h1.215c0,1.618,1.312,2.93,2.93,2.93c1.619,0,2.93-1.312,2.93-2.93h1.032h16.771h0.979c0,1.723,1.396,3.119,3.121,3.119
		c1.723,0,3.119-1.396,3.119-3.119h0.888h2.909c0,0,0.83-0.097,1.193-0.953c0.364-0.855,0.767-0.09,0.791-1.224l0.026-1.134
		C210.261,13.816,210.282,13.323,209.723,13.323z"/>
	<path fill="#FFFFFF" d="M267.472,13.323h-0.354c0,0,0.071-3.295-1.104-4.192c-1.175-0.897-2.984-1.345-4.463-1.649
		c-1.477-0.307-2-0.464-2.923-1.324c-0.925-0.86-3.306-2.848-3.306-2.848s-2.733-2.007-6.236-2.007L226.813,1.25
		c0,0-1.299,0.054-1.792,1.602c-0.492,1.549-1.144,4.668-1.244,11.161l-0.397,0.044c0,0-0.49-0.055-0.43,0.629
		c0.061,0.687,0.061,0.964,0.061,0.964s0.02,0.48,0.511,0.489c0.492,0.008,1.229-0.021,1.229-0.021s0.312,1.009,1.507,1.009h3.852
		h1.215c0,1.618,1.311,2.93,2.93,2.93s2.93-1.312,2.93-2.93h1.031h16.771h0.979c0,1.723,1.396,3.119,3.12,3.119
		c1.723,0,3.12-1.396,3.12-3.119h0.886h2.909c0,0,0.83-0.097,1.195-0.953c0.363-0.855,0.766-0.09,0.791-1.224l0.025-1.134
		C268.01,13.816,268.031,13.323,267.472,13.323z"/>
</g>
</svg>
