<?xml version="1.0" encoding="utf-8"?>
<!-- Generator: Adobe Illustrator 16.0.0, SVG Export Plug-In . SVG Version: 6.00 Build 0)  -->
<!DOCTYPE svg PUBLIC "-//W3C//DTD SVG 1.1//EN" "http://www.w3.org/Graphics/SVG/1.1/DTD/svg11.dtd">
<svg version="1.1" id="Layer_1" xmlns="http://www.w3.org/2000/svg" xmlns:xlink="http://www.w3.org/1999/xlink" x="0px" y="0px"
	 width="74.3px" height="74.301px" viewBox="0 0 74.3 74.301" enable-background="new 0 0 74.3 74.301" xml:space="preserve">
<g id="VAYm7a.tif">
	<g>
		<path fill="#FFFFFF" d="M-0.185,57.968c0-19.381,0-38.761,0-58.141c19.38,0,38.759,0,58.139,0
			c-1.048,1.061-2.097,2.123-3.125,3.164c0.43,0.438,0.854,0.867,1.292,1.312c0.114-0.072,0.237-0.148,0.358-0.228
			c1.55-1.018,3.219-1.32,5.004-0.774c0.543,0.166,1.061,0.421,1.579,0.654c0.388,0.175,0.722,0.15,1.031-0.159
			c0.488-0.486,0.497-0.888,0.011-1.381c-0.855-0.864-1.714-1.726-2.571-2.588c4.31,0,8.619,0,12.928,0
			c-0.004,0.17-0.015,0.341-0.015,0.511c0,3.871,0,7.742,0,11.612c0,0.138,0,0.276,0,0.522c-0.863-0.87-1.642-1.655-2.422-2.438
			c-0.112-0.111-0.23-0.219-0.359-0.307c-0.289-0.196-0.591-0.197-0.891-0.016c-0.318,0.192-0.519,0.467-0.439,0.845
			c0.072,0.341,0.185,0.68,0.324,1c0.359,0.82,0.593,1.67,0.635,2.565c0.064,1.422-0.324,2.712-1.146,3.876
			c-0.06,0.083-0.087,0.279-0.034,0.337c0.37,0.413,0.765,0.805,1.186,1.238c1.055-1.067,2.059-2.083,3.062-3.099
			c0.027,0.014,0.057,0.028,0.084,0.042c0,0.141,0,0.281,0,0.421c0,6.634,0.003,13.268-0.009,19.901
			c-0.002,0.266,0.197,0.627-0.21,0.8c-0.413,0.174-0.598-0.171-0.816-0.39c-2.527-2.516-5.048-5.04-7.57-7.561
			c-0.1-0.1-0.21-0.187-0.29-0.259c-1.032,1.035-2.036,2.041-3.064,3.07c0.077,0.083,0.171,0.191,0.272,0.292
			c2.503,2.505,5.001,5.016,7.518,7.509c0.38,0.376,0.569,0.707,0.282,1.232c-0.184,0.339,0.103,0.725,0.485,0.672
			c0.22-0.03,0.459-0.162,0.622-0.318c0.721-0.689,1.419-1.403,2.122-2.112c0.194-0.195,0.377-0.4,0.636-0.674
			c0.011,0.237,0.021,0.353,0.021,0.469c0.001,11.479-0.002,22.957,0.01,34.436c0,0.381-0.114,0.459-0.473,0.459
			c-11.479-0.01-22.957-0.008-34.436-0.008c-0.114,0-0.228-0.014-0.342-0.02c-0.021-0.035-0.043-0.067-0.063-0.101
			c0.866-0.847,1.731-1.691,2.531-2.471c-3.109-3.123-6.195-6.222-9.304-9.344c-0.659,0.662-1.347,1.349-2.033,2.038
			c-0.42,0.423-0.845,0.843-1.251,1.278c-0.19,0.205-0.298,0.455-0.094,0.724c0.199,0.264,0.46,0.326,0.738,0.16
			c0.405-0.241,0.695-0.105,0.996,0.2c1.119,1.137,2.253,2.257,3.38,3.386c1.093,1.093,2.186,2.187,3.277,3.279
			c0.188,0.188,0.337,0.391,0.227,0.679c-0.113,0.294-0.369,0.187-0.568,0.187c-6.719,0.005-13.438,0.004-20.157,0.004
			c-0.127,0-0.254,0-0.456,0c0.141-0.149,0.221-0.236,0.305-0.32c1.6-1.602,3.204-3.2,4.795-4.81
			c0.191-0.193,0.357-0.438,0.457-0.689c0.248-0.631-0.24-1.274-0.912-1.199c-0.256,0.029-0.507,0.156-0.745,0.271
			c-0.437,0.209-0.818,0.171-1.157-0.188c-0.083-0.089-0.175-0.169-0.261-0.256c-3.917-3.915-7.834-7.831-11.748-11.749
			c-0.716-0.717-0.936-0.83-0.369-1.916c0.039-0.074,0.063-0.158,0.084-0.24c0.157-0.602-0.443-1.24-1.044-1.078
			c-0.26,0.071-0.536,0.207-0.725,0.393C3.336,54.429,1.578,56.201-0.185,57.968z M43.826,22.237
			c0.013-0.002,0.025-0.004,0.038-0.007c3.387,3.378,6.774,6.753,10.157,10.136c0.594,0.593,0.601,0.738,0.236,1.509
			c-0.062,0.131-0.127,0.265-0.165,0.404c-0.175,0.639,0.458,1.291,1.088,1.087c0.276-0.089,0.559-0.255,0.768-0.46
			c2.024-2.002,4.037-4.018,6.047-6.037c0.175-0.177,0.322-0.398,0.431-0.624c0.173-0.362,0.108-0.713-0.17-1.01
			c-0.285-0.305-0.634-0.335-1.006-0.203c-0.194,0.068-0.383,0.158-0.567,0.249c-0.378,0.188-0.703,0.105-0.999-0.173
			c-0.098-0.091-0.195-0.183-0.29-0.277c-3.924-3.924-7.851-7.849-11.773-11.775c-0.163-0.164-0.32-0.333-0.476-0.505
			c-0.229-0.251-0.263-0.539-0.136-0.847c0.083-0.202,0.183-0.397,0.265-0.6c0.166-0.412,0.101-0.757-0.188-1.037
			c-0.298-0.289-0.663-0.354-1.07-0.145c-0.212,0.108-0.415,0.255-0.585,0.423c-1.814,1.801-3.616,3.614-5.435,5.41
			c-0.227,0.224-0.229,0.388-0.085,0.65c1.105,2.028,2.2,4.063,3.297,6.096c0.4,0.744,0.802,1.488,1.239,2.302
			c-0.174-0.072-0.274-0.108-0.369-0.154c-2.79-1.351-5.579-2.7-8.366-4.054c-0.22-0.106-0.385-0.167-0.602,0.053
			c-1.797,1.818-3.612,3.618-5.412,5.433c-0.185,0.186-0.343,0.417-0.451,0.654c-0.154,0.335-0.023,0.717,0.274,0.983
			c0.277,0.249,0.585,0.283,0.908,0.107c0.16-0.086,0.324-0.177,0.455-0.299c0.303-0.279,0.648-0.333,1.018-0.212
			c0.494,0.163,0.999,0.313,1.464,0.543c6.048,2.986,12.094,5.979,18.129,8.992c0.45,0.226,0.562-0.099,0.803-0.278
			c0.257-0.19,0.165-0.372,0.046-0.592c-2.128-3.923-4.25-7.849-6.372-11.774C45.256,24.884,44.542,23.56,43.826,22.237z
			 M15.095,57.746c-0.672,0.641-1.311,1.25-1.904,1.815c0.454,0.45,0.88,0.874,1.37,1.358c0.585-0.611,1.196-1.248,1.814-1.893
			c0.088,0.078,0.155,0.129,0.214,0.188c1.765,1.764,3.528,3.529,5.292,5.294c0.085,0.086,0.163,0.18,0.246,0.27
			c0.237,0.26,0.297,0.548,0.148,0.874c-0.096,0.211-0.193,0.42-0.28,0.634c-0.148,0.361-0.092,0.694,0.183,0.975
			c0.283,0.287,0.63,0.385,1,0.208c0.236-0.113,0.47-0.264,0.655-0.447c2.013-1.997,4.018-4.003,6.018-6.013
			c0.159-0.16,0.299-0.355,0.402-0.556c0.206-0.401,0.14-0.781-0.146-1.076c-0.274-0.286-0.628-0.354-1.04-0.189
			c-0.191,0.076-0.381,0.16-0.565,0.253c-0.354,0.177-0.658,0.092-0.932-0.164c-0.099-0.092-0.195-0.183-0.29-0.277
			c-3.968-3.967-7.935-7.936-11.901-11.904c-0.129-0.129-0.252-0.264-0.375-0.399c-0.227-0.252-0.262-0.54-0.138-0.848
			c0.081-0.203,0.182-0.397,0.264-0.6c0.167-0.413,0.105-0.76-0.187-1.035c-0.307-0.29-0.665-0.362-1.038-0.165
			c-0.232,0.123-0.458,0.281-0.644,0.466c-1.985,1.974-3.962,3.954-5.941,5.936c-0.103,0.103-0.204,0.209-0.289,0.327
			c-0.322,0.449-0.338,0.931-0.05,1.28c0.303,0.369,0.717,0.426,1.255,0.175c0.848-0.396,0.992-0.374,1.66,0.293
			c1.611,1.608,3.22,3.217,4.83,4.828C14.819,57.445,14.907,57.544,15.095,57.746z M70.292,20.562
			c-5.527-5.54-11.017-11.04-16.516-16.55c-0.019,0.015-0.068,0.049-0.11,0.091c-1.886,1.884-3.771,3.767-5.646,5.661
			c-0.173,0.174-0.286,0.418-0.386,0.648c-0.156,0.358-0.018,0.671,0.242,0.924c0.254,0.247,0.562,0.338,0.905,0.2
			c0.236-0.096,0.466-0.207,0.702-0.303c0.277-0.113,0.547-0.109,0.788,0.092c0.158,0.133,0.313,0.269,0.46,0.415
			c3.926,3.922,7.851,7.846,11.774,11.77c0.146,0.146,0.289,0.297,0.428,0.45c0.23,0.257,0.306,0.544,0.156,0.873
			c-0.095,0.21-0.198,0.417-0.276,0.634c-0.135,0.37-0.106,0.722,0.196,1.007c0.294,0.277,0.647,0.353,1.009,0.174
			c0.245-0.121,0.482-0.286,0.676-0.479c1.797-1.784,3.583-3.577,5.371-5.369C70.159,20.708,70.247,20.61,70.292,20.562z
			 M38.315,53.322c-0.491-0.475-0.866-0.856-1.266-1.209c-0.081-0.07-0.273-0.083-0.382-0.041c-0.934,0.363-1.721,0.171-2.426-0.538
			c-3.806-3.817-7.617-7.63-11.436-11.436c-0.725-0.723-0.956-1.521-0.547-2.482c0.038-0.089,0.032-0.257-0.026-0.32
			c-0.378-0.409-0.777-0.799-1.183-1.209c-0.098,0.104-0.17,0.168-0.229,0.243c-2.377,3.022-3.022,6.361-1.603,9.958
			c1.571,3.982,4.409,6.845,8.292,8.606c2.876,1.305,5.799,1.296,8.637-0.198C36.871,54.314,37.535,53.82,38.315,53.322z
			 M21.939,35.167c0.393,0.379,0.766,0.724,1.12,1.087c0.157,0.162,0.289,0.179,0.511,0.119c0.367-0.099,0.756-0.172,1.134-0.163
			c0.559,0.012,0.953,0.389,1.326,0.762c3.786,3.787,7.565,7.581,11.359,11.359c0.729,0.727,0.953,1.521,0.553,2.481
			c-0.037,0.092-0.033,0.26,0.026,0.322c0.378,0.407,0.778,0.794,1.183,1.198c0.079-0.072,0.139-0.113,0.182-0.169
			c2.251-2.824,3.021-5.98,1.853-9.435c-1.423-4.203-4.306-7.18-8.264-9.086c-2.726-1.312-5.541-1.426-8.349-0.167
			C23.635,33.896,22.785,34.451,21.939,35.167z M48.899,46.007c0.245,0.211,0.457,0.41,0.689,0.584
			c0.066,0.05,0.213,0.068,0.281,0.028c0.539-0.314,1.034-0.18,1.438,0.207c0.888,0.849,1.749,1.724,2.602,2.609
			c0.374,0.388,0.417,0.855,0.168,1.35c-0.04,0.083-0.032,0.239,0.021,0.312c0.169,0.233,0.369,0.444,0.58,0.688
			c1.398-1.389,2.548-2.765,2.118-4.869c0.45,0.393,0.827,0.756,1.238,1.073c1.503,1.159,3.166,1.793,5.095,1.449
			c1.014-0.181,1.894-0.647,2.766-1.411c-0.228-0.186-0.412-0.365-0.626-0.497c-0.122-0.075-0.311-0.137-0.437-0.098
			c-0.505,0.156-0.901,0.009-1.257-0.348c-2.134-2.134-4.267-4.27-6.404-6.399c-0.379-0.377-0.544-0.791-0.356-1.317
			c0.034-0.096,0.021-0.245-0.035-0.325c-0.168-0.234-0.368-0.446-0.597-0.717c-1.643,2.008-1.882,4.088-0.873,6.415
			c-0.175-0.127-0.262-0.192-0.349-0.255c-0.686-0.488-1.446-0.755-2.29-0.693C51.098,43.906,50.022,44.885,48.899,46.007z
			 M48.455,46.486c-0.071,0.055-0.124,0.085-0.165,0.126c-1.035,1.031-2.068,2.062-3.098,3.099
			c-0.093,0.093-0.211,0.214-0.217,0.327c-0.011,0.201-0.008,0.469,0.111,0.593c0.113,0.119,0.43,0.182,0.571,0.107
			c0.467-0.243,0.775-0.109,1.121,0.237c2.185,2.204,4.382,4.397,6.587,6.58c0.289,0.285,0.412,0.527,0.202,0.918
			c-0.172,0.319,0.039,0.725,0.386,0.738c0.211,0.008,0.482-0.098,0.636-0.245c1.116-1.088,2.21-2.196,3.309-3.301
			c0.085-0.087,0.165-0.183,0.222-0.288c0.124-0.231,0.135-0.465-0.055-0.675c-0.181-0.2-0.414-0.234-0.628-0.1
			c-0.445,0.281-0.745,0.113-1.076-0.222c-2.513-2.531-5.038-5.049-7.562-7.569C48.69,46.702,48.574,46.599,48.455,46.486z
			 M50.203,63.333c-0.092-0.102-0.158-0.187-0.235-0.261c-2.932-2.935-5.867-5.865-8.794-8.804c-0.21-0.211-0.335-0.227-0.551-0.006
			c-0.96,0.983-1.938,1.948-2.907,2.923c-0.094,0.094-0.182,0.199-0.25,0.312c-0.14,0.226-0.162,0.456,0.028,0.671
			c0.188,0.213,0.422,0.256,0.658,0.113c0.423-0.253,0.724-0.12,1.05,0.211c2.142,2.16,4.298,4.304,6.448,6.454
			c0.103,0.103,0.242,0.194,0.294,0.319c0.072,0.174,0.101,0.375,0.103,0.565c0,0.11-0.128,0.224-0.125,0.335
			c0.004,0.181,0.011,0.42,0.12,0.523c0.122,0.113,0.377,0.164,0.547,0.126c0.185-0.042,0.356-0.2,0.5-0.343
			c0.959-0.949,1.91-1.907,2.863-2.864C50.034,63.525,50.11,63.435,50.203,63.333z M66.273,47.609
			c0.124-0.106,0.167-0.133,0.195-0.168c1.136-1.41,1.578-3.003,1.175-4.779c-0.455-2.007-1.694-3.493-3.271-4.732
			c-0.224-0.176-0.493-0.293-0.375-0.685c0.041-0.134-0.1-0.34-0.192-0.494c-0.162-0.271-0.355-0.522-0.524-0.79
			c-0.334-0.531-0.651-1.104-0.602-1.729c0.053-0.646-0.38-0.879-0.678-1.179c-0.63,0.61-1.234,1.196-1.919,1.856
			c0.579,0.55,1.163,1.105,1.745,1.66c-1.945-0.383-3.651,0.019-5.248,1.382c0.234,0.187,0.437,0.327,0.609,0.495
			c0.146,0.143,0.272,0.202,0.479,0.119c0.46-0.187,0.859-0.044,1.195,0.292c2.172,2.167,4.339,4.336,6.509,6.505
			c0.349,0.35,0.459,0.751,0.306,1.235c-0.037,0.116,0.017,0.295,0.09,0.404C65.907,47.212,66.09,47.395,66.273,47.609z
			 M23.828,22.297c0.979,0.98,1.88,1.902,2.805,2.8c0.315,0.305,0.435,0.591,0.195,0.99c-0.136,0.225-0.106,0.494,0.123,0.607
			c0.177,0.087,0.426,0.037,0.641,0.026c0.061-0.003,0.123-0.077,0.173-0.127c1.093-1.092,2.187-2.184,3.275-3.281
			c0.224-0.226,0.321-0.505,0.118-0.79c-0.203-0.285-0.476-0.228-0.747-0.083c-0.282,0.151-0.517,0.102-0.751-0.133
			c-2.119-2.131-4.242-4.256-6.373-6.376c-0.235-0.233-0.291-0.463-0.139-0.749c0.143-0.269,0.205-0.542-0.079-0.75
			c-0.283-0.207-0.565-0.108-0.79,0.115c-1.106,1.095-2.208,2.195-3.304,3.302c-0.212,0.214-0.299,0.488-0.117,0.762
			c0.195,0.294,0.47,0.257,0.74,0.106c0.319-0.178,0.562-0.092,0.809,0.159c0.835,0.851,1.684,1.688,2.526,2.532
			c0.058,0.057,0.105,0.125,0.241,0.29c-0.362,0.299-0.717,0.59-1.031,0.848c0.264,0.291,0.479,0.527,0.749,0.823
			C23.21,23.003,23.505,22.666,23.828,22.297z M14.35,22.63c-0.017,0.476,0.384,0.717,0.782,0.509
			c0.371-0.194,0.621-0.109,0.898,0.17c2.076,2.089,4.158,4.172,6.248,6.246c0.281,0.279,0.366,0.53,0.168,0.897
			c-0.18,0.333-0.076,0.604,0.212,0.736c0.281,0.129,0.501-0.009,0.691-0.187c0.32-0.299,0.624-0.616,0.934-0.925
			c0.782-0.784,1.568-1.563,2.344-2.354c0.215-0.22,0.351-0.488,0.138-0.785c-0.207-0.287-0.493-0.247-0.75-0.096
			c-0.335,0.197-0.563,0.069-0.799-0.168c-2.105-2.112-4.211-4.222-6.323-6.327c-0.237-0.237-0.32-0.467-0.148-0.776
			c0.148-0.265,0.186-0.542-0.097-0.75c-0.297-0.217-0.566-0.08-0.784,0.136c-1.091,1.078-2.176,2.162-3.253,3.253
			C14.481,22.341,14.41,22.531,14.35,22.63z M8.695,28.238c0.083,0.046,0.226,0.088,0.318,0.18c2.379,2.371,4.75,4.75,7.132,7.118
			c0.308,0.307,0.491,0.587,0.224,1.011c-0.139,0.221-0.092,0.448,0.111,0.624c0.206,0.178,0.43,0.146,0.643,0.019
			c0.113-0.068,0.211-0.164,0.306-0.257c1.017-1.015,2.031-2.031,3.043-3.05c0.093-0.093,0.223-0.197,0.239-0.311
			c0.029-0.197,0.057-0.468-0.051-0.591c-0.105-0.122-0.429-0.196-0.568-0.123c-0.447,0.238-0.728,0.09-1.048-0.234
			c-2.331-2.35-4.675-4.687-7.017-7.026c-0.127-0.127-0.263-0.247-0.357-0.335C10.699,26.234,9.748,27.186,8.695,28.238z
			 M26.441,10.402c-1.032,1.025-2.068,2.053-3.103,3.082c-0.017,0.017-0.03,0.038-0.043,0.059c-0.152,0.231-0.21,0.471-0.019,0.706
			c0.184,0.227,0.424,0.23,0.657,0.099c0.356-0.199,0.618-0.117,0.901,0.168c2.074,2.091,4.158,4.173,6.249,6.247
			c0.274,0.271,0.355,0.529,0.165,0.871c-0.139,0.249-0.143,0.498,0.103,0.685c0.254,0.194,0.505,0.116,0.734-0.061
			c0.078-0.059,0.146-0.129,0.215-0.198c0.886-0.887,1.772-1.773,2.656-2.662c0.091-0.092,0.173-0.192,0.22-0.246
			C32.252,16.223,29.357,13.323,26.441,10.402z M32.876,62.022c0.247,0.197,0.444,0.381,0.668,0.524
			c0.096,0.061,0.274,0.093,0.366,0.045c0.439-0.229,0.852-0.178,1.235,0.093c0.267,0.189,0.514,0.408,0.746,0.639
			c1.706,1.699,3.408,3.405,5.107,5.111c0.171,0.171,0.339,0.351,0.482,0.546c0.311,0.419,0.426,0.864,0.146,1.357
			c-0.043,0.075-0.047,0.221-0.002,0.285c0.173,0.246,0.373,0.475,0.582,0.731c0.189-0.203,0.286-0.294,0.369-0.396
			c1.389-1.724,1.783-3.675,0.949-5.704c-1.147-2.791-3.332-4.453-6.301-4.932C35.58,60.056,34.163,60.735,32.876,62.022z
			 M36.312,32.66c-0.019,0.027-0.036,0.054-0.054,0.081c0.094,0.101,0.185,0.205,0.282,0.302c2.261,2.265,4.536,4.517,6.774,6.804
			c0.459,0.47,0.811,1.056,1.157,1.622c0.276,0.451,0.383,0.978,0.307,1.511c-0.048,0.333-0.162,0.657-0.245,0.985
			c-0.163,0.646,0.408,1.228,1.037,1.013c0.31-0.106,0.607-0.313,0.845-0.543c0.938-0.903,1.855-1.828,2.768-2.757
			c0.211-0.215,0.394-0.464,0.551-0.72c0.178-0.289,0.181-0.598-0.022-0.893c-0.245-0.354-0.568-0.467-1.022-0.329
			c-0.514,0.154-1.017,0.321-1.568,0.195c-0.894-0.202-1.65-0.656-2.295-1.28c-1.135-1.101-2.238-2.235-3.361-3.35
			c-0.146-0.144-0.31-0.28-0.489-0.371c-1.435-0.718-2.874-1.425-4.312-2.133C36.55,32.743,36.429,32.706,36.312,32.66z
			 M62.368,5.099c-0.017,0.021-0.033,0.042-0.049,0.063c-0.071,0.015-0.144,0.025-0.214,0.045c-0.52,0.147-0.786,0.705-0.562,1.258
			c0.163,0.404,0.399,0.777,0.587,1.172c0.307,0.653,0.524,1.371,0.251,2.042c-0.262,0.646-0.05,1.007,0.416,1.363
			c0.067,0.051,0.129,0.112,0.181,0.18c0.31,0.417,0.623,0.542,1.185,0.338c0.914-0.333,1.785,0.024,2.605,0.472
			c0.275,0.15,0.562,0.291,0.857,0.39c0.387,0.128,0.741-0.024,0.979-0.365c0.226-0.324,0.191-0.648-0.035-0.944
			c-0.177-0.23-0.387-0.436-0.592-0.642c-1.604-1.611-3.206-3.227-4.822-4.826C62.931,5.423,62.632,5.279,62.368,5.099z
			 M53.572,59.909c-0.853-0.863-1.704-1.744-2.585-2.593c-0.108-0.105-0.426-0.125-0.551-0.042c-0.145,0.095-0.216,0.343-0.25,0.537
			c-0.023,0.127,0.06,0.281,0.119,0.411c0.573,1.265,0.559,2.486-0.223,3.671c-0.045,0.067-0.052,0.216-0.007,0.278
			c0.175,0.243,0.377,0.468,0.559,0.687C51.667,61.822,52.608,60.878,53.572,59.909z M41.361,53.599
			c0.213,0.171,0.411,0.354,0.635,0.498c0.094,0.06,0.28,0.09,0.361,0.037c1.187-0.772,2.391-0.772,3.628-0.133
			c0.375,0.193,0.596,0.136,0.791-0.154c0.207-0.306,0.082-0.541-0.15-0.769c-0.729-0.718-1.448-1.443-2.174-2.164
			c-0.073-0.073-0.16-0.131-0.219-0.178C43.292,51.674,42.379,52.582,41.361,53.599z M38.435,15.853
			c-0.393-0.384-0.776-0.754-1.156-1.128c-0.415-0.41-0.824-0.826-1.24-1.234c-0.169-0.165-0.369-0.244-0.593-0.106
			c-0.22,0.136-0.322,0.327-0.235,0.587c0.054,0.161,0.123,0.316,0.169,0.479c0.099,0.348,0.224,0.693,0.274,1.048
			c0.123,0.88-0.111,1.683-0.632,2.371c0.241,0.267,0.459,0.506,0.644,0.71C36.589,17.67,37.486,16.787,38.435,15.853z
			 M66.018,28.945c0.23,0.2,0.441,0.4,0.673,0.575c0.086,0.065,0.219,0.101,0.327,0.097c0.562-0.023,1.093,0.087,1.577,0.366
			c0.43,0.249,0.842,0.529,1.263,0.796c0.398,0.251,0.696,0.228,0.936-0.077c0.228-0.288,0.188-0.565-0.142-0.896
			c-0.842-0.845-1.686-1.688-2.529-2.529c-0.075-0.075-0.16-0.141-0.224-0.195C67.286,27.689,66.693,28.276,66.018,28.945z
			 M27.678,10.596c1.191-0.868,2.399-0.875,3.641-0.234c0.042,0.021,0.088,0.041,0.135,0.055c0.25,0.077,0.423-0.042,0.559-0.234
			C32.147,9.992,32.173,9.791,32,9.617c-0.782-0.784-1.57-1.56-2.357-2.338c-0.012-0.013-0.046-0.005-0.07-0.007
			c0.022,0.022,0.043,0.043,0.064,0.065c-0.867,0.861-1.735,1.722-2.619,2.6C27.208,10.127,27.432,10.349,27.678,10.596z
			 M45.753,54.717c-0.406,0.005-0.662,0.328-0.566,0.634c0.065,0.207,0.179,0.396,0.277,0.592c0.248,0.493,0.385,0.995,0.166,1.54
			c-0.027,0.071-0.041,0.192-0.001,0.236c0.211,0.232,0.42,0.48,0.675,0.658c0.094,0.065,0.31-0.054,0.471-0.08
			c0.084-0.015,0.178-0.037,0.253-0.015c0.469,0.144,0.942,0.281,1.398,0.46c0.305,0.119,0.568,0.161,0.776-0.134
			c0.205-0.29,0.059-0.531-0.151-0.742c-0.97-0.975-1.939-1.947-2.919-2.912C46.01,54.832,45.834,54.767,45.753,54.717z
			 M6.522,30.353c0.914,0.905,1.808,1.798,2.711,2.682c0.205,0.2,0.456,0.229,0.695,0.047c0.25-0.189,0.363-0.438,0.196-0.732
			c-0.168-0.294-0.373-0.568-0.552-0.857c-0.32-0.52-0.666-1.057-0.608-1.685c0.057-0.622-0.36-0.864-0.702-1.195
			C7.68,29.194,7.125,29.75,6.522,30.353z M12.149,24.739c0.43,0.586,0.529,0.64,1.205,0.679c0.084,0.005,0.167,0.026,0.25,0.041
			c0.791,0.143,1.417,0.61,2.062,1.043c0.374,0.252,0.687,0.224,0.907-0.058c0.22-0.281,0.18-0.527-0.149-0.858
			c-0.78-0.784-1.563-1.564-2.347-2.345c-0.075-0.075-0.161-0.14-0.215-0.188C13.284,23.622,12.725,24.172,12.149,24.739z
			 M33.867,14.906c0.09-0.028,0.162-0.042,0.226-0.073c0.365-0.183,0.394-0.521,0.053-0.868c-0.907-0.917-1.823-1.825-2.737-2.735
			c-0.051-0.051-0.108-0.126-0.169-0.132c-0.178-0.019-0.417-0.079-0.522,0.008c-0.126,0.105-0.199,0.353-0.182,0.528
			c0.017,0.192,0.161,0.374,0.25,0.56c0.203,0.413,0.344,0.847,0.173,1.296c-0.093,0.242-0.039,0.385,0.137,0.536
			c0.128,0.111,0.235,0.249,0.365,0.355c0.066,0.053,0.183,0.113,0.247,0.089c0.631-0.239,1.19-0.057,1.736,0.258
			C33.579,14.806,33.733,14.85,33.867,14.906z M73.625,71.506c0.014-1.188-0.868-2.147-1.996-2.167
			c-1.16-0.02-2.08,0.896-2.109,2.098c-0.029,1.19,0.878,2.171,2.021,2.185C72.706,73.633,73.61,72.717,73.625,71.506z"/>
		<path fill-rule="evenodd" clip-rule="evenodd" fill="#FFFFFF" d="M-0.185,60.596c1.009-0.467,1.064-0.457,1.857,0.335
			c3.907,3.905,7.813,7.812,11.719,11.717c0.129,0.13,0.259,0.259,0.377,0.397c0.345,0.408,0.353,0.876,0.016,1.294
			c-0.046,0.059-0.134,0.098-0.209,0.112c-0.106,0.019-0.218,0.007-0.328,0.007c-4.308,0-8.615,0-12.922,0.001
			c-0.17,0-0.34,0.01-0.51,0.015C-0.185,69.848-0.185,65.222-0.185,60.596z"/>
		<path fill-rule="evenodd" clip-rule="evenodd" fill="#FFFFFF" d="M73.135,71.476c0,0.938-0.563,1.607-1.442,1.718
			c-0.704,0.089-1.435-0.464-1.634-1.232c-0.23-0.889,0.187-1.777,0.975-2.082C72.087,69.472,73.135,70.27,73.135,71.476z
			 M72.004,71.696c0.066-0.044,0.114-0.079,0.167-0.105c0.366-0.18,0.385-0.505,0.336-0.843c-0.045-0.307-0.27-0.459-0.556-0.487
			c-0.326-0.033-0.654-0.038-0.981-0.026c-0.063,0.002-0.177,0.13-0.178,0.203c-0.014,0.691-0.015,1.384,0.001,2.076
			c0.002,0.075,0.131,0.147,0.201,0.221c0.068-0.077,0.179-0.147,0.194-0.235c0.03-0.177-0.001-0.364,0.017-0.545
			c0.008-0.083,0.072-0.23,0.103-0.228c0.105,0.008,0.246,0.039,0.303,0.114c0.152,0.203,0.277,0.429,0.391,0.655
			c0.121,0.242,0.29,0.301,0.584,0.178C72.389,72.344,72.199,72.025,72.004,71.696z"/>
		<path fill-rule="evenodd" clip-rule="evenodd" fill="#FFFFFF" d="M71.287,70.559c0.256,0.083,0.517,0.155,0.762,0.264
			c0.029,0.013-0.001,0.316-0.055,0.335c-0.219,0.073-0.475,0.152-0.682,0.097c-0.093-0.023-0.103-0.36-0.15-0.556
			C71.204,70.652,71.245,70.604,71.287,70.559z"/>
	</g>
</g>
</svg>
