<?xml version="1.0" encoding="utf-8"?>
<!-- Generator: Adobe Illustrator 16.0.0, SVG Export Plug-In . SVG Version: 6.00 Build 0)  -->
<!DOCTYPE svg PUBLIC "-//W3C//DTD SVG 1.1//EN" "http://www.w3.org/Graphics/SVG/1.1/DTD/svg11.dtd">
<svg version="1.1" id="Layer_1" xmlns="http://www.w3.org/2000/svg" xmlns:xlink="http://www.w3.org/1999/xlink" x="0px" y="0px"
	 width="1092.292px" height="296.39px" viewBox="0 0 1092.292 296.39" enable-background="new 0 0 1092.292 296.39"
	 xml:space="preserve">
<g>
	<g>
		<g>
			<g>
				<polygon fill="#FFFFFF" points="101.648,243.044 50.95,126.119 0,126.119 73.355,294.968 128.371,294.968 203.392,126.119 
					152.343,126.119 				"/>
			</g>
		</g>
		<g>
			<g>
				<path fill="#FFFFFF" d="M388.25,210.282c0-47.193-38.396-85.591-85.592-85.591c-47.198,0-85.596,38.398-85.596,85.591
					c0,47.202,38.398,85.599,85.596,85.599c15.488,0,29.986-4.201,42.532-11.423v10.894h43.136v-84.811h-0.089
					C388.238,210.456,388.25,210.372,388.25,210.282z M302.659,251.49c-22.718,0-41.204-18.483-41.204-41.208
					c0-22.716,18.485-41.199,41.204-41.199s41.203,18.483,41.203,41.199C343.862,233.007,325.377,251.49,302.659,251.49z"/>
			</g>
		</g>
		<g>
			<g>
				<path fill="#FFFFFF" d="M1009.421,210.282c0-47.193-38.396-85.591-85.59-85.591c-47.198,0-85.594,38.398-85.594,85.591
					c0,47.202,38.396,85.599,85.594,85.599c15.486,0,29.986-4.201,42.532-11.423v10.894h43.134v-84.811h-0.089
					C1009.414,210.456,1009.421,210.372,1009.421,210.282z M923.832,253.372c-23.759,0-43.086-19.331-43.086-43.09
					c0-23.758,19.327-43.081,43.086-43.081c23.758,0,43.081,19.323,43.081,43.081c0,0.09-0.008,0.174-0.016,0.259h-0.533v6.285
					C963.197,237.482,945.36,253.372,923.832,253.372z"/>
			</g>
		</g>
		<g>
			<g>
				<rect x="1045.236" y="36.532" fill="#FFFFFF" width="47.057" height="258.819"/>
			</g>
		</g>
		<g>
			<g>
				<path fill="#FFFFFF" d="M515.589,124.691c-46.444,0-84.231,37.785-84.231,84.23v86.047h47.06v-86.047
					c0-20.498,16.674-37.172,37.171-37.172c20.494,0,37.172,16.674,37.172,37.172v86.047h47.057v-86.047
					C599.818,162.476,562.036,124.691,515.589,124.691z"/>
			</g>
		</g>
		<g>
			<g>
				<path fill="#FFFFFF" d="M755.649,212.161c0,20.498-16.674,37.172-37.169,37.172c-20.494,0-37.172-16.674-37.172-37.172v-86.042
					h-47.057v86.042c0,46.446,37.786,84.229,84.229,84.229s84.229-37.782,84.229-84.229v-86.042h-47.06V212.161z"/>
			</g>
		</g>
	</g>
	<path fill="#FFFFFF" d="M537.292,20.169c-3.94,0-7.667,0.924-10.982,2.561V0h-13.907v45.059v25.425h13.907V45.059
		c0-6.057,4.926-10.982,10.982-10.982s10.986,4.926,10.986,10.982v25.425h13.903V45.059
		C562.181,31.333,551.017,20.169,537.292,20.169z"/>
	<g>
		<path fill="#FFFFFF" d="M475.516,0h-14.197v14.497h-6.699v12.398h6.699v26.794c0,3.042,0.394,5.635,1.173,7.699
			c0.797,2.121,1.959,3.851,3.454,5.152c1.482,1.292,3.257,2.235,5.273,2.807c1.963,0.558,4.116,0.838,6.396,0.838
			c2.341,0,4.447-0.247,6.259-0.733c1.799-0.484,3.524-1.189,5.132-2.096l0.509-0.287l0.198-12.572l-1.448,0.723
			c-2.246,1.123-4.619,1.692-7.049,1.692c-1.801,0-3.19-0.432-4.128-1.287c-0.911-0.83-1.571-1.805-1.571-3.837V26.895h14.196
			V14.497h-14.196V0z"/>
		<path fill="#FFFFFF" d="M621.774,36.62c-0.971-3.129-2.438-5.925-4.363-8.31c-1.938-2.4-4.402-4.335-7.324-5.752
			c-2.925-1.415-6.354-2.133-10.19-2.133c-3.479,0-6.707,0.669-9.592,1.99c-2.868,1.31-5.396,3.14-7.513,5.439
			c-2.109,2.294-3.764,4.998-4.915,8.035c-1.17,3.079-1.739,6.333-1.739,9.947c0,3.695,0.648,7.127,1.928,10.202
			c1.283,3.082,3.064,5.759,5.293,7.955c2.226,2.2,4.889,3.935,7.914,5.156c3.012,1.218,6.294,1.835,9.757,1.835
			c13.552,0,19.06-10.128,20.799-14.483l0.274-0.686h-12.978l-0.149,0.165c-3.158,3.492-7.743,3.676-7.774,3.677
			c-3.07,0-5.712-0.902-7.852-2.681c-1.782-1.483-3.017-3.571-3.675-6.213h33.227l0.145-1.222c0.058-0.541,0.104-1.068,0.136-1.588
			c0.028-0.518,0.043-1.019,0.043-1.51C623.224,43.016,622.736,39.711,621.774,36.62z M599.812,31.753
			c1.525,0,2.893,0.278,4.064,0.825c1.196,0.563,2.234,1.32,3.086,2.249c0.863,0.937,1.562,2.077,2.076,3.392
			c0.355,0.896,0.631,1.856,0.821,2.862h-20.317c0.557-2.58,1.643-4.736,3.233-6.414C594.634,32.707,596.936,31.753,599.812,31.753z
			"/>
	</g>
</g>
</svg>
