<?xml version="1.0" encoding="utf-8"?>
<!-- Generator: Adobe Illustrator 16.0.0, SVG Export Plug-In . SVG Version: 6.00 Build 0)  -->
<!DOCTYPE svg PUBLIC "-//W3C//DTD SVG 1.1//EN" "http://www.w3.org/Graphics/SVG/1.1/DTD/svg11.dtd">
<svg version="1.1" id="Layer_1" xmlns="http://www.w3.org/2000/svg" xmlns:xlink="http://www.w3.org/1999/xlink" x="0px" y="0px"
	 width="927.965px" height="236.622px" viewBox="0 0 927.965 236.622" enable-background="new 0 0 927.965 236.622"
	 xml:space="preserve">
<g id="wMyeij.tif">
	<g>
		<path fill-rule="evenodd" clip-rule="evenodd" fill="#FFFFFF" d="M0,3.969c41.15,0.011,82.3-0.055,123.45,0.057
			c31.618,0.086,59.185,21.467,66.846,51.578c8.619,33.875-13.532,71.393-46.549,78.734c-2.889,0.642-5.894,0.767-9.958,1.27
			c22.133,32.006,43.913,63.5,66.191,95.715c-2.283,0.127-3.842,0.287-5.402,0.289c-16.828,0.018-33.656-0.104-50.481,0.103
			c-3.612,0.045-5.693-1.16-7.687-4.074c-19.27-28.161-38.675-56.228-58.05-84.316c-0.929-1.346-1.926-2.645-3.873-3.799
			c0,30.443,0,60.886,0,91.71c-17.461,0-34.169,0-51.167,0c0-45.929,0-91.674,0-138.134c1.959,0,3.887,0,5.814,0
			c30.656,0,61.312,0.069,91.968-0.033c14.112-0.047,23.708-11.521,21.001-24.742c-2.033-9.925-10.478-16.279-22.151-16.359
			c-15.661-0.107-31.322-0.032-46.983-0.028C48.645,51.945,24.322,51.958,0,51.969C0,35.969,0,19.969,0,3.969z"/>
		<path fill-rule="evenodd" clip-rule="evenodd" fill="#FFFFFF" d="M370.032,118.025C370.125,52.404,422.931-0.066,488.811,0
			c65.775,0.067,117.984,53.243,117.843,120.026c-0.136,64.39-53.928,116.727-119.839,116.596
			C422.595,236.495,369.939,183.022,370.032,118.025z M421.654,118.125c-0.015,37.024,29.54,66.889,66.278,66.975
			c37.091,0.087,67.028-29.779,67.24-66.716c0.193-33.629-26.406-66.863-66.984-67.012
			C451.094,51.235,421.668,81.309,421.654,118.125z"/>
		<path fill-rule="evenodd" clip-rule="evenodd" fill="#FFFFFF" d="M775.317,111.754c26.244,14.338,32.194,58.302,13.085,86.183
			c-14.189,20.702-34.146,31.795-58.822,32.668c-32.275,1.143-64.605,0.738-96.912,0.984c-0.639,0.005-1.279-0.176-2.215-0.313
			c0-45.338,0-90.549,0-136.492c2.024,0,3.954,0,5.885,0c25.822,0,51.646,0.034,77.469-0.034c4.315-0.011,8.654-0.268,12.941-0.762
			c10.098-1.163,17.628-9.968,17.595-20.3c-0.034-10.139-7.416-18.63-17.489-19.816c-4.617-0.543-9.286-0.881-13.933-0.893
			c-30.487-0.078-60.976-0.04-91.463-0.04c-1.948,0-3.896,0-6.081,0c0-16.138,0-31.71,0-47.612c1.812-0.081,3.429-0.215,5.046-0.216
			c32.32-0.012,64.645-0.299,96.96,0.096c20.389,0.249,39.597,4.693,55.185,19.299c18.331,17.176,26.513,50.588,12.138,74.741
			C782.101,103.622,778.581,107.452,775.317,111.754z M681.911,182.798c16.196,0,32.016,0.711,47.733-0.239
			c11.349-0.686,19.789-11.654,19.334-22.449c-0.472-11.192-8.973-20.526-20.579-21.328c-11.607-0.802-23.282-0.622-34.929-0.833
			c-3.771-0.068-7.545-0.011-11.56-0.011C681.911,153.237,681.911,167.844,681.911,182.798z"/>
		<path fill-rule="evenodd" clip-rule="evenodd" fill="#FFFFFF" d="M288.799,82.599c6.335-10.179,12.22-19.599,18.068-29.041
			c9.287-14.996,18.479-30.052,27.923-44.948c1.029-1.623,3.439-3.333,5.232-3.358c17.492-0.249,34.988-0.149,52.483-0.139
			c0.607,0,1.213,0.105,2.542,0.228c-4.123,6.682-7.919,12.865-11.744,19.03c-22.107,35.636-44.274,71.236-66.229,106.965
			c-1.711,2.785-2.741,6.46-2.766,9.733c-0.214,27.823-0.123,55.649-0.123,83.476c0,1.963,0,3.926,0,6.241
			c-17.121,0-33.704,0-51.054,0c0-1.718,0-3.477,0-5.235c0-28.158,0.11-56.318-0.137-84.475c-0.031-3.567-1.207-7.565-3.077-10.61
			c-24.734-40.272-49.688-80.408-74.581-120.582c-0.778-1.256-1.491-2.552-2.528-4.333c1.604-0.179,2.811-0.429,4.02-0.431
			c16.662-0.026,33.325,0.068,49.985-0.094c3.096-0.03,4.7,1.084,6.266,3.635C258.047,33.042,273.154,57.342,288.799,82.599z"/>
		<path fill-rule="evenodd" clip-rule="evenodd" fill="#FFFFFF" d="M820.69,5.333c16.874,0,33.483,0,50.528,0
			c0,75.011,0,150.009,0,225.415c-16.756,0-33.469,0-50.528,0C820.69,155.608,820.69,80.588,820.69,5.333z"/>
		<path fill-rule="evenodd" clip-rule="evenodd" fill="#FFFFFF" d="M927.965,210.776c0.02,11.62-8.887,20.441-20.545,20.352
			c-11.262-0.088-20.268-9.11-20.281-20.317c-0.014-11.232,9.469-20.594,20.754-20.489
			C919.125,190.424,927.949,199.415,927.965,210.776z M907.889,193.845c-9.639-0.004-17.012,7.402-17.02,17.096
			c-0.008,9.716,7.342,17.154,16.949,17.153c9.492,0,17.186-7.641,17.207-17.088C925.045,201.565,917.34,193.848,907.889,193.845z"
			/>
		<path fill-rule="evenodd" clip-rule="evenodd" fill="#FFFFFF" d="M912.566,221.601c-1.242-7.997-1.947-8.701-8.496-7.955
			c-0.113,2.498-0.23,5.083-0.424,9.363c-1.973-1.595-4.08-2.483-4.125-3.464c-0.295-6.604-0.154-13.229-0.154-20.415
			c3.891,0,7.346-0.23,10.758,0.056c4.881,0.408,7.635,4.604,5.496,8.876c-1.141,2.28-0.91,3.56,0.15,5.639
			C918.25,218.552,916.711,221.918,912.566,221.601z M904.09,202.552c0,2.96,0,4.622,0,7.06c2.957-0.641,5.42-1.035,7.748-1.827
			c0.35-0.119,0.393-2.936,0.021-3.081C909.592,203.817,907.164,203.343,904.09,202.552z"/>
	</g>
</g>
</svg>
