<?xml version="1.0" standalone="no"?>
<!DOCTYPE svg PUBLIC "-//W3C//DTD SVG 1.1//EN" "http://www.w3.org/Graphics/SVG/1.1/DTD/svg11.dtd" >
<svg>
<metadata>
Created by FontForge 20090914 at Fri Jan  8 00:39:27 2016
 By www-data
Copyright (c) Laurenz Brunner. www.lineto.com, 2004. All rights reserved.
</metadata>
<defs>
<font id="AkkuratRegular" horiz-adv-x="560" >
  <font-face 
    font-family="AkkuratRegular"
    font-weight="400"
    font-stretch="normal"
    units-per-em="1000"
    panose-1="2 0 5 3 0 0 0 0 0 0"
    ascent="800"
    descent="-200"
    x-height="506"
    cap-height="709"
    bbox="-15 -288.999 1125 935"
    underline-thickness="45"
    underline-position="-115"
    unicode-range="U+0020-U+FFFD"
  />
<missing-glyph horiz-adv-x="588" 
d="M88 698v-698h412v698h-412zM425 74h-262v549h262v-549z" />
    <glyph glyph-name=".notdef" unicode="&#xfffd;" horiz-adv-x="588" 
d="M88 698v-698h412v698h-412zM425 74h-262v549h262v-549z" />
    <glyph glyph-name="space" unicode=" " horiz-adv-x="230" 
 />
    <glyph glyph-name="exclam" unicode="!" horiz-adv-x="331" 
d="M232 485l-21 -270h-58l-23 270v224h102v-224zM236 0h-106v109h106v-109z" />
    <glyph glyph-name="quotedbl" unicode="&#x22;" horiz-adv-x="444" 
d="M354 586l-21 -153h-53l-21 153v123h95v-123zM185 586l-21 -153h-53l-21 153v123h95v-123z" />
    <glyph glyph-name="numbersign" unicode="#" horiz-adv-x="752" 
d="M682 428h-136l-22 -161h125v-77h-136l-26 -189h-78l26 189h-153l-27 -189h-78l26 189h-128v77h139l22 161h-128v78h139l26 189h78l-26 -189h153l27 189h78l-26 -189h125v-78zM468 428h-154l-22 -161h153z" />
    <glyph glyph-name="dollar" unicode="$" 
d="M536 204c0 -51.333 -19.335 -96.333 -58.002 -135c-40 -38.667 -93.333 -61.334 -160 -68.001v-91h-58v91c-64 5.33301 -117 27 -159 65c-47.333 43.333 -71 97.333 -71 162h88c0 -43.333 15.667 -79 47 -107c24.667 -22.667 56.334 -36.667 95.001 -42v243
c-15.333 2.66699 -27.666 4.33398 -36.999 5.00098c-51.333 6 -93.333 25 -126 57s-49 73 -49 123c0 52 19.667 96.667 59 134c41.333 39.333 92.333 61.666 153 66.999v92h58v-93c58 -6 105.667 -27.333 143 -64c42 -41.333 64 -89.666 66 -144.999h-89
c-2 37.333 -14 67.333 -36 90c-22 23.333 -50 37.333 -84 42v-228l30 -4c56.667 -7.33301 102.167 -27.5 136.5 -60.5s51.5 -77.5 51.5 -133.5zM259.998 408v223.001c-40.667 -4.66699 -72.667 -19.334 -96 -44.001c-18.667 -20.667 -28 -46.667 -28 -78
c0 -28.667 8.66699 -51 26 -67s40.333 -26 69 -30zM447.998 202.001c0 31.333 -10.3311 56.666 -30.998 75.999s-48.334 31 -83.001 35l-16 2v-236c39.333 4 70.666 17.333 93.999 40c24 22.667 36 50.334 36 83.001z" />
    <glyph glyph-name="percent" unicode="%" horiz-adv-x="919" 
d="M854 178c0 -50 -10.333 -90.333 -31 -121c-32 -46.667 -76 -70 -132 -70s-100 23.333 -132 70c-20.667 30.667 -31 71 -31 121c0 50.667 10.333 91.334 31 122.001c32 46.667 76 70 132 70s100 -23.333 132 -70c20.667 -30.667 31 -71.334 31 -122.001zM746 685
l-516 -706l-54 41l515 704zM386 531c0 -50 -10.333 -90.333 -31 -121c-32 -46.667 -76 -70 -132 -70s-100 23.333 -132 70c-20.667 30.667 -31 71 -31 121c0 50.667 10.333 91.334 31 122.001c32 46.667 76 70 132 70s100 -23.333 132 -70
c20.667 -30.667 31 -71.334 31 -122.001zM777 178c0 47.333 -9.66699 81 -29 101c-14.667 16 -33.667 24 -57 24c-24 0 -43.333 -8 -58 -24c-19.333 -20 -29 -53.667 -29 -101c0 -46.667 9.66699 -80 29 -100c14.667 -16 34 -24 58 -24c23.333 0 42.333 8 57 24
c19.333 20 29 53.333 29 100zM309 531c0 47.333 -9.66699 81 -29 101c-14.667 16 -33.667 24 -57 24c-24 0 -43.333 -8 -58 -24c-19.333 -20 -29 -53.667 -29 -101c0 -46.667 9.66699 -80 29 -100c14.667 -16 34 -24 58 -24c23.333 0 42.333 8 57 24
c19.333 20 29 53.333 29 100z" />
    <glyph glyph-name="ampersand" unicode="&#x26;" horiz-adv-x="737" 
d="M675 332l-73.001 -0.00488281c0 -35.333 -4.33301 -71.5 -13 -108.5s-20.667 -66.5 -36 -88.5l121 -135h-108l-61 69c-48 -54.667 -115.333 -82 -202 -82c-62.667 0 -115.334 18.667 -158.001 56s-64 87 -64 149c0 36.667 8.83301 70.334 26.5 101.001s42.167 56 73.5 76
c12.667 8.66699 24.334 16 35.001 22c-20 22.667 -34.5 39.667 -43.5 51s-18 27.5 -27 48.5s-13.5 43.167 -13.5 66.5c0 48.667 16.833 88.334 50.5 119.001s76.5 46 128.5 46c53.333 0 96.833 -15.167 130.5 -45.5s50.5 -71.166 50.5 -122.499
c0 -68 -30.333 -120.333 -91 -157c-6 -3.33301 -14.5 -8.66602 -25.5 -15.999s-19.5 -12.666 -25.5 -15.999l147 -166c3.33301 6 6.33301 13.167 9 21.5s4.83398 16 6.50098 23s3.16699 16.333 4.5 28l3 26.5c0.666992 6 1.16699 16 1.5 30s0.5 22.833 0.5 26.5v27.5v23h153
v-73zM408.999 552.995c0 30 -8.83398 53.666 -26.501 70.999s-42.167 26 -73.5 26c-28 0 -50.667 -8.5 -68 -25.5s-26 -39.167 -26 -66.5c0 -10.667 1.33301 -21 4 -31s7.66699 -20.333 15 -31s13 -18.667 17 -24s12 -14.166 24 -26.499s19 -19.833 21 -22.5
c0.666992 0 6.66699 3.16699 18 9.5s17.666 10 18.999 11s6.83301 4.33301 16.5 10s15.334 9.66699 17.001 12s6 6.5 13 12.5s11.333 11.167 13 15.5s4.33398 9.83301 8.00098 16.5s6 13.5 7 20.5s1.5 14.5 1.5 22.5zM450.998 129.994l-182.999 204l-41 -26
c-40.667 -27.333 -61 -65.333 -61 -114c0 -37.333 12.667 -68 38 -92s56.666 -36 93.999 -36c68.667 0 119.667 21.333 153 64z" />
    <glyph glyph-name="quotesingle" unicode="'" horiz-adv-x="265" 
d="M180 586l-21 -153h-53l-21 153v123h95v-123z" />
    <glyph glyph-name="parenleft" unicode="(" horiz-adv-x="303" 
d="M288 -105l-53 -37.002c-53.333 60 -94.666 131.667 -123.999 215s-44 166.333 -44 249s14.667 165.667 44 249s70.666 155 123.999 215l53 -37c-98 -129.333 -147 -271.666 -147 -426.999s49 -297.666 147 -426.999z" />
    <glyph glyph-name="parenright" unicode=")" horiz-adv-x="303" 
d="M236 322c0 -82.667 -14.667 -165.665 -44 -248.998s-70.666 -155 -123.999 -215l-53 37c98 129.333 147 271.666 147 426.999s-49 297.666 -147 426.999l53 37c53.333 -60 94.666 -131.667 123.999 -215s44 -166.333 44 -249z" />
    <glyph glyph-name="asterisk" unicode="*" horiz-adv-x="533" 
d="M478 512l-159 -41l104 -129l-67 -48l-90 139l-89 -139l-67 50l104 127l-159 41l26 79l153 -60l-8 165h83l-10 -165l154 60z" />
    <glyph glyph-name="plus" unicode="+" horiz-adv-x="681" 
d="M616 268h-241v-263h-70v263h-240v69h240v247h70v-247h241v-69z" />
    <glyph glyph-name="comma" unicode="," horiz-adv-x="294" 
d="M209 -1c0 -38.667 -7.5 -70.832 -22.5 -96.499s-40.167 -45.834 -75.5 -60.501l-26 47c25.333 11.333 42.333 25 51 41s13 39 13 69h-62v117h122v-117z" />
    <glyph glyph-name="hyphen" unicode="-" horiz-adv-x="437" 
d="M367 262h-297v79h297v-79z" />
    <glyph glyph-name="period" unicode="." horiz-adv-x="294" 
d="M206 0h-118v119h118v-119z" />
    <glyph glyph-name="slash" unicode="/" horiz-adv-x="399" 
d="M393 722l-308 -735h-68l308 735h68z" />
    <glyph glyph-name="zero" unicode="0" 
d="M512 348c0 -74.667 -5.5 -135.334 -16.5 -182.001s-32.833 -86.667 -65.5 -120c-39.333 -39.333 -89.333 -59 -150 -59s-110.667 19.667 -150 59c-32.667 33.333 -54.5 73.333 -65.5 120s-16.5 107.334 -16.5 182.001s5.5 135.5 16.5 182.5s32.833 87.167 65.5 120.5
c38.667 38.667 88.667 58 150 58s111.333 -19.333 150 -58c32.667 -33.333 54.5 -73.5 65.5 -120.5s16.5 -107.833 16.5 -182.5zM423 348c0 34 -0.333008 58.5 -1 73.5s-2.5 36 -5.5 63s-8.66699 49.5 -17 67.5s-19.5 33.667 -33.5 47c-22.667 21.333 -51.334 32 -86.001 32
s-63.334 -10.667 -86.001 -32c-14 -13.333 -25.167 -29 -33.5 -47s-14 -40.5 -17 -67.5s-4.83301 -48 -5.5 -63s-1 -39.5 -1 -73.5s0.333008 -58.5 1 -73.5s2.5 -36 5.5 -63s8.66699 -49.5 17 -67.5s19.5 -33.667 33.5 -47c22.667 -21.333 51.334 -32 86.001 -32
s63.334 10.667 86.001 32c14 13.333 25.167 29 33.5 47s14 40.5 17 67.5s4.83301 48 5.5 63s1 39.5 1 73.5z" />
    <glyph glyph-name="one" unicode="1" 
d="M368 0h-87v598l-165 -121v95l170 123h82v-695z" />
    <glyph glyph-name="two" unicode="2" 
d="M489 0l-416.999 -0.000976562v73l281 347c25.333 32 38 65.333 38 100c0 35.333 -9.83301 62.833 -29.5 82.5s-47.834 29.5 -84.501 29.5c-34 0 -62.167 -10.167 -84.5 -30.5s-33.5 -52.166 -33.5 -95.499h-88c0 60.667 18.833 109.667 56.5 147s87.167 56 148.5 56
c75.333 0 132 -26.667 170 -80c21.333 -30.667 32 -66.667 32 -108c0 -50 -19.667 -99.333 -59 -148l-236 -293h306v-80z" />
    <glyph glyph-name="three" unicode="3" 
d="M494 190c0 -56 -17.666 -102.668 -52.999 -140.001c-40 -42 -96 -63 -168 -63c-64 0 -117 21 -159 63c-38.667 38.667 -58.334 88.334 -59.001 149.001h87c2 -41.333 14 -73.333 36 -96c24 -26 55.667 -39 95 -39c43.333 0 77 13.333 101 40c22 24 33 53.333 33 88
c0 41.333 -13 73.166 -39 95.499s-60.667 33.5 -104 33.5h-42v79h42c40 0 71.333 10.333 94 31s34 49.334 34 86.001c0 32.667 -11 59.667 -33 81c-22.667 22.667 -51 34 -85 34c-33.333 0 -61.666 -9.33301 -84.999 -28c-26.667 -22 -40.667 -54.667 -42 -98h-87
c0.666992 66 23 117 67 153c40.667 33.333 90.334 50 149.001 50c59.333 0 108.666 -18.667 147.999 -56c37.333 -34 56 -79.333 56 -136c0 -32.667 -9.83301 -64 -29.5 -94s-43.834 -51 -72.501 -63c36 -12 64.333 -34 85 -66s31 -66.667 31 -104z" />
    <glyph glyph-name="four" unicode="4" 
d="M529 148h-94v-148h-86v148h-319v89l264 458h90l-272 -470h237v207h86v-207h94v-77z" />
    <glyph glyph-name="five" unicode="5" 
d="M510 229c0 -75.333 -19.335 -134.333 -58.002 -177c-39.333 -44 -93.333 -66 -162 -66c-66 0 -119.667 20 -161 60c-39.333 38.667 -60.666 90 -63.999 154h85c2 -42 15 -75 39 -99c24.667 -24.667 58 -37 100 -37c44 0 77.667 15 101 45
c22.667 28.667 34 67.334 34 116.001c0 50 -13 89.667 -39 119c-24 26 -56 39 -96 39c-52 0 -90.333 -20.333 -115 -61h-95l19 373h384v-77h-311l-11 -222c28.667 42 77.334 63 146.001 63c58 0 105.333 -19 142 -57c41.333 -42.667 62 -100.334 62 -173.001z" />
    <glyph glyph-name="six" unicode="6" 
d="M515 224c0 -67.333 -20.999 -123.999 -62.999 -169.999c-41.333 -44.667 -96 -67 -164 -67c-72 0 -128.667 28.667 -170 86c-39.333 54 -59 142.333 -59 265c0 129.333 17.333 221.666 52 276.999c40 62.667 100.333 94 181 94c58 0 106 -19 144 -57
c35.333 -35.333 54 -77 56 -125h-86c-2 31.333 -15 57.333 -39 78c-21.333 18 -47.333 27 -78 27c-38.667 0 -70.334 -14 -95.001 -42c-31.333 -35.333 -47.666 -106.333 -48.999 -213c10.667 24 30.667 43.5 60 58.5s60.666 22.5 93.999 22.5c60 0 108.667 -18 146 -54
c46.667 -44.667 70 -104.667 70 -180zM429.001 223.001c0 48.667 -13.667 88.333 -41 119c-23.333 26.667 -56 40 -98 40c-40 0 -72.333 -14 -97 -42c-26 -29.333 -39 -68.333 -39 -117s13.667 -87.667 41 -117c26 -28 58.333 -42 97 -42c39.333 0 71.333 13.333 96 40
c27.333 29.333 41 69 41 119z" />
    <glyph glyph-name="seven" unicode="7" 
d="M496 618l-287 -618h-92l289 618h-356v77h446v-77z" />
    <glyph glyph-name="eight" unicode="8" 
d="M505 191c0 -49.333 -15.3311 -92 -45.998 -128c-42.667 -50.667 -102.334 -76 -179.001 -76s-136.334 25.333 -179.001 76c-30.667 36 -46 78.667 -46 128c0 37.333 10 71.5 30 102.5s46.333 53.833 79 68.5c-28.667 15.333 -51.667 37 -69 65s-26 58.667 -26 92
c0 53.333 19 98 57 134c40.667 37.333 92 56 154 56s113.333 -18.667 154 -56c38 -36 57 -80.667 57 -134c0 -33.333 -8.66699 -64 -26 -92s-40.333 -49.667 -69 -65c32.667 -14.667 59 -37.5 79 -68.5s30 -65.167 30 -102.5zM405.002 519c0 34.667 -12 62.5 -36 83.5
s-53.667 31.5 -89 31.5s-65 -10.5 -89 -31.5s-36 -48.833 -36 -83.5c0 -33.333 11.167 -61.666 33.5 -84.999s52.833 -35 91.5 -35s69.167 11.667 91.5 35s33.5 51.666 33.5 84.999zM419.002 195c0 38 -12.5 69.167 -37.5 93.5s-58.833 36.5 -101.5 36.5
s-76.5 -12.167 -101.5 -36.5s-37.5 -55.5 -37.5 -93.5c0 -40.667 12.833 -73 38.5 -97s59.167 -36 100.5 -36s74.833 12 100.5 36s38.5 56.333 38.5 97z" />
    <glyph glyph-name="nine" unicode="9" 
d="M505 358c0 -129.333 -17.335 -221.667 -52.002 -277c-40 -62.667 -100.333 -94 -181 -94c-59.333 0 -107.333 19 -144 57c-35.333 35.333 -54 77 -56 125h86c2 -31.333 15 -57.333 39 -78c20 -18 46 -27 78 -27c38.667 0 70.334 14 95.001 42
c31.333 35.333 47.666 106.333 48.999 213c-10.667 -24 -30.667 -43.5 -60 -58.5s-60.666 -22.5 -93.999 -22.5c-60 0 -108.667 18 -146 54c-46.667 44.667 -70 104.667 -70 180c0 67.333 21 124 63 170c41.333 44.667 96 67 164 67c70.667 0 127.334 -28.667 170.001 -86
c39.333 -54 59 -142.333 59 -265zM409.998 472.999c0 48.667 -13.667 87.668 -41 117.001c-26 28 -58.333 42 -97 42c-39.333 0 -71.333 -13.333 -96 -40c-27.333 -29.333 -41 -69 -41 -119c0 -48.667 13.667 -88.334 41 -119.001c23.333 -26.667 56 -40 98 -40
c40 0 72.333 14 97 42c26 29.333 39 68.333 39 117z" />
    <glyph glyph-name="colon" unicode=":" horiz-adv-x="304" 
d="M216 395h-110v111h110v-111zM216 -1h-110v110h110v-110z" />
    <glyph glyph-name="semicolon" unicode=";" horiz-adv-x="304" 
d="M216 394h-110v112h110v-112zM216 0c0 -38 -6.66797 -68.667 -20.001 -92s-36.666 -42 -69.999 -56l-23 44c24 10.667 40 23.667 48 39s12 37 12 65h-57v110h110v-110z" />
    <glyph glyph-name="less" unicode="&#x3c;" horiz-adv-x="472" 
d="M412 36l-48 -49l-319 318l318 317l49 -48l-269 -269z" />
    <glyph glyph-name="equal" unicode="=" horiz-adv-x="692" 
d="M587 344h-482v77h482v-77zM587 134h-482v77h482v-77z" />
    <glyph glyph-name="greater" unicode="&#x3e;" horiz-adv-x="472" 
d="M427 305l-319 -318l-48 49l269 269l-269 269l49 48z" />
    <glyph glyph-name="question" unicode="?" horiz-adv-x="504" 
d="M474 535c0 -70 -36 -131.332 -108 -183.999c-30 -22 -49.333 -42.167 -58 -60.5s-13 -43.833 -13 -76.5v-25h-82v28c0 50 7.83301 88 23.5 114s45.167 55.667 88.5 89c40.667 31.333 61 70 61 116c0 29.333 -10 54.666 -30 75.999c-22.667 24 -53.334 36 -92.001 36
c-42 0 -74.833 -13.667 -98.5 -41s-35.5 -61.333 -35.5 -102h-90c0 60.667 19.833 112.5 59.5 155.5s94.5 64.5 164.5 64.5c58.667 0 108.334 -17.333 149.001 -52s61 -80.667 61 -138zM306 0.000976562h-106v110h106v-110z" />
    <glyph glyph-name="at" unicode="@" horiz-adv-x="943" 
d="M875 380c0 -32 -3.83496 -63.167 -11.502 -93.5s-19.167 -59 -34.5 -86s-36.5 -48.667 -63.5 -65s-57.833 -24.5 -92.5 -24.5c-26 0 -48 6.5 -66 19.5s-28.667 31.833 -32 56.5c-10 -22 -26.333 -39.833 -49 -53.5s-46.334 -20.5 -71.001 -20.5
c-50 0 -88.667 17.667 -116 53s-41 81.333 -41 138c0 58.667 16.333 107.5 49 146.5s77.667 58.5 135 58.5c19.333 0 38 -4.83301 56 -14.5s31.333 -22.5 40 -38.5l11 42h67l-18 -253c-2.66699 -42 11 -63 41 -63c20.667 0 38.834 7 54.501 21s27.667 31.667 36 53
s14.5 42.5 18.5 63.5s6 40.833 6 59.5c0 78 -24 141 -72 189c-53.333 53.333 -126.666 80 -219.999 80c-90 0 -165.333 -27 -226 -81c-70.667 -62.667 -106 -149 -106 -259c0 -94 29.667 -171.667 89 -233c56 -57.333 128.333 -86 217 -86c93.333 0 177 16 251 48v-73
c-68.667 -33.333 -152.667 -50 -252 -50c-108.667 0 -197.667 32 -267 96c-82 76 -123 178.333 -123 307c0 120 38.667 217 116 291c79.333 76 179.333 114 300 114c116.667 0 210.334 -34.667 281.001 -104c62 -60.667 93 -140 93 -238zM567.998 325
c0 76.667 -30 115 -90 115c-32.667 0 -56.667 -13.667 -72 -41s-23 -59 -23 -95c0 -32.667 6.66699 -60.5 20 -83.5s35 -34.5 65 -34.5c36 0 61.667 13.333 77 40s23 59.667 23 99z" />
    <glyph glyph-name="A" unicode="A" horiz-adv-x="621" 
d="M613 0h-92l-58 168h-308l-57 -168h-90l250 709h104zM434 252l-126 368l-125 -368h251z" />
    <glyph glyph-name="B" unicode="B" horiz-adv-x="668" 
d="M618 198c0 -50.667 -18 -95 -54 -133c-40 -43.333 -99.333 -65 -178 -65h-286v709h283c76 0 133.667 -21.667 173 -65c30.667 -34 46 -73.333 46 -118c0 -35.333 -9 -67.5 -27 -96.5s-43 -49.167 -75 -60.5c36 -12 64.667 -34 86 -66s32 -67 32 -105zM511 519
c0 35.333 -12.333 62.667 -37 82s-55 29 -91 29h-196v-223h199c38.667 0 69.167 9.16699 91.5 27.5s33.5 46.5 33.5 84.5zM527 204.001c0 38 -13.332 68.333 -39.999 91s-59.667 34 -99 34h-201v-247h199c41.333 0 75.166 10.333 101.499 31s39.5 51 39.5 91z" />
    <glyph glyph-name="C" unicode="C" horiz-adv-x="634" 
d="M594 226c-2.66699 -64.667 -26.001 -119.331 -70.001 -163.998c-22.667 -22.667 -50.667 -41 -84 -55s-68.666 -21 -105.999 -21c-76 0 -140 25.333 -192 76c-35.333 34.667 -59 75.5 -71 122.5s-18 103.5 -18 169.5s6 122.5 18 169.5s35.667 87.833 71 122.5
c52 50.667 116 76 192 76c77.333 0 140.333 -24.333 189 -73c44 -44.667 67.333 -98.667 70 -162h-92c-0.666992 38 -13.667 71 -39 99c-31.333 34.667 -74 52 -128 52c-51.333 0 -94.333 -18 -129 -54c-18 -18.667 -31.667 -42.667 -41 -72s-14.833 -54.833 -16.5 -76.5
s-2.5 -48.834 -2.5 -81.501s0.833008 -59.834 2.5 -81.501s7.16699 -47.167 16.5 -76.5s23 -53.333 41 -72c34.667 -36 77.667 -54 129 -54c53.333 0 96.333 18 129 54c24.667 28 37.667 62 39 102h92z" />
    <glyph glyph-name="D" unicode="D" horiz-adv-x="677" 
d="M624 355c0 -131.333 -30.333 -226 -91 -284c-49.333 -47.333 -111.333 -71 -186 -71h-247v709h247c74 0 136 -24 186 -72c60.667 -57.333 91 -151.333 91 -282zM534 355c0 48.667 -3.83301 91.5 -11.5 128.5s-24.167 68.5 -49.5 94.5c-32.667 32.667 -74.667 49 -126 49
h-158v-545h158c51.333 0 93.333 16.333 126 49c40.667 41.333 61 116 61 224z" />
    <glyph glyph-name="E" unicode="E" horiz-adv-x="625" 
d="M574 0h-474v709h474v-82h-385v-216h338v-84h-338v-245h385v-82z" />
    <glyph glyph-name="F" unicode="F" horiz-adv-x="587" 
d="M559 627h-370v-231h330v-84h-330v-312h-89v709h459v-82z" />
    <glyph glyph-name="G" unicode="G" horiz-adv-x="680" 
d="M606 0l-61.999 -0.00195312l-15 85c-17.333 -29.333 -43.833 -53.166 -79.5 -71.499s-73.5 -27.5 -113.5 -27.5c-78 0 -141.667 24.333 -191 73c-34 33.333 -57.833 73.833 -71.5 121.5s-20.5 105.5 -20.5 173.5c0 64.667 6.5 120.834 19.5 168.501
s37.167 88.834 72.5 123.501c52 50.667 115.667 76 191 76c85.333 0 153 -26.667 203 -80c38 -40 58.333 -86 61 -138h-93c-2.66699 29.333 -13.334 55.333 -32.001 78c-31.333 37.333 -77.666 56 -138.999 56c-51.333 0 -94.333 -18 -129 -54
c-41.333 -42.667 -62 -119.334 -62 -230.001c0 -112 21.333 -189.667 64 -233c33.333 -34 75.666 -51 126.999 -51c53.333 0 96.333 16.333 129 49c40.667 40 61 100 61 180h-190v83h270v-382z" />
    <glyph glyph-name="H" unicode="H" horiz-adv-x="718" 
d="M618 0h-89v327h-340v-327h-89v709h89v-296h340v296h89v-709z" />
    <glyph glyph-name="I" unicode="I" horiz-adv-x="291" 
d="M191 0h-91v709h91v-709z" />
    <glyph glyph-name="J" unicode="J" horiz-adv-x="493" 
d="M413 198c0 -64.667 -17.5 -116 -52.5 -154s-84.167 -57 -147.5 -57c-60 0 -109.333 20 -148 60c-38 38.667 -57 94.667 -57 168h90c0 -54 12.333 -92.667 37 -116c20.667 -19.333 46.667 -29 78 -29c74 0 111 42.667 111 128v511h89v-511z" />
    <glyph glyph-name="K" unicode="K" horiz-adv-x="662" 
d="M649 0h-104l-212 368l-144 -168v-200h-89v709h89v-378l325 378h111l-231 -270z" />
    <glyph glyph-name="L" unicode="L" horiz-adv-x="544" 
d="M530 0h-430v709h89v-626h341v-83z" />
    <glyph glyph-name="M" unicode="M" horiz-adv-x="880" 
d="M780 0h-85v598l-220 -588h-70l-220 593v-603h-85v709h128l214 -577l213 577h125v-709z" />
    <glyph glyph-name="N" unicode="N" horiz-adv-x="734" 
d="M634 0h-100l-348 570v-570h-86v709h100l348 -572v572h86v-709z" />
    <glyph glyph-name="O" unicode="O" horiz-adv-x="670" 
d="M617 354c0 -65.333 -6.33301 -121.666 -19 -168.999s-36.667 -88.333 -72 -123c-52 -50.667 -115.667 -76 -191 -76s-139 25.333 -191 76c-35.333 34.667 -59.333 75.667 -72 123s-19 103.666 -19 168.999s6.33301 121.666 19 168.999s36.667 88.333 72 123
c52 50.667 115.667 76 191 76s139 -25.333 191 -76c35.333 -34.667 59.333 -75.667 72 -123s19 -103.666 19 -168.999zM525 354c0 32 -0.833008 59 -2.5 81s-7.33398 47.667 -17.001 77s-23.5 53.333 -41.5 72c-34 35.333 -77 53 -129 53s-95 -17.667 -129 -53
c-18 -18.667 -31.833 -42.667 -41.5 -72s-15.334 -55 -17.001 -77s-2.5 -49 -2.5 -81s0.833008 -59 2.5 -81s7.33398 -47.667 17.001 -77s23.5 -53.333 41.5 -72c34 -35.333 77 -53 129 -53s95 17.667 129 53c18 18.667 31.833 42.667 41.5 72s15.334 55 17.001 77
s2.5 49 2.5 81z" />
    <glyph glyph-name="P" unicode="P" horiz-adv-x="627" 
d="M597 495c0 -68 -19.667 -121.667 -59 -161s-97.333 -59 -174 -59h-175v-275h-89v709h263c80.667 0 140.667 -21.333 180 -64c36 -39.333 54 -89.333 54 -150zM505 495c0 44 -12.668 77.167 -38.001 99.5s-60.666 33.5 -105.999 33.5h-172v-272h173
c95.333 0 143 46.333 143 139z" />
    <glyph glyph-name="Q" unicode="Q" horiz-adv-x="670" 
d="M617 354c0 -64.667 -6.16797 -120.666 -18.501 -167.999s-36.166 -88.333 -71.499 -123l64 -83l-59 -46l-65 84c-41.333 -21.333 -85.333 -32 -132 -32c-75.333 0 -139 25.333 -191 76c-35.333 34.667 -59.333 75.667 -72 123s-19 103.666 -19 168.999
s6.33301 121.666 19 168.999s36.667 88.333 72 123c52 50.667 115.667 76 191 76s139 -25.333 191 -76c35.333 -34.667 59.333 -75.667 72 -123s19 -103.666 19 -168.999zM524.999 354.001c0 32 -0.832031 58.999 -2.49902 80.999s-7.33398 47.667 -17.001 77
s-23.5 53.333 -41.5 72c-34 35.333 -77 53 -129 53s-95 -17.667 -129 -53c-18 -18.667 -31.833 -42.667 -41.5 -72s-15.334 -55 -17.001 -77s-2.5 -49 -2.5 -81s0.833008 -59 2.5 -81s7.33398 -47.667 17.001 -77s23.5 -53.333 41.5 -72c34 -35.333 77 -53 129 -53
c26 0 52 5.66699 78 17l-84 108l58 45l85 -108c35.333 42.667 53 116.334 53 221.001z" />
    <glyph glyph-name="R" unicode="R" horiz-adv-x="662" 
d="M617 0h-98l-134 295h-196v-295h-89v709h278c79.333 0 139.333 -21 180 -63c37.333 -39.333 56 -87.333 56 -144c0 -55.333 -18 -102 -54 -140c-20.667 -22 -49 -38.667 -85 -50zM522 502c0 83.333 -48 125 -144 125h-189v-249h189c96 0 144 41.333 144 124z" />
    <glyph glyph-name="S" unicode="S" horiz-adv-x="635" 
d="M585 195c0 -52.667 -19.9961 -98.332 -59.9961 -136.999c-48 -47.333 -115 -71 -201 -71s-153.667 22.667 -203 68c-50.667 47.333 -76 104 -76 170h93c0 -42.667 16.667 -80 50 -112c30 -29.333 75.333 -44 136 -44c58.667 0 102.667 13.667 132 41
c24 22 36 49.667 36 83c0 29.333 -9.83301 54.166 -29.5 74.499s-49.5 33.5 -89.5 39.5l-112 17c-56.667 8.66699 -102.334 28.667 -137.001 60s-52 74 -52 128s20.667 100.667 62 140c50 46.667 112 70 186 70c75.333 0 136.666 -22.667 183.999 -68
c43.333 -41.333 66 -92 68 -152h-93c-2 34.667 -13.667 64.334 -35 89.001c-28.667 32.667 -70.334 49 -125.001 49c-55.333 0 -97.333 -16.333 -126 -49c-19.333 -22.667 -29 -48.334 -29 -77.001c0 -29.333 10.167 -52.333 30.5 -69s45.5 -27 75.5 -31
c3.33301 -0.666992 42.666 -6.66699 117.999 -18c60 -8.66699 107.833 -30.667 143.5 -66s53.5 -80.333 53.5 -135z" />
    <glyph glyph-name="T" unicode="T" horiz-adv-x="538" 
d="M525 626h-211v-626h-90v626h-211v83h512v-83z" />
    <glyph glyph-name="U" unicode="U" horiz-adv-x="678" 
d="M598 260c0 -87.333 -23 -154.666 -69 -201.999s-109.333 -71 -190 -71s-144 23.667 -190 71s-69 114.666 -69 201.999v449h89v-451c0 -125.333 56.667 -188 170 -188s170 62.667 170 188v451h89v-449z" />
    <glyph glyph-name="V" unicode="V" horiz-adv-x="579" 
d="M575 709l-239 -709h-93l-239 709h92l196 -599l192 599h91z" />
    <glyph glyph-name="W" unicode="W" horiz-adv-x="862" 
d="M830 709l-141 -709h-95l-162 571l-164 -571h-94l-142 709h83l113 -578l164 568h80l164 -567l113 577h81z" />
    <glyph glyph-name="X" unicode="X" horiz-adv-x="584" 
d="M569 0h-99l-180 291l-178 -291h-97l224 358l-220 351h99l178 -287l175 287h95l-221 -351z" />
    <glyph glyph-name="Y" unicode="Y" horiz-adv-x="566" 
d="M566 709l-238 -421v-288h-90v288l-238 421h100l186 -337l185 337h95z" />
    <glyph glyph-name="Z" unicode="Z" horiz-adv-x="612" 
d="M566 0h-523v89l413 537h-409v83h515v-90l-414 -536h418v-83z" />
    <glyph glyph-name="bracketleft" unicode="[" horiz-adv-x="311" 
d="M286 -114h-188v871h188v-62h-119v-747h119v-62z" />
    <glyph glyph-name="backslash" unicode="\" horiz-adv-x="400" 
d="M383 -13h-70l-308 735h70z" />
    <glyph glyph-name="bracketright" unicode="]" horiz-adv-x="311" 
d="M213 -114h-188v62h118v747h-118v62h188v-871z" />
    <glyph glyph-name="asciicircum" unicode="^" horiz-adv-x="542" 
d="M477 405h-89l-117 225l-118 -225h-88l168 317h76z" />
    <glyph glyph-name="underscore" unicode="_" horiz-adv-x="545" 
d="M520 -60h-495v60h495v-60z" />
    <glyph glyph-name="grave" unicode="`" horiz-adv-x="240" 
d="M226 598l-31 -47l-185 99l45 71z" />
    <glyph glyph-name="a" unicode="a" horiz-adv-x="559" 
d="M517 5c-16 -8 -34.666 -12.001 -55.999 -12.001c-22 0 -39.667 7.33301 -53 22s-20 33 -20 55h-2c-14.667 -25.333 -36.667 -45.5 -66 -60.5s-61.666 -22.5 -96.999 -22.5c-54.667 0 -97.334 15.5 -128.001 46.5s-46 67.5 -46 109.5c0 24 5 46.833 15 68.5
s29.167 41.334 57.5 59.001s64.166 27.834 107.499 30.501l154 9v37c0 35.333 -8.66699 61 -26 77c-18.667 17.333 -46.334 26 -83.001 26c-41.333 0 -72 -10 -92 -30c-16.667 -16.667 -25 -37 -25 -61h-83c0.666992 41.333 15.334 76.666 44.001 105.999
c34 36 86 54 156 54c90.667 0 150 -32.333 178 -97c10 -22.667 15 -48.667 15 -78v-245c0 -22.667 9.33301 -34 28 -34l22 3v-63zM383.001 213.999l-0.000976562 30.002l-136 -8c-30 -2 -56 -10.333 -78 -25s-33 -36.667 -33 -66c0 -24.667 8.16699 -45.334 24.5 -62.001
s41.5 -25 75.5 -25c42.667 0 77.334 13.667 104.001 41c28.667 29.333 43 67.666 43 114.999z" />
    <glyph glyph-name="b" unicode="b" horiz-adv-x="595" 
d="M541 252c0 -90 -24.333 -160 -73 -210c-35.333 -36.667 -83 -55 -143 -55c-30 0 -59.167 7 -87.5 21s-49.5 33.333 -63.5 58l-6 -66h-75v722h85v-275c12.667 22 33.167 39.5 61.5 52.5s56.833 19.5 85.5 19.5c56.667 0 103 -17 139 -51
c51.333 -49.333 77 -121.333 77 -216zM454 253c0 54.667 -11 100.669 -33 138.002s-58.667 56 -110 56c-30 0 -57.333 -11 -82 -33c-37.333 -32.667 -56 -86.334 -56 -161.001s18.667 -128.334 56 -161.001c24.667 -22 52 -33 82 -33c51.333 0 88 18.667 110 56
s33 83.333 33 138z" />
    <glyph glyph-name="c" unicode="c" horiz-adv-x="532" 
d="M486 170c-4 -50.667 -23.665 -93.334 -58.998 -128.001c-38 -36.667 -86.667 -55 -146 -55c-80 0 -141.667 31.667 -185 95c-28 41.333 -42 98.333 -42 171s14 129.667 42 171c43.333 63.333 104.666 95 183.999 95c58.667 0 106.667 -18 144 -54
c36 -35.333 56 -78.666 60 -129.999h-86c-4 32.667 -16 59 -36 79c-22 20.667 -49.333 31 -82 31c-33.333 0 -62.666 -11 -87.999 -33c-34 -28.667 -51 -81.667 -51 -159s17 -130.333 51 -159c25.333 -22 54.666 -33 87.999 -33c36 0 64.667 11.333 86 34
c19.333 20 30.666 45 33.999 75h86z" />
    <glyph glyph-name="d" unicode="d" horiz-adv-x="595" 
d="M502 0h-75l-6 66c-14 -24.667 -35.167 -44 -63.5 -58s-57.5 -21 -87.5 -21c-60 0 -107.667 18.333 -143 55c-48.667 50 -73 120 -73 210c0 94.667 25.667 166.667 77 216c36 34 82.333 51 139 51c28.667 0 57.167 -6.5 85.5 -19.5s48.833 -30.5 61.5 -52.5v275h85v-722z
M422 253c0 74.667 -18.667 128.332 -56 160.999c-24.667 22 -52 33 -82 33c-51.333 0 -88 -18.667 -110 -56s-33 -83.333 -33 -138s11 -100.667 33 -138s58.667 -56 110 -56c30 0 57.333 11 82 33c37.333 32.667 56 86.334 56 161.001z" />
    <glyph glyph-name="e" unicode="e" horiz-adv-x="551" 
d="M501 276l-0.999023 -51h-358c0 -52 16.333 -94.333 49 -127c24 -24 55 -36 93 -36c41.333 0 72.666 11 93.999 33c14 14 24 32.333 30 55h83c-7.33301 -52.667 -33.333 -94.334 -78 -125.001c-38 -25.333 -81 -38 -129 -38c-69.333 0 -125.333 25.333 -168 76
c-42 48.667 -63 111.334 -63 188.001c0 64.667 13 118.667 39 162c18.667 32 44.5 57.667 77.5 77s70.833 29 113.5 29c62.667 0 114 -21.667 154 -65c44 -48 65.333 -107.333 64 -178zM414.001 298c0 40.667 -10.334 75 -31.001 103c-23.333 30.667 -56.666 46 -99.999 46
s-77 -14.667 -101 -44s-36.667 -64.333 -38 -105h270z" />
    <glyph glyph-name="f" unicode="f" horiz-adv-x="366" 
d="M361 652c-48 5.33301 -75.998 8.00098 -83.998 8.00098c-22 0 -39.5 -6.33301 -52.5 -19s-19.5 -29.334 -19.5 -50.001v-85h146v-72h-146v-434h-85v434h-92v72h92v90c0 38.667 13.667 71 41 97s62.666 39 105.999 39c29.333 0 60.666 -3 93.999 -9v-71z" />
    <glyph glyph-name="g" unicode="g" horiz-adv-x="540" 
d="M525 -75c0 -39.333 -14.3369 -73.333 -43.0039 -102c-40 -39.333 -108 -59 -204 -59c-88.667 0 -152.667 19.667 -192 59c-24 24 -36 54 -36 90c0 50.667 24 88 72 112c-17.333 6.66699 -31.5 17.667 -42.5 33s-16.5 32.666 -16.5 51.999c0 44 22.333 76.667 67 98
c-38.667 34.667 -58 78.334 -58 131.001c0 48.667 16 89.667 48 123c36.667 38 86.667 57 150 57c44.667 0 83.334 -10 116.001 -30c8.66699 22.667 22.167 40.167 40.5 52.5s39.5 18.5 63.5 18.5c6 0 14.333 -0.666992 25 -2v-69c-3.33301 0.666992 -9.66602 1 -18.999 1
c-16.667 0 -30.5 -4.16699 -41.5 -12.5s-17.833 -19.5 -20.5 -33.5c22 -28 33 -63 33 -105c0 -46.667 -15.333 -87 -46 -121c-36.667 -40 -87 -60 -151 -60c-29.333 0 -57.666 4.66699 -84.999 14c-26.667 -8.66699 -41 -23.667 -43 -45
c-0.666992 -10.667 1.16602 -19.5 5.49902 -26.5s10.833 -12 19.5 -15s16.834 -5.16699 24.501 -6.5s16.5 -2 26.5 -2h100c76.667 0 132.334 -17.667 167.001 -53c26.667 -26.667 40 -59.667 40 -99zM383.996 339c0 32.667 -10.333 59.333 -31 80s-48.667 31 -84 31
c-34 0 -61.667 -10.5 -83 -31.5s-32 -47.5 -32 -79.5c0 -32.667 10.333 -59.667 31 -81s48.667 -32 84 -32c34 0 61.667 10.667 83 32s32 48.333 32 81zM441.996 -75.001c0 12.667 -2.00098 23.8311 -6.00098 33.498s-10.333 17.334 -19 23.001s-16.667 10.334 -24 14.001
s-18.166 6 -32.499 7s-25 1.66699 -32 2s-18.167 0.5 -33.5 0.5h-12h-92c-18 -6 -33.167 -16.167 -45.5 -30.5s-18.5 -30.833 -18.5 -49.5c0 -21.333 7 -39 21 -53c23.333 -23.333 68.333 -35 135 -35c68 0 114 12 138 36c14 14 21 31.333 21 52z" />
    <glyph glyph-name="h" unicode="h" horiz-adv-x="587" 
d="M502 0l-84.998 -0.000976562v321c0 80.667 -37 121 -111 121c-48.667 0 -85.334 -26 -110.001 -78c-12 -26 -18 -69 -18 -129v-235h-85v722h85v-283c14.667 25.333 35.667 45 63 59s55.666 21 84.999 21c56.667 0 100.167 -16.167 130.5 -48.5
s45.5 -78.166 45.5 -137.499v-333z" />
    <glyph glyph-name="i" unicode="i" horiz-adv-x="273" 
d="M186 622h-99v100h99v-100zM180 0h-87v506h87v-506z" />
    <glyph glyph-name="j" unicode="j" horiz-adv-x="283" 
d="M196 622h-99v100h99v-100zM190 -71c0 -45.333 -11.5 -80.5 -34.5 -105.5s-57.833 -37.5 -104.5 -37.5c-23.333 0 -45.333 3.33301 -66 10v73c17.333 -3.33301 38.333 -5 63 -5c18 0 32 6.16699 42 18.5s15 27.5 15 45.5v578h85v-577z" />
    <glyph glyph-name="k" unicode="k" horiz-adv-x="545" 
d="M529 0h-96l-158 244l-97 -108v-136h-85v722h85v-471l229 255h103l-180 -200z" />
    <glyph glyph-name="l" unicode="l" horiz-adv-x="291" 
d="M256 0c-12.667 -4 -32.667 -6 -60 -6c-70.667 0 -106 41.333 -106 124v604h85v-599c0 -18 3.5 -31.167 10.5 -39.5s18.833 -12.5 35.5 -12.5l35 1v-72z" />
    <glyph glyph-name="m" unicode="m" horiz-adv-x="878" 
d="M793 0l-85 -0.00390625v322c0 38.667 -7.66699 68.334 -23 89.001s-42 31 -80 31c-30 0 -55.667 -11.333 -77 -34c-28.667 -29.333 -43 -75.666 -43 -138.999v-269h-85v322c0 38.667 -7.5 68.334 -22.5 89.001s-41.5 31 -79.5 31c-34 0 -62.667 -15 -86 -45
c-22.667 -29.333 -34 -72 -34 -128v-269h-85v506h74l8 -72c12.667 27.333 32 48.333 58 63s54 22 84 22c78 0 128.333 -32 151 -96c13.333 30.667 34.333 54.334 63 71.001s59.667 25 93 25c56 0 98.167 -16.5 126.5 -49.5s42.5 -78.5 42.5 -136.5v-333z" />
    <glyph glyph-name="n" unicode="n" horiz-adv-x="585" 
d="M502 0l-84.999 -0.000976562v321c0 80.667 -37 121 -111 121c-48.667 0 -85.334 -26 -110.001 -78c-12 -26 -18 -69 -18 -129v-235h-85v506h74l7 -76c12.667 27.333 33.667 49 63 65s59.333 24 90 24c56.667 0 100 -16.167 130 -48.5s45 -78.166 45 -137.499v-333z" />
    <glyph glyph-name="o" unicode="o" horiz-adv-x="558" 
d="M504 253c0 -90.667 -24 -159.667 -72 -207c-40.667 -39.333 -91.667 -59 -153 -59s-112.333 19.667 -153 59c-48 47.333 -72 116.333 -72 207s24 159.667 72 207c40.667 39.333 91.667 59 153 59s112.333 -19.667 153 -59c48 -47.333 72 -116.333 72 -207zM417 253
c0 72.667 -15.667 125 -47 157c-24 24 -54.333 36 -91 36s-67 -12 -91 -36c-31.333 -32 -47 -84.333 -47 -157s15.667 -125 47 -157c24 -24 54.333 -36 91 -36s67 12 91 36c31.333 32 47 84.333 47 157z" />
    <glyph glyph-name="p" unicode="p" horiz-adv-x="595" 
d="M541 253c0 -94.667 -25.667 -166.667 -77 -216c-36 -34 -82.333 -51 -139 -51c-28.667 0 -57.167 6.5 -85.5 19.5s-48.833 30.5 -61.5 52.5v-275h-85v722h75l6 -66c14 24.667 35.167 44 63.5 58s57.5 21 87.5 21c60 0 107.667 -18.333 143 -55
c48.667 -50 73 -120 73 -210zM454 252c0 54.667 -11 100.669 -33 138.002s-58.667 56 -110 56c-30 0 -57.333 -11 -82 -33c-37.333 -32.667 -56 -86.334 -56 -161.001s18.667 -128.334 56 -161.001c24.667 -22 52 -33 82 -33c51.333 0 88 18.667 110 56s33 83.333 33 138z
" />
    <glyph glyph-name="q" unicode="q" horiz-adv-x="595" 
d="M502 -217h-85v275c-12.667 -22 -33.167 -39.5 -61.5 -52.5s-56.833 -19.5 -85.5 -19.5c-56.667 0 -103 17 -139 51c-51.333 49.333 -77 121.333 -77 216c0 90 24.333 160 73 210c35.333 36.667 83 55 143 55c30 0 59.167 -7 87.5 -21s49.5 -33.333 63.5 -58l6 66h75v-722
zM422 252c0 74.667 -18.667 128.332 -56 160.999c-24.667 22 -52 33 -82 33c-51.333 0 -88 -18.667 -110 -56s-33 -83.333 -33 -138s11 -100.667 33 -138s58.667 -56 110 -56c30 0 57.333 11 82 33c37.333 32.667 56 86.334 56 161.001z" />
    <glyph glyph-name="r" unicode="r" horiz-adv-x="384" 
d="M366 423c-13.333 2.66699 -28.998 4 -46.998 4c-36 0 -68 -13.333 -96 -40c-30.667 -29.333 -46 -83.333 -46 -162v-225h-84v506h75l7 -89c12.667 30 32.667 52.833 60 68.5s57.666 23.5 90.999 23.5c13.333 0 26.666 -1 39.999 -3v-83z" />
    <glyph glyph-name="s" unicode="s" horiz-adv-x="521" 
d="M468 147c0 -40.667 -13.333 -75.001 -40 -103.001c-37.333 -38 -92.333 -57 -165 -57c-70.667 0 -125.334 19 -164.001 57c-32.667 31.333 -49 70 -49 116h85c0.666992 -32.667 14.334 -59 41.001 -79c20.667 -15.333 51 -23 91 -23s71 9.33301 93 28
c16.667 13.333 25 31.666 25 54.999c0 40.667 -26.333 64.667 -79 72c-4 0.666992 -20.667 2.83398 -50 6.50098s-50.666 6.5 -63.999 8.5c-38.667 6 -69 20.667 -91 44s-33 54 -33 92s14 71 42 99c36 37.333 85.667 56 149 56c73.333 0 127 -21.333 161 -64
c24 -29.333 36 -61.666 36 -96.999h-85c-1.33301 26 -11 47 -29 63c-20 18 -47.667 27 -83 27c-23.333 0 -43 -3.33301 -59 -10c-34 -14 -51 -36.667 -51 -68c0 -37.333 22.667 -59.333 68 -66c6 -0.666992 16 -2 30 -4s28.833 -4 44.5 -6s31.5 -4.33301 47.5 -7
c37.333 -6 68.166 -21.667 92.499 -47s36.5 -56.333 36.5 -93z" />
    <glyph glyph-name="t" unicode="t" horiz-adv-x="385" 
d="M355 7c-36 -9.33301 -69.668 -14 -101.001 -14c-50 0 -85.667 13 -107 39s-32 58.667 -32 98v303h-98v73h98v129l85 20v-149h150v-73h-150v-293c0 -24 5.33301 -41.5 16 -52.5s28 -16.5 52 -16.5c10.667 0 23.334 0.833008 38.001 2.5s26.667 3.16699 36 4.5l13 2v-73z
" />
    <glyph glyph-name="u" unicode="u" horiz-adv-x="582" 
d="M489 0h-74.001l-7 77c-12.667 -28 -33 -49.833 -61 -65.5s-57.667 -23.5 -89 -23.5c-56.667 0 -99.667 16.167 -129 48.5s-44 78.166 -44 137.499v332h85v-320c0 -40 8.33301 -70.167 25 -90.5s44.334 -30.5 83.001 -30.5c32 0 60 12.667 84 38
c28 28.667 42 75.334 42 140.001v263h85v-506z" />
    <glyph glyph-name="v" unicode="v" horiz-adv-x="486" 
d="M474 506l-183 -506h-92l-187 506h89l146 -406l141 406h86z" />
    <glyph glyph-name="w" unicode="w" horiz-adv-x="767" 
d="M729 506l-131 -506h-82l-132 387l-135 -387h-81l-130 506h84l97 -382l129 376h73l127 -376l98 382h83z" />
    <glyph glyph-name="x" unicode="x" horiz-adv-x="498" 
d="M481 0h-102l-133 199l-132 -199h-97l172 258l-170 248h100l132 -191l127 191h98l-171 -248z" />
    <glyph glyph-name="y" unicode="y" horiz-adv-x="498" 
d="M488 506l-228 -610.001c-12.667 -35.333 -29.667 -62.166 -51 -80.499s-50 -27.5 -86 -27.5c-28 0 -53.667 3.33301 -77 10v74c18 -5.33301 38 -8 60 -8c38 0 63.333 17 76 51l32 85l-202 506h96l149 -399l142 399h89z" />
    <glyph glyph-name="z" unicode="z" horiz-adv-x="501" 
d="M453 0h-400v75l294 357h-294v74h397v-75l-293 -357h296v-74z" />
    <glyph glyph-name="braceleft" unicode="{" horiz-adv-x="349" 
d="M339 -119l-26.998 -0.000976562c-56.667 0 -96.834 14 -120.501 42s-35.5 70.667 -35.5 128v156c0 44.667 -33.667 70 -101 76v72c25.333 3.33301 48.5 11.5 69.5 24.5s31.5 30.833 31.5 53.5v154c0 60 11.167 103.5 33.5 130.5s63.166 40.5 122.499 40.5h26v-63h-26
c-34 0 -57 -8 -69 -24s-18 -42 -18 -78v-161c0 -60 -31.333 -96 -94 -108v-2c28 -6.66699 50.667 -19.167 68 -37.5s26 -41.166 26 -68.499v-161c0 -74 29.333 -111 88 -111h26v-63z" />
    <glyph glyph-name="bar" unicode="|" horiz-adv-x="269" 
d="M169 -119h-69v877h69v-877z" />
    <glyph glyph-name="braceright" unicode="}" horiz-adv-x="349" 
d="M294 283c-67.333 -6 -100.998 -31.332 -100.998 -75.999v-156c0 -57.333 -11.833 -100 -35.5 -128s-63.834 -42 -120.501 -42h-27v63h26c58.667 0 88 37 88 111v161c0 27.333 8.66699 50.166 26 68.499s40 30.833 68 37.5v2c-62.667 12 -94 48 -94 108v161
c0 36 -6 62 -18 78s-35 24 -69 24h-26v63h26c59.333 0 100.166 -13.5 122.499 -40.5s33.5 -70.5 33.5 -130.5v-154c0 -22.667 10.5 -40.5 31.5 -53.5s44.167 -21.167 69.5 -24.5v-72z" />
    <glyph glyph-name="asciitilde" unicode="~" horiz-adv-x="639" 
d="M564 311c-30 -30.667 -55.667 -51.334 -77 -62.001s-44.666 -16 -69.999 -16c-31.333 0 -70.333 11.333 -117 34c-36 17.333 -62.333 26 -79 26c-16 0 -31.167 -3 -45.5 -9s-31.5 -19.333 -51.5 -40l-49 56c29.333 30.667 54.666 51.334 75.999 62.001s45 16 71 16
c24 0 50.667 -5.66699 80 -17c8 -3.33301 20.5 -8.83301 37.5 -16.5s29.833 -13.167 38.5 -16.5c14 -5.33301 27 -8 39 -8c16.667 0 32 3 46 9s31 19 51 39z" />
    <glyph glyph-name="exclamdown" unicode="&#xa1;" horiz-adv-x="331" 
d="M201 396h-106v109h106v-109zM197 -204h-102v224l23 270h58l21 -270v-224z" />
    <glyph glyph-name="cent" unicode="&#xa2;" 
d="M496 271c-4 -52.667 -23.667 -96.3311 -59 -130.998c-30.667 -30.667 -70.667 -48.667 -120 -54v-86h-61v87c-62.667 7.33301 -112.667 38 -150 92c-28 41.333 -42 98.666 -42 171.999s13.667 130.333 41 171c37.333 54.667 87.666 85.667 150.999 93v94h61v-93
c45.333 -4.66699 84.333 -22.334 117 -53.001c36 -35.333 56 -79.666 60 -132.999h-86c-4 34.667 -16 62 -36 82c-14.667 14.667 -33 24 -55 28v-378c24.667 5.33301 44.334 15.666 59.001 30.999c18.667 20 30 46 34 78h86zM256 162.003v378
c-70 -15.333 -105 -78.333 -105 -189c0 -111.333 35 -174.333 105 -189z" />
    <glyph glyph-name="sterling" unicode="&#xa3;" 
d="M543 157c0 -104.667 -54.667 -157 -164 -157h-327v79c52.667 1.33301 79 28 79 80v172h-80v73h80v109c0 54 17.333 100.333 52 139s82 58 142 58c56 0 101.333 -17.167 136 -51.5s52 -77.166 52 -128.499h-85c0 31.333 -9.5 56.666 -28.5 75.999s-44.5 29 -76.5 29
c-36 0 -62.667 -11.167 -80 -33.5s-26 -51.833 -26 -88.5v-109h161v-73h-161v-176c0 -43.333 -14.333 -69 -43 -77v-2h208c50 0 75.667 27 77 81h84z" />
    <glyph glyph-name="currency" unicode="&#xa4;" 
d="M543 52l-64 -64l-70 78c-38.667 -27.333 -81.667 -41 -129 -41c-46 0 -89 13.667 -129 41l-69 -78l-65 64l79 68c-28 40 -42 84.667 -42 134s14 94 42 134l-79 65l66 66l67 -77c38.667 26.667 82 40 130 40s91 -13.333 129 -40l69 78l65 -67l-78 -65
c28 -40 42 -84.667 42 -134s-14 -94 -42 -134zM425 254c0 42.667 -13.167 78.334 -39.5 107.001s-61.5 43 -105.5 43c-47.333 0 -83.333 -13.833 -108 -41.5s-37 -63.834 -37 -108.501c0 -41.333 13 -76.833 39 -106.5s61.333 -44.5 106 -44.5
c45.333 0 80.833 14.167 106.5 42.5s38.5 64.5 38.5 108.5z" />
    <glyph glyph-name="yen" unicode="&#xa5;" 
d="M545 695l-179 -313h132v-61h-174v-91h174v-61h-174v-169h-89v169h-163v61h163v91h-163v61h121l-178 313h94l174 -309l170 309h92z" />
    <glyph glyph-name="brokenbar" unicode="&#xa6;" horiz-adv-x="276" 
d="M176 450h-76v309h76v-309zM176 -50h-76v308h76v-308z" />
    <glyph glyph-name="section" unicode="&#xa7;" horiz-adv-x="562" 
d="M502 163c0 -28 -8.33398 -53.833 -25.001 -77.5s-37 -42.834 -61 -57.501c27.333 -31.333 41 -67.666 41 -108.999c0 -46 -15.667 -84 -47 -114c-33.333 -32 -77 -48 -131 -48c-56 0 -101 18 -135 54c-30.667 32.667 -46 74.334 -46 125.001h83
c0 -32.667 8.66699 -58.667 26 -78s41.333 -29 72 -29c27.333 0 50 8 68 24s27 37.333 27 64c0 30.667 -14 58 -42 82l-202 171c-43.333 36 -65 81 -65 135c0 28 8.33301 53.833 25 77.5s37 42.834 61 57.501c-27.333 31.333 -41 67.666 -41 108.999
c0 44.667 15.667 82 47 112c34.667 33.333 78.334 50 131.001 50c56 0 101 -18 135 -54c30.667 -32.667 46 -74.334 46 -125.001h-83c0 32.667 -8.66699 58.667 -26 78s-41.333 29 -72 29c-27.333 0 -50 -8 -68 -24s-27 -37.333 -27 -64c0 -30.667 14 -58 42 -82l202 -171
c43.333 -36 65 -81 65 -135zM383.999 236l-184 158c-32 -16.667 -49.5 -42.334 -52.5 -77.001s8.83301 -63 35.5 -85l184 -158c32 16.667 49.5 42.334 52.5 77.001s-8.83301 63 -35.5 85z" />
    <glyph glyph-name="dieresis" unicode="&#xa8;" horiz-adv-x="290" 
d="M279 599h-92v92h92v-92zM103 599h-92v92h92v-92z" />
    <glyph glyph-name="copyright" unicode="&#xa9;" horiz-adv-x="858" 
d="M790 355c0 -103.333 -34.5 -190.5 -103.5 -261.5s-154.833 -106.5 -257.5 -106.5s-188.5 35.333 -257.5 106s-103.5 157.667 -103.5 261s34.5 190.5 103.5 261.5s154.833 106.5 257.5 106.5s188.5 -35.333 257.5 -106s103.5 -157.667 103.5 -261zM723 355
c0 88.667 -27.167 161.334 -81.5 218.001s-125.166 85 -212.499 85s-158.166 -28.5 -212.499 -85.5s-81.5 -129.833 -81.5 -218.5s27.167 -161.334 81.5 -218.001s125.166 -85 212.499 -85s158.166 28.5 212.499 85.5s81.5 129.833 81.5 218.5zM601 300
c-4 -42.667 -21.499 -77.3311 -52.499 -103.998s-68.833 -40 -113.5 -40c-60.667 0 -107.667 24 -141 72c-25.333 36 -38 78 -38 126c0 55.333 16.167 102.166 48.5 140.499s75.833 57.5 130.5 57.5c46 0 84.333 -13.5 115 -40.5s47.667 -61.5 51 -103.5h-76
c-3.33301 26 -13.166 45.667 -29.499 59s-36.5 20 -60.5 20c-30.667 0 -55.334 -11.667 -74.001 -35c-20 -24.667 -30 -57.334 -30 -98.001c0 -41.333 9.66699 -74 29 -98c18.667 -23.333 43.667 -35 75 -35c24 0 44.167 6.66699 60.5 20s26.166 33 29.499 59h76z" />
    <glyph glyph-name="ordfeminine" unicode="&#xaa;" horiz-adv-x="484" 
d="M420 315c-12.667 -6.66699 -27.334 -10.001 -44.001 -10.001s-30.167 5.33301 -40.5 16s-16.166 24 -17.499 40c-24.667 -40 -65 -60 -121 -60c-42 0 -74.833 11.833 -98.5 35.5s-35.5 51.834 -35.5 84.501c0 30 11.167 57.167 33.5 81.5s57.5 37.833 105.5 40.5l113 7
v26c0 28 -6 47.333 -18 58c-14 12.667 -34.667 19 -62 19c-30.667 0 -53.334 -7.33301 -68.001 -22c-12 -12 -18 -28 -18 -48h-67c0.666992 42 15.5 73.5 44.5 94.5s65.167 31.5 108.5 31.5c70.667 0 116.334 -25 137.001 -75c6.66699 -14.667 10 -34.667 10 -60v-186
c0 -16 6.66699 -24 20 -24l18 2v-51zM315 474.999l0.000976562 21l-100 -6c-22.667 -1.33301 -42 -7.5 -58 -18.5s-24 -27.167 -24 -48.5c0 -18 6 -33.167 18 -45.5s30.667 -18.5 56 -18.5c31.333 0 56.666 10 75.999 30c21.333 21.333 32 50 32 86z" />
    <glyph glyph-name="guillemotleft" unicode="&#xab;" horiz-adv-x="550" 
d="M495 108l-54 -40l-164 230l164 230l53 -38l-111 -191zM263 108l-54 -40l-164 230l164 230l53 -38l-111 -191z" />
    <glyph glyph-name="logicalnot" unicode="&#xac;" horiz-adv-x="625" 
d="M540 99h-78v165h-407v77h485v-242z" />
    <glyph glyph-name="registered" unicode="&#xae;" horiz-adv-x="858" 
d="M790 355c0 -103.333 -34.5 -190.5 -103.5 -261.5s-154.833 -106.5 -257.5 -106.5s-188.5 35.333 -257.5 106s-103.5 157.667 -103.5 261s34.5 190.5 103.5 261.5s154.833 106.5 257.5 106.5s188.5 -35.333 257.5 -106s103.5 -157.667 103.5 -261zM723 355
c0 88.667 -27.167 161.334 -81.5 218.001s-125.166 85 -212.499 85s-158.166 -28.5 -212.499 -85.5s-81.5 -129.833 -81.5 -218.5s27.167 -161.334 81.5 -218.001s125.166 -85 212.499 -85s158.166 28.5 212.499 85.5s81.5 129.833 81.5 218.5zM583 169l-73 -0.000976562
l-64 141h-75v-141h-67v383h141c38.667 0 71 -10.667 97 -32s39 -50.666 39 -87.999c0 -53.333 -23 -90.333 -69 -111zM511 431.999c0 18.667 -6.16797 33 -18.501 43s-28.166 15 -47.499 15h-75v-118h75c44 0 66 20 66 60z" />
    <glyph glyph-name="macron" unicode="&#xaf;" horiz-adv-x="296" 
d="M287 608h-278v68h278v-68z" />
    <glyph glyph-name="degree" unicode="&#xb0;" horiz-adv-x="461" 
d="M396 558c0 -47.333 -15.833 -86.5 -47.5 -117.5s-71.167 -46.5 -118.5 -46.5s-86.666 15.333 -117.999 46s-47 70 -47 118s15.667 87.333 47 118s70.666 46 117.999 46s86.833 -15.5 118.5 -46.5s47.5 -70.167 47.5 -117.5zM321 558c0 27.333 -8.66699 49.666 -26 66.999
s-39 26 -65 26s-47.5 -8.66699 -64.5 -26s-25.5 -39.666 -25.5 -66.999s8.5 -49.666 25.5 -66.999s38.5 -26 64.5 -26s47.667 8.66699 65 26s26 39.666 26 66.999z" />
    <glyph glyph-name="plusminus" unicode="&#xb1;" horiz-adv-x="569" 
d="M504 332h-184v-187h-70v187h-185v70h185v185h70v-185h184v-70zM504 0h-439v69h439v-69z" />
    <glyph glyph-name="twosuperior" unicode="&#xb2;" horiz-adv-x="412" 
d="M347 343h-274.002v63l155 130c26 21.333 39 43.666 39 66.999c0 10 -2.66699 18.333 -8 25c-10 16.667 -28.333 25 -55 25c-21.333 0 -37.666 -6.16699 -48.999 -18.5s-17.666 -29.5 -18.999 -51.5h-71c0.666992 40.667 14.167 73 40.5 97s59.833 36 100.5 36
c37.333 0 68.5 -10.5 93.5 -31.5s37.5 -49.5 37.5 -85.5c0 -18 -4 -34.833 -12 -50.5s-16.167 -27.667 -24.5 -36s-21.833 -20.166 -40.5 -35.499l-81 -68h168v-66z" />
    <glyph glyph-name="threesuperior" unicode="&#xb3;" horiz-adv-x="414" 
d="M349 447c0 -27.333 -8.33301 -50.333 -25 -69c-26 -28 -65 -42 -117 -42c-48.667 0 -86 15 -112 45c-20 23.333 -30 50 -30 80h69c0.666992 -21.333 7.66699 -38 21 -50s30.666 -18 51.999 -18c47.333 0 71 17.667 71 53c0 37.333 -22 56 -66 56h-28v57
c26 0 44 1.33301 54 4c21.333 6 32 22.333 32 49c0 14 -6 25.667 -18 35s-27 14 -45 14s-34 -5.16699 -48 -15.5s-21.333 -26.166 -22 -47.499h-69c0 33.333 11.667 61 35 83c26 24 61 36 105 36c49.333 0 86 -14.333 110 -43c16 -19.333 24 -41.333 24 -66
c0 -16.667 -5.33301 -32.834 -16 -48.501s-24 -25.5 -40 -29.5c18.667 -4.66699 33.834 -15.167 45.501 -31.5s17.5 -33.5 17.5 -51.5z" />
    <glyph glyph-name="acute" unicode="&#xb4;" horiz-adv-x="244" 
d="M230 650l-185 -99l-30 47l170 123z" />
    <glyph glyph-name="paragraph" unicode="&#xb6;" horiz-adv-x="657" 
d="M582 640h-69v-765h-73v765h-112v-765h-75v457c-52 0 -96.333 18.5 -133 55.5s-55 81.5 -55 133.5s18.333 96.333 55 133s81 55 133 55h329v-69z" />
    <glyph glyph-name="periodcentered" unicode="&#xb7;" horiz-adv-x="298" 
d="M208 247h-118v119h118v-119z" />
    <glyph glyph-name="cedilla" unicode="&#xb8;" horiz-adv-x="174" 
d="M165 -59l-69 -176l-88 41l79 135h78z" />
    <glyph glyph-name="onesuperior" unicode="&#xb9;" horiz-adv-x="310" 
d="M218 345h-71v281l-92 -63v79l97 67h66v-364z" />
    <glyph glyph-name="ordmasculine" unicode="&#xba;" horiz-adv-x="484" 
d="M413 505c0 -70 -18 -123.001 -54 -159.001c-30.667 -30.667 -69.667 -46 -117 -46c-46.667 0 -85.334 15.333 -116.001 46c-36.667 36.667 -55 89.667 -55 159c0 68.667 18.333 121.334 55 158.001c30.667 30.667 69.334 46 116.001 46c47.333 0 86.333 -15.333 117 -46
c36 -36 54 -88.667 54 -158zM343 504.999c0 55.333 -11.333 94.666 -34 117.999c-16 17.333 -38.333 26 -67 26c-28 0 -50 -8.66699 -66 -26c-22.667 -23.333 -34 -62.666 -34 -117.999c0 -56 11.333 -95.667 34 -119c16 -17.333 38 -26 66 -26c28.667 0 51 8.66699 67 26
c22.667 23.333 34 63 34 119z" />
    <glyph glyph-name="guillemotright" unicode="&#xbb;" horiz-adv-x="550" 
d="M505 298l-164 -230l-54 40l112 191l-111 191l53 38zM273 298l-164 -230l-54 40l112 191l-111 191l53 38z" />
    <glyph glyph-name="onequarter" unicode="&#xbc;" horiz-adv-x="860" 
d="M795 75h-59v-75h-69v75h-178v69l143 225h81l-148 -235h102v78h69v-78h59v-59zM710 685l-516 -706l-54 41l515 704zM247 345h-71v281l-92 -63v79l97 67h66v-364z" />
    <glyph glyph-name="onehalf" unicode="&#xbd;" horiz-adv-x="909" 
d="M804 -1l-273.999 0.000976562v63l155 130c26 21.333 39 43.666 39 66.999c0 7.33301 -2.66699 15.666 -8 24.999c-10.667 16.667 -29 25 -55 25c-21.333 0 -37.833 -6.33301 -49.5 -19s-17.834 -29.667 -18.501 -51h-71c0.666992 40.667 14 73 40 97s59.667 36 101 36
c37.333 0 68.5 -10.5 93.5 -31.5s37.5 -49.5 37.5 -85.5c0 -18 -4 -34.833 -12 -50.5s-16.167 -27.667 -24.5 -36s-21.833 -20.166 -40.5 -35.499l-81 -68h168v-66zM705.001 685.001l-516 -706l-54 41l515 704zM242.001 345.001h-71v281l-92 -63v79l97 67h66v-364z" />
    <glyph glyph-name="threequarters" unicode="&#xbe;" horiz-adv-x="902" 
d="M837 75h-59v-75h-69v75h-178v69l143 225h81l-148 -235h102v78h69v-78h59v-59zM752 685l-516 -706l-54 41l515 704zM349 447c0 -27.333 -8.33301 -50.333 -25 -69c-26 -28 -65 -42 -117 -42c-48.667 0 -86 15 -112 45c-20 23.333 -30 50 -30 80h69
c0.666992 -21.333 7.66699 -38 21 -50s30.666 -18 51.999 -18c47.333 0 71 17.667 71 53c0 37.333 -22 56 -66 56h-28v57c26 0 44 1.33301 54 4c21.333 6 32 22.333 32 49c0 14 -6 25.667 -18 35s-27 14 -45 14s-34 -5.16699 -48 -15.5s-21.333 -26.166 -22 -47.499h-69
c0 33.333 11.667 61 35 83c26 24 61 36 105 36c49.333 0 86 -14.333 110 -43c16 -19.333 24 -41.333 24 -66c0 -16.667 -5.33301 -32.834 -16 -48.501s-24 -25.5 -40 -29.5c18.667 -4.66699 33.834 -15.167 45.501 -31.5s17.5 -33.5 17.5 -51.5z" />
    <glyph glyph-name="questiondown" unicode="&#xbf;" horiz-adv-x="504" 
d="M304 397h-106v110h106v-110zM464 2c0 -60.667 -19.833 -112.501 -59.5 -155.501s-94.5 -64.5 -164.5 -64.5c-58.667 0 -108.334 17.333 -149.001 52s-61 80.667 -61 138c0 70 36 131.333 108 184c30 22 49.333 42 58 60s13 43.667 13 77v25h82v-28
c0 -50 -7.83301 -88 -23.5 -114s-45.167 -55.667 -88.5 -89c-40.667 -31.333 -61 -70 -61 -116c0 -29.333 10 -54.666 30 -75.999c22.667 -24 53.334 -36 92.001 -36c42 0 74.833 13.667 98.5 41s35.5 61.333 35.5 102h90z" />
    <glyph glyph-name="Agrave" unicode="&#xc0;" horiz-adv-x="621" 
d="M613 0h-92l-58 168h-308l-57 -168h-90l250 709h104zM434 252l-126 368l-125 -368h251zM407 802l-31 -47l-185 99l45 71z" />
    <glyph glyph-name="Aacute" unicode="&#xc1;" horiz-adv-x="621" 
d="M613 0h-92l-58 168h-308l-57 -168h-90l250 709h104zM434 252l-126 368l-125 -368h251zM407 853l-185 -99l-30 47l170 123z" />
    <glyph glyph-name="Acircumflex" unicode="&#xc2;" horiz-adv-x="621" 
d="M613 0h-92l-58 168h-308l-57 -168h-90l250 709h104zM434 252l-126 368l-125 -368h251zM457 798l-45 -45l-108 115l-107 -115l-45 45l125 131h55z" />
    <glyph glyph-name="Atilde" unicode="&#xc3;" horiz-adv-x="621" 
d="M613 0h-92l-58 168h-308l-57 -168h-90l250 709h104zM434 252l-126 368l-125 -368h251zM466 835c-28 -36 -61.667 -54 -101 -54c-22.667 0 -46.667 7 -72 21s-45 21 -59 21c-22.667 0 -43.334 -9.33301 -62.001 -28l-39 42c32 36 66 54 102 54
c19.333 0 42.333 -7.33301 69 -22s47.334 -22 62.001 -22c24.667 0 45.667 10 63 30z" />
    <glyph glyph-name="Adieresis" unicode="&#xc4;" horiz-adv-x="621" 
d="M613 0h-92l-58 168h-308l-57 -168h-90l250 709h104zM434 252l-126 368l-125 -368h251zM442 789h-92v92h92v-92zM266 789h-92v92h92v-92z" />
    <glyph glyph-name="Aring" unicode="&#xc5;" horiz-adv-x="621" 
d="M613 0l-92 -0.000976562l-58 168h-308l-57 -168h-90l236 669c-37.333 22 -56 55.667 -56 101c0 32 11 59.667 33 83s51.333 35 88 35s66.167 -11.667 88.5 -35s33.5 -51 33.5 -83c0 -43.333 -18.333 -76.666 -55 -99.999zM369 769.999c0 17.333 -5.5 32 -16.5 44
s-25.5 18 -43.5 18s-32.5 -6 -43.5 -18s-16.5 -26.667 -16.5 -44s5.5 -31.833 16.5 -43.5s25.5 -17.5 43.5 -17.5s32.5 5.83301 43.5 17.5s16.5 26.167 16.5 43.5zM434 251.999l-126 368l-125 -368h251z" />
    <glyph glyph-name="AE" unicode="&#xc6;" horiz-adv-x="914" 
d="M863 0h-428v189h-254l-83 -189h-98l320 709h543v-83h-338v-205h289v-84h-289v-253h338v-84zM435 273v356h-60l-157 -356h217z" />
    <glyph glyph-name="Ccedilla" unicode="&#xc7;" horiz-adv-x="634" 
d="M594 226c-2.66699 -64.667 -26.001 -119.331 -70.001 -163.998c-22.667 -22.667 -50.667 -41 -84 -55s-68.666 -21 -105.999 -21c-76 0 -140 25.333 -192 76c-35.333 34.667 -59 75.5 -71 122.5s-18 103.5 -18 169.5s6 122.5 18 169.5s35.667 87.833 71 122.5
c52 50.667 116 76 192 76c77.333 0 140.333 -24.333 189 -73c44 -44.667 67.333 -98.667 70 -162h-92c-0.666992 38 -13.667 71 -39 99c-31.333 34.667 -74 52 -128 52c-51.333 0 -94.333 -18 -129 -54c-18 -18.667 -31.667 -42.667 -41 -72s-14.833 -54.833 -16.5 -76.5
s-2.5 -48.834 -2.5 -81.501s0.833008 -59.834 2.5 -81.501s7.16699 -47.167 16.5 -76.5s23 -53.333 41 -72c34.667 -36 77.667 -54 129 -54c53.333 0 96.333 18 129 54c24.667 28 37.667 62 39 102h92zM390.999 -47.9971l-69 -176l-88 41l79 135h78z" />
    <glyph glyph-name="Egrave" unicode="&#xc8;" horiz-adv-x="625" 
d="M574 0h-474v709h474v-82h-385v-216h338v-84h-338v-245h385v-82zM441 807l-31 -47l-185 99l45 71z" />
    <glyph glyph-name="Eacute" unicode="&#xc9;" horiz-adv-x="625" 
d="M574 0h-474v709h474v-82h-385v-216h338v-84h-338v-245h385v-82zM446 853l-185 -99l-30 47l170 123z" />
    <glyph glyph-name="Ecircumflex" unicode="&#xca;" horiz-adv-x="625" 
d="M574 0h-474v709h474v-82h-385v-216h338v-84h-338v-245h385v-82zM489 803l-45 -45l-108 115l-107 -115l-45 45l125 131h55z" />
    <glyph glyph-name="Edieresis" unicode="&#xcb;" horiz-adv-x="625" 
d="M574 0h-474v709h474v-82h-385v-216h338v-84h-338v-245h385v-82zM477 789h-92v92h92v-92zM301 789h-92v92h92v-92z" />
    <glyph glyph-name="Igrave" unicode="&#xcc;" horiz-adv-x="291" 
d="M191 0h-91v709h91v-709zM252 802l-31 -47l-185 99l45 71z" />
    <glyph glyph-name="Iacute" unicode="&#xcd;" horiz-adv-x="291" 
d="M191 0h-91v709h91v-709zM256 853l-185 -99l-30 47l170 123z" />
    <glyph glyph-name="Icircumflex" unicode="&#xce;" horiz-adv-x="291" 
d="M191 0h-91v709h91v-709zM298 798l-45 -45l-108 115l-107 -115l-45 45l125 131h55z" />
    <glyph glyph-name="Idieresis" unicode="&#xcf;" horiz-adv-x="291" 
d="M191 0h-91v709h91v-709zM280 789h-92v92h92v-92zM104 789h-92v92h92v-92z" />
    <glyph glyph-name="Eth" unicode="&#xd0;" horiz-adv-x="690" 
d="M637 355c0 -131.333 -30.333 -226 -91 -284c-49.333 -47.333 -111.333 -71 -186 -71h-247v335h-73v66h73v308h247c74 0 136 -24 186 -72c60.667 -57.333 91 -151.333 91 -282zM547 355c0 48.667 -3.83301 91.5 -11.5 128.5s-24.167 68.5 -49.5 94.5
c-32.667 32.667 -74.667 49 -126 49h-158v-226h146v-66h-146v-253h158c51.333 0 93.333 16.333 126 49c40.667 41.333 61 116 61 224z" />
    <glyph glyph-name="Ntilde" unicode="&#xd1;" horiz-adv-x="734" 
d="M634 0h-100l-348 570v-570h-86v709h100l348 -572v572h86v-709zM526 827c-28 -36 -61.667 -54 -101 -54c-22.667 0 -46.667 7 -72 21s-45 21 -59 21c-22.667 0 -43.334 -9.33301 -62.001 -28l-39 42c32 36 66 54 102 54c19.333 0 42.333 -7.33301 69 -22
s47.334 -22 62.001 -22c24.667 0 45.667 10 63 30z" />
    <glyph glyph-name="Ograve" unicode="&#xd2;" horiz-adv-x="670" 
d="M617 354c0 -65.333 -6.33301 -121.666 -19 -168.999s-36.667 -88.333 -72 -123c-52 -50.667 -115.667 -76 -191 -76s-139 25.333 -191 76c-35.333 34.667 -59.333 75.667 -72 123s-19 103.666 -19 168.999s6.33301 121.666 19 168.999s36.667 88.333 72 123
c52 50.667 115.667 76 191 76s139 -25.333 191 -76c35.333 -34.667 59.333 -75.667 72 -123s19 -103.666 19 -168.999zM525 354c0 32 -0.833008 59 -2.5 81s-7.33398 47.667 -17.001 77s-23.5 53.333 -41.5 72c-34 35.333 -77 53 -129 53s-95 -17.667 -129 -53
c-18 -18.667 -31.833 -42.667 -41.5 -72s-15.334 -55 -17.001 -77s-2.5 -49 -2.5 -81s0.833008 -59 2.5 -81s7.33398 -47.667 17.001 -77s23.5 -53.333 41.5 -72c34 -35.333 77 -53 129 -53s95 17.667 129 53c18 18.667 31.833 42.667 41.5 72s15.334 55 17.001 77
s2.5 49 2.5 81zM441 807l-31 -47l-185 99l45 71z" />
    <glyph glyph-name="Oacute" unicode="&#xd3;" horiz-adv-x="670" 
d="M617 354c0 -65.333 -6.33301 -121.666 -19 -168.999s-36.667 -88.333 -72 -123c-52 -50.667 -115.667 -76 -191 -76s-139 25.333 -191 76c-35.333 34.667 -59.333 75.667 -72 123s-19 103.666 -19 168.999s6.33301 121.666 19 168.999s36.667 88.333 72 123
c52 50.667 115.667 76 191 76s139 -25.333 191 -76c35.333 -34.667 59.333 -75.667 72 -123s19 -103.666 19 -168.999zM525 354c0 32 -0.833008 59 -2.5 81s-7.33398 47.667 -17.001 77s-23.5 53.333 -41.5 72c-34 35.333 -77 53 -129 53s-95 -17.667 -129 -53
c-18 -18.667 -31.833 -42.667 -41.5 -72s-15.334 -55 -17.001 -77s-2.5 -49 -2.5 -81s0.833008 -59 2.5 -81s7.33398 -47.667 17.001 -77s23.5 -53.333 41.5 -72c34 -35.333 77 -53 129 -53s95 17.667 129 53c18 18.667 31.833 42.667 41.5 72s15.334 55 17.001 77
s2.5 49 2.5 81zM442 858l-185 -99l-30 47l170 123z" />
    <glyph glyph-name="Ocircumflex" unicode="&#xd4;" horiz-adv-x="670" 
d="M617 354c0 -65.333 -6.33301 -121.666 -19 -168.999s-36.667 -88.333 -72 -123c-52 -50.667 -115.667 -76 -191 -76s-139 25.333 -191 76c-35.333 34.667 -59.333 75.667 -72 123s-19 103.666 -19 168.999s6.33301 121.666 19 168.999s36.667 88.333 72 123
c52 50.667 115.667 76 191 76s139 -25.333 191 -76c35.333 -34.667 59.333 -75.667 72 -123s19 -103.666 19 -168.999zM525 354c0 32 -0.833008 59 -2.5 81s-7.33398 47.667 -17.001 77s-23.5 53.333 -41.5 72c-34 35.333 -77 53 -129 53s-95 -17.667 -129 -53
c-18 -18.667 -31.833 -42.667 -41.5 -72s-15.334 -55 -17.001 -77s-2.5 -49 -2.5 -81s0.833008 -59 2.5 -81s7.33398 -47.667 17.001 -77s23.5 -53.333 41.5 -72c34 -35.333 77 -53 129 -53s95 17.667 129 53c18 18.667 31.833 42.667 41.5 72s15.334 55 17.001 77
s2.5 49 2.5 81zM492 798l-45 -45l-108 115l-107 -115l-45 45l125 131h55z" />
    <glyph glyph-name="Otilde" unicode="&#xd5;" horiz-adv-x="670" 
d="M617 354c0 -65.333 -6.33301 -121.666 -19 -168.999s-36.667 -88.333 -72 -123c-52 -50.667 -115.667 -76 -191 -76s-139 25.333 -191 76c-35.333 34.667 -59.333 75.667 -72 123s-19 103.666 -19 168.999s6.33301 121.666 19 168.999s36.667 88.333 72 123
c52 50.667 115.667 76 191 76s139 -25.333 191 -76c35.333 -34.667 59.333 -75.667 72 -123s19 -103.666 19 -168.999zM525 354c0 32 -0.833008 59 -2.5 81s-7.33398 47.667 -17.001 77s-23.5 53.333 -41.5 72c-34 35.333 -77 53 -129 53s-95 -17.667 -129 -53
c-18 -18.667 -31.833 -42.667 -41.5 -72s-15.334 -55 -17.001 -77s-2.5 -49 -2.5 -81s0.833008 -59 2.5 -81s7.33398 -47.667 17.001 -77s23.5 -53.333 41.5 -72c34 -35.333 77 -53 129 -53s95 17.667 129 53c18 18.667 31.833 42.667 41.5 72s15.334 55 17.001 77
s2.5 49 2.5 81zM502 834c-28 -36 -61.667 -54 -101 -54c-22.667 0 -46.667 7 -72 21s-45 21 -59 21c-22.667 0 -43.334 -9.33301 -62.001 -28l-39 42c32 36 66 54 102 54c19.333 0 42.333 -7.33301 69 -22s47.334 -22 62.001 -22c24.667 0 45.667 10 63 30z" />
    <glyph glyph-name="Odieresis" unicode="&#xd6;" horiz-adv-x="670" 
d="M617 354c0 -65.333 -6.33301 -121.666 -19 -168.999s-36.667 -88.333 -72 -123c-52 -50.667 -115.667 -76 -191 -76s-139 25.333 -191 76c-35.333 34.667 -59.333 75.667 -72 123s-19 103.666 -19 168.999s6.33301 121.666 19 168.999s36.667 88.333 72 123
c52 50.667 115.667 76 191 76s139 -25.333 191 -76c35.333 -34.667 59.333 -75.667 72 -123s19 -103.666 19 -168.999zM525 354c0 32 -0.833008 59 -2.5 81s-7.33398 47.667 -17.001 77s-23.5 53.333 -41.5 72c-34 35.333 -77 53 -129 53s-95 -17.667 -129 -53
c-18 -18.667 -31.833 -42.667 -41.5 -72s-15.334 -55 -17.001 -77s-2.5 -49 -2.5 -81s0.833008 -59 2.5 -81s7.33398 -47.667 17.001 -77s23.5 -53.333 41.5 -72c34 -35.333 77 -53 129 -53s95 17.667 129 53c18 18.667 31.833 42.667 41.5 72s15.334 55 17.001 77
s2.5 49 2.5 81zM472 791h-92v92h92v-92zM296 791h-92v92h92v-92z" />
    <glyph glyph-name="multiply" unicode="&#xd7;" horiz-adv-x="682" 
d="M617 76l-54 -54l-222 222l-222 -222l-54 54l222 222l-222 222l54 54l221 -222l223 222l54 -54l-223 -222z" />
    <glyph glyph-name="Oslash" unicode="&#xd8;" horiz-adv-x="670" 
d="M617 354c0 -65.333 -6.33301 -121.664 -19 -168.997s-36.667 -88.333 -72 -123c-52 -50.667 -115.667 -76 -191 -76c-46 0 -88.333 10 -127 30l-39 -85l-56 26l43 94c-1.33301 1.33301 -3.33301 3.16602 -6 5.49902s-4.66699 4.16602 -6 5.49902
c-35.333 34.667 -59.333 75.667 -72 123s-19 103.666 -19 168.999s6.33301 121.666 19 168.999s36.667 88.333 72 123c52 50.667 115.667 76 191 76c42 0 80.667 -8.33301 116 -25l32 71l55 -25l-35 -77c8 -6 15.667 -12.667 23 -20c35.333 -34.667 59.333 -75.667 72 -123
s19 -103.666 19 -168.999zM525 354.002c0 32 -0.833008 58.833 -2.5 80.5s-7.33398 47.167 -17.001 76.5s-23.167 53.333 -40.5 72l-221 -488c26.667 -16 57 -24 91 -24c52 0 95 17.667 129 53c18 18.667 31.833 42.667 41.5 72s15.334 55 17.001 77s2.5 49 2.5 81z
M415 619.002c-24.667 12 -51.332 18 -79.999 18c-52 0 -95 -17.667 -129 -53c-18 -18.667 -31.833 -42.667 -41.5 -72s-15.334 -55 -17.001 -77s-2.5 -49 -2.5 -81c0 -102 16.667 -174.333 50 -217z" />
    <glyph glyph-name="Ugrave" unicode="&#xd9;" horiz-adv-x="678" 
d="M598 260c0 -87.333 -23 -154.666 -69 -201.999s-109.333 -71 -190 -71s-144 23.667 -190 71s-69 114.666 -69 201.999v449h89v-451c0 -125.333 56.667 -188 170 -188s170 62.667 170 188v451h89v-449zM433 802l-31 -47l-185 99l45 71z" />
    <glyph glyph-name="Uacute" unicode="&#xda;" horiz-adv-x="678" 
d="M598 260c0 -87.333 -23 -154.666 -69 -201.999s-109.333 -71 -190 -71s-144 23.667 -190 71s-69 114.666 -69 201.999v449h89v-451c0 -125.333 56.667 -188 170 -188s170 62.667 170 188v451h89v-449zM454 853l-185 -99l-30 47l170 123z" />
    <glyph glyph-name="Ucircumflex" unicode="&#xdb;" horiz-adv-x="678" 
d="M598 260c0 -87.333 -23 -154.666 -69 -201.999s-109.333 -71 -190 -71s-144 23.667 -190 71s-69 114.666 -69 201.999v449h89v-451c0 -125.333 56.667 -188 170 -188s170 62.667 170 188v451h89v-449zM502 798l-45 -45l-108 115l-107 -115l-45 45l125 131h55z" />
    <glyph glyph-name="Udieresis" unicode="&#xdc;" horiz-adv-x="678" 
d="M598 260c0 -87.333 -23 -154.666 -69 -201.999s-109.333 -71 -190 -71s-144 23.667 -190 71s-69 114.666 -69 201.999v449h89v-451c0 -125.333 56.667 -188 170 -188s170 62.667 170 188v451h89v-449zM484 790h-92v92h92v-92zM308 790h-92v92h92v-92z" />
    <glyph glyph-name="Yacute" unicode="&#xdd;" horiz-adv-x="566" 
d="M397 847l-186 -98l-29 48l170 123zM566 709l-238 -421v-288h-90v288l-238 421h100l186 -337l185 337h95z" />
    <glyph glyph-name="Thorn" unicode="&#xde;" horiz-adv-x="607" 
d="M577 363c0 -68 -19.667 -121.667 -59 -161s-97 -59 -173 -59h-155v-143h-90v710h90v-133h154c80 0 139.667 -21.333 179 -64c36 -39.333 54 -89.333 54 -150zM485 363c0 88.667 -47.667 133 -143 133h-152v-272h153c50.667 0 87 11.333 109 34s33 57.667 33 105z" />
    <glyph glyph-name="germandbls" unicode="&#xdf;" horiz-adv-x="608" 
d="M563 208c0 -66 -20.668 -118.167 -62.001 -156.5s-94.666 -57.5 -159.999 -57.5c-32 0 -60 2.66699 -84 8v71c18.667 -3.33301 41 -5 67 -5c45.333 0 81.833 11.667 109.5 35s41.5 58.333 41.5 105c0 50.667 -14.5 87.667 -43.5 111s-67.833 35 -116.5 35h-28v74h28
c31.333 0 58 11.5 80 34.5s33 51.5 33 85.5s-9.83301 61.167 -29.5 81.5s-47.5 30.5 -83.5 30.5c-41.333 0 -71.5 -14.167 -90.5 -42.5s-28.5 -66.5 -28.5 -114.5v-503h-86v430h-85v76h86c0 70.667 18 126 54 166s86 60 150 60c60.667 0 109.167 -17 145.5 -51
s54.5 -78.333 54.5 -133c0 -36.667 -10 -69.167 -30 -97.5s-46.333 -46.833 -79 -55.5c46.667 -6 84.5 -26.833 113.5 -62.5s43.5 -77.167 43.5 -124.5z" />
    <glyph glyph-name="agrave" unicode="&#xe0;" horiz-adv-x="559" 
d="M517 5c-16 -8 -34.666 -12.001 -55.999 -12.001c-22 0 -39.667 7.33301 -53 22s-20 33 -20 55h-2c-14.667 -25.333 -36.667 -45.5 -66 -60.5s-61.666 -22.5 -96.999 -22.5c-54.667 0 -97.334 15.5 -128.001 46.5s-46 67.5 -46 109.5c0 24 5 46.833 15 68.5
s29.167 41.334 57.5 59.001s64.166 27.834 107.499 30.501l154 9v37c0 35.333 -8.66699 61 -26 77c-18.667 17.333 -46.334 26 -83.001 26c-41.333 0 -72 -10 -92 -30c-16.667 -16.667 -25 -37 -25 -61h-83c0.666992 41.333 15.334 76.666 44.001 105.999
c34 36 86 54 156 54c90.667 0 150 -32.333 178 -97c10 -22.667 15 -48.667 15 -78v-245c0 -22.667 9.33301 -34 28 -34l22 3v-63zM383.001 213.999l-0.000976562 30.002l-136 -8c-30 -2 -56 -10.333 -78 -25s-33 -36.667 -33 -66c0 -24.667 8.16699 -45.334 24.5 -62.001
s41.5 -25 75.5 -25c42.667 0 77.334 13.667 104.001 41c28.667 29.333 43 67.666 43 114.999zM170 654.001l185 -100l30 47l-170 124z" />
    <glyph glyph-name="aacute" unicode="&#xe1;" horiz-adv-x="559" 
d="M517 5c-16 -8 -34.666 -12.001 -55.999 -12.001c-22 0 -39.667 7.33301 -53 22s-20 33 -20 55h-2c-14.667 -25.333 -36.667 -45.5 -66 -60.5s-61.666 -22.5 -96.999 -22.5c-54.667 0 -97.334 15.5 -128.001 46.5s-46 67.5 -46 109.5c0 24 5 46.833 15 68.5
s29.167 41.334 57.5 59.001s64.166 27.834 107.499 30.501l154 9v37c0 35.333 -8.66699 61 -26 77c-18.667 17.333 -46.334 26 -83.001 26c-41.333 0 -72 -10 -92 -30c-16.667 -16.667 -25 -37 -25 -61h-83c0.666992 41.333 15.334 76.666 44.001 105.999
c34 36 86 54 156 54c90.667 0 150 -32.333 178 -97c10 -22.667 15 -48.667 15 -78v-245c0 -22.667 9.33301 -34 28 -34l22 3v-63zM383.001 213.999l-0.000976562 30.002l-136 -8c-30 -2 -56 -10.333 -78 -25s-33 -36.667 -33 -66c0 -24.667 8.16699 -45.334 24.5 -62.001
s41.5 -25 75.5 -25c42.667 0 77.334 13.667 104.001 41c28.667 29.333 43 67.666 43 114.999zM379 654.001l-185 -99l-30 47l170 123z" />
    <glyph glyph-name="acircumflex" unicode="&#xe2;" horiz-adv-x="559" 
d="M517 5c-16 -8 -34.666 -12.001 -55.999 -12.001c-22 0 -39.667 7.33301 -53 22s-20 33 -20 55h-2c-14.667 -25.333 -36.667 -45.5 -66 -60.5s-61.666 -22.5 -96.999 -22.5c-54.667 0 -97.334 15.5 -128.001 46.5s-46 67.5 -46 109.5c0 24 5 46.833 15 68.5
s29.167 41.334 57.5 59.001s64.166 27.834 107.499 30.501l154 9v37c0 35.333 -8.66699 61 -26 77c-18.667 17.333 -46.334 26 -83.001 26c-41.333 0 -72 -10 -92 -30c-16.667 -16.667 -25 -37 -25 -61h-83c0.666992 41.333 15.334 76.666 44.001 105.999
c34 36 86 54 156 54c90.667 0 150 -32.333 178 -97c10 -22.667 15 -48.667 15 -78v-245c0 -22.667 9.33301 -34 28 -34l22 3v-63zM383.001 213.999l-0.000976562 30.002l-136 -8c-30 -2 -56 -10.333 -78 -25s-33 -36.667 -33 -66c0 -24.667 8.16699 -45.334 24.5 -62.001
s41.5 -25 75.5 -25c42.667 0 77.334 13.667 104.001 41c28.667 29.333 43 67.666 43 114.999zM426 602.001l-45 -45l-108 115l-107 -115l-45 45l125 131h55z" />
    <glyph glyph-name="atilde" unicode="&#xe3;" horiz-adv-x="559" 
d="M517 5c-16 -8 -34.666 -12.001 -55.999 -12.001c-22 0 -39.667 7.33301 -53 22s-20 33 -20 55h-2c-14.667 -25.333 -36.667 -45.5 -66 -60.5s-61.666 -22.5 -96.999 -22.5c-54.667 0 -97.334 15.5 -128.001 46.5s-46 67.5 -46 109.5c0 24 5 46.833 15 68.5
s29.167 41.334 57.5 59.001s64.166 27.834 107.499 30.501l154 9v37c0 35.333 -8.66699 61 -26 77c-18.667 17.333 -46.334 26 -83.001 26c-41.333 0 -72 -10 -92 -30c-16.667 -16.667 -25 -37 -25 -61h-83c0.666992 41.333 15.334 76.666 44.001 105.999
c34 36 86 54 156 54c90.667 0 150 -32.333 178 -97c10 -22.667 15 -48.667 15 -78v-245c0 -22.667 9.33301 -34 28 -34l22 3v-63zM383.001 213.999l-0.000976562 30.002l-136 -8c-30 -2 -56 -10.333 -78 -25s-33 -36.667 -33 -66c0 -24.667 8.16699 -45.334 24.5 -62.001
s41.5 -25 75.5 -25c42.667 0 77.334 13.667 104.001 41c28.667 29.333 43 67.666 43 114.999zM443 647.001c-28 -36 -61.667 -54 -101 -54c-22.667 0 -46.667 7 -72 21s-45 21 -59 21c-22.667 0 -43.334 -9.33301 -62.001 -28l-39 42c32 36 66 54 102 54
c19.333 0 42.333 -7.33301 69 -22s47.334 -22 62.001 -22c24.667 0 45.667 10 63 30z" />
    <glyph glyph-name="adieresis" unicode="&#xe4;" horiz-adv-x="559" 
d="M517 5c-16 -8 -34.666 -12.001 -55.999 -12.001c-22 0 -39.667 7.33301 -53 22s-20 33 -20 55h-2c-14.667 -25.333 -36.667 -45.5 -66 -60.5s-61.666 -22.5 -96.999 -22.5c-54.667 0 -97.334 15.5 -128.001 46.5s-46 67.5 -46 109.5c0 24 5 46.833 15 68.5
s29.167 41.334 57.5 59.001s64.166 27.834 107.499 30.501l154 9v37c0 35.333 -8.66699 61 -26 77c-18.667 17.333 -46.334 26 -83.001 26c-41.333 0 -72 -10 -92 -30c-16.667 -16.667 -25 -37 -25 -61h-83c0.666992 41.333 15.334 76.666 44.001 105.999
c34 36 86 54 156 54c90.667 0 150 -32.333 178 -97c10 -22.667 15 -48.667 15 -78v-245c0 -22.667 9.33301 -34 28 -34l22 3v-63zM383.001 213.999l-0.000976562 30.002l-136 -8c-30 -2 -56 -10.333 -78 -25s-33 -36.667 -33 -66c0 -24.667 8.16699 -45.334 24.5 -62.001
s41.5 -25 75.5 -25c42.667 0 77.334 13.667 104.001 41c28.667 29.333 43 67.666 43 114.999zM413 602.001h-92v92h92v-92zM237 602.001h-92v92h92v-92z" />
    <glyph glyph-name="aring" unicode="&#xe5;" horiz-adv-x="559" 
d="M517 5c-16 -8 -34.666 -12.001 -55.999 -12.001c-22 0 -39.667 7.33301 -53 22s-20 33 -20 55h-2c-14.667 -25.333 -36.667 -45.5 -66 -60.5s-61.666 -22.5 -96.999 -22.5c-54.667 0 -97.334 15.5 -128.001 46.5s-46 67.5 -46 109.5c0 24 5 46.833 15 68.5
s29.167 41.334 57.5 59.001s64.166 27.834 107.499 30.501l154 9v37c0 35.333 -8.66699 61 -26 77c-18.667 17.333 -46.334 26 -83.001 26c-41.333 0 -72 -10 -92 -30c-16.667 -16.667 -25 -37 -25 -61h-83c0.666992 41.333 15.334 76.666 44.001 105.999
c34 36 86 54 156 54c90.667 0 150 -32.333 178 -97c10 -22.667 15 -48.667 15 -78v-245c0 -22.667 9.33301 -34 28 -34l22 3v-63zM383.001 213.999l-0.000976562 30.002l-136 -8c-30 -2 -56 -10.333 -78 -25s-33 -36.667 -33 -66c0 -24.667 8.16699 -45.334 24.5 -62.001
s41.5 -25 75.5 -25c42.667 0 77.334 13.667 104.001 41c28.667 29.333 43 67.666 43 114.999zM390 671.001c0 -28.667 -10 -53.667 -30 -75s-46.667 -32 -80 -32s-60 10.667 -80 32s-30 46.333 -30 75s10 53.667 30 75s46.667 32 80 32s60 -10.667 80 -32s30 -46.333 30 -75
zM334 671.001c0 15.333 -5 28.5 -15 39.5s-23 16.5 -39 16.5s-29.167 -5.5 -39.5 -16.5s-15.5 -24.167 -15.5 -39.5s5.16699 -28.333 15.5 -39s23.5 -16 39.5 -16s29 5.33301 39 16s15 23.667 15 39z" />
    <glyph glyph-name="ae" unicode="&#xe6;" horiz-adv-x="847" 
d="M797 230l-342.001 -1.00098c-0.666992 -48.667 10 -89.667 32 -123s56.667 -50 104 -50c26.667 0 50.667 7.83301 72 23.5s35.333 38.5 42 68.5h84c-6.66699 -49.333 -28.334 -89.333 -65.001 -120c-34 -28.667 -78 -43 -132 -43c-40.667 0 -76.834 8.33301 -108.501 25
s-55.167 40.667 -70.5 72c-36.667 -64 -97.334 -96 -182.001 -96c-58 0 -104.333 17.333 -139 52c-28.667 30 -43 65.667 -43 107c0 44.667 15.833 80.834 47.5 108.501s69.834 41.834 114.501 42.501l162 2v54c0 32.667 -9.66699 57.167 -29 73.5s-45.333 24.5 -78 24.5
c-33.333 0 -60.166 -7.5 -80.499 -22.5s-31.5 -37.833 -33.5 -68.5h-83c2.66699 54 23 94.5 61 121.5s83.667 40.5 137 40.5c32 0 62.833 -6.33301 92.5 -19s52.834 -31.334 69.501 -56.001c34.667 48.667 87.334 73 158.001 73c75.333 0 132.333 -29.667 171 -89
c26 -39.333 39 -97.333 39 -174v-26zM710.999 295.999c-1.33301 50 -12.333 87.667 -33 113c-21.333 27.333 -52 41 -92 41c-34.667 0 -63.667 -12.333 -87 -37c-28 -28.667 -42 -67.667 -42 -117h254zM375.999 233.999l-145 -1c-27.333 0 -50.166 -7.83301 -68.499 -23.5
s-27.5 -36.834 -27.5 -63.501c0 -27.333 9 -48.666 27 -63.999s40.667 -23 68 -23c45.333 0 80.333 12.333 105 37c13.333 13.333 23.166 28.333 29.499 45s9.83301 30.167 10.5 40.5s1 27.833 1 52.5z" />
    <glyph glyph-name="ccedilla" unicode="&#xe7;" horiz-adv-x="532" 
d="M486 170c-4 -50.667 -23.665 -93.334 -58.998 -128.001c-38 -36.667 -86.667 -55 -146 -55c-80 0 -141.667 31.667 -185 95c-28 41.333 -42 98.333 -42 171s14 129.667 42 171c43.333 63.333 104.666 95 183.999 95c58.667 0 106.667 -18 144 -54
c36 -35.333 56 -78.666 60 -129.999h-86c-4 32.667 -16 59 -36 79c-22 20.667 -49.333 31 -82 31c-33.333 0 -62.666 -11 -87.999 -33c-34 -28.667 -51 -81.667 -51 -159s17 -130.333 51 -159c25.333 -22 54.666 -33 87.999 -33c36 0 64.667 11.333 86 34
c19.333 20 30.666 45 33.999 75h86zM337.002 -62l-66 -171l-86 40l77 131h75z" />
    <glyph glyph-name="egrave" unicode="&#xe8;" horiz-adv-x="551" 
d="M501 276l-0.999023 -51h-358c0 -52 16.333 -94.333 49 -127c24 -24 55 -36 93 -36c41.333 0 72.666 11 93.999 33c14 14 24 32.333 30 55h83c-7.33301 -52.667 -33.333 -94.334 -78 -125.001c-38 -25.333 -81 -38 -129 -38c-69.333 0 -125.333 25.333 -168 76
c-42 48.667 -63 111.334 -63 188.001c0 64.667 13 118.667 39 162c18.667 32 44.5 57.667 77.5 77s70.833 29 113.5 29c62.667 0 114 -21.667 154 -65c44 -48 65.333 -107.333 64 -178zM414.001 298c0 40.667 -10.334 75 -31.001 103c-23.333 30.667 -56.666 46 -99.999 46
s-77 -14.667 -101 -44s-36.667 -64.333 -38 -105h270zM178 655l185 -99l30 47l-170 123z" />
    <glyph glyph-name="eacute" unicode="&#xe9;" horiz-adv-x="551" 
d="M501 276l-0.999023 -51h-358c0 -52 16.333 -94.333 49 -127c24 -24 55 -36 93 -36c41.333 0 72.666 11 93.999 33c14 14 24 32.333 30 55h83c-7.33301 -52.667 -33.333 -94.334 -78 -125.001c-38 -25.333 -81 -38 -129 -38c-69.333 0 -125.333 25.333 -168 76
c-42 48.667 -63 111.334 -63 188.001c0 64.667 13 118.667 39 162c18.667 32 44.5 57.667 77.5 77s70.833 29 113.5 29c62.667 0 114 -21.667 154 -65c44 -48 65.333 -107.333 64 -178zM414.001 298c0 40.667 -10.334 75 -31.001 103c-23.333 30.667 -56.666 46 -99.999 46
s-77 -14.667 -101 -44s-36.667 -64.333 -38 -105h270zM394 652l-185 -99l-30 47l170 123z" />
    <glyph glyph-name="ecircumflex" unicode="&#xea;" horiz-adv-x="551" 
d="M501 276l-0.999023 -51h-358c0 -52 16.333 -94.333 49 -127c24 -24 55 -36 93 -36c41.333 0 72.666 11 93.999 33c14 14 24 32.333 30 55h83c-7.33301 -52.667 -33.333 -94.334 -78 -125.001c-38 -25.333 -81 -38 -129 -38c-69.333 0 -125.333 25.333 -168 76
c-42 48.667 -63 111.334 -63 188.001c0 64.667 13 118.667 39 162c18.667 32 44.5 57.667 77.5 77s70.833 29 113.5 29c62.667 0 114 -21.667 154 -65c44 -48 65.333 -107.333 64 -178zM414.001 298c0 40.667 -10.334 75 -31.001 103c-23.333 30.667 -56.666 46 -99.999 46
s-77 -14.667 -101 -44s-36.667 -64.333 -38 -105h270zM436 597l-45 -45l-108 115l-107 -115l-45 45l125 131h55z" />
    <glyph glyph-name="edieresis" unicode="&#xeb;" horiz-adv-x="551" 
d="M501 276l-0.999023 -51h-358c0 -52 16.333 -94.333 49 -127c24 -24 55 -36 93 -36c41.333 0 72.666 11 93.999 33c14 14 24 32.333 30 55h83c-7.33301 -52.667 -33.333 -94.334 -78 -125.001c-38 -25.333 -81 -38 -129 -38c-69.333 0 -125.333 25.333 -168 76
c-42 48.667 -63 111.334 -63 188.001c0 64.667 13 118.667 39 162c18.667 32 44.5 57.667 77.5 77s70.833 29 113.5 29c62.667 0 114 -21.667 154 -65c44 -48 65.333 -107.333 64 -178zM414.001 298c0 40.667 -10.334 75 -31.001 103c-23.333 30.667 -56.666 46 -99.999 46
s-77 -14.667 -101 -44s-36.667 -64.333 -38 -105h270zM419 599h-92v92h92v-92zM243 599h-92v92h92v-92z" />
    <glyph glyph-name="igrave" unicode="&#xec;" horiz-adv-x="273" 
d="M178 0h-86v506h86v-506zM8 649l185 -99l30 47l-170 123z" />
    <glyph glyph-name="iacute" unicode="&#xed;" horiz-adv-x="273" 
d="M166 0h-86v506h86v-506zM251 650l-185 -99l-30 47l170 123z" />
    <glyph glyph-name="icircumflex" unicode="&#xee;" horiz-adv-x="273" 
d="M182 0h-86v506h86v-506zM290 597l-45 -45l-108 115l-107 -115l-45 45l125 131h55z" />
    <glyph glyph-name="idieresis" unicode="&#xef;" horiz-adv-x="273" 
d="M179 0h-86v506h86v-506zM271 599h-92v92h92v-92zM95 599h-92v92h92v-92z" />
    <glyph glyph-name="eth" unicode="&#xf0;" horiz-adv-x="551" 
d="M497 253c0 -93.333 -22.667 -162.334 -68 -207.001c-40.667 -39.333 -92 -59 -154 -59c-61.333 0 -112.333 19.667 -153 59c-45.333 44.667 -68 113.667 -68 207s22.667 162.333 68 207c40.667 39.333 91.667 59 153 59l43 -4l-43 73h-120v59h85l-45 75h89l44 -75h98v-59
h-63l83 -142c34 -57.333 51 -121.666 51 -192.999zM412 252.999c0 73.333 -15.333 125.666 -46 156.999c-24 24 -54.333 36 -91 36c-36 0 -66 -12 -90 -36c-30.667 -31.333 -46 -83.666 -46 -156.999s15.333 -125.666 46 -156.999c24 -24 54 -36 90 -36
c36.667 0 67 12 91 36c30.667 31.333 46 83.666 46 156.999z" />
    <glyph glyph-name="ntilde" unicode="&#xf1;" horiz-adv-x="585" 
d="M502 0l-84.999 -0.000976562v321c0 80.667 -37 121 -111 121c-48.667 0 -85.334 -26 -110.001 -78c-12 -26 -18 -69 -18 -129v-235h-85v506h74l7 -76c12.667 27.333 33.667 49 63 65s59.333 24 90 24c56.667 0 100 -16.167 130 -48.5s45 -78.166 45 -137.499v-333z
M465.001 646.999c-28 -36 -61.667 -54 -101 -54c-22.667 0 -46.667 7 -72 21s-45 21 -59 21c-22.667 0 -43.334 -9.33301 -62.001 -28l-39 42c32 36 66 54 102 54c19.333 0 42.333 -7.33301 69 -22s47.334 -22 62.001 -22c24.667 0 45.667 10 63 30z" />
    <glyph glyph-name="ograve" unicode="&#xf2;" horiz-adv-x="558" 
d="M504 253c0 -90.667 -24 -159.667 -72 -207c-40.667 -39.333 -91.667 -59 -153 -59s-112.333 19.667 -153 59c-48 47.333 -72 116.333 -72 207s24 159.667 72 207c40.667 39.333 91.667 59 153 59s112.333 -19.667 153 -59c48 -47.333 72 -116.333 72 -207zM417 253
c0 72.667 -15.667 125 -47 157c-24 24 -54.333 36 -91 36s-67 -12 -91 -36c-31.333 -32 -47 -84.333 -47 -157s15.667 -125 47 -157c24 -24 54.333 -36 91 -36s67 12 91 36c31.333 32 47 84.333 47 157zM175 653l185 -99l30 47l-170 123z" />
    <glyph glyph-name="oacute" unicode="&#xf3;" horiz-adv-x="558" 
d="M504 253c0 -90.667 -24 -159.667 -72 -207c-40.667 -39.333 -91.667 -59 -153 -59s-112.333 19.667 -153 59c-48 47.333 -72 116.333 -72 207s24 159.667 72 207c40.667 39.333 91.667 59 153 59s112.333 -19.667 153 -59c48 -47.333 72 -116.333 72 -207zM417 253
c0 72.667 -15.667 125 -47 157c-24 24 -54.333 36 -91 36s-67 -12 -91 -36c-31.333 -32 -47 -84.333 -47 -157s15.667 -125 47 -157c24 -24 54.333 -36 91 -36s67 12 91 36c31.333 32 47 84.333 47 157zM389 653l-185 -99l-30 47l170 123z" />
    <glyph glyph-name="ocircumflex" unicode="&#xf4;" horiz-adv-x="558" 
d="M504 253c0 -90.667 -24 -159.667 -72 -207c-40.667 -39.333 -91.667 -59 -153 -59s-112.333 19.667 -153 59c-48 47.333 -72 116.333 -72 207s24 159.667 72 207c40.667 39.333 91.667 59 153 59s112.333 -19.667 153 -59c48 -47.333 72 -116.333 72 -207zM417 253
c0 72.667 -15.667 125 -47 157c-24 24 -54.333 36 -91 36s-67 -12 -91 -36c-31.333 -32 -47 -84.333 -47 -157s15.667 -125 47 -157c24 -24 54.333 -36 91 -36s67 12 91 36c31.333 32 47 84.333 47 157zM433 600l-45 -45l-108 115l-107 -115l-45 45l125 131h55z" />
    <glyph glyph-name="otilde" unicode="&#xf5;" horiz-adv-x="558" 
d="M504 253c0 -90.667 -24 -159.667 -72 -207c-40.667 -39.333 -91.667 -59 -153 -59s-112.333 19.667 -153 59c-48 47.333 -72 116.333 -72 207s24 159.667 72 207c40.667 39.333 91.667 59 153 59s112.333 -19.667 153 -59c48 -47.333 72 -116.333 72 -207zM417 253
c0 72.667 -15.667 125 -47 157c-24 24 -54.333 36 -91 36s-67 -12 -91 -36c-31.333 -32 -47 -84.333 -47 -157s15.667 -125 47 -157c24 -24 54.333 -36 91 -36s67 12 91 36c31.333 32 47 84.333 47 157zM447 653c-28 -36 -61.667 -54 -101 -54c-22.667 0 -46.667 7 -72 21
s-45 21 -59 21c-22.667 0 -43.334 -9.33301 -62.001 -28l-39 42c32 36 66 54 102 54c19.333 0 42.333 -7.33301 69 -22s47.334 -22 62.001 -22c24.667 0 45.667 10 63 30z" />
    <glyph glyph-name="odieresis" unicode="&#xf6;" horiz-adv-x="558" 
d="M504 253c0 -90.667 -24 -159.667 -72 -207c-40.667 -39.333 -91.667 -59 -153 -59s-112.333 19.667 -153 59c-48 47.333 -72 116.333 -72 207s24 159.667 72 207c40.667 39.333 91.667 59 153 59s112.333 -19.667 153 -59c48 -47.333 72 -116.333 72 -207zM417 253
c0 72.667 -15.667 125 -47 157c-24 24 -54.333 36 -91 36s-67 -12 -91 -36c-31.333 -32 -47 -84.333 -47 -157s15.667 -125 47 -157c24 -24 54.333 -36 91 -36s67 12 91 36c31.333 32 47 84.333 47 157zM422 599h-92v92h92v-92zM246 599h-92v92h92v-92z" />
    <glyph glyph-name="divide" unicode="&#xf7;" horiz-adv-x="652" 
d="M381 442h-114v118h114v-118zM577 261h-502v78h502v-78zM381 48h-114v118h114v-118z" />
    <glyph glyph-name="oslash" unicode="&#xf8;" horiz-adv-x="558" 
d="M504 253c0 -90.667 -24 -159.667 -72 -207c-40.667 -39.333 -91.667 -59 -153 -59c-31.333 0 -59.333 5 -84 15l-36 -79l-54 25l38 83c-8 6.66699 -13.667 11.667 -17 15c-48 47.333 -72 116.333 -72 207s24 159.667 72 207c40.667 39.333 91.667 59 153 59
c26.667 0 53 -4.33301 79 -13l36 79l54 -24l-37 -83c7.33301 -5.33301 14.333 -11.333 21 -18c48 -47.333 72 -116.333 72 -207zM417 253c0 67.333 -13.668 117.333 -41.001 150l-150 -333c16.667 -6.66699 34.334 -10 53.001 -10c36.667 0 67 12 91 36
c31.333 32 47 84.333 47 157zM326.999 438c-14.667 5.33301 -30.667 7.99902 -48 7.99902c-36.667 0 -67 -12 -91 -36c-31.333 -32 -47 -84.333 -47 -157c0 -63.333 12.333 -111.666 37 -144.999z" />
    <glyph glyph-name="ugrave" unicode="&#xf9;" horiz-adv-x="582" 
d="M489 0h-74.001l-7 77c-12.667 -28 -33 -49.833 -61 -65.5s-57.667 -23.5 -89 -23.5c-56.667 0 -99.667 16.167 -129 48.5s-44 78.166 -44 137.499v332h85v-320c0 -40 8.33301 -70.167 25 -90.5s44.334 -30.5 83.001 -30.5c32 0 60 12.667 84 38
c28 28.667 42 75.334 42 140.001v263h85v-506zM166.999 652l185 -99l30 47l-170 123z" />
    <glyph glyph-name="uacute" unicode="&#xfa;" horiz-adv-x="582" 
d="M489 0h-74.001l-7 77c-12.667 -28 -33 -49.833 -61 -65.5s-57.667 -23.5 -89 -23.5c-56.667 0 -99.667 16.167 -129 48.5s-44 78.166 -44 137.499v332h85v-320c0 -40 8.33301 -70.167 25 -90.5s44.334 -30.5 83.001 -30.5c32 0 60 12.667 84 38
c28 28.667 42 75.334 42 140.001v263h85v-506zM401.999 652l-185 -99l-30 47l170 123z" />
    <glyph glyph-name="ucircumflex" unicode="&#xfb;" horiz-adv-x="582" 
d="M489 0h-74.001l-7 77c-12.667 -28 -33 -49.833 -61 -65.5s-57.667 -23.5 -89 -23.5c-56.667 0 -99.667 16.167 -129 48.5s-44 78.166 -44 137.499v332h85v-320c0 -40 8.33301 -70.167 25 -90.5s44.334 -30.5 83.001 -30.5c32 0 60 12.667 84 38
c28 28.667 42 75.334 42 140.001v263h85v-506zM440.999 605l-45 -45l-108 115l-107 -115l-45 45l125 131h55z" />
    <glyph glyph-name="udieresis" unicode="&#xfc;" horiz-adv-x="582" 
d="M489 0h-74.001l-7 77c-12.667 -28 -33 -49.833 -61 -65.5s-57.667 -23.5 -89 -23.5c-56.667 0 -99.667 16.167 -129 48.5s-44 78.166 -44 137.499v332h85v-320c0 -40 8.33301 -70.167 25 -90.5s44.334 -30.5 83.001 -30.5c32 0 60 12.667 84 38
c28 28.667 42 75.334 42 140.001v263h85v-506zM422.999 599h-92v92h92v-92zM246.999 599h-92v92h92v-92z" />
    <glyph glyph-name="yacute" unicode="&#xfd;" horiz-adv-x="498" 
d="M381 654l-187 -104l-32 47l172 129zM488 506l-228 -610.001c-12.667 -35.333 -29.667 -62.166 -51 -80.499s-50 -27.5 -86 -27.5c-28 0 -53.667 3.33301 -77 10v74c18 -5.33301 38 -8 60 -8c38 0 63.333 17 76 51l32 85l-202 506h96l149 -399l142 399h89z" />
    <glyph glyph-name="thorn" unicode="&#xfe;" horiz-adv-x="590" 
d="M536 252c0 -94 -25.667 -165.667 -77 -215c-36 -34 -81.333 -51 -136 -51c-28.667 0 -56.667 6.5 -84 19.5s-47.666 30.5 -60.999 52.5v-259h-85v923h85v-275c13.333 22 33.666 39.5 60.999 52.5s55.333 19.5 84 19.5c54.667 0 100 -17 136 -51
c51.333 -49.333 77 -121.333 77 -216zM450 252c0 25.333 -2.16699 48.6689 -6.5 70.002s-11.5 41.833 -21.5 61.5s-24.667 35.167 -44 46.5s-42.333 17 -69 17c-28.667 0 -55.334 -11 -80.001 -33c-37.333 -32.667 -56 -86.667 -56 -162
c0 -74.667 18.667 -128.334 56 -161.001c24.667 -22 51.334 -33 80.001 -33c26.667 0 49.667 5.5 69 16.5s34 26.333 44 46s17.167 40.167 21.5 61.5s6.5 44.666 6.5 69.999z" />
    <glyph glyph-name="ydieresis" unicode="&#xff;" horiz-adv-x="498" 
d="M488 506l-228 -610.001c-12.667 -35.333 -29.667 -62.166 -51 -80.499s-50 -27.5 -86 -27.5c-28 0 -53.667 3.33301 -77 10v74c18 -5.33301 38 -8 60 -8c38 0 63.333 17 76 51l32 85l-202 506h96l149 -399l142 399h89zM385 598.999h-92v92h92v-92zM209 598.999h-92v92h92
v-92z" />
    <glyph glyph-name="dotlessi" unicode="&#x131;" horiz-adv-x="273" 
d="M180 0h-86v506h86v-506z" />
    <glyph glyph-name="Lslash" unicode="&#x141;" horiz-adv-x="565" 
d="M551 0h-430v296l-65 -40l-33 52l98 61v340h89v-285l127 79l33 -53l-160 -99v-268h341v-83z" />
    <glyph glyph-name="lslash" unicode="&#x142;" horiz-adv-x="333" 
d="M308 466l-113 -70v-273c0 -18 3.5 -31.167 10.5 -39.5s18.833 -12.5 35.5 -12.5l35 1v-72c-12.667 -4 -32.667 -6 -60 -6c-70.667 0 -106 41.333 -106 124v225l-57 -35l-33 52l90 56v306h85v-253l80 50z" />
    <glyph glyph-name="OE" unicode="&#x152;" horiz-adv-x="983" 
d="M932 0h-420.001v65c-41.333 -52 -103.666 -78 -186.999 -78c-76 0 -139 25.667 -189 77c-32.667 34 -54.667 74.5 -66 121.5s-17 103.5 -17 169.5s5.66699 122.333 17 169s33.333 87 66 121c50.667 52 113.667 78 189 78c82 0 144.333 -27 187 -81v67h420v-83h-338v-206
h289v-84h-289v-253h338v-83zM506.999 355c0 114 -17.999 192.001 -53.999 234.001c-30.667 35.333 -73.334 53 -128.001 53c-46 0 -85 -14.667 -117 -44c-43.333 -42 -65 -123 -65 -243c0 -114.667 18.667 -193.334 56 -236.001c30 -34.667 72 -52 126 -52
c50.667 0 91 15 121 45c24.667 24.667 41 57.167 49 97.5s12 88.833 12 145.5z" />
    <glyph glyph-name="oe" unicode="&#x153;" horiz-adv-x="889" 
d="M839 229h-348.997c0 -43.333 6.66699 -78 20 -104c23.333 -45.333 62.333 -68 117 -68c27.333 0 52.5 7.83301 75.5 23.5s37.5 38.167 43.5 67.5h85c-6.66699 -47.333 -28.667 -86.666 -66 -117.999c-36 -30 -81.667 -45 -137 -45c-82.667 0 -142.334 31.333 -179.001 94
c-10.667 -16.667 -19.334 -28.334 -26.001 -35.001c-38.667 -40 -89 -60 -151 -60c-60.667 0 -110.667 20.333 -150 61c-45.333 46 -68 114.667 -68 206c0 92.667 22.333 161.667 67 207c39.333 40.667 89.666 61 150.999 61c60.667 0 111 -20.667 151 -62
c7.33301 -7.33301 15.333 -18 24 -32l5 8c16 26.667 39.167 47.667 69.5 63s64.5 23 102.5 23c76.667 0 135 -30.667 175 -92c26.667 -40.667 40 -97.667 40 -171v-27zM752.003 296c-1.33301 48 -13.333 85.332 -36 111.999c-24 27.333 -55 41 -93 41
c-40.667 0 -72.667 -14.667 -96 -44s-35.333 -65.666 -36 -108.999h261zM407.003 250.999c0 76 -15.667 130.001 -47 162.001c-23.333 23.333 -52.666 35 -87.999 35c-32 0 -59.333 -10.333 -82 -31c-34 -30.667 -51 -86 -51 -166c0 -73.333 15 -126.333 45 -159
c22.667 -24.667 52 -37 88 -37c41.333 0 73.666 15 96.999 45c25.333 33.333 38 83.666 38 150.999z" />
    <glyph glyph-name="Scaron" unicode="&#x160;" horiz-adv-x="635" 
d="M473 890l-125 -131h-55l-125 131l45 45l108 -115l107 115zM585 195c0 -52.667 -19.9961 -98.332 -59.9961 -136.999c-48 -47.333 -115 -71 -201 -71s-153.667 22.667 -203 68c-50.667 47.333 -76 104 -76 170h93c0 -42.667 16.667 -80 50 -112
c30 -29.333 75.333 -44 136 -44c58.667 0 102.667 13.667 132 41c24 22 36 49.667 36 83c0 29.333 -9.83301 54.166 -29.5 74.499s-49.5 33.5 -89.5 39.5l-112 17c-56.667 8.66699 -102.334 28.667 -137.001 60s-52 74 -52 128s20.667 100.667 62 140
c50 46.667 112 70 186 70c75.333 0 136.666 -22.667 183.999 -68c43.333 -41.333 66 -92 68 -152h-93c-2 34.667 -13.667 64.334 -35 89.001c-28.667 32.667 -70.334 49 -125.001 49c-55.333 0 -97.333 -16.333 -126 -49c-19.333 -22.667 -29 -48.334 -29 -77.001
c0 -29.333 10.167 -52.333 30.5 -69s45.5 -27 75.5 -31c3.33301 -0.666992 42.666 -6.66699 117.999 -18c60 -8.66699 107.833 -30.667 143.5 -66s53.5 -80.333 53.5 -135z" />
    <glyph glyph-name="scaron" unicode="&#x161;" horiz-adv-x="521" 
d="M401 671l-112 -118h-50l-112 118l40 40l98 -103l96 103zM468 147c0 -40.667 -13.333 -75.001 -40 -103.001c-37.333 -38 -92.333 -57 -165 -57c-70.667 0 -125.334 19 -164.001 57c-32.667 31.333 -49 70 -49 116h85c0.666992 -32.667 14.334 -59 41.001 -79
c20.667 -15.333 51 -23 91 -23s71 9.33301 93 28c16.667 13.333 25 31.666 25 54.999c0 40.667 -26.333 64.667 -79 72c-4 0.666992 -20.667 2.83398 -50 6.50098s-50.666 6.5 -63.999 8.5c-38.667 6 -69 20.667 -91 44s-33 54 -33 92s14 71 42 99
c36 37.333 85.667 56 149 56c73.333 0 127 -21.333 161 -64c24 -29.333 36 -61.666 36 -96.999h-85c-1.33301 26 -11 47 -29 63c-20 18 -47.667 27 -83 27c-23.333 0 -43 -3.33301 -59 -10c-34 -14 -51 -36.667 -51 -68c0 -37.333 22.667 -59.333 68 -66
c6 -0.666992 16 -2 30 -4s28.833 -4 44.5 -6s31.5 -4.33301 47.5 -7c37.333 -6 68.166 -21.667 92.499 -47s36.5 -56.333 36.5 -93z" />
    <glyph glyph-name="Ydieresis" unicode="&#x178;" horiz-adv-x="566" 
d="M566 709l-238 -421v-288h-90v288l-238 421h100l186 -337l185 337h95zM419 778h-92v92h92v-92zM243 778h-92v92h92v-92z" />
    <glyph glyph-name="Zcaron" unicode="&#x17d;" horiz-adv-x="612" 
d="M566 0h-523v89l413 537h-409v83h515v-90l-414 -536h418v-83zM151 885l45 45l108 -115l107 115l45 -45l-125 -131h-55z" />
    <glyph glyph-name="zcaron" unicode="&#x17e;" horiz-adv-x="501" 
d="M453 0h-400v75l294 357h-294v74h397v-75l-293 -357h296v-74zM116 670l40 40l98 -103l96 103l40 -40l-112 -118h-50z" />
    <glyph glyph-name="florin" unicode="&#x192;" horiz-adv-x="527" 
d="M479 635c-28 4 -47.333 6 -58 6c-44.667 0 -73 -29.667 -85 -89l-23 -115h141v-75h-156l-67 -339c-8.66699 -42 -26.667 -75.5 -54 -100.5s-58.666 -37.5 -93.999 -37.5c-26 0 -51 2.66699 -75 8v75c28 -4 47.333 -6 58 -6c44.667 0 73 29.667 85 89l62 311h-102v75h117
l28 143c8.66699 42 26.667 75.5 54 100.5s58.666 37.5 93.999 37.5c26 0 51 -2.66699 75 -8v-75z" />
    <glyph glyph-name="circumflex" unicode="&#x2c6;" horiz-adv-x="355" 
d="M330 597l-45 -45l-108 115l-107 -115l-45 45l125 131h55z" />
    <glyph glyph-name="caron" unicode="&#x2c7;" horiz-adv-x="368" 
d="M32 885l45 45l108 -115l107 115l45 -45l-125 -131h-55z" />
    <glyph glyph-name="breve" unicode="&#x2d8;" horiz-adv-x="352" 
d="M338 720c-4 -46 -19.832 -83.5 -47.499 -112.5s-66.5 -43.5 -116.5 -43.5s-89 14.5 -117 43.5s-44 66.5 -48 112.5h68c7.33301 -61.333 39.666 -92 96.999 -92c56 0 88 30.667 96 92h68z" />
    <glyph glyph-name="dotaccent" unicode="&#x2d9;" horiz-adv-x="275" 
d="M187 622h-99v100h99v-100z" />
    <glyph glyph-name="ring" unicode="&#x2da;" horiz-adv-x="220" 
d="M220 670c0 -28.667 -10 -53.667 -30 -75s-46.667 -32 -80 -32s-60 10.667 -80 32s-30 46.333 -30 75s10 53.667 30 75s46.667 32 80 32s60 -10.667 80 -32s30 -46.333 30 -75zM164 670c0 15.333 -5 28.5 -15 39.5s-23 16.5 -39 16.5s-29.167 -5.5 -39.5 -16.5
s-15.5 -24.167 -15.5 -39.5s5.16699 -28.333 15.5 -39s23.5 -16 39.5 -16s29 5.33301 39 16s15 23.667 15 39z" />
    <glyph glyph-name="ogonek" unicode="&#x2db;" horiz-adv-x="174" 
d="M165 -193l-87 -41l-69 176h78z" />
    <glyph glyph-name="tilde" unicode="&#x2dc;" horiz-adv-x="360" 
d="M346 647c-28 -36 -61.667 -54 -101 -54c-22.667 0 -46.667 7 -72 21s-45 21 -59 21c-22.667 0 -43.334 -9.33301 -62.001 -28l-39 42c32 36 66 54 102 54c19.333 0 42.333 -7.33301 69 -22s47.334 -22 62.001 -22c24.667 0 45.667 10 63 30z" />
    <glyph glyph-name="hungarumlaut" unicode="&#x2dd;" horiz-adv-x="459" 
d="M450 657l-187 -104l-32 47l172 129zM237 657l-187 -104l-32 47l172 129z" />
    <glyph glyph-name="Delta" unicode="&#x394;" horiz-adv-x="663" 
d="M598 260h-70v331l-427 -427l-51 51l427 427h-331v67h452v-449z" />
    <glyph glyph-name="Omega" unicode="&#x3a9;" horiz-adv-x="858" 
d="M790 355c0 -103.333 -34.5 -190.5 -103.5 -261.5s-154.833 -106.5 -257.5 -106.5s-188.5 35.333 -257.5 106s-103.5 157.667 -103.5 261s34.5 190.5 103.5 261.5s154.833 106.5 257.5 106.5s188.5 -35.333 257.5 -106s103.5 -157.667 103.5 -261zM723 355
c0 88.667 -27.167 161.334 -81.5 218.001s-125.166 85 -212.499 85s-158.166 -28.5 -212.499 -85.5s-81.5 -129.833 -81.5 -218.5s27.167 -161.334 81.5 -218.001s125.166 -85 212.499 -85s158.166 28.5 212.499 85.5s81.5 129.833 81.5 218.5zM593 421
c0 -38 -13.167 -68.334 -39.5 -91.001s-58.5 -34 -96.5 -34h-74v-135h-67v383h141c38 0 70.167 -11.167 96.5 -33.5s39.5 -52.166 39.5 -89.499zM523 420.999c0 18.667 -6.33301 33.499 -19 44.499s-28.334 16.5 -47.001 16.5h-75v-124h75
c20.667 0 36.834 5.33301 48.501 16s17.5 26.334 17.5 47.001z" />
    <glyph glyph-name="mu" unicode="&#x3bc;" horiz-adv-x="590" 
d="M497 0l-74.001 -0.000976562l-7 77c-12.667 -28 -33 -49.833 -61 -65.5s-57.667 -23.5 -89 -23.5c-36.667 0 -66 8.66699 -88 26v-214h-85v374v273v59h85v-59v-261c0 -40 8.33301 -70.167 25 -90.5s44.334 -30.5 83.001 -30.5c32 0 60 12.667 84 38
c28 28.667 42 75.334 42 140.001v263h85v-506z" />
    <glyph glyph-name="pi" unicode="&#x3c0;" horiz-adv-x="640" 
d="M570 4c-18.667 -7.33301 -41 -11 -67 -11c-37.333 0 -64.833 12 -82.5 36s-26.5 53.667 -26.5 89v320h-3h-164v-439h-84v439h-78v68h491v-68h-77v-310c0 -41.333 15.333 -62 46 -62c22 0 37 1.66699 45 5v-67z" />
    <glyph glyph-name="endash" unicode="&#x2013;" horiz-adv-x="655" 
d="M585 262h-515v79h515v-79z" />
    <glyph glyph-name="emdash" unicode="&#x2014;" horiz-adv-x="1125" 
d="M1055 262h-985v79h985v-79z" />
    <glyph glyph-name="quoteleft" unicode="&#x2018;" horiz-adv-x="274" 
d="M199 672c-25.333 -11.333 -42.333 -25.002 -51 -41.002s-13 -39 -13 -69h62v-117h-122v117c0 38.667 7.5 70.834 22.5 96.501s40.167 45.834 75.5 60.501z" />
    <glyph glyph-name="quoteright" unicode="&#x2019;" horiz-adv-x="264" 
d="M194 588c0 -38.667 -7.5 -70.832 -22.5 -96.499s-40.167 -45.834 -75.5 -60.501l-26 47c25.333 11.333 42.333 25 51 41s13 39 13 69h-62v117h122v-117z" />
    <glyph glyph-name="quotesinglbase" unicode="&#x201a;" horiz-adv-x="279" 
d="M204 -2c0 -38.667 -7.5 -70.832 -22.5 -96.499s-40.167 -45.834 -75.5 -60.501l-26 47c25.333 11.333 42.333 25 51 41s13 39 13 69h-62v117h122v-117z" />
    <glyph glyph-name="quotedblleft" unicode="&#x201c;" horiz-adv-x="472" 
d="M402 672c-25.333 -11.333 -42.333 -25.002 -51 -41.002s-13 -39 -13 -69h62v-117h-122v117c0 38.667 7.5 70.834 22.5 96.501s40.167 45.834 75.5 60.501zM204 671.998c-25.333 -11.333 -42.333 -25.002 -51 -41.002s-13 -39 -13 -69h62v-117h-122v117
c0 38.667 7.5 70.834 22.5 96.501s40.167 45.834 75.5 60.501z" />
    <glyph glyph-name="quotedblright" unicode="&#x201d;" horiz-adv-x="462" 
d="M397 586c0 -38.667 -7.5 -70.832 -22.5 -96.499s-40.167 -45.834 -75.5 -60.501l-26 47c25.333 11.333 42.333 25 51 41s13 39 13 69h-62v117h122v-117zM199 586.002c0 -38.667 -7.5 -70.832 -22.5 -96.499s-40.167 -45.834 -75.5 -60.501l-26 47
c25.333 11.333 42.333 25 51 41s13 39 13 69h-62v117h122v-117z" />
    <glyph glyph-name="quotedblbase" unicode="&#x201e;" horiz-adv-x="492" 
d="M407 -1c0 -38.667 -7.5 -70.832 -22.5 -96.499s-40.167 -45.834 -75.5 -60.501l-26 47c25.333 11.333 42.333 25 51 41s13 39 13 69h-62v117h122v-117zM209 -0.998047c0 -38.667 -7.5 -70.832 -22.5 -96.499s-40.167 -45.834 -75.5 -60.501l-26 47
c25.333 11.333 42.333 25 51 41s13 39 13 69h-62v117h122v-117z" />
    <glyph glyph-name="dagger" unicode="&#x2020;" horiz-adv-x="566" 
d="M511 433h-186v-558h-83v558h-187v73h187v203h83v-203h186v-73z" />
    <glyph glyph-name="daggerdbl" unicode="&#x2021;" horiz-adv-x="566" 
d="M511 78h-187v-203h-1h-80h-1v203h-187v73h187v282h-187v73h187v203h1h80h1v-203h187v-73h-187v-282h187v-73z" />
    <glyph glyph-name="bullet" unicode="&#x2022;" horiz-adv-x="435" 
d="M345 292c0 -36 -12.333 -66.833 -37 -92.5s-54.667 -38.5 -90 -38.5s-65.5 12.833 -90.5 38.5s-37.5 56.5 -37.5 92.5s12.5 66.833 37.5 92.5s55.167 38.5 90.5 38.5s65.333 -12.833 90 -38.5s37 -56.5 37 -92.5z" />
    <glyph glyph-name="ellipsis" unicode="&#x2026;" horiz-adv-x="805" 
d="M728 0h-115v115h115v-115zM459 0h-114v115h114v-115zM191 0h-114v115h114v-115z" />
    <glyph glyph-name="perthousand" unicode="&#x2030;" horiz-adv-x="1175" 
d="M1125 168c0 -48.667 -9.66699 -87 -29 -115c-30 -44 -72 -66 -126 -66c-53.333 0 -95 22 -125 66c-19.333 28 -29 66.333 -29 115c0 49.333 9.66699 88 29 116c30 44.667 71.667 67 125 67c54 0 96 -22.333 126 -67c19.333 -28 29 -66.667 29 -116zM765 168
c0 -48.667 -9.66699 -87 -29 -115c-30 -44 -71.667 -66 -125 -66c-54 0 -96 22 -126 66c-19.333 28 -29 66.333 -29 115c0 49.333 9.66699 88 29 116c30 44.667 72 67 126 67c53.333 0 95 -22.333 125 -67c19.333 -28 29 -66.667 29 -116zM705 685l-516 -706l-54 41l515 704
zM370 540c0 -47.333 -10 -85.667 -30 -115c-30 -44 -71.667 -66 -125 -66c-54 0 -96 22 -126 66c-19.333 28 -29 66.333 -29 115c0 49.333 9.66699 88 29 116c30 44 72 66 126 66c53.333 0 95 -22 125 -66c20 -29.333 30 -68 30 -116zM1052 167.999
c0 45.333 -9 77.333 -27 96c-14 15.333 -32.333 23 -55 23s-41 -7.66699 -55 -23c-18 -18.667 -27 -50.667 -27 -96c0 -44.667 9 -76.334 27 -95.001c14 -15.333 32.333 -23 55 -23s41 7.66699 55 23c18 18.667 27 50.334 27 95.001zM692 167.999
c0 45.333 -9 77.332 -27 95.999c-14 15.333 -32 23 -54 23c-22.667 0 -41 -7.66699 -55 -23c-18.667 -19.333 -28 -51.333 -28 -96c0 -44 9.33301 -75.667 28 -95c14 -15.333 32.333 -23 55 -23c22 0 40 7.66699 54 23c18 18.667 27 50.334 27 95.001zM297 539.998
c0 44.667 -9.33301 76.667 -28 96c-14 15.333 -32 23 -54 23c-22.667 0 -41 -7.66699 -55 -23c-18.667 -19.333 -28 -51.333 -28 -96c0 -44 9.33301 -75.667 28 -95c14 -15.333 32.333 -23 55 -23c22 0 40 7.66699 54 23c18.667 19.333 28 51 28 95z" />
    <glyph glyph-name="guilsinglleft" unicode="&#x2039;" horiz-adv-x="318" 
d="M263 108l-54 -40l-164 230l164 230l53 -38l-111 -191z" />
    <glyph glyph-name="guilsinglright" unicode="&#x203a;" horiz-adv-x="318" 
d="M273 298l-164 -230l-54 40l112 191l-111 191l53 38z" />
    <glyph glyph-name="fraction" unicode="&#x2044;" horiz-adv-x="588" 
d="M579 685l-516 -706l-54 41l515 704z" />
    <glyph glyph-name="Euro" unicode="&#x20ac;" horiz-adv-x="586" 
d="M571 45c-50.667 -38.667 -111.334 -58 -182.001 -58c-78 0 -143.333 27 -196 81c-46 46.667 -74 106.334 -84 179.001h-79v61h74c-0.666992 8.66699 -1 22 -1 40c0 17.333 0.333008 30.333 1 39h-74v61h79c10 73.333 38 133.333 84 180c52.667 54 118 81 196 81
c70.667 0 131.334 -19.333 182.001 -58l-33 -72c-42.667 33.333 -92.334 50 -149.001 50c-56 0 -102.333 -20.333 -139 -61c-26.667 -29.333 -44 -69.333 -52 -120h280l-27 -61h-258c-0.666992 -8.66699 -1 -22 -1 -40c0 -17.333 0.333008 -30.333 1 -39h230l-27 -61h-198
c6.66699 -48.667 24 -88.334 52 -119.001c36.667 -40.667 83 -61 139 -61c56.667 0 106.334 16.667 149.001 50z" />
    <glyph glyph-name="trademark" unicode="&#x2122;" horiz-adv-x="837" 
d="M762 318h-68v320l-106 -310h-49l-106 309v-319h-68v391h107l93 -282l93 282h104v-391zM310 647h-111v-329h-68v329h-111v62h290v-62z" />
    <glyph glyph-name="partialdiff" unicode="&#x2202;" 
d="M501 0h-382v78h148v520l-165 -121v95l170 123h81v-617h148v-78z" />
    <glyph glyph-name="product" unicode="&#x220f;" horiz-adv-x="812" 
d="M747 867c0 -5.33301 -2 -10.166 -6 -14.499s-8.66699 -6.5 -14 -6.5s-10.166 2.16699 -14.499 6.5s-6.5 9.16602 -6.5 14.499s2.16699 10 6.5 14s9.16602 6 14.499 6s10 -2 14 -6s6 -8.66699 6 -14zM746 615c0 -6 -2.16602 -11 -6.49902 -15s-9.5 -6 -15.5 -6
c-12.667 0 -19 7 -19 21c0 5.33301 2.16699 10.166 6.5 14.499s9.16602 6.5 14.499 6.5s10 -2.16699 14 -6.5s6 -9.16602 6 -14.499zM492.001 867c0 -5.33301 -2.16699 -10.166 -6.5 -14.499s-9.16602 -6.5 -14.499 -6.5s-10.166 2.16699 -14.499 6.5
s-6.5 9.16602 -6.5 14.499s2.16699 10 6.5 14s9.16602 6 14.499 6s10.166 -2 14.499 -6s6.5 -8.66699 6.5 -14zM620.001 737c0 -5.33301 -2 -10 -6 -14s-8.66699 -6 -14 -6s-10.166 2 -14.499 6s-6.5 8.66699 -6.5 14s2.16699 10.166 6.5 14.499s9.16602 6.5 14.499 6.5
s10 -2.16699 14 -6.5s6 -9.16602 6 -14.499zM744.001 365c0 -5.33301 -2.16699 -10.166 -6.5 -14.499s-9.16602 -6.5 -14.499 -6.5s-10.166 2.16699 -14.499 6.5s-6.5 9.16602 -6.5 14.499s2.16699 10 6.5 14s9.16602 6 14.499 6s10.166 -2 14.499 -6s6.5 -8.66699 6.5 -14z
M491.001 615c0 -5.33301 -2.16699 -10.166 -6.5 -14.499s-9.16602 -6.5 -14.499 -6.5s-10.166 2.16699 -14.499 6.5s-6.5 9.16602 -6.5 14.499s2.16699 10.166 6.5 14.499s9.16602 6.5 14.499 6.5s10.166 -2.16699 14.499 -6.5s6.5 -9.16602 6.5 -14.499zM619.001 486
c0 -5.33301 -2.16699 -10.166 -6.5 -14.499s-9.16602 -6.5 -14.499 -6.5s-10 2.16699 -14 6.5s-6 9.16602 -6 14.499s2 10.166 6 14.499s8.66699 6.5 14 6.5s10.166 -2.16699 14.499 -6.5s6.5 -9.16602 6.5 -14.499zM237.001 867c0 -5.33301 -2.16699 -10.166 -6.5 -14.499
s-9.16602 -6.5 -14.499 -6.5s-10 2.16699 -14 6.5s-6 9.16602 -6 14.499s2 10 6 14s8.66699 6 14 6s10.166 -2 14.499 -6s6.5 -8.66699 6.5 -14zM365.001 737c0 -5.33301 -2.16699 -10 -6.5 -14s-9.16602 -6 -14.499 -6s-10.166 2 -14.499 6s-6.5 8.66699 -6.5 14
s2.16699 10.166 6.5 14.499s9.16602 6.5 14.499 6.5s10.166 -2.16699 14.499 -6.5s6.5 -9.16602 6.5 -14.499zM745.001 113c0 -5.33301 -2.16699 -10.166 -6.5 -14.499s-9.16602 -6.5 -14.499 -6.5s-10.166 2.16699 -14.499 6.5s-6.5 9.16602 -6.5 14.499
s2.16699 10.166 6.5 14.499s9.16602 6.5 14.499 6.5s10.166 -2.16699 14.499 -6.5s6.5 -9.16602 6.5 -14.499zM488.001 365c0 -5.33301 -2.16699 -10.166 -6.5 -14.499s-9.16602 -6.5 -14.499 -6.5s-10.166 2.16699 -14.499 6.5s-6.5 9.16602 -6.5 14.499s2.16699 10 6.5 14
s9.16602 6 14.499 6s10.166 -2 14.499 -6s6.5 -8.66699 6.5 -14zM616.001 236c0 -5.33301 -2 -10.166 -6 -14.499s-8.66699 -6.5 -14 -6.5s-10.166 2.16699 -14.499 6.5s-6.5 9.16602 -6.5 14.499s2.16699 10 6.5 14s9.16602 6 14.499 6s10 -2 14 -6s6 -8.66699 6 -14z
M236.001 615c0 -5.33301 -2.16699 -10.166 -6.5 -14.499s-9.16602 -6.5 -14.499 -6.5s-10.166 2.16699 -14.499 6.5s-6.5 9.16602 -6.5 14.499s2.16699 10.166 6.5 14.499s9.16602 6.5 14.499 6.5s10.166 -2.16699 14.499 -6.5s6.5 -9.16602 6.5 -14.499zM363.001 486
c0 -5.33301 -2 -10.166 -6 -14.499s-8.66699 -6.5 -14 -6.5s-10.166 2.16699 -14.499 6.5s-6.5 9.16602 -6.5 14.499s2.16699 10.166 6.5 14.499s9.16602 6.5 14.499 6.5s10 -2.16699 14 -6.5s6 -9.16602 6 -14.499zM110.001 737c0 -5.33301 -2.16699 -10 -6.5 -14
s-9.16602 -6 -14.499 -6s-10.166 2 -14.499 6s-6.5 8.66699 -6.5 14s2.16699 10.166 6.5 14.499s9.16602 6.5 14.499 6.5s10.166 -2.16699 14.499 -6.5s6.5 -9.16602 6.5 -14.499zM745.001 -139c0 -5.33301 -2.16699 -10.166 -6.5 -14.499s-9.16602 -6.5 -14.499 -6.5
s-10.166 2.16699 -14.499 6.5s-6.5 9.16602 -6.5 14.499s2.16699 10.166 6.5 14.499s9.16602 6.5 14.499 6.5s10.166 -2.16699 14.499 -6.5s6.5 -9.16602 6.5 -14.499zM489.001 113c0 -5.33301 -2.16699 -10.166 -6.5 -14.499s-9.16602 -6.5 -14.499 -6.5
s-10.166 2.16699 -14.499 6.5s-6.5 9.16602 -6.5 14.499s2.16699 10.166 6.5 14.499s9.16602 6.5 14.499 6.5s10.166 -2.16699 14.499 -6.5s6.5 -9.16602 6.5 -14.499zM617.001 -16c0 -5.33301 -2 -10.166 -6 -14.499s-8.66699 -6.5 -14 -6.5s-10.166 2.16699 -14.499 6.5
s-6.5 9.16602 -6.5 14.499s2.16699 10.166 6.5 14.499s9.16602 6.5 14.499 6.5s10 -2.16699 14 -6.5s6 -9.16602 6 -14.499zM233.001 365c0 -5.33301 -2.16699 -10.166 -6.5 -14.499s-9.16602 -6.5 -14.499 -6.5s-10 2.16699 -14 6.5s-6 9.16602 -6 14.499s2 10 6 14
s8.66699 6 14 6s10.166 -2 14.499 -6s6.5 -8.66699 6.5 -14zM361.001 236c0 -5.33301 -2.16699 -10.166 -6.5 -14.499s-9.16602 -6.5 -14.499 -6.5s-10.166 2.16699 -14.499 6.5s-6.5 9.16602 -6.5 14.499s2.16699 10 6.5 14s9.16602 6 14.499 6s10.166 -2 14.499 -6
s6.5 -8.66699 6.5 -14zM109.001 486c0 -5.33301 -2.16699 -10.166 -6.5 -14.499s-9.16602 -6.5 -14.499 -6.5s-10.166 2.16699 -14.499 6.5s-6.5 9.16602 -6.5 14.499s2.16699 10.166 6.5 14.499s9.16602 6.5 14.499 6.5s10.166 -2.16699 14.499 -6.5
s6.5 -9.16602 6.5 -14.499zM489.001 -139c0 -5.33301 -2.16699 -10.166 -6.5 -14.499s-9.16602 -6.5 -14.499 -6.5s-10.166 2.16699 -14.499 6.5s-6.5 9.16602 -6.5 14.499s2.16699 10.166 6.5 14.499s9.16602 6.5 14.499 6.5s10.166 -2.16699 14.499 -6.5
s6.5 -9.16602 6.5 -14.499zM617.001 -268c0 -5.33301 -2 -10.166 -6 -14.499s-8.66699 -6.5 -14 -6.5s-10.166 2.16699 -14.499 6.5s-6.5 9.16602 -6.5 14.499s2.16699 10 6.5 14s9.16602 6 14.499 6s10 -2 14 -6s6 -8.66699 6 -14zM234.001 113
c0 -5.33301 -2 -10.166 -6 -14.499s-8.66699 -6.5 -14 -6.5s-10.166 2.16699 -14.499 6.5s-6.5 9.16602 -6.5 14.499s2.16699 10.166 6.5 14.499s9.16602 6.5 14.499 6.5s10 -2.16699 14 -6.5s6 -9.16602 6 -14.499zM362.001 -16c0 -5.33301 -2.16699 -10.166 -6.5 -14.499
s-9.16602 -6.5 -14.499 -6.5s-10.166 2.16699 -14.499 6.5s-6.5 9.16602 -6.5 14.499s2.16699 10.166 6.5 14.499s9.16602 6.5 14.499 6.5s10.166 -2.16699 14.499 -6.5s6.5 -9.16602 6.5 -14.499zM106.001 236c0 -5.33301 -2.16699 -10.166 -6.5 -14.499
s-9.16602 -6.5 -14.499 -6.5s-10 2.16699 -14 6.5s-6 9.16602 -6 14.499s2 10 6 14s8.66699 6 14 6s10.166 -2 14.499 -6s6.5 -8.66699 6.5 -14zM234.001 -139c0 -5.33301 -2.16699 -10.166 -6.5 -14.499s-9.16602 -6.5 -14.499 -6.5s-10 2.16699 -14 6.5
s-6 9.16602 -6 14.499s2 10.166 6 14.499s8.66699 6.5 14 6.5s10.166 -2.16699 14.499 -6.5s6.5 -9.16602 6.5 -14.499zM362.001 -268c0 -5.33301 -2.16699 -10.166 -6.5 -14.499s-9.16602 -6.5 -14.499 -6.5s-10.166 2.16699 -14.499 6.5s-6.5 9.16602 -6.5 14.499
s2.16699 10 6.5 14s9.16602 6 14.499 6s10.166 -2 14.499 -6s6.5 -8.66699 6.5 -14zM107.001 -16c0 -5.33301 -2.16699 -10.166 -6.5 -14.499s-9.16602 -6.5 -14.499 -6.5s-10 2.16699 -14 6.5s-6 9.16602 -6 14.499s2 10.166 6 14.499s8.66699 6.5 14 6.5
s10.166 -2.16699 14.499 -6.5s6.5 -9.16602 6.5 -14.499zM107.001 -268c0 -5.33301 -2.16699 -10.166 -6.5 -14.499s-9.16602 -6.5 -14.499 -6.5s-10.166 2.16699 -14.499 6.5s-6.5 9.16602 -6.5 14.499s2.16699 10 6.5 14s9.16602 6 14.499 6s10.166 -2 14.499 -6
s6.5 -8.66699 6.5 -14z" />
    <glyph glyph-name="summation" unicode="&#x2211;" horiz-adv-x="928" 
d="M852 -73h-776v221h47v-175h683v175h46v-221z" />
    <glyph glyph-name="minus" unicode="&#x2212;" horiz-adv-x="645" 
d="M585 262h-515v79h515v-79z" />
    <glyph glyph-name="radical" unicode="&#x221a;" horiz-adv-x="690" 
d="M690 766h-110l-259 -774h-77l-179 512h91l127 -385l230 713h177v-66z" />
    <glyph glyph-name="infinity" unicode="&#x221e;" horiz-adv-x="721" 
d="M653 328l-110.997 0.000976562v-252h110v-76h-331c-72 0 -128.333 19.667 -169 59c-38 36.667 -57 83.667 -57 141c0 35.333 11 68 33 98s50 52 84 66c-30.667 13.333 -55.834 33.833 -75.501 61.5s-29.5 58.5 -29.5 92.5c0 57.333 19 103.333 57 138
c39.333 36 90.666 54 153.999 54c33.333 0 62 -3 86 -9v-77c-21.333 4.66699 -48 7 -80 7c-38 0 -68.333 -10.333 -91 -31c-22.667 -21.333 -34 -48 -34 -80c0 -36.667 11.167 -65.334 33.5 -86.001s53.166 -31 92.499 -31h132v115h85v-115h111v-75zM457.003 76.001v203v49
h-126c-42 0 -77 -12.333 -105 -37s-42 -56 -42 -94c0 -31.333 9.33301 -57.333 28 -78c26 -28.667 63 -43 111 -43h134z" />
    <glyph glyph-name="integral" unicode="&#x222b;" horiz-adv-x="663" 
d="M613 215l-51 -51l-427 427v-331h-70v449h451v-67h-330z" />
    <glyph glyph-name="approxequal" unicode="&#x2248;" horiz-adv-x="655" 
d="M580 374c-31.333 -30.667 -57.999 -51.334 -79.999 -62.001s-46.333 -16 -73 -16c-26 0 -64.333 11.333 -115 34c-36.667 16 -65 24 -85 24c-16.667 0 -32.167 -3 -46.5 -9s-31.833 -19 -52.5 -39l-53 55c31.333 30.667 58 51.334 80 62.001s46.333 16 73 16
c23.333 0 50.666 -6 81.999 -18c6 -2 18 -6.83301 36 -14.5s32 -13.167 42 -16.5c12 -4.66699 25 -7 39 -7c16.667 0 32.167 2.83301 46.5 8.5s31.833 18.5 52.5 38.5zM580.001 184c-31.333 -30.667 -57.999 -51.334 -79.999 -62.001s-46.333 -16 -73 -16
c-28 0 -66.333 11 -115 33c-38 16.667 -66.333 25 -85 25c-16.667 0 -32.167 -3 -46.5 -9s-31.833 -19 -52.5 -39l-53 54c31.333 30.667 58 51.334 80 62.001s46.333 16 73 16c25.333 0 52.666 -5.66699 81.999 -17c6 -2 18 -6.83301 36 -14.5s32 -13.167 42 -16.5
c14 -5.33301 27 -8 39 -8c16.667 0 32.167 2.83301 46.5 8.5s31.833 18.5 52.5 38.5z" />
    <glyph glyph-name="notequal" unicode="&#x2260;" horiz-adv-x="692" 
d="M587 134h-319l-83 -118l-50 35l58 83h-88v77h142l93 133h-235v77h289l79 113l50 -35l-55 -78h119v-77h-172l-94 -133h266v-77z" />
    <glyph glyph-name="lessequal" unicode="&#x2264;" horiz-adv-x="857" 
d="M792 269h-604l235 -232l-48 -50l-320 318l320 318l48 -50l-235 -232h604v-72z" />
    <glyph glyph-name="greaterequal" unicode="&#x2265;" horiz-adv-x="857" 
d="M802 305l-319 -318l-48 50l234 232h-604v72h604l-234 232l48 50z" />
    <glyph glyph-name="lozenge" unicode="&#x25ca;" 
d="M512 348c0 -74.667 -5.5 -135.334 -16.5 -182.001s-32.833 -86.667 -65.5 -120c-39.333 -39.333 -89.333 -59 -150 -59s-110.667 19.667 -150 59c-32.667 33.333 -54.5 73.333 -65.5 120s-16.5 107.334 -16.5 182.001s5.5 135.5 16.5 182.5s32.833 87.167 65.5 120.5
c38.667 38.667 88.667 58 150 58s111.333 -19.333 150 -58c32.667 -33.333 54.5 -73.5 65.5 -120.5s16.5 -107.833 16.5 -182.5zM400 550c-8 18.667 -19.3311 35 -33.998 49c-22.667 21.333 -51.334 32 -86.001 32s-63.334 -10.667 -86.001 -32
c-14 -13.333 -25.167 -29 -33.5 -47s-14 -40.5 -17 -67.5s-4.83301 -48 -5.5 -63s-1 -39.5 -1 -73.5c0 -60 1 -99.333 3 -118zM423.002 348c0 50 -1.00195 87 -3.00195 111l-257 -319c8.66699 -18 19 -32.333 31 -43c22.667 -21.333 51.334 -32 86.001 -32
s63.334 10.667 86.001 32c14 13.333 25.167 29 33.5 47s14 40.5 17 67.5s4.83301 48 5.5 63s1 39.5 1 73.5z" />
    <glyph glyph-name="fi" unicode="&#xfb01;" horiz-adv-x="638" 
d="M361 652c-48 5.33301 -75.998 8.00098 -83.998 8.00098c-22 0 -39.5 -6.33301 -52.5 -19s-19.5 -29.334 -19.5 -50.001v-85h146v-72h-146v-434h-85v434h-92v72h92v90c0 38.667 13.667 71 41 97s62.666 39 105.999 39c29.333 0 60.666 -3 93.999 -9v-71zM551.002 622.001
h-99v100h99v-100zM545.002 0.000976562h-87v506h87v-506z" />
    <glyph glyph-name="fl" unicode="&#xfb02;" horiz-adv-x="662" 
d="M361 652c-48 5.33301 -75.998 8.00098 -83.998 8.00098c-22 0 -39.5 -6.33301 -52.5 -19s-19.5 -29.334 -19.5 -50.001v-85h146v-72h-146v-434h-85v434h-92v72h92v90c0 38.667 13.667 71 41 97s62.666 39 105.999 39c29.333 0 60.666 -3 93.999 -9v-71z
M627.002 0.000976562c-12.667 -4 -32.667 -6 -60 -6c-70.667 0 -106 41.333 -106 124v604h85v-599c0 -18 3.5 -31.167 10.5 -39.5s18.833 -12.5 35.5 -12.5l35 1v-72z" />
    <glyph glyph-name=".null" horiz-adv-x="0" 
 />
    <glyph glyph-name="nonmarkingreturn" horiz-adv-x="333" 
 />
    <glyph glyph-name="apple" horiz-adv-x="588" 
d="M539 364c0 -27.333 -8.83496 -49.8311 -26.502 -67.498s-39.834 -26.5 -66.501 -26.5h-72c11.333 -15.333 17 -33.333 17 -54c0 -26.667 -8.83301 -48.834 -26.5 -66.501s-39.834 -26.5 -66.501 -26.5h-249v248c0 27.333 8.83301 49.833 26.5 67.5
s39.834 26.5 66.501 26.5c20 0 38.333 -5.66699 55 -17v71c0 27.333 8.83301 49.833 26.5 67.5s39.834 26.5 66.501 26.5s48.834 -8.83301 66.501 -26.5s26.5 -40.167 26.5 -67.5v-62h63c26.667 0 48.834 -8.83301 66.501 -26.5s26.5 -39.834 26.5 -66.501zM521.998 364.002
c0 22.667 -7 41 -21 55s-32.333 21 -55 21h-79v79c0 22.667 -7.16699 41.167 -21.5 55.5s-32.833 21.5 -55.5 21.5s-41 -7.16699 -55 -21.5s-21 -32.833 -21 -55.5v-232h232c22.667 0 41 7.16699 55 21.5s21 32.833 21 55.5z" />
  </font>
</defs>
</svg>
