<?xml version="1.0" standalone="no"?>
<!DOCTYPE svg PUBLIC "-//W3C//DTD SVG 1.1//EN" "http://www.w3.org/Graphics/SVG/1.1/DTD/svg11.dtd" >
<svg>
<metadata>
Created by FontForge 20090914 at Fri Jan  8 00:39:38 2016
 By www-data
</metadata>
<defs>
<font id="AkkuratLight" horiz-adv-x="568" >
  <font-face 
    font-family="Akkurat Light"
    font-weight="300"
    font-stretch="normal"
    units-per-em="1000"
    panose-1="2 0 3 0 0 0 0 0 0 0"
    ascent="760"
    descent="-240"
    x-height="500"
    cap-height="709"
    bbox="-18.001 -281 1081 940"
    underline-thickness="45"
    underline-position="-93"
    unicode-range="U+0009-U+F002"
  />
<missing-glyph horiz-adv-x="588" 
d="M539 364c0 -27.333 -8.83496 -49.8311 -26.502 -67.498s-39.834 -26.5 -66.501 -26.5h-72c11.333 -15.333 17 -33.333 17 -54c0 -26.667 -8.83301 -48.834 -26.5 -66.501s-39.834 -26.5 -66.501 -26.5h-249v248c0 27.333 8.83301 49.833 26.5 67.5
s39.834 26.5 66.501 26.5c20 0 38.333 -5.66699 55 -17v71c0 27.333 8.83301 49.833 26.5 67.5s39.834 26.5 66.501 26.5s48.834 -8.83301 66.501 -26.5s26.5 -40.167 26.5 -67.5v-62h63c26.667 0 48.834 -8.83301 66.501 -26.5s26.5 -39.834 26.5 -66.501zM521.998 364.002
c0 22.667 -7 41 -21 55s-32.333 21 -55 21h-79v79c0 22.667 -7.16699 41.167 -21.5 55.5s-32.833 21.5 -55.5 21.5s-41 -7.16699 -55 -21.5s-21 -32.833 -21 -55.5v-232h232c22.667 0 41 7.16699 55 21.5s21 32.833 21 55.5z" />
    <glyph glyph-name="fi" unicode="fi" horiz-adv-x="620" 
d="M349 677c-26.667 4 -50.666 6 -71.999 6c-63.333 0 -95 -32.333 -95 -97v-86h157v-46h-157v-454h-50v454h-100v46h100v88c0 40 12.167 73.333 36.5 100s59.166 40 104.499 40c26.667 0 52 -2 76 -6v-45zM524.001 639h-70v70h70v-70zM516.001 0h-53v500h53v-500z" />
    <glyph glyph-name="fl" unicode="fl" horiz-adv-x="635" 
d="M349 677c-26.667 4 -50.666 6 -71.999 6c-63.333 0 -95 -32.333 -95 -97v-86h157v-46h-157v-454h-50v454h-100v46h100v88c0 40 12.167 73.333 36.5 100s59.166 40 104.499 40c26.667 0 52 -2 76 -6v-45zM597.001 0c-14.667 -4 -29.666 -6 -44.999 -6
c-66.667 0 -100 35.333 -100 106v622h50v-620c0 -40 17.333 -60 52 -60c19.333 0 33.666 0.666992 42.999 2v-44z" />
    <glyph glyph-name=".notdef" horiz-adv-x="588" 
d="M539 364c0 -27.333 -8.83496 -49.8311 -26.502 -67.498s-39.834 -26.5 -66.501 -26.5h-72c11.333 -15.333 17 -33.333 17 -54c0 -26.667 -8.83301 -48.834 -26.5 -66.501s-39.834 -26.5 -66.501 -26.5h-249v248c0 27.333 8.83301 49.833 26.5 67.5
s39.834 26.5 66.501 26.5c20 0 38.333 -5.66699 55 -17v71c0 27.333 8.83301 49.833 26.5 67.5s39.834 26.5 66.501 26.5s48.834 -8.83301 66.501 -26.5s26.5 -40.167 26.5 -67.5v-62h63c26.667 0 48.834 -8.83301 66.501 -26.5s26.5 -39.834 26.5 -66.501zM521.998 364.002
c0 22.667 -7 41 -21 55s-32.333 21 -55 21h-79v79c0 22.667 -7.16699 41.167 -21.5 55.5s-32.833 21.5 -55.5 21.5s-41 -7.16699 -55 -21.5s-21 -32.833 -21 -55.5v-232h232c22.667 0 41 7.16699 55 21.5s21 32.833 21 55.5z" />
    <glyph glyph-name="HT" unicode="&#x9;" horiz-adv-x="215" 
 />
    <glyph glyph-name="CR" unicode="&#xd;" horiz-adv-x="215" 
 />
    <glyph glyph-name="space" unicode=" " horiz-adv-x="215" 
 />
    <glyph glyph-name="exclam" unicode="!" horiz-adv-x="307" 
d="M198 515l-14 -288h-34l-14 288v194h62v-194zM206 0h-76v76h76v-76z" />
    <glyph glyph-name="quotedbl" unicode="&#x22;" horiz-adv-x="438" 
d="M308 585l-15 -152h-32l-14 152v124h61v-124zM157 585l-15 -152h-32l-14 152v124h61v-124z" />
    <glyph glyph-name="numbersign" unicode="#" horiz-adv-x="765" 
d="M687 452h-137l-29 -209h133v-45h-140l-28 -198h-44l28 198h-216l-28 -198h-45l28 198h-126v45h133l29 209h-129v45h136l28 198h44l-28 -198h216l28 198h45l-28 -198h130v-45zM506 452h-216l-30 -209h216z" />
    <glyph glyph-name="dollar" unicode="$" 
d="M523 202c0 -52.667 -18.665 -96.998 -55.998 -132.998c-40 -40 -94 -62 -162 -66v-91h-41v91c-72.667 4.66699 -129.334 28.667 -170.001 72c-40.667 44 -61 95.333 -61 154h50c0 -48 17 -89.667 51 -125c32.667 -33.333 76 -51.666 130 -54.999v293l-45 6
c-48.667 6.66699 -88.5 24.5 -119.5 53.5s-46.5 68.5 -46.5 118.5c0 48 20 90.333 60 127c41.333 36.667 91.666 56.667 150.999 60v93h41v-94c61.333 -6 110 -28.333 146 -67c38.667 -41.333 59 -88.333 61 -141h-50c-2 42.667 -18 80 -48 112
c-25.333 27.333 -61.666 43.666 -108.999 48.999v-270l47 -6c53.333 -6.66699 95.166 -25.834 125.499 -57.501s45.5 -72.834 45.5 -123.501zM264.002 394.002v267c-47.333 -2 -85.333 -15.667 -114 -41c-31.333 -26.667 -47 -60 -47 -100c0 -70.667 40.333 -111 121 -121z
M473.002 202.002c0 76 -42.333 119.333 -127 130l-41 5v-288c52 4 93.667 21.333 125 52c28.667 27.333 43 61 43 101z" />
    <glyph glyph-name="percent" unicode="%" horiz-adv-x="925" 
d="M852 172c0 -51.333 -11 -93 -33 -125c-29.333 -40.667 -69 -61 -119 -61s-89.667 20.333 -119 61c-22 32 -33 73.667 -33 125s11 93 33 125c29.333 40.667 69 61 119 61c51.333 0 91 -20.333 119 -61c22 -32 33 -73.667 33 -125zM736 694l-518 -706l-35 27l517 704z
M372 536c0 -51.333 -11 -93 -33 -125c-29.333 -40.667 -69 -61 -119 -61c-50.667 0 -90.667 20.333 -120 61c-21.333 31.333 -32 73 -32 125s10.667 93.667 32 125c29.333 40.667 69 61 119 61c52 0 92 -20.333 120 -61c22 -32 33 -73.667 33 -125zM806 172
c0 42 -8.66699 76 -26 102s-44 39 -80 39s-62.833 -13 -80.5 -39s-26.5 -60 -26.5 -102s8.83301 -76 26.5 -102s44.5 -39 80.5 -39s62.667 13 80 39s26 60 26 102zM326 536c0 42 -8.83301 76 -26.5 102s-44.5 39 -80.5 39s-62.667 -13 -80 -39s-26 -60 -26 -102
s8.83301 -76 26.5 -102s44.5 -39 80.5 -39s62.667 13 80 39s26 60 26 102z" />
    <glyph glyph-name="ampersand" unicode="&#x26;" horiz-adv-x="719" 
d="M667 352l-76.001 0.000976562c-1.33301 -105.333 -18.333 -181.333 -51 -228l111 -124h-64l-74 84c-56.667 -65.333 -127.667 -98 -213 -98c-59.333 0 -109.166 18.333 -149.499 55s-60.5 85 -60.5 145c0 73.333 32.333 129 97 167l56 33l-52 58
c-32.667 36.667 -49 77 -49 121c0 44.667 15.833 82.167 47.5 112.5s71.5 45.5 119.5 45.5s88.333 -14.5 121 -43.5s49 -67.167 49 -114.5c0 -62.667 -29 -111.334 -87 -146.001l-74 -44l188 -213c24.667 44 37 108 37 192v43h124v-45zM429.999 565.001
c0 33.333 -11.332 60.333 -33.999 81s-51.667 31 -87 31c-32.667 0 -60.334 -10.333 -83.001 -31s-34 -47.667 -34 -81c0 -31.333 14 -63.333 42 -96l52 -60l81 50c42 26 63 61.333 63 106zM478 122.001l-203 228l-56 -33c-52 -30 -78 -73.667 -78 -131
c0 -44 15.333 -80 46 -108s68.334 -42 113.001 -42c73.333 0 132.666 28.667 177.999 86z" />
    <glyph glyph-name="quotesingle" unicode="'" horiz-adv-x="241" 
d="M151 585l-15 -152h-32l-14 152v124h61v-124z" />
    <glyph glyph-name="parenleft" unicode="(" horiz-adv-x="291" 
d="M271 -104l-31 -24c-52.667 59.333 -93.334 129.333 -122.001 210s-43 161 -43 241s14.333 160.333 43 241s69.334 150.667 122.001 210l31 -24c-99.333 -128 -149 -270.333 -149 -427s49.667 -299 149 -427z" />
    <glyph glyph-name="parenright" unicode=")" horiz-adv-x="291" 
d="M216 323c0 -80 -14.333 -160.333 -43 -241s-69.334 -150.667 -122.001 -210l-31 24c99.333 128 149 270.333 149 427s-49.667 299 -149 427l31 24c52.667 -59.333 93.334 -129.333 122.001 -210s43 -161 43 -241z" />
    <glyph glyph-name="asterisk" unicode="*" horiz-adv-x="534" 
d="M471 532l-173 -52l108 -143l-38 -28l-102 149l-102 -149l-38 28l110 143l-173 52l14 45l171 -60l-5 180h47l-4 -180l170 60z" />
    <glyph glyph-name="plus" unicode="+" horiz-adv-x="683" 
d="M610 280h-245v-275h-47v275h-245v45h245v257h47v-257h245v-45z" />
    <glyph glyph-name="comma" unicode="," horiz-adv-x="269" 
d="M181 -1c0 -57.333 -25.333 -98.001 -76 -122.001l-17 28c21.333 11.333 36 23.833 44 37.5s12 32.834 12 57.501h-55v90h92v-91z" />
    <glyph glyph-name="hyphen" unicode="-" horiz-adv-x="433" 
d="M358 279h-283v46h283v-46z" />
    <glyph glyph-name="period" unicode="." horiz-adv-x="264" 
d="M176 0h-88v90h88v-90z" />
    <glyph glyph-name="slash" unicode="/" horiz-adv-x="396" 
d="M384 722l-313 -735h-46l313 735h46z" />
    <glyph glyph-name="zero" unicode="0" 
d="M507 348c0 -150.667 -27.333 -252.334 -82 -305.001c-38.667 -37.333 -85.667 -56 -141 -56s-102.333 18.667 -141 56c-54.667 52.667 -82 154.334 -82 305.001s27.333 252.334 82 305.001c38.667 37.333 85.667 56 141 56s102.333 -18.667 141 -56
c54.667 -52.667 82 -154.334 82 -305.001zM456 348c0 40.667 -0.833008 74.167 -2.5 100.5s-7.66699 57 -18 92s-25.166 61.833 -44.499 80.5c-28 26.667 -63.667 40 -107 40s-79 -13.333 -107 -40c-19.333 -18.667 -34.166 -45.5 -44.499 -80.5s-16.333 -65.667 -18 -92
s-2.5 -59.833 -2.5 -100.5s0.833008 -74.167 2.5 -100.5s7.66699 -57 18 -92s25.166 -61.833 44.499 -80.5c28 -26.667 63.667 -40 107 -40s79 13.333 107 40c19.333 18.667 34.166 45.5 44.499 80.5s16.333 65.667 18 92s2.5 59.833 2.5 100.5z" />
    <glyph glyph-name="one" unicode="1" 
d="M343 0h-50v633l-173 -127v56l178 133h45v-695z" />
    <glyph glyph-name="two" unicode="2" 
d="M502 0l-403.001 -0.00195312v54l278 347c37.333 46.667 56 91.334 56 134.001c0 39.333 -12.833 70.166 -38.5 92.499s-58.167 33.5 -97.5 33.5c-46 0 -81.833 -14.5 -107.5 -43.5s-38.5 -67.167 -38.5 -114.5h-53c0 60.667 18 110.167 54 148.5s84.333 57.5 145 57.5
c54.667 0 99.334 -15.667 134.001 -47s52 -73.666 52 -126.999s-22.667 -107.666 -68 -162.999l-260 -324h347v-48z" />
    <glyph glyph-name="three" unicode="3" 
d="M488 182c0 -57.333 -20.835 -104.168 -62.502 -140.501s-92.5 -54.5 -152.5 -54.5c-64.667 0 -116 20 -154 60s-57.667 91.667 -59 155h51c0.666992 -48 14.834 -87.833 42.501 -119.5s67.5 -47.5 119.5 -47.5c49.333 0 88.833 13.333 118.5 40s44.5 62.334 44.5 107.001
c0 50.667 -14.5 89.334 -43.5 116.001s-69.167 40 -120.5 40h-37v48h37c46 0 82.333 12 109 36s40 58.667 40 104c0 40 -14.167 72.5 -42.5 97.5s-62.5 37.5 -102.5 37.5c-48 0 -86.5 -14.333 -115.5 -43s-43.833 -66.667 -44.5 -114h-52
c0.666992 61.333 20.834 110.833 60.501 148.5s90.167 56.5 151.5 56.5c55.333 0 102 -16.833 140 -50.5s57 -77.834 57 -132.501c0 -38.667 -9.83301 -73 -29.5 -103s-47.5 -50.333 -83.5 -61c40 -11.333 71.333 -33.5 94 -66.5s34 -70.833 34 -113.5z" />
    <glyph glyph-name="four" unicode="4" 
d="M530 159h-97v-159h-51v159h-328v55l283 481h57l-286 -486h274v215h51v-215h97v-50z" />
    <glyph glyph-name="five" unicode="5" 
d="M508 218c0 -68.667 -18.333 -124.499 -55 -167.499s-89.667 -64.5 -159 -64.5c-64 0 -115.833 20.333 -155.5 61s-60.167 92 -61.5 154h51c2 -50 17.833 -90.333 47.5 -121s69.167 -46 118.5 -46c53.333 0 93.833 16.5 121.5 49.5s41.5 77.833 41.5 134.5
c0 54 -13 98.167 -39 132.5s-64.667 51.5 -116 51.5c-68 0 -117.667 -25.333 -149 -76h-62l16 369h378v-47h-330l-14 -276c32 51.333 85.667 77 161 77c66.667 0 117.667 -21.333 153 -64s53 -98.334 53 -167.001z" />
    <glyph glyph-name="six" unicode="6" 
d="M511 220c0 -66 -19.3311 -121.333 -57.998 -166s-91 -67 -157 -67c-69.333 0 -124 28.333 -164 85c-40.667 56.667 -61 149 -61 277c0 140.667 25.333 238.667 76 294c40 44 89.333 66 148 66c56 0 102.5 -16.667 139.5 -50s56.833 -77 59.5 -131h-52
c-2.66699 40.667 -17 73 -43 97s-60.667 36 -104 36c-44.667 0 -81.334 -15.667 -110.001 -47c-41.333 -44.667 -62 -135.334 -62 -272.001c14 32 36.667 58.167 68 78.5s66 30.5 104 30.5c67.333 0 120.166 -21.167 158.499 -63.5s57.5 -98.166 57.5 -167.499zM460.002 220
c0 52 -13.834 95.833 -41.501 131.5s-68.5 53.5 -122.5 53.5c-41.333 0 -76.666 -14 -105.999 -42c-35.333 -34 -53 -81 -53 -141c0 -51.333 14.167 -95.333 42.5 -132s67.5 -55 117.5 -55c54 0 94.667 17.833 122 53.5s41 79.5 41 131.5z" />
    <glyph glyph-name="seven" unicode="7" 
d="M489 642l-299 -642h-54l302 647h-383v48h434v-53z" />
    <glyph glyph-name="eight" unicode="8" 
d="M503 183c0 -60.667 -21.1699 -108.5 -63.5029 -143.5s-94.5 -52.5 -156.5 -52.5s-113.833 17.5 -155.5 52.5s-62.5 82.833 -62.5 143.5c0 40 11.333 76.833 34 110.5s52.334 56.834 89.001 69.501c-32 12.667 -57.833 34 -77.5 64s-29.5 62.333 -29.5 97
c0 57.333 19.333 102.5 58 135.5s87.334 49.5 146.001 49.5s107 -16.5 145 -49.5s57 -78.167 57 -135.5c0 -34.667 -9.83301 -67 -29.5 -97s-45.5 -51.333 -77.5 -64c36.667 -12.667 66.334 -35.834 89.001 -69.501s34 -70.5 34 -110.5zM434.997 526
c0 43.333 -14.334 77.166 -43.001 101.499s-65 36.5 -109 36.5c-43.333 0 -79.166 -12.167 -107.499 -36.5s-42.5 -58.166 -42.5 -101.499c0 -44 14.167 -78.5 42.5 -103.5s64.833 -37.5 109.5 -37.5c44 0 80 12.5 108 37.5s42 59.5 42 103.5zM450.996 186
c0 48 -15.833 85.833 -47.5 113.5s-71.834 41.5 -120.501 41.5s-88.5 -13.833 -119.5 -41.5s-46.5 -65.5 -46.5 -113.5s15.833 -85.5 47.5 -112.5s71.834 -40.5 120.501 -40.5s88.5 13.5 119.5 40.5s46.5 64.5 46.5 112.5z" />
    <glyph glyph-name="nine" unicode="9" 
d="M496 347c0 -68.667 -4.33691 -127.5 -13.0039 -176.5s-27.667 -89.5 -57 -121.5c-38 -41.333 -87.333 -62 -148 -62c-56 0 -102.833 16.667 -140.5 50s-57.834 77 -60.501 131h52c2.66699 -40.667 17.334 -73 44.001 -97s61.667 -36 105 -36
c46.667 0 83.334 14.333 110.001 43c13.333 14.667 24.333 32.834 33 54.501s14.334 47.834 17.001 78.501s4.33398 54 5.00098 70s1 40.333 1 73c-14.667 -32.667 -37.167 -59 -67.5 -79s-64.5 -30 -102.5 -30c-67.333 0 -120.166 21.167 -158.499 63.5
s-57.5 98.166 -57.5 167.499c0 66 19.333 121.333 58 166s91 67 157 67c36 0 68.333 -8 97 -24s51.667 -36 69 -60c38 -52.667 57 -145.334 57 -278.001zM431.996 474c0 51.333 -14.166 95.333 -42.499 132s-67.5 55 -117.5 55c-54 0 -94.667 -17.833 -122 -53.5
s-41 -79.5 -41 -131.5s13.833 -95.833 41.5 -131.5s68.5 -53.5 122.5 -53.5c41.333 0 76.666 14 105.999 42c35.333 34 53 81 53 141z" />
    <glyph glyph-name="colon" unicode=":" horiz-adv-x="289" 
d="M193 414h-83v86h83v-86zM193 0h-83v86h83v-86z" />
    <glyph glyph-name="semicolon" unicode=";" horiz-adv-x="289" 
d="M197 414h-83v86h83v-86zM199 -1c0 -54 -24.334 -92.667 -73.001 -116l-16 27c20.667 10.667 34.834 22.5 42.501 35.5s11.5 31.167 11.5 54.5h-53v86h88v-87z" />
    <glyph glyph-name="less" unicode="&#x3c;" horiz-adv-x="488" 
d="M413 7l-30 -30l-328 327l327 327l30 -31l-296 -296z" />
    <glyph glyph-name="equal" unicode="=" horiz-adv-x="693" 
d="M580 373h-467v46h467v-46zM580 136h-467v46h467v-46z" />
    <glyph glyph-name="greater" unicode="&#x3e;" horiz-adv-x="488" 
d="M433 304l-328 -327l-30 30l297 297l-296 296l30 31z" />
    <glyph glyph-name="question" unicode="?" horiz-adv-x="488" 
d="M458 542c0 -73.333 -35.334 -132.665 -106.001 -177.998c-34 -21.333 -56.167 -42.166 -66.5 -62.499s-15.5 -51.5 -15.5 -93.5h-52c0 51.333 7.66699 90.5 23 117.5s45 55.167 89 84.5c48 32 72 75 72 129c0 41.333 -13.5 74.166 -40.5 98.499s-61.833 36.5 -104.5 36.5
c-51.333 0 -91.166 -13.833 -119.499 -41.5s-42.5 -66.834 -42.5 -117.501h-55c0 63.333 20 114.166 60 152.499s92.333 57.5 157 57.5c62 0 112 -19.667 150 -59c34 -36 51 -77.333 51 -124zM283.999 0.000976562h-79v78h79v-78z" />
    <glyph glyph-name="at" unicode="@" horiz-adv-x="934" 
d="M862 381c0 -32 -3.83203 -63.667 -11.499 -95s-19 -60.333 -34 -87s-35.167 -48.167 -60.5 -64.5s-53.666 -24.5 -84.999 -24.5c-22.667 0 -42.334 7.33301 -59.001 22s-27 33.667 -31 57c-12 -22.667 -30.167 -41.167 -54.5 -55.5s-49.5 -21.5 -75.5 -21.5
c-48.667 0 -86.834 17 -114.501 51s-41.5 75.667 -41.5 125c0 58 16.833 108.833 50.5 152.5s78.834 65.5 135.501 65.5c24 0 46 -5.66699 66 -17s34.667 -27.666 44 -48.999l13 57h37l-20 -264c-1.33301 -24 2.83398 -43.333 12.501 -58s23.834 -22 42.501 -22
c43.333 0 77.333 22.667 102 68s37 98.666 37 159.999c0 91.333 -30.5 163.333 -91.5 216s-137.833 79 -230.5 79c-108.667 0 -195.834 -34.333 -261.501 -103s-98.5 -157.667 -98.5 -267c0 -98 31.167 -180.667 93.5 -248s142.166 -101 239.499 -101
c93.333 0 177.666 16.333 252.999 49v-47c-74.667 -32 -160 -48 -256 -48c-112 0 -203.167 37.667 -273.5 113s-105.5 169.333 -105.5 282c0 123.333 37.5 223.5 112.5 300.5s173.833 115.5 296.5 115.5c106 0 194 -30.833 264 -92.5s105 -144.5 105 -248.5zM582.001 330
c0 38.667 -8.66895 70.5 -26.002 95.5s-44.666 37.5 -81.999 37.5c-40 0 -71.833 -18 -95.5 -54s-35.5 -76.333 -35.5 -121c0 -39.333 9.5 -71.5 28.5 -96.5s46.167 -37.5 81.5 -37.5c42.667 0 74.834 18.167 96.501 54.5s32.5 76.833 32.5 121.5z" />
    <glyph glyph-name="A" unicode="A" horiz-adv-x="608" 
d="M600 0h-53l-72 187h-343l-70 -187h-54l269 709h51zM456 236l-154 401l-151 -401h305z" />
    <glyph glyph-name="B" unicode="B" horiz-adv-x="660" 
d="M602 196c0 -63.333 -21.667 -112.331 -65 -146.998c-40.667 -32.667 -100 -49 -178 -49h-251v709h251c64.667 0 116 -12.667 154 -38c22.667 -14.667 40.5 -34.334 53.5 -59.001s19.5 -50.334 19.5 -77.001c0 -90 -37.667 -145.333 -113 -166c42 -10 74 -30.667 96 -62
s33 -68.333 33 -111zM533 531.002c0 45.333 -16.667 78.167 -50 98.5s-74.666 30.5 -123.999 30.5h-199v-265h199c55.333 0 98.166 9.66699 128.499 29s45.5 55 45.5 107zM549 200.003c0 96.667 -63.333 145 -190 145h-199v-296h199c126.667 0 190 50.333 190 151z" />
    <glyph glyph-name="C" unicode="C" horiz-adv-x="623" 
d="M580 217c-5.33301 -66.667 -31.332 -121.668 -77.999 -165.001s-104.667 -65 -174 -65c-73.333 0 -135.666 25.667 -186.999 77c-34 34.667 -56.333 75.834 -67 123.501s-16 103.5 -16 167.5s5.33301 119.667 16 167s33 88.333 67 123
c51.333 51.333 113.666 77 186.999 77c69.333 0 127.333 -21.667 174 -65s72.667 -98.333 78 -165h-54c-4.66699 53.333 -25 96.5 -61 129.5s-81.667 49.5 -137 49.5c-60 0 -109.667 -20.333 -149 -61c-20 -20.667 -35.167 -47 -45.5 -79s-16.5 -60.167 -18.5 -84.5
s-3 -54.833 -3 -91.5c0 -36 1 -66.5 3 -91.5s8.33301 -53.5 19 -85.5s26 -58.333 46 -79c39.333 -40.667 88.666 -61 147.999 -61c55.333 0 101 16.5 137 49.5s56.333 76.167 61 129.5h54z" />
    <glyph glyph-name="D" unicode="D" horiz-adv-x="666" 
d="M608 355c0 -62.667 -5.5 -117.333 -16.5 -164s-34.167 -87 -69.5 -121c-48 -46.667 -107.667 -70 -179 -70h-235v709h235c71.333 0 131 -23.333 179 -70c35.333 -34 58.5 -74.333 69.5 -121s16.5 -101 16.5 -163zM555 355.001c0 55.333 -4.5 103.832 -13.5 145.499
s-28.167 76.5 -57.5 104.5c-37.333 35.333 -84.333 53 -141 53h-183v-607h183c56.667 0 103.667 17.667 141 53c29.333 28.667 48.5 63.834 57.5 105.501s13.5 90.167 13.5 145.5z" />
    <glyph glyph-name="E" unicode="E" horiz-adv-x="616" 
d="M562 0h-454v709h454v-50h-401v-260h353v-50h-353v-299h401v-50z" />
    <glyph glyph-name="F" unicode="F" horiz-adv-x="582" 
d="M552 659h-392v-274h353v-50h-353v-335h-52v709h444v-50z" />
    <glyph glyph-name="G" unicode="G" horiz-adv-x="678" 
d="M596 0l-39 0.00195312l-11 109c-18 -37.333 -46.167 -67 -84.5 -89s-79.166 -33 -122.499 -33c-74.667 0 -137 25 -187 75c-60 59.333 -90 156.666 -90 291.999c0 134.667 30 231.667 90 291c52.667 51.333 115 77 187 77s131.333 -19.667 178 -59s72.667 -90 78 -152
h-53c-3.33301 39.333 -19 74.666 -47 105.999c-33.333 36 -85 54 -155 54c-58 0 -107 -19.333 -147 -58c-51.333 -50.667 -77 -137 -77 -259c0 -125.333 26 -212.333 78 -261c38.667 -36.667 87 -55 145 -55c59.333 0 106.666 18.667 141.999 56c25.333 26.667 42 58 50 94
s12 78.667 12 128h-209v51h262v-367z" />
    <glyph glyph-name="H" unicode="H" horiz-adv-x="716" 
d="M608 0h-52v348h-396v-348h-52v709h52v-310h396v310h52v-709z" />
    <glyph glyph-name="I" unicode="I" horiz-adv-x="269" 
d="M161 0h-53v709h53v-709z" />
    <glyph glyph-name="J" unicode="J" horiz-adv-x="506" 
d="M411 199c0 -64.667 -17.668 -116.331 -53.001 -154.998c-36 -38 -83.667 -57 -143 -57c-52 0 -96.333 16.667 -133 50c-43.333 39.333 -65.666 98.666 -66.999 177.999h53c0 -64 16.667 -111.667 50 -143c24 -22.667 56.333 -34 97 -34c46.667 0 82 13 106 39
c25.333 27.333 38 67.666 38 120.999v511h52v-510z" />
    <glyph glyph-name="K" unicode="K" horiz-adv-x="655" 
d="M639 0h-59l-235 405l-184 -208v-197h-53v709h53v-437l390 437h64l-235 -265z" />
    <glyph glyph-name="L" unicode="L" horiz-adv-x="546" 
d="M528 0h-420v709h52v-660h368v-49z" />
    <glyph glyph-name="M" unicode="M" horiz-adv-x="882" 
d="M774 0h-51v634l-259 -624h-46l-259 619v-629h-51v709h73l262 -630l257 630h74v-709z" />
    <glyph glyph-name="N" unicode="N" horiz-adv-x="738" 
d="M630 0h-59l-411 628v-628h-52v709h59l412 -627v627h51v-709z" />
    <glyph glyph-name="O" unicode="O" horiz-adv-x="658" 
d="M600 355c0 -64 -5.83301 -120.667 -17.5 -170s-35.5 -91.333 -71.5 -126c-50 -48 -110.667 -72 -182 -72s-132 24 -182 72c-36 34.667 -59.833 76.667 -71.5 126s-17.5 106 -17.5 170s5.83301 120.5 17.5 169.5s35.5 90.833 71.5 125.5c50 48 110.667 72 182 72
s132 -24 182 -72c36 -34.667 59.833 -76.5 71.5 -125.5s17.5 -105.5 17.5 -169.5zM546 355c0 36.667 -1 67.5 -3 92.5s-8.83301 54.167 -20.5 87.5s-28.167 60.333 -49.5 81c-38 36.667 -86 55 -144 55s-106 -18.333 -144 -55c-21.333 -20.667 -37.833 -47.667 -49.5 -81
s-18.5 -62.5 -20.5 -87.5s-3 -55.833 -3 -92.5c0 -37.333 1 -68.333 3 -93s8.83301 -53.834 20.5 -87.501s28.167 -60.834 49.5 -81.501c38 -36.667 86 -55 144 -55s106 18.333 144 55c21.333 20.667 37.833 47.834 49.5 81.501s18.5 62.834 20.5 87.501s3 55.667 3 93z" />
    <glyph glyph-name="P" unicode="P" horiz-adv-x="618" 
d="M590 500c0 -68.667 -21.5 -120.667 -64.5 -156s-100.167 -53 -171.5 -53h-194v-1v-290h-52v709h246c71.333 0 128.5 -17.667 171.5 -53s64.5 -87.333 64.5 -156zM536 500c0 53.333 -16.667 93.168 -50 119.501s-77.333 39.5 -132 39.5h-194v-318h194
c54.667 0 98.667 13.167 132 39.5s50 66.166 50 119.499z" />
    <glyph glyph-name="Q" unicode="Q" horiz-adv-x="658" 
d="M600 355c0 -62.667 -5.66699 -118.332 -17 -166.999s-34 -90.334 -68 -125.001l67 -86l-36 -29l-67 85c-44 -30.667 -94 -46 -150 -46c-71.333 0 -132 24 -182 72c-36 34.667 -59.833 76.667 -71.5 126s-17.5 106 -17.5 170s5.83301 120.5 17.5 169.5
s35.5 90.833 71.5 125.5c50 48 110.667 72 182 72s132 -24 182 -72c36 -34.667 59.833 -76.5 71.5 -125.5s17.5 -105.5 17.5 -169.5zM546 355.002c0 36.667 -1.00098 67.502 -3.00098 92.502s-8.83301 54.167 -20.5 87.5s-28.167 60.333 -49.5 81c-38 36.667 -86 55 -144 55
s-106 -18.333 -144 -55c-21.333 -20.667 -37.833 -47.667 -49.5 -81s-18.5 -62.5 -20.5 -87.5s-3 -55.833 -3 -92.5c0 -37.333 1 -68.333 3 -93s8.83301 -53.834 20.5 -87.501s28.167 -60.834 49.5 -81.501c38 -36.667 86 -55 144 -55c44.667 0 84.334 11.667 119.001 35
l-106 135l36 29l105 -133c18.667 20.667 33 47 43 79s15.833 60 17.5 84s2.5 53.333 2.5 88z" />
    <glyph glyph-name="R" unicode="R" horiz-adv-x="656" 
d="M606 505c0 -46 -13.332 -86.166 -39.999 -120.499s-62.334 -57.5 -107.001 -69.5l144 -315h-57l-139 302h-247v-302h-52v709h259c76 0 134.833 -18.333 176.5 -55s62.5 -86.334 62.5 -149.001zM552.001 505.001c0 50 -16.167 88.333 -48.5 115s-77.833 40 -136.5 40h-207
v-310h207c58.667 0 104.167 13.333 136.5 40s48.5 65 48.5 115z" />
    <glyph glyph-name="S" unicode="S" horiz-adv-x="622" 
d="M569 192c0 -53.333 -18.667 -98.668 -56 -136.001c-46.667 -46 -113.667 -69 -201 -69c-84.667 0 -150.667 25.333 -198 76c-37.333 40 -58.666 87 -63.999 141h54c4.66699 -42 22 -78.333 52 -109c38 -38.667 90 -58 156 -58c70 0 123.667 17.667 161 53
c28 26.667 42 60.667 42 102c0 34.667 -12.5 65 -37.5 91s-58.5 41.667 -100.5 47l-132 17c-52.667 6.66699 -94.834 25.167 -126.501 55.5s-47.5 71.5 -47.5 123.5c0 51.333 20.667 96 62 134c45.333 41.333 103.666 62 174.999 62c38 0 74.5 -7.16699 109.5 -21.5
s62.5 -33.166 82.5 -56.499c32.667 -38 50.667 -79 54 -123h-53c-4.66699 35.333 -17.667 65.333 -39 90c-33.333 40.667 -84.666 61 -153.999 61c-56.667 0 -101.667 -14.333 -135 -43c-32 -28.667 -48 -63 -48 -103c0 -72.667 41.667 -114 125 -124l134 -17
c54.667 -6.66699 99.167 -28 133.5 -64s51.5 -79 51.5 -129z" />
    <glyph glyph-name="T" unicode="T" horiz-adv-x="533" 
d="M518 659h-226v-659h-52v659h-225v50h503v-50z" />
    <glyph glyph-name="U" unicode="U" horiz-adv-x="693" 
d="M598 260c0 -81.333 -21.5 -147.166 -64.5 -197.499s-105.5 -75.5 -187.5 -75.5s-144.333 25.167 -187 75.5s-64 116.166 -64 197.499v449h52v-450c0 -65.333 16.667 -118.666 50 -159.999s83 -62 149 -62s115.833 20.667 149.5 62s50.5 94.666 50.5 159.999v450h52v-449z
" />
    <glyph glyph-name="V" unicode="V" horiz-adv-x="573" 
d="M565 709l-254 -709h-49l-254 709h55l225 -634l222 634h55z" />
    <glyph glyph-name="W" unicode="W" horiz-adv-x="862" 
d="M823 709l-149 -709h-57l-187 621l-187 -621h-55l-149 709h49l133 -634l187 623h47l188 -623l131 634h49z" />
    <glyph glyph-name="X" unicode="X" horiz-adv-x="572" 
d="M549 0h-59l-205 317l-206 -317h-56l233 359l-232 350h57l206 -310l206 310h56l-233 -350z" />
    <glyph glyph-name="Y" unicode="Y" horiz-adv-x="545" 
d="M543 709l-245 -428v-281h-51v281l-245 428h56l216 -377l216 377h53z" />
    <glyph glyph-name="Z" unicode="Z" horiz-adv-x="618" 
d="M566 0h-516v56l451 604h-444v49h504v-56l-452 -604h457v-49z" />
    <glyph glyph-name="bracketleft" unicode="[" horiz-adv-x="321" 
d="M286 -115h-176v877h176v-41h-132v-795h132v-41z" />
    <glyph glyph-name="backslash" unicode="\" horiz-adv-x="397" 
d="M372 -13h-47l-313 735h47z" />
    <glyph glyph-name="bracketright" unicode="]" horiz-adv-x="321" 
d="M211 -115h-176v41h132v795h-132v41h176v-877z" />
    <glyph glyph-name="asciicircum" unicode="^" horiz-adv-x="513" 
d="M443 405h-55l-131 267l-132 -267h-55l160 317h55z" />
    <glyph glyph-name="underscore" unicode="_" horiz-adv-x="530" 
d="M497 -43h-464v43h464v-43z" />
    <glyph glyph-name="grave" unicode="`" horiz-adv-x="243" 
d="M205 587l-17 -27l-168 99l27 44z" />
    <glyph glyph-name="a" unicode="a" horiz-adv-x="561" 
d="M513 0c-12 -2 -20 -2.99707 -24 -2.99707c-52.667 0 -79 32.667 -79 98c-13.333 -34 -36.666 -60.5 -69.999 -79.5s-70 -28.5 -110 -28.5c-50 0 -91.167 14 -123.5 42s-48.5 65.333 -48.5 112c0 43.333 15.333 78.166 46 104.499s71.334 41.166 122.001 44.499l184 13v49
c0 76 -44 114 -132 114c-41.333 0 -75 -9.33301 -101 -28s-40.333 -46 -43 -82h-50c3.33301 49.333 22.666 87.833 57.999 115.5s80.666 41.5 135.999 41.5c38 0 72.5 -7.33301 103.5 -22s52.833 -38 65.5 -70c8.66699 -22.667 13 -54.667 13 -96v-228
c0 -18.667 2.5 -32.334 7.5 -41.001s15.5 -13 31.5 -13c6 0 10.667 0.333008 14 1v-44zM410 231.003v26.002l-179 -11c-37.333 -2.66699 -67 -13.334 -89 -32.001s-33 -43 -33 -73c0 -34.667 11.5 -61.334 34.5 -80.001s53.167 -28 90.5 -28c58.667 0 102.667 19.5 132 58.5
s44 85.5 44 139.5z" />
    <glyph glyph-name="b" unicode="b" horiz-adv-x="584" 
d="M530 249c0 -95.333 -27.333 -167 -82 -215c-35.333 -31.333 -79.666 -47 -132.999 -47c-34.667 0 -67.667 9.33301 -99 28s-53.666 43 -66.999 73l-6 -88h-44v722h50v-306c13.333 28.667 35.666 52 66.999 70s64.666 27 99.999 27c54.667 0 100 -17.333 136 -52
c52 -49.333 78 -120 78 -212zM479 250c0 73.333 -18.667 129.999 -56 169.999c-28 29.333 -63.667 44 -107 44c-42.667 0 -77.667 -13 -105 -39c-42 -39.333 -63 -97.666 -63 -174.999c0 -74 21.333 -132 64 -174c28 -26.667 62 -40 102 -40c39.333 0 72.333 11.667 99 35
c44 39.333 66 99 66 179z" />
    <glyph glyph-name="c" unicode="c" horiz-adv-x="512" 
d="M468 158c-6.66699 -49.333 -28 -90.166 -64 -122.499s-79.667 -48.5 -131 -48.5c-58.667 0 -107.667 19.667 -147 59c-46.667 46.667 -70 114.667 -70 204s23.333 157.333 70 204c39.333 39.333 88.333 59 147 59c52 0 95.667 -15.5 131 -46.5s56 -71.833 62 -122.5h-52
c-5.33301 35.333 -20.833 64.166 -46.5 86.499s-57.167 33.5 -94.5 33.5c-46.667 0 -83.667 -14.333 -111 -43c-36.667 -38 -55 -95 -55 -171c0 -76.667 18.333 -134 55 -172c26.667 -28 63.667 -42 111 -42c37.333 0 68.833 11.5 94.5 34.5s41.5 52.167 47.5 87.5h53z" />
    <glyph glyph-name="d" unicode="d" horiz-adv-x="584" 
d="M485 0h-44l-6 88c-13.333 -30 -35.666 -54.333 -66.999 -73s-64.333 -28 -99 -28c-53.333 0 -97.666 15.667 -132.999 47c-54.667 48 -82 119.667 -82 215c0 92 26 162.667 78 212c36 34.667 81.333 52 136 52c35.333 0 68.666 -9 99.999 -27s53.666 -41.333 66.999 -70
v306h50v-722zM436 250c0 77.333 -21 135.667 -63 175c-27.333 26 -62.333 39 -105 39c-43.333 0 -79 -14.667 -107 -44c-37.333 -40 -56 -96.667 -56 -170c0 -80 22 -139.667 66 -179c26.667 -23.333 59.667 -35 99 -35c40 0 74 13.333 102 40c42.667 42 64 100 64 174z" />
    <glyph glyph-name="e" unicode="e" horiz-adv-x="539" 
d="M489 271c0 -4 -0.165039 -9.5 -0.498047 -16.5s-0.5 -12.5 -0.5 -16.5h-382c1.33301 -60 18.666 -110 51.999 -150c30 -35.333 70.333 -53 121 -53c44.667 0 81 14.667 109 44c20 21.333 32.667 45 38 71h52c-6.66699 -40 -25.334 -75 -56.001 -105
c-38.667 -38.667 -86.334 -58 -143.001 -58c-64.667 0 -117.667 23.667 -159 71c-42.667 50 -64 113.333 -64 190c0 74 16.333 133.333 49 178c42.667 58 99.334 87 170.001 87c64.667 0 116.5 -23.833 155.5 -71.5s58.5 -104.5 58.5 -170.5zM438.002 284
c-1.33301 50 -16.667 92.833 -46 128.5s-68.333 53.5 -117 53.5c-50 0 -90.5 -17.5 -121.5 -52.5s-46.5 -78.167 -46.5 -129.5h331z" />
    <glyph glyph-name="f" unicode="f" horiz-adv-x="351" 
d="M349 677c-26.667 4 -50.666 6 -71.999 6c-63.333 0 -95 -32.333 -95 -97v-86h157v-46h-157v-454h-50v454h-100v46h100v88c0 40 12.167 73.333 36.5 100s59.166 40 104.499 40c26.667 0 52 -2 76 -6v-45z" />
    <glyph glyph-name="g" unicode="g" horiz-adv-x="533" 
d="M514 -75c0 -35.333 -12.6689 -66.3301 -38.002 -92.9971c-38.667 -39.333 -104.667 -59 -198 -59c-86 0 -148 19.333 -186 58c-23.333 24.667 -35 54.667 -35 90c0 24.667 6.66699 47.667 20 69s31.666 37.333 54.999 48c-17.333 4.66699 -32.166 15.167 -44.499 31.5
s-18.5 33.166 -18.5 50.499c0 40 20 71.667 60 95c-33.333 32 -50 73 -50 123c0 52.667 17.667 95 53 127s80 48 134 48c44 0 83 -11.333 117 -34c6 20.667 18.5 37.167 37.5 49.5s40.167 18.5 63.5 18.5c2 0 5.16699 -0.333008 9.5 -1s7.5 -1 9.5 -1v-43
c-2 0 -5.16699 0.333008 -9.5 1s-7.5 1 -9.5 1c-18 0 -33.167 -4.83301 -45.5 -14.5s-20.166 -22.834 -23.499 -39.501c26.667 -30.667 40 -68 40 -112c0 -52.667 -18 -94.667 -54 -126s-81 -47 -135 -47c-37.333 0 -70.666 7.66699 -99.999 23
c-33.333 -12.667 -50 -33.334 -50 -62.001c0 -22 11.667 -37.667 35 -47c14 -5.33301 36.333 -8 67 -8h109c66 0 115 -16.333 147 -49c26.667 -26.667 40 -59 40 -97zM404.998 338.003c0 39.333 -13.167 70.833 -39.5 94.5s-59.5 35.5 -99.5 35.5s-73 -11.833 -99 -35.5
s-39 -55.167 -39 -94.5s13 -70.5 39 -93.5s59 -34.5 99 -34.5s73.167 11.5 99.5 34.5s39.5 54.167 39.5 93.5zM463.998 -74.9971c0 24 -8.00098 44.667 -24.001 62c-23.333 24.667 -63.666 37 -120.999 37h-132c-23.333 -5.33301 -43 -17 -59 -35s-24 -40.667 -24 -68
c0 -25.333 9 -46.333 27 -63c28 -26.667 77.333 -40 148 -40c76.667 0 129.667 14.667 159 44c17.333 17.333 26 38.333 26 63z" />
    <glyph glyph-name="h" unicode="h" horiz-adv-x="583" 
d="M494 0l-50 0.00195312v327c0 92.667 -43 139 -129 139c-38.667 0 -71 -10.833 -97 -32.5s-44 -48 -54 -79s-15 -65.833 -15 -104.5v-250h-50v722h50v-314c14 31.333 36.833 56.666 68.5 75.999s65.167 29 100.5 29c56.667 0 100.167 -16.333 130.5 -49
s45.5 -77.334 45.5 -134.001v-330z" />
    <glyph glyph-name="i" unicode="i" horiz-adv-x="260" 
d="M165 639h-70v70h70v-70zM157 0h-53v500h53v-500z" />
    <glyph glyph-name="j" unicode="j" horiz-adv-x="284" 
d="M188 639h-69v70h69v-70zM180 -64c0 -95.333 -43.001 -143 -129.001 -143c-18 0 -41 2.33301 -69 7v46c26.667 -4 48.334 -6 65.001 -6c55.333 0 83 32.667 83 98v562h50v-564z" />
    <glyph glyph-name="k" unicode="k" horiz-adv-x="536" 
d="M518 0h-61l-176 267l-131 -143v-124h-51v722h51v-526l281 304h63l-177 -193z" />
    <glyph glyph-name="l" unicode="l" horiz-adv-x="279" 
d="M241 0c-14.667 -4 -29.666 -6 -44.999 -6c-66.667 0 -100 35.333 -100 106v622h50v-620c0 -40 17.333 -60 52 -60c19.333 0 33.666 0.666992 42.999 2v-44z" />
    <glyph glyph-name="m" unicode="m" horiz-adv-x="875" 
d="M786 0l-50 -0.000976562v327c0 92.667 -39.667 139 -119 139c-34.667 0 -64.334 -11.333 -89.001 -34c-39.333 -37.333 -59 -87 -59 -149v-283h-51v327c0 92.667 -40 139 -120 139c-35.333 0 -65 -11.333 -89 -34c-40 -37.333 -60 -98 -60 -182v-250h-50v500h44l6 -86
c13.333 30 33.333 54 60 72s57.334 27 92.001 27c83.333 0 136 -36 158 -108c14 32.667 34.5 58.834 61.5 78.501s60.167 29.5 99.5 29.5c56 0 97.667 -16.5 125 -49.5s41 -77.5 41 -133.5v-330z" />
    <glyph glyph-name="n" unicode="n" horiz-adv-x="583" 
d="M494 0l-50 0.000976562v327c0 91.333 -43 137 -129 137c-57.333 0 -99.333 -20.5 -126 -61.5s-40 -91.833 -40 -152.5v-250h-50v500h44l6 -91c14 31.333 36.833 56.5 68.5 75.5s65.167 28.5 100.5 28.5c56.667 0 100.167 -16.333 130.5 -49s45.5 -77.334 45.5 -134.001
v-330z" />
    <glyph glyph-name="o" unicode="o" horiz-adv-x="546" 
d="M490 250c0 -88 -23.667 -155.667 -71 -203c-40 -40 -88.667 -60 -146 -60s-106 20 -146 60c-47.333 47.333 -71 115 -71 203s23.667 155.667 71 203c40 40 88.667 60 146 60s106 -20 146 -60c47.333 -47.333 71 -115 71 -203zM439 250
c0 74.667 -18.667 131.334 -56 170.001c-28 29.333 -64.667 44 -110 44s-82 -14.667 -110 -44c-37.333 -38.667 -56 -95.334 -56 -170.001s18.667 -131.334 56 -170.001c28 -29.333 64.667 -44 110 -44s82 14.667 110 44c37.333 38.667 56 95.334 56 170.001z" />
    <glyph glyph-name="p" unicode="p" horiz-adv-x="584" 
d="M530 251c0 -92 -26 -162.667 -78 -212c-36 -34.667 -81.333 -52 -136 -52c-35.333 0 -68.666 9 -99.999 27s-53.666 41.333 -66.999 70v-284h-50v700h44l6 -88c13.333 30 35.666 54.333 66.999 73s64.333 28 99 28c53.333 0 97.666 -15.667 132.999 -47
c54.667 -48 82 -119.667 82 -215zM479 250c0 80 -22 139.666 -66 178.999c-26.667 23.333 -59.667 35 -99 35c-40 0 -74 -13.333 -102 -40c-42.667 -42 -64 -100 -64 -174c0 -77.333 21 -135.666 63 -174.999c27.333 -26 62.333 -39 105 -39c43.333 0 79 14.667 107 44
c37.333 40 56 96.667 56 170z" />
    <glyph glyph-name="q" unicode="q" horiz-adv-x="584" 
d="M485 -200h-50v284c-13.333 -28.667 -35.666 -52 -66.999 -70s-64.666 -27 -99.999 -27c-54.667 0 -100 17.333 -136 52c-52 49.333 -78 120 -78 212c0 95.333 27.333 167 82 215c35.333 31.333 79.666 47 132.999 47c34.667 0 67.667 -9.33301 99 -28
s53.666 -43 66.999 -73l6 88h44v-700zM436 250c0 74 -21.333 132.001 -64 174.001c-28 26.667 -62 40 -102 40c-39.333 0 -72.333 -11.667 -99 -35c-44 -39.333 -66 -99 -66 -179c0 -73.333 18.667 -130 56 -170c28 -29.333 63.667 -44 107 -44c42.667 0 77.667 13 105 39
c42 39.333 63 97.666 63 174.999z" />
    <glyph glyph-name="r" unicode="r" horiz-adv-x="381" 
d="M357 452c-13.333 3.33301 -29.667 5 -49 5c-30 0 -55.833 -6.16699 -77.5 -18.5s-38.167 -29.333 -49.5 -51s-19.5 -44.667 -24.5 -69s-7.5 -50.5 -7.5 -78.5v-240h-50v500h44l6 -101c10.667 33.333 30.667 59.333 60 78s62.333 28 99 28c22 0 38.333 -1 49 -3v-50z" />
    <glyph glyph-name="s" unicode="s" horiz-adv-x="512" 
d="M456 139c0 -35.333 -11.332 -66 -33.999 -92c-36 -40 -90 -60 -162 -60c-71.333 0 -126 21.333 -164 64c-26 30 -40 63.667 -42 101h51c2.66699 -29.333 15 -55 37 -77c27.333 -26.667 66.666 -40 117.999 -40c54 0 93.333 12.333 118 37c18 18 27 39.333 27 64
c0 23.333 -8 43.333 -24 60s-38.667 27 -68 31l-97 13c-52 6 -89.667 22.667 -113 50c-18.667 22 -28 48.333 -28 79c0 38 14.333 70.333 43 97c34 31.333 79.667 47 137 47c67.333 0 117.666 -19.667 150.999 -59c24 -28.667 36.667 -59.334 38 -92.001h-50
c-2.66699 24 -11 44 -25 60c-24.667 29.333 -62.667 44 -114 44c-38.667 0 -68.667 -7.66699 -90 -23c-26 -18.667 -39 -41.667 -39 -69c0 -22.667 7.16699 -41.167 21.5 -55.5s39.5 -23.833 75.5 -28.5l95 -13c44.667 -6 78.834 -22.167 102.501 -48.5
s35.5 -56.166 35.5 -89.499z" />
    <glyph glyph-name="t" unicode="t" horiz-adv-x="370" 
d="M336 5c-37.333 -8 -65 -12 -83 -12c-86 0 -129 48.667 -129 146v315h-100v46h100v138l50 12v-150h155v-46h-155v-313c0 -32.667 6 -57.667 18 -75s33.667 -26 65 -26c20 0 46.333 3 79 9v-44z" />
    <glyph glyph-name="u" unicode="u" horiz-adv-x="583" 
d="M484 1l-44 -0.000976562l-6 91c-14 -31.333 -36.667 -56.5 -68 -75.5s-65 -28.5 -101 -28.5c-56.667 0 -100.167 16.333 -130.5 49s-45.5 77.334 -45.5 134.001v330h50v-327c0 -91.333 43 -137 129 -137c57.333 0 99.333 20.5 126 61.5s40 91.833 40 152.5v250h50v-500z
" />
    <glyph glyph-name="v" unicode="v" horiz-adv-x="467" 
d="M453 500l-190 -500h-51l-198 500h57l168 -429l161 429h53z" />
    <glyph glyph-name="w" unicode="w" horiz-adv-x="746" 
d="M703 500l-124 -500h-60l-147 428l-146 -428h-59l-124 500h48l108 -440l148 433h53l147 -429l109 436h47z" />
    <glyph glyph-name="x" unicode="x" horiz-adv-x="472" 
d="M450 0h-60l-154 223l-155 -223h-59l180 259l-177 247h60l152 -214l153 214h58l-178 -247z" />
    <glyph glyph-name="y" unicode="y" horiz-adv-x="479" 
d="M467 500l-231.998 -607c-26 -68 -71 -102 -135 -102c-12 0 -23.167 0.833008 -33.5 2.5s-17.833 3.16699 -22.5 4.5l-7 2v42c23.333 -4 43.666 -6 60.999 -6c41.333 0 71.666 24.667 90.999 74l32 82l-205 508h54l175 -444l168 444h54z" />
    <glyph glyph-name="z" unicode="z" horiz-adv-x="492" 
d="M438 0h-377v56l320 397h-320v47h374v-55l-320 -397h323v-48z" />
    <glyph glyph-name="braceleft" unicode="{" horiz-adv-x="351" 
d="M331 -116l-26 -0.00195312c-45.333 0 -80.333 12.5 -105 37.5s-37 60.167 -37 105.5v179c0 26.667 -10 48.334 -30 65.001s-44.333 26.334 -73 29.001v47c28.667 3.33301 53 13 73 29s30 37.333 30 64v179c0 45.333 12.333 80.5 37 105.5s59.667 37.5 105 37.5h26v-42
h-26c-34 0 -58.5 -8.33301 -73.5 -25s-22.5 -42 -22.5 -76v-179c0 -28 -8.83301 -52.5 -26.5 -73.5s-40.167 -35.167 -67.5 -42.5c27.333 -7.33301 49.833 -21.833 67.5 -43.5s26.5 -46.5 26.5 -74.5v-179c0 -34 7.5 -59.333 22.5 -76s39.5 -25 73.5 -25h26v-42z" />
    <glyph glyph-name="bar" unicode="|" horiz-adv-x="258" 
d="M150 -115h-42v876h42v-876z" />
    <glyph glyph-name="braceright" unicode="}" horiz-adv-x="351" 
d="M291 300c-28.667 -2.66699 -53 -12.332 -73 -28.999s-30 -38.334 -30 -65.001v-179c0 -45.333 -12.333 -80.5 -37 -105.5s-59.667 -37.5 -105 -37.5h-26v42h26c34 0 58.5 8.33301 73.5 25s22.5 42 22.5 76v179c0 28 8.83301 52.833 26.5 74.5s40.167 36.167 67.5 43.5
c-27.333 7.33301 -49.833 21.5 -67.5 42.5s-26.5 45.5 -26.5 73.5v179c0 34 -7.5 59.333 -22.5 76s-39.5 25 -73.5 25h-26v42h26c45.333 0 80.333 -12.5 105 -37.5s37 -60.167 37 -105.5v-179c0 -26.667 10 -48 30 -64s44.333 -25.667 73 -29v-47z" />
    <glyph glyph-name="asciitilde" unicode="~" horiz-adv-x="620" 
d="M537 311c-42.667 -41.333 -85.668 -62 -129.001 -62c-24 0 -57.333 10 -100 30s-74.667 30 -96 30c-31.333 0 -63.666 -15.333 -96.999 -46l-32 37c42 40.667 85.333 61 130 61c24 0 57.333 -9.33301 100 -28c41.333 -19.333 73 -29 95 -29c32.667 0 65 14.333 97 43z
" />
    <glyph glyph-name="nbspace" unicode="&#xa0;" horiz-adv-x="215" 
 />
    <glyph glyph-name="exclamdown" unicode="&#xa1;" horiz-adv-x="307" 
d="M177 429h-76v76h76v-76zM169 -204h-62v194l14 288h34l14 -288v-194z" />
    <glyph glyph-name="cent" unicode="&#xa2;" 
d="M494 270c-3.33301 -49.333 -21.001 -91 -53.001 -125s-72.667 -53.333 -122 -58v-87h-41v88c-48.667 4.66699 -90 24 -124 58c-45.333 45.333 -68 113 -68 203c0 90.667 22.667 158.667 68 204c34 34 75.333 53.333 124 58v98h41v-98
c48.667 -4 88.834 -22.5 120.501 -55.5s49.167 -74.5 52.5 -124.5h-52c-3.33301 35.333 -15.833 65 -37.5 89s-49.5 38 -83.5 42v-425c34.667 4 63 18.333 85 43s34.667 54.667 38 90h52zM277.999 137v425c-35.333 -4 -64.666 -18 -87.999 -42
c-35.333 -36.667 -53 -93.667 -53 -171c0 -78 17.667 -135.333 53 -172c21.333 -22.667 50.666 -36 87.999 -40z" />
    <glyph glyph-name="sterling" unicode="&#xa3;" horiz-adv-x="578" 
d="M537 156c-0.666992 -49.333 -15.332 -87.667 -43.999 -115s-66.334 -41 -113.001 -41h-327v55c54 4 81 34.667 81 92v201h-83v45h83v116c0 66.667 17.333 116.834 52 150.501s79.667 50.5 135 50.5c56 0 99.833 -17.833 131.5 -53.5s47.5 -77.834 47.5 -126.501h-48
c0 38 -11.5 69.833 -34.5 95.5s-56.167 38.5 -99.5 38.5c-89.333 0 -134 -52.333 -134 -157v-114h182v-45h-182v-206c0 -48 -15.667 -78.333 -47 -91v-2h243c36 0 63 10 81 30s27.667 45.667 29 77h47z" />
    <glyph glyph-name="currency" unicode="&#xa4;" 
d="M586 31l-39.999 -38.998l-69 80c-40 -31.333 -85.333 -47 -136 -47c-52.667 0 -98.334 15.667 -137.001 47l-69 -80l-40 39l80 70c-36.667 43.333 -55 94 -55 152c0 57.333 17.333 107 52 149l-77 67l40 40l67 -78c38.667 32.667 85 49 139 49
c52.667 0 99 -16.333 139 -49l66 78l40 -40l-77 -67c35.333 -42.667 53 -92.334 53 -149.001c0 -58.667 -18.333 -109.334 -55 -152.001zM515.001 253.002c0 50 -16.5 92.833 -49.5 128.5s-74.5 53.5 -124.5 53.5s-91.5 -17.833 -124.5 -53.5s-49.5 -78.5 -49.5 -128.5
c0 -50.667 16.5 -93.834 49.5 -129.501s74.5 -53.5 124.5 -53.5s91.5 17.833 124.5 53.5s49.5 78.834 49.5 129.501z" />
    <glyph glyph-name="yen" unicode="&#xa5;" 
d="M545 695l-216 -378h165v-40h-188l-1 -2v-101h189v-41h-189v-133h-50v133h-168v41h168v101l-1 2h-167v40h144l-216 378h55l212 -370l211 370h52z" />
    <glyph glyph-name="brokenbar" unicode="&#xa6;" horiz-adv-x="264" 
d="M156 438h-48v321h48v-321zM156 -50h-48v318h48v-318z" />
    <glyph glyph-name="section" unicode="&#xa7;" horiz-adv-x="545" 
d="M477 152c0 -25.333 -7.33301 -50.165 -22 -74.498s-35.667 -44.5 -63 -60.5c31.333 -34 47 -70.333 47 -109c0 -40.667 -15 -76 -45 -106c-32.667 -31.333 -72.667 -47 -120 -47c-50 0 -90.667 15.667 -122 47c-32.667 33.333 -49 76.666 -49 129.999h52
c0 -42 11.667 -75 35 -99c20.667 -20.667 48.667 -31 84 -31c32.667 0 59.334 9.33301 80.001 28c22.667 19.333 34 44.333 34 75c0 36 -16.333 68 -49 96l-206 180c-40 35.333 -60 79.666 -60 132.999c0 25.333 7.33301 50.166 22 74.499s35.667 44.5 63 60.5
c-31.333 34 -47 70.333 -47 109c0 40.667 15 76 45 106c32.667 31.333 72.667 47 120 47c50 0 90.667 -15.667 122 -47c32.667 -33.333 49 -76 49 -128h-52c0 40.667 -11.667 73 -35 97c-20.667 20.667 -48.667 31 -84 31c-32.667 0 -59.334 -9.33301 -80.001 -28
c-22.667 -19.333 -34 -44.333 -34 -75c0 -36 16.333 -68 49 -96l206 -180c40 -35.333 60 -79.666 60 -132.999zM430 147.001c0 40 -15 73.333 -45 100l-195 171c-21.333 -11.333 -38.333 -26 -51 -44s-19 -36.333 -19 -55c0 -40 15 -73.333 45 -100l195 -171
c21.333 11.333 38.333 26 51 44s19 36.333 19 55z" />
    <glyph glyph-name="dieresis" unicode="&#xa8;" horiz-adv-x="291" 
d="M268 623h-61v63h61v-63zM83 623h-60v63h60v-63z" />
    <glyph glyph-name="copyright" unicode="&#xa9;" horiz-adv-x="880" 
d="M807 354c0 -102 -35.667 -189.167 -107 -261.5s-158 -108.5 -260 -108.5s-188.667 36.167 -260 108.5s-107 159.5 -107 261.5s35.667 189.167 107 261.5s158 108.5 260 108.5s188.667 -36.167 260 -108.5s107 -159.5 107 -261.5zM759 354
c0 90.667 -30.833 167.667 -92.5 231s-137.167 95 -226.5 95s-164.833 -31.667 -226.5 -95s-92.5 -140.333 -92.5 -231c0 -90 30.833 -166.667 92.5 -230s137.167 -95 226.5 -95s164.833 31.667 226.5 95s92.5 140 92.5 230zM606 299
c-3.33301 -45.333 -20.166 -81.167 -50.499 -107.5s-66.833 -39.5 -109.5 -39.5c-57.333 0 -101.5 19 -132.5 57s-46.5 85.667 -46.5 143s15.667 105.166 47 143.499s75.333 57.5 132 57.5c42.667 0 79.167 -13.167 109.5 -39.5s47.166 -62.166 50.499 -107.499h-51
c-2.66699 30 -14 54 -34 72s-45 27 -75 27c-43.333 0 -75.333 -14 -96 -42s-31 -65 -31 -111c0 -45.333 10.333 -82 31 -110s52.667 -42 96 -42c30 0 55 9 75 27s31.333 42 34 72h51z" />
    <glyph glyph-name="ordfeminine" unicode="&#xaa;" horiz-adv-x="490" 
d="M418 317c-6.66699 -1.33301 -13.001 -2.00098 -19.001 -2.00098c-39.333 0 -59.666 23.333 -60.999 70c-10 -22 -27.167 -40.5 -51.5 -55.5s-51.5 -22.5 -81.5 -22.5c-38.667 0 -70.5 10.5 -95.5 31.5s-37.5 49.833 -37.5 86.5c0 33.333 11.5 60 34.5 80
s53.5 31.333 91.5 34l140 10v36c0 57.333 -33.333 86 -100 86c-30.667 0 -55.5 -7.16699 -74.5 -21.5s-29.5 -35.166 -31.5 -62.499h-40c2.66699 38.667 17.167 68.667 43.5 90s60.5 32 102.5 32c68 0 111.333 -23.667 130 -71c6.66699 -18 10 -42.333 10 -73v-173
c0 -14.667 1.83301 -25.167 5.5 -31.5s11.5 -9.5 23.5 -9.5c4 0 7.66699 0.333008 11 1v-35zM337.999 494.999v17l-137 -8c-28 -1.33301 -49.667 -9 -65 -23s-23 -32.667 -23 -56c0 -26 8.66699 -46 26 -60s40.333 -21 69 -21c43.333 0 75.833 15 97.5 45
s32.5 65.333 32.5 106z" />
    <glyph glyph-name="guillemotleft" unicode="&#xab;" horiz-adv-x="524" 
d="M459 98l-34 -26l-162 219l162 219l34 -25l-137 -194zM250 98l-33 -26l-162 219l162 219l33 -25l-136 -194z" />
    <glyph glyph-name="logicalnot" unicode="&#xac;" horiz-adv-x="620" 
d="M527 119h-47v160h-417v46h464v-206z" />
    <glyph glyph-name="softhyphen" unicode="&#xad;" horiz-adv-x="433" 
d="M358 279h-283v46h283v-46z" />
    <glyph glyph-name="registered" unicode="&#xae;" horiz-adv-x="880" 
d="M807 354c0 -102 -35.667 -189.167 -107 -261.5s-158 -108.5 -260 -108.5s-188.667 36.167 -260 108.5s-107 159.5 -107 261.5s35.667 189.167 107 261.5s158 108.5 260 108.5s188.667 -36.167 260 -108.5s107 -159.5 107 -261.5zM759 354
c0 90.667 -30.833 167.667 -92.5 231s-137.167 95 -226.5 95s-164.833 -31.667 -226.5 -95s-92.5 -140.333 -92.5 -231c0 -90 30.833 -166.667 92.5 -230s137.167 -95 226.5 -95s164.833 31.667 226.5 95s92.5 140 92.5 230zM587 429c0 -25.333 -6.5 -48 -19.5 -68
s-31.833 -34.667 -56.5 -44l72 -157h-54l-66 147h-8h-89v-147h-47v393h137c41.333 0 73.5 -12 96.5 -36s34.5 -53.333 34.5 -88zM539 430c0 20.667 -6.83301 38.332 -20.5 52.999s-34.5 22 -62.5 22h-90v-150h89c28 0 49 7.33301 63 22s21 32.334 21 53.001z" />
    <glyph glyph-name="macron" unicode="&#xaf;" horiz-adv-x="296" 
d="M279 616h-262v47h262v-47z" />
    <glyph glyph-name="macron" unicode="&#x2c9;" horiz-adv-x="296" 
d="M279 616h-262v47h262v-47z" />
    <glyph glyph-name="degree" unicode="&#xb0;" horiz-adv-x="477" 
d="M404 557c0 -45.333 -16.167 -84.333 -48.5 -117s-71.166 -49 -116.499 -49s-84.333 16.333 -117 49s-49 71.667 -49 117s16.333 84.333 49 117s71.667 49 117 49s84.166 -16.333 116.499 -49s48.5 -71.667 48.5 -117zM358 557c0 34 -11.333 62.833 -34 86.5
s-51 35.5 -85 35.5s-62.5 -11.833 -85.5 -35.5s-34.5 -52.5 -34.5 -86.5s11.5 -62.833 34.5 -86.5s51.5 -35.5 85.5 -35.5s62.333 11.833 85 35.5s34 52.5 34 86.5z" />
    <glyph glyph-name="plusminus" unicode="&#xb1;" horiz-adv-x="570" 
d="M497 352h-188v-197h-47v197h-189v44h189v191h47v-191h188v-44zM497 0h-424v44h424v-44z" />
    <glyph glyph-name="twosuperior" unicode="&#xb2;" horiz-adv-x="411" 
d="M338 351l-260.002 0.000976562l-1 37l157 143c29.333 26.667 44 52 44 76c0 20.667 -7.33301 36.667 -22 48s-32.667 17 -54 17c-26 0 -45.833 -7.66699 -59.5 -23s-20.5 -35.333 -20.5 -60h-49c0 36 11.833 66.167 35.5 90.5s54.834 36.5 93.501 36.5
c34.667 0 64 -9.66699 88 -29s36 -46 36 -80c0 -16 -4.16699 -32 -12.5 -48s-16.666 -28.333 -24.999 -37s-20.5 -20.334 -36.5 -35.001l-102 -93h188v-43z" />
    <glyph glyph-name="threesuperior" unicode="&#xb3;" horiz-adv-x="420" 
d="M347 446c0 -24 -6.33105 -44.3311 -18.998 -60.998c-22 -32 -61 -48 -117 -48c-36 0 -67.333 11.167 -94 33.5s-41.334 53.166 -44.001 92.499h46c2 -26.667 11.167 -47.334 27.5 -62.001s37.833 -22 64.5 -22c36 0 61.333 9 76 27c9.33301 11.333 14 25.666 14 42.999
c0 18 -6.66699 32.667 -20 44s-32.333 17 -57 17h-30v42h30c45.333 0 68 19 68 57c0 16 -5.66699 30.333 -17 43c-14.667 15.333 -35.334 23 -62.001 23c-56 0 -85.667 -26.667 -89 -80h-47c2.66699 38 16.5 67.667 41.5 89s56.5 32 94.5 32
c44.667 0 78.667 -13.333 102 -40c16.667 -18.667 25 -40 25 -64c0 -17.333 -5 -33.833 -15 -49.5s-23 -26.167 -39 -31.5c40.667 -13.333 61 -41.666 61 -84.999z" />
    <glyph glyph-name="acute" unicode="&#xb4;" horiz-adv-x="243" 
d="M221 664l-169 -99l-17 27l158 116z" />
    <glyph glyph-name="mu" unicode="&#xb5;" horiz-adv-x="593" 
d="M494 0h-44l-6 91c-14 -31.333 -36.833 -56.5 -68.5 -75.5s-65.167 -28.5 -100.5 -28.5c-56.667 0 -98.667 16.333 -126 49v-236h-50v370v147v183h50v-183v-144c0 -91.333 43 -137 129 -137c57.333 0 99.333 20.5 126 61.5s40 91.833 40 152.5v250h50v-500z" />
    <glyph glyph-name="mu" unicode="&#x3bc;" horiz-adv-x="593" 
d="M494 0h-44l-6 91c-14 -31.333 -36.833 -56.5 -68.5 -75.5s-65.167 -28.5 -100.5 -28.5c-56.667 0 -98.667 16.333 -126 49v-236h-50v370v147v183h50v-183v-144c0 -91.333 43 -137 129 -137c57.333 0 99.333 20.5 126 61.5s40 91.833 40 152.5v250h50v-500z" />
    <glyph glyph-name="paragraph" unicode="&#xb6;" horiz-adv-x="674" 
d="M589 660l-100.002 -0.000976562v-785h-49v785h-139v-785h-49v477c-49.333 0 -91.166 17.333 -125.499 52s-51.5 76.334 -51.5 125.001c0 49.333 17.333 91.5 52 126.5s76.334 52.5 125.001 52.5h337v-48z" />
    <glyph glyph-name="periodcentered" unicode="&#xb7;" horiz-adv-x="284" 
d="M178 255h-88v90h88v-90z" />
    <glyph glyph-name="periodcentered" unicode="&#x2219;" horiz-adv-x="284" 
d="M178 255h-88v90h88v-90z" />
    <glyph glyph-name="cedilla" unicode="&#xb8;" horiz-adv-x="174" 
d="M146 -58l-66 -160l-53 25l72 135h47z" />
    <glyph glyph-name="onesuperior" unicode="&#xb9;" horiz-adv-x="311" 
d="M208 345h-47v308l-98 -74v54l100 76h45v-364z" />
    <glyph glyph-name="ordmasculine" unicode="&#xba;" horiz-adv-x="490" 
d="M410 507c0 -69.333 -17.333 -121.333 -52 -156c-30 -30 -67.333 -45 -112 -45c-45.333 0 -83 15 -113 45c-34.667 34.667 -52 86.667 -52 156s17.333 121.333 52 156c30 30 67.667 45 113 45c44.667 0 82 -15 112 -45c34.667 -34.667 52 -86.667 52 -156zM369 507
c0 58.667 -13.332 101.667 -39.999 129c-20.667 22 -48.334 33 -83.001 33c-36 0 -64.333 -11 -85 -33c-26 -26.667 -39 -69.667 -39 -129s13 -102.333 39 -129c20 -21.333 48.333 -32 85 -32c35.333 0 63 10.667 83 32c26.667 27.333 40 70.333 40 129z" />
    <glyph glyph-name="guillemotright" unicode="&#xbb;" horiz-adv-x="524" 
d="M469 291l-162 -219l-34 26l137 193l-137 194l34 25zM260 291l-161 -219l-34 26l137 193l-137 194l34 25z" />
    <glyph glyph-name="onequarter" unicode="&#xbc;" horiz-adv-x="849" 
d="M776 81h-64v-81h-47v81h-186v49l157 241h54l-163 -246h138v83h47v-83h64v-44zM707 694l-518 -706l-35 27l517 704zM248 345h-47v308l-98 -74v54l100 76h45v-364z" />
    <glyph glyph-name="onehalf" unicode="&#xbd;" horiz-adv-x="919" 
d="M806 0h-260.001v37l156 144c30 28.667 45 54 45 76c0 20.667 -7.16699 36.5 -21.5 47.5s-32.5 16.5 -54.5 16.5c-26 0 -46 -7.66699 -60 -23s-21 -35.333 -21 -60h-48c0 36 11.833 66.333 35.5 91s54.834 37 93.501 37c34.667 0 64 -9.66699 88 -29s36 -46 36 -80
c0 -16 -4 -31.833 -12 -47.5s-16.333 -28.167 -25 -37.5s-21 -21 -37 -35l-103 -93h188v-44zM703.999 694l-518 -706l-35 27l517 704zM242.999 345h-47v308l-98 -74v54l100 76h45v-364z" />
    <glyph glyph-name="threequarters" unicode="&#xbe;" horiz-adv-x="891" 
d="M818 81h-64v-81h-47v81h-186v49l157 241h54l-163 -246h138v83h47v-83h64v-44zM752 694l-518 -706l-35 27l517 704zM350 446c0 -24 -6.33105 -44.3311 -18.998 -60.998c-22 -32 -61 -48 -117 -48c-36 0 -67.333 11.167 -94 33.5s-41.334 53.166 -44.001 92.499h46
c2 -26.667 11.167 -47.334 27.5 -62.001s37.833 -22 64.5 -22c36 0 61.333 9 76 27c9.33301 11.333 14 25.666 14 42.999c0 18 -6.66699 32.667 -20 44s-32.333 17 -57 17h-30v42h30c45.333 0 68 19 68 57c0 16 -5.66699 30.333 -17 43
c-14.667 15.333 -35.334 23 -62.001 23c-56 0 -85.667 -26.667 -89 -80h-47c2.66699 38 16.5 67.667 41.5 89s56.5 32 94.5 32c44.667 0 78.667 -13.333 102 -40c16.667 -18.667 25 -40 25 -64c0 -17.333 -5 -33.833 -15 -49.5s-23 -26.167 -39 -31.5
c40.667 -13.333 61 -41.666 61 -84.999z" />
    <glyph glyph-name="questiondown" unicode="&#xbf;" horiz-adv-x="488" 
d="M283 426h-79v78h79v-78zM448 -11c0 -63.333 -19.999 -114.167 -59.999 -152.5s-92.333 -57.5 -157 -57.5c-62 0 -112 20 -150 60c-34 35.333 -51 76.333 -51 123c0 73.333 35.333 132.666 106 177.999c34 21.333 56.167 42.166 66.5 62.499s15.5 51.5 15.5 93.5h52
c0 -51.333 -7.66699 -90.5 -23 -117.5s-45 -55.167 -89 -84.5c-48 -32 -72 -75 -72 -129c0 -41.333 13.5 -74.166 40.5 -98.499s61.833 -36.5 104.5 -36.5c51.333 0 91.166 13.833 119.499 41.5s42.5 66.834 42.5 117.501h55z" />
    <glyph glyph-name="Agrave" unicode="&#xc0;" horiz-adv-x="608" 
d="M394 817l-18 -29l-176 105l29 47zM600 0h-53l-72 187h-343l-70 -187h-54l269 709h51zM456 236l-154 401l-151 -401h305z" />
    <glyph glyph-name="Aacute" unicode="&#xc1;" horiz-adv-x="608" 
d="M600 0h-53l-72 187h-343l-70 -187h-54l269 709h51zM456 236l-154 401l-151 -401h305zM388 867l-169 -99l-17 27l158 116z" />
    <glyph glyph-name="Acircumflex" unicode="&#xc2;" horiz-adv-x="608" 
d="M600 0h-53l-72 187h-343l-70 -187h-54l269 709h51zM456 236l-154 401l-151 -401h305zM441 790l-31 -27l-111 131l-110 -131l-31 27l125 143h33z" />
    <glyph glyph-name="Atilde" unicode="&#xc3;" horiz-adv-x="608" 
d="M442 838c-29.333 -28 -57.668 -42 -85.001 -42c-17.333 0 -40.333 7.16699 -69 21.5s-50 21.5 -64 21.5c-17.333 0 -35.666 -8.33301 -54.999 -25l-24 26c31.333 28.667 60 43 86 43c18 0 40.667 -7.16699 68 -21.5s48 -21.5 62 -21.5c19.333 0 38.333 8.33301 57 25z
M599.998 0h-53l-72 187h-343l-70 -187h-54l269 709h51zM455.998 236l-154 401l-151 -401h305z" />
    <glyph glyph-name="Adieresis" unicode="&#xc4;" horiz-adv-x="608" 
d="M600 0h-53l-72 187h-343l-70 -187h-54l269 709h51zM456 236l-154 401l-151 -401h305zM423 793h-61v63h61v-63zM238 793h-60v63h60v-63z" />
    <glyph glyph-name="Aring" unicode="&#xc5;" horiz-adv-x="608" 
d="M600 0h-53l-72 187h-343l-70 -187h-54l257 678c-22 7.33301 -39.667 20.333 -53 39s-20 40.667 -20 66c0 32 10.167 58.167 30.5 78.5s47.5 30.5 81.5 30.5s61.167 -10.167 81.5 -30.5s30.5 -46.5 30.5 -78.5c0 -25.333 -7 -47.5 -21 -66.5s-32.333 -32.167 -55 -39.5z
M376 782c0 20.667 -6.66699 38.167 -20 52.5s-30.666 21.5 -51.999 21.5s-38.666 -7.16699 -51.999 -21.5s-20 -31.833 -20 -52.5s6.66699 -38 20 -52s30.666 -21 51.999 -21s38.666 7 51.999 21s20 31.333 20 52zM456 236l-154 401l-151 -401h305z" />
    <glyph glyph-name="AE" unicode="&#xc6;" horiz-adv-x="887" 
d="M833 0h-399v198h-292l-86 -198h-56l314 709h519v-48h-348v-258h298v-49h-298v-305h348v-49zM434 246v415h-89l-181 -415h270z" />
    <glyph glyph-name="Ccedilla" unicode="&#xc7;" horiz-adv-x="623" 
d="M580 217c-5.33301 -66.667 -31.332 -121.668 -77.999 -165.001s-104.667 -65 -174 -65c-73.333 0 -135.666 25.667 -186.999 77c-34 34.667 -56.333 75.834 -67 123.501s-16 103.5 -16 167.5s5.33301 119.667 16 167s33 88.333 67 123
c51.333 51.333 113.666 77 186.999 77c69.333 0 127.333 -21.667 174 -65s72.667 -98.333 78 -165h-54c-4.66699 53.333 -25 96.5 -61 129.5s-81.667 49.5 -137 49.5c-60 0 -109.667 -20.333 -149 -61c-20 -20.667 -35.167 -47 -45.5 -79s-16.5 -60.167 -18.5 -84.5
s-3 -54.833 -3 -91.5c0 -36 1 -66.5 3 -91.5s8.33301 -53.5 19 -85.5s26 -58.333 46 -79c39.333 -40.667 88.666 -61 147.999 -61c55.333 0 101 16.5 137 49.5s56.333 76.167 61 129.5h54zM363.001 -48.001l-66 -160l-53 25l72 135h47z" />
    <glyph glyph-name="Egrave" unicode="&#xc8;" horiz-adv-x="616" 
d="M562 0h-454v709h454v-50h-401v-260h353v-50h-353v-299h401v-50zM418 796l-17 -27l-168 99l27 44z" />
    <glyph glyph-name="Eacute" unicode="&#xc9;" horiz-adv-x="616" 
d="M562 0h-454v709h454v-50h-401v-260h353v-50h-353v-299h401v-50zM423 867l-169 -99l-17 27l158 116z" />
    <glyph glyph-name="Ecircumflex" unicode="&#xca;" horiz-adv-x="616" 
d="M562 0h-454v709h454v-50h-401v-260h353v-50h-353v-299h401v-50zM470 795l-31 -27l-111 131l-110 -131l-31 27l125 143h33z" />
    <glyph glyph-name="Edieresis" unicode="&#xcb;" horiz-adv-x="616" 
d="M562 0h-454v709h454v-50h-401v-260h353v-50h-353v-299h401v-50zM451 813h-61v63h61v-63zM266 813h-60v63h60v-63z" />
    <glyph glyph-name="Igrave" unicode="&#xcc;" horiz-adv-x="269" 
d="M161 0h-53v709h53v-709zM218 791l-17 -27l-168 99l27 44z" />
    <glyph glyph-name="Iacute" unicode="&#xcd;" horiz-adv-x="269" 
d="M161 0h-53v709h53v-709zM226 867l-169 -99l-17 27l158 116z" />
    <glyph glyph-name="Icircumflex" unicode="&#xce;" horiz-adv-x="269" 
d="M161 0h-53v709h53v-709zM278 790l-31 -27l-111 131l-110 -131l-31 27l125 143h33z" />
    <glyph glyph-name="Idieresis" unicode="&#xcf;" horiz-adv-x="269" 
d="M233 815h-61v63h61v-63zM94 815h-60v63h60v-63zM161 0h-53v709h53v-709z" />
    <glyph glyph-name="Eth" unicode="&#xd0;" horiz-adv-x="681" 
d="M623 355c0 -62.667 -5.5 -117.333 -16.5 -164s-34.167 -87 -69.5 -121c-48 -46.667 -107.667 -70 -179 -70h-235v347h-76v42h76v320h235c71.333 0 131 -23.333 179 -70c35.333 -34 58.5 -74.333 69.5 -121s16.5 -101 16.5 -163zM570 355.001
c0 55.333 -4.5 103.832 -13.5 145.499s-28.167 76.5 -57.5 104.5c-37.333 35.333 -84.333 53 -141 53h-183v-269h170v-42h-170v-296h183c56.667 0 103.667 17.667 141 53c29.333 28.667 48.5 63.834 57.5 105.501s13.5 90.167 13.5 145.5z" />
    <glyph glyph-name="Ntilde" unicode="&#xd1;" horiz-adv-x="738" 
d="M630 0h-59l-411 628v-628h-52v709h59l412 -627v627h51v-709zM507 810c-30.667 -26.667 -58.002 -40 -82.002 -40c-16 0 -37.667 6.83301 -65 20.5s-48 20.5 -62 20.5c-16.667 0 -34 -7.66699 -52 -23l-23 24c30 27.333 57.333 41 82 41
c16.667 0 38.334 -6.83301 65.001 -20.5s46.334 -20.5 59.001 -20.5c18.667 0 36.667 7.66699 54 23z" />
    <glyph glyph-name="Ograve" unicode="&#xd2;" horiz-adv-x="658" 
d="M600 355c0 -64 -5.83301 -120.667 -17.5 -170s-35.5 -91.333 -71.5 -126c-50 -48 -110.667 -72 -182 -72s-132 24 -182 72c-36 34.667 -59.833 76.667 -71.5 126s-17.5 106 -17.5 170s5.83301 120.5 17.5 169.5s35.5 90.833 71.5 125.5c50 48 110.667 72 182 72
s132 -24 182 -72c36 -34.667 59.833 -76.5 71.5 -125.5s17.5 -105.5 17.5 -169.5zM546 355c0 36.667 -1 67.5 -3 92.5s-8.83301 54.167 -20.5 87.5s-28.167 60.333 -49.5 81c-38 36.667 -86 55 -144 55s-106 -18.333 -144 -55c-21.333 -20.667 -37.833 -47.667 -49.5 -81
s-18.5 -62.5 -20.5 -87.5s-3 -55.833 -3 -92.5c0 -37.333 1 -68.333 3 -93s8.83301 -53.834 20.5 -87.501s28.167 -60.834 49.5 -81.501c38 -36.667 86 -55 144 -55s106 18.333 144 55c21.333 20.667 37.833 47.834 49.5 81.501s18.5 62.834 20.5 87.501s3 55.667 3 93z
M416 796l-17 -27l-168 99l27 44z" />
    <glyph glyph-name="Oacute" unicode="&#xd3;" horiz-adv-x="658" 
d="M600 355c0 -64 -5.83301 -120.667 -17.5 -170s-35.5 -91.333 -71.5 -126c-50 -48 -110.667 -72 -182 -72s-132 24 -182 72c-36 34.667 -59.833 76.667 -71.5 126s-17.5 106 -17.5 170s5.83301 120.5 17.5 169.5s35.5 90.833 71.5 125.5c50 48 110.667 72 182 72
s132 -24 182 -72c36 -34.667 59.833 -76.5 71.5 -125.5s17.5 -105.5 17.5 -169.5zM546 355c0 36.667 -1 67.5 -3 92.5s-8.83301 54.167 -20.5 87.5s-28.167 60.333 -49.5 81c-38 36.667 -86 55 -144 55s-106 -18.333 -144 -55c-21.333 -20.667 -37.833 -47.667 -49.5 -81
s-18.5 -62.5 -20.5 -87.5s-3 -55.833 -3 -92.5c0 -37.333 1 -68.333 3 -93s8.83301 -53.834 20.5 -87.501s28.167 -60.834 49.5 -81.501c38 -36.667 86 -55 144 -55s106 18.333 144 55c21.333 20.667 37.833 47.834 49.5 81.501s18.5 62.834 20.5 87.501s3 55.667 3 93z
M416 872l-169 -99l-17 27l158 116z" />
    <glyph glyph-name="Ocircumflex" unicode="&#xd4;" horiz-adv-x="658" 
d="M600 355c0 -64 -5.83301 -120.667 -17.5 -170s-35.5 -91.333 -71.5 -126c-50 -48 -110.667 -72 -182 -72s-132 24 -182 72c-36 34.667 -59.833 76.667 -71.5 126s-17.5 106 -17.5 170s5.83301 120.5 17.5 169.5s35.5 90.833 71.5 125.5c50 48 110.667 72 182 72
s132 -24 182 -72c36 -34.667 59.833 -76.5 71.5 -125.5s17.5 -105.5 17.5 -169.5zM546 355c0 36.667 -1 67.5 -3 92.5s-8.83301 54.167 -20.5 87.5s-28.167 60.333 -49.5 81c-38 36.667 -86 55 -144 55s-106 -18.333 -144 -55c-21.333 -20.667 -37.833 -47.667 -49.5 -81
s-18.5 -62.5 -20.5 -87.5s-3 -55.833 -3 -92.5c0 -37.333 1 -68.333 3 -93s8.83301 -53.834 20.5 -87.501s28.167 -60.834 49.5 -81.501c38 -36.667 86 -55 144 -55s106 18.333 144 55c21.333 20.667 37.833 47.834 49.5 81.501s18.5 62.834 20.5 87.501s3 55.667 3 93z
M464 790l-31 -27l-111 131l-110 -131l-31 27l125 143h33z" />
    <glyph glyph-name="Otilde" unicode="&#xd5;" horiz-adv-x="658" 
d="M469 837c-30.667 -28 -59.3311 -42 -85.998 -42c-16.667 0 -39.334 7.16699 -68.001 21.5s-50.334 21.5 -65.001 21.5c-17.333 0 -35.666 -8.33301 -54.999 -25l-23 26c31.333 28.667 59.666 43 84.999 43c18 0 40.833 -7.16699 68.5 -21.5s48.167 -21.5 61.5 -21.5
c20 0 39 8 57 24zM600.003 355c0 -64 -5.83301 -120.667 -17.5 -170s-35.5 -91.333 -71.5 -126c-50 -48 -110.667 -72 -182 -72s-132 24 -182 72c-36 34.667 -59.833 76.667 -71.5 126s-17.5 106 -17.5 170s5.83301 120.5 17.5 169.5s35.5 90.833 71.5 125.5
c50 48 110.667 72 182 72s132 -24 182 -72c36 -34.667 59.833 -76.5 71.5 -125.5s17.5 -105.5 17.5 -169.5zM546.003 355c0 36.667 -1 67.5 -3 92.5s-8.83301 54.167 -20.5 87.5s-28.167 60.333 -49.5 81c-38 36.667 -86 55 -144 55s-106 -18.333 -144 -55
c-21.333 -20.667 -37.833 -47.667 -49.5 -81s-18.5 -62.5 -20.5 -87.5s-3 -55.833 -3 -92.5c0 -37.333 1 -68.333 3 -93s8.83301 -53.834 20.5 -87.501s28.167 -60.834 49.5 -81.501c38 -36.667 86 -55 144 -55s106 18.333 144 55c21.333 20.667 37.833 47.834 49.5 81.501
s18.5 62.834 20.5 87.501s3 55.667 3 93z" />
    <glyph glyph-name="Odieresis" unicode="&#xd6;" horiz-adv-x="658" 
d="M600 355c0 -64 -5.83301 -120.667 -17.5 -170s-35.5 -91.333 -71.5 -126c-50 -48 -110.667 -72 -182 -72s-132 24 -182 72c-36 34.667 -59.833 76.667 -71.5 126s-17.5 106 -17.5 170s5.83301 120.5 17.5 169.5s35.5 90.833 71.5 125.5c50 48 110.667 72 182 72
s132 -24 182 -72c36 -34.667 59.833 -76.5 71.5 -125.5s17.5 -105.5 17.5 -169.5zM546 355c0 36.667 -1 67.5 -3 92.5s-8.83301 54.167 -20.5 87.5s-28.167 60.333 -49.5 81c-38 36.667 -86 55 -144 55s-106 -18.333 -144 -55c-21.333 -20.667 -37.833 -47.667 -49.5 -81
s-18.5 -62.5 -20.5 -87.5s-3 -55.833 -3 -92.5c0 -37.333 1 -68.333 3 -93s8.83301 -53.834 20.5 -87.501s28.167 -60.834 49.5 -81.501c38 -36.667 86 -55 144 -55s106 18.333 144 55c21.333 20.667 37.833 47.834 49.5 81.501s18.5 62.834 20.5 87.501s3 55.667 3 93z
M446 795h-61v63h61v-63zM261 795h-60v63h60v-63z" />
    <glyph glyph-name="multiply" unicode="&#xd7;" horiz-adv-x="675" 
d="M602 63l-31 -31l-234 234l-233 -234l-31 31l234 234l-234 233l31 31l233 -233l234 233l31 -31l-234 -233z" />
    <glyph glyph-name="Oslash" unicode="&#xd8;" horiz-adv-x="658" 
d="M600 355c0 -64 -5.83398 -120.668 -17.501 -170.001s-35.5 -91.333 -71.5 -126c-50 -48 -110.667 -72 -182 -72c-45.333 0 -87.666 10.333 -126.999 31l-39 -87l-39 17l42 94c-9.33301 8 -15.666 13.667 -18.999 17c-36 34.667 -59.833 76.667 -71.5 126
s-17.5 106 -17.5 170s5.83301 120.5 17.5 169.5s35.5 90.833 71.5 125.5c50 48 110.667 72 182 72c47.333 0 89.666 -10.667 126.999 -32l35 78l39 -18l-38 -84c6.66699 -5.33301 13 -10.666 19 -15.999c36 -34.667 59.833 -76.5 71.5 -125.5s17.5 -105.5 17.5 -169.5z
M545.999 354.999c0 36.667 -0.999023 67.498 -2.99902 92.498s-8.83301 54.167 -20.5 87.5s-28.167 60.333 -49.5 81l-2 2l-248 -553c31.333 -18 66.666 -27 105.999 -27c58 0 106 18.333 144 55c21.333 20.667 37.833 47.834 49.5 81.501s18.5 62.834 20.5 87.501
s3 55.667 3 93zM435 643.997c-31.333 18 -66.668 26.9961 -106.001 26.9961c-58 0 -106 -18.333 -144 -55c-21.333 -20.667 -37.833 -47.667 -49.5 -81s-18.5 -62.5 -20.5 -87.5s-3 -55.833 -3 -92.5c0 -27.333 0.5 -50.166 1.5 -68.499s3.66699 -40.666 8 -66.999
s11.833 -50.166 22.5 -71.499s24.334 -39.666 41.001 -54.999l3 -3z" />
    <glyph glyph-name="Ugrave" unicode="&#xd9;" horiz-adv-x="693" 
d="M598 260c0 -81.333 -21.5 -147.166 -64.5 -197.499s-105.5 -75.5 -187.5 -75.5s-144.333 25.167 -187 75.5s-64 116.166 -64 197.499v449h52v-450c0 -65.333 16.667 -118.666 50 -159.999s83 -62 149 -62s115.833 20.667 149.5 62s50.5 94.666 50.5 159.999v450h52v-449z
M418 791l-17 -27l-168 99l27 44z" />
    <glyph glyph-name="Uacute" unicode="&#xda;" horiz-adv-x="693" 
d="M598 260c0 -81.333 -21.5 -147.166 -64.5 -197.499s-105.5 -75.5 -187.5 -75.5s-144.333 25.167 -187 75.5s-64 116.166 -64 197.499v449h52v-450c0 -65.333 16.667 -118.666 50 -159.999s83 -62 149 -62s115.833 20.667 149.5 62s50.5 94.666 50.5 159.999v450h52v-449z
M440 867l-169 -99l-17 27l158 116z" />
    <glyph glyph-name="Ucircumflex" unicode="&#xdb;" horiz-adv-x="693" 
d="M598 260c0 -81.333 -21.5 -147.166 -64.5 -197.499s-105.5 -75.5 -187.5 -75.5s-144.333 25.167 -187 75.5s-64 116.166 -64 197.499v449h52v-450c0 -65.333 16.667 -118.666 50 -159.999s83 -62 149 -62s115.833 20.667 149.5 62s50.5 94.666 50.5 159.999v450h52v-449z
M484 790l-31 -27l-111 131l-110 -131l-31 27l125 143h33z" />
    <glyph glyph-name="Udieresis" unicode="&#xdc;" horiz-adv-x="693" 
d="M598 260c0 -81.333 -21.5 -147.166 -64.5 -197.499s-105.5 -75.5 -187.5 -75.5s-144.333 25.167 -187 75.5s-64 116.166 -64 197.499v449h52v-450c0 -65.333 16.667 -118.666 50 -159.999s83 -62 149 -62s115.833 20.667 149.5 62s50.5 94.666 50.5 159.999v450h52v-449z
M469 794h-61v63h61v-63zM284 794h-60v63h60v-63z" />
    <glyph glyph-name="Yacute" unicode="&#xdd;" horiz-adv-x="545" 
d="M543 709l-245 -428v-281h-51v281l-245 428h56l216 -377l216 377h53zM369 857l-169 -99l-17 27l158 116z" />
    <glyph glyph-name="Thorn" unicode="&#xde;" horiz-adv-x="598" 
d="M570 361c0 -69.333 -21.3311 -121.667 -63.998 -157s-99.334 -53 -170.001 -53h-176v-151h-52v709h52v-139h176c71.333 0 128.166 -17.667 170.499 -53s63.5 -87.333 63.5 -156zM516.002 360.999c0 53.333 -16.3311 93.001 -48.998 119.001s-76.334 39 -131.001 39h-176
v-317h176c55.333 0 99.166 13.167 131.499 39.5s48.5 66.166 48.5 119.499z" />
    <glyph glyph-name="germandbls" unicode="&#xdf;" horiz-adv-x="593" 
d="M549 208c0 -64 -21.335 -115.669 -64.002 -155.002s-96.334 -59 -161.001 -59c-24 0 -48.667 2 -74 6v48c26.667 -3.33301 50 -5 70 -5c51.333 0 93.5 14.333 126.5 43s49.5 68.334 49.5 119.001c0 52.667 -16.167 92.834 -48.5 120.501s-75.5 41.5 -129.5 41.5h-40v49
h40c42.667 0 74.834 11.833 96.501 35.5s32.5 55.5 32.5 95.5c0 38.667 -13.667 69.834 -41 93.501s-59.666 35.5 -96.999 35.5c-46.667 0 -82 -14.5 -106 -43.5s-36 -67.5 -36 -115.5v-517h-50v452h-89v48h89v17c0 61.333 16.833 111.166 50.5 149.499
s80.834 57.5 141.501 57.5c54 0 99.167 -16.5 135.5 -49.5s54.5 -75.833 54.5 -128.5c0 -31.333 -8 -61.5 -24 -90.5s-38 -48.167 -66 -57.5c43.333 -11.333 77.5 -34.5 102.5 -69.5s37.5 -75.167 37.5 -120.5z" />
    <glyph glyph-name="agrave" unicode="&#xe0;" horiz-adv-x="561" 
d="M513 0c-12 -2 -20 -2.99707 -24 -2.99707c-52.667 0 -79 32.667 -79 98c-13.333 -34 -36.666 -60.5 -69.999 -79.5s-70 -28.5 -110 -28.5c-50 0 -91.167 14 -123.5 42s-48.5 65.333 -48.5 112c0 43.333 15.333 78.166 46 104.499s71.334 41.166 122.001 44.499l184 13v49
c0 76 -44 114 -132 114c-41.333 0 -75 -9.33301 -101 -28s-40.333 -46 -43 -82h-50c3.33301 49.333 22.666 87.833 57.999 115.5s80.666 41.5 135.999 41.5c38 0 72.5 -7.33301 103.5 -22s52.833 -38 65.5 -70c8.66699 -22.667 13 -54.667 13 -96v-228
c0 -18.667 2.5 -32.334 7.5 -41.001s15.5 -13 31.5 -13c6 0 10.667 0.333008 14 1v-44zM410 231.003v26.002l-179 -11c-37.333 -2.66699 -67 -13.334 -89 -32.001s-33 -43 -33 -73c0 -34.667 11.5 -61.334 34.5 -80.001s53.167 -28 90.5 -28c58.667 0 102.667 19.5 132 58.5
s44 85.5 44 139.5zM352 568.005l-169 100l28 44l158 -117z" />
    <glyph glyph-name="aacute" unicode="&#xe1;" horiz-adv-x="561" 
d="M513 0c-12 -2 -20 -2.99707 -24 -2.99707c-52.667 0 -79 32.667 -79 98c-13.333 -34 -36.666 -60.5 -69.999 -79.5s-70 -28.5 -110 -28.5c-50 0 -91.167 14 -123.5 42s-48.5 65.333 -48.5 112c0 43.333 15.333 78.166 46 104.499s71.334 41.166 122.001 44.499l184 13v49
c0 76 -44 114 -132 114c-41.333 0 -75 -9.33301 -101 -28s-40.333 -46 -43 -82h-50c3.33301 49.333 22.666 87.833 57.999 115.5s80.666 41.5 135.999 41.5c38 0 72.5 -7.33301 103.5 -22s52.833 -38 65.5 -70c8.66699 -22.667 13 -54.667 13 -96v-228
c0 -18.667 2.5 -32.334 7.5 -41.001s15.5 -13 31.5 -13c6 0 10.667 0.333008 14 1v-44zM410 231.003v26.002l-179 -11c-37.333 -2.66699 -67 -13.334 -89 -32.001s-33 -43 -33 -73c0 -34.667 11.5 -61.334 34.5 -80.001s53.167 -28 90.5 -28c58.667 0 102.667 19.5 132 58.5
s44 85.5 44 139.5zM366 668.005l-169 -99l-17 27l158 116z" />
    <glyph glyph-name="acircumflex" unicode="&#xe2;" horiz-adv-x="561" 
d="M513 0c-12 -2 -20 -2.99707 -24 -2.99707c-52.667 0 -79 32.667 -79 98c-13.333 -34 -36.666 -60.5 -69.999 -79.5s-70 -28.5 -110 -28.5c-50 0 -91.167 14 -123.5 42s-48.5 65.333 -48.5 112c0 43.333 15.333 78.166 46 104.499s71.334 41.166 122.001 44.499l184 13v49
c0 76 -44 114 -132 114c-41.333 0 -75 -9.33301 -101 -28s-40.333 -46 -43 -82h-50c3.33301 49.333 22.666 87.833 57.999 115.5s80.666 41.5 135.999 41.5c38 0 72.5 -7.33301 103.5 -22s52.833 -38 65.5 -70c8.66699 -22.667 13 -54.667 13 -96v-228
c0 -18.667 2.5 -32.334 7.5 -41.001s15.5 -13 31.5 -13c6 0 10.667 0.333008 14 1v-44zM410 231.003v26.002l-179 -11c-37.333 -2.66699 -67 -13.334 -89 -32.001s-33 -43 -33 -73c0 -34.667 11.5 -61.334 34.5 -80.001s53.167 -28 90.5 -28c58.667 0 102.667 19.5 132 58.5
s44 85.5 44 139.5zM421 589.005l-31 -27l-111 131l-110 -131l-31 27l125 143h33z" />
    <glyph glyph-name="atilde" unicode="&#xe3;" horiz-adv-x="561" 
d="M513 0c-12 -2 -20 -2.99707 -24 -2.99707c-52.667 0 -79 32.667 -79 98c-13.333 -34 -36.666 -60.5 -69.999 -79.5s-70 -28.5 -110 -28.5c-50 0 -91.167 14 -123.5 42s-48.5 65.333 -48.5 112c0 43.333 15.333 78.166 46 104.499s71.334 41.166 122.001 44.499l184 13v49
c0 76 -44 114 -132 114c-41.333 0 -75 -9.33301 -101 -28s-40.333 -46 -43 -82h-50c3.33301 49.333 22.666 87.833 57.999 115.5s80.666 41.5 135.999 41.5c38 0 72.5 -7.33301 103.5 -22s52.833 -38 65.5 -70c8.66699 -22.667 13 -54.667 13 -96v-228
c0 -18.667 2.5 -32.334 7.5 -41.001s15.5 -13 31.5 -13c6 0 10.667 0.333008 14 1v-44zM410 231.003v26.002l-179 -11c-37.333 -2.66699 -67 -13.334 -89 -32.001s-33 -43 -33 -73c0 -34.667 11.5 -61.334 34.5 -80.001s53.167 -28 90.5 -28c58.667 0 102.667 19.5 132 58.5
s44 85.5 44 139.5zM412 647.005c-30.667 -26.667 -58 -40 -82 -40c-16 0 -37.667 6.83301 -65 20.5s-48 20.5 -62 20.5c-16.667 0 -34 -7.66699 -52 -23l-23 24c30 27.333 57.333 41 82 41c17.333 0 39 -6.83301 65 -20.5s45.667 -20.5 59 -20.5
c18.667 0 36.667 7.66699 54 23z" />
    <glyph glyph-name="adieresis" unicode="&#xe4;" horiz-adv-x="561" 
d="M513 0c-12 -2 -20 -2.99707 -24 -2.99707c-52.667 0 -79 32.667 -79 98c-13.333 -34 -36.666 -60.5 -69.999 -79.5s-70 -28.5 -110 -28.5c-50 0 -91.167 14 -123.5 42s-48.5 65.333 -48.5 112c0 43.333 15.333 78.166 46 104.499s71.334 41.166 122.001 44.499l184 13v49
c0 76 -44 114 -132 114c-41.333 0 -75 -9.33301 -101 -28s-40.333 -46 -43 -82h-50c3.33301 49.333 22.666 87.833 57.999 115.5s80.666 41.5 135.999 41.5c38 0 72.5 -7.33301 103.5 -22s52.833 -38 65.5 -70c8.66699 -22.667 13 -54.667 13 -96v-228
c0 -18.667 2.5 -32.334 7.5 -41.001s15.5 -13 31.5 -13c6 0 10.667 0.333008 14 1v-44zM410 231.003v26.002l-179 -11c-37.333 -2.66699 -67 -13.334 -89 -32.001s-33 -43 -33 -73c0 -34.667 11.5 -61.334 34.5 -80.001s53.167 -28 90.5 -28c58.667 0 102.667 19.5 132 58.5
s44 85.5 44 139.5zM403 623.005h-61v63h61v-63zM218 623.005h-60v63h60v-63z" />
    <glyph glyph-name="aring" unicode="&#xe5;" horiz-adv-x="561" 
d="M513 0c-12 -2 -20 -2.99707 -24 -2.99707c-52.667 0 -79 32.667 -79 98c-13.333 -34 -36.666 -60.5 -69.999 -79.5s-70 -28.5 -110 -28.5c-50 0 -91.167 14 -123.5 42s-48.5 65.333 -48.5 112c0 43.333 15.333 78.166 46 104.499s71.334 41.166 122.001 44.499l184 13v49
c0 76 -44 114 -132 114c-41.333 0 -75 -9.33301 -101 -28s-40.333 -46 -43 -82h-50c3.33301 49.333 22.666 87.833 57.999 115.5s80.666 41.5 135.999 41.5c38 0 72.5 -7.33301 103.5 -22s52.833 -38 65.5 -70c8.66699 -22.667 13 -54.667 13 -96v-228
c0 -18.667 2.5 -32.334 7.5 -41.001s15.5 -13 31.5 -13c6 0 10.667 0.333008 14 1v-44zM410 231.003v26.002l-179 -11c-37.333 -2.66699 -67 -13.334 -89 -32.001s-33 -43 -33 -73c0 -34.667 11.5 -61.334 34.5 -80.001s53.167 -28 90.5 -28c58.667 0 102.667 19.5 132 58.5
s44 85.5 44 139.5zM382 670.005c0 -30.667 -10.333 -55.834 -31 -75.501s-46 -29.5 -76 -29.5s-55.333 9.83301 -76 29.5s-31 44.834 -31 75.501s9.66699 55.834 29 75.501s45.333 29.5 78 29.5s58.667 -9.83301 78 -29.5s29 -44.834 29 -75.501zM343 670.005
c0 19.333 -6.16699 35.833 -18.5 49.5s-28.833 20.5 -49.5 20.5s-37.334 -6.83301 -50.001 -20.5s-19 -30.167 -19 -49.5s6.33301 -35.833 19 -49.5s29.334 -20.5 50.001 -20.5s37.167 6.83301 49.5 20.5s18.5 30.167 18.5 49.5z" />
    <glyph glyph-name="ae" unicode="&#xe6;" horiz-adv-x="852" 
d="M802 241l-356.003 0.00195312v-23c0 -52.667 13.5 -96.667 40.5 -132s66.167 -53 117.5 -53c36.667 0 66.834 10.167 90.501 30.5s39.167 49.166 46.5 86.499h51c-8.66699 -50 -29.667 -89.667 -63 -119s-75 -44 -125 -44c-88.667 0 -150 42.333 -184 127
c-14.667 -39.333 -39 -69.833 -73 -91.5s-74 -32.5 -120 -32.5c-48.667 0 -89 13.667 -121 41s-48 63.666 -48 108.999c0 42 16 77 48 105s72.333 42 121 42h168v65c0 36 -11.333 64 -34 84s-54.334 30 -95.001 30c-39.333 0 -71.166 -9.83301 -95.499 -29.5
s-37.833 -47.5 -40.5 -83.5h-50c3.33301 49.333 21.5 88.333 54.5 117s76.833 43 131.5 43c35.333 0 68.833 -7.83301 100.5 -23.5s53.834 -38.167 66.501 -67.5c34.667 60.667 90.334 91 167.001 91c53.333 0 97.333 -16.667 132 -50c46.667 -44.667 70 -113 70 -205v-17z
M750.997 287.002c-1.33301 62 -18.666 109 -51.999 141c-27.333 25.333 -60.333 38 -99 38c-49.333 0 -86.833 -16.5 -112.5 -49.5s-38.834 -76.167 -39.501 -129.5h303zM394.997 214.002v27h-165c-36 0 -65.333 -9.5 -88 -28.5s-34 -43.167 -34 -72.5
c0 -33.333 11.333 -58.833 34 -76.5s51.667 -26.5 87 -26.5c52 0 92.667 17 122 51s44 76 44 126z" />
    <glyph glyph-name="ccedilla" unicode="&#xe7;" horiz-adv-x="512" 
d="M468 158c-6.66699 -49.333 -28 -90.166 -64 -122.499s-79.667 -48.5 -131 -48.5c-58.667 0 -107.667 19.667 -147 59c-46.667 46.667 -70 114.667 -70 204s23.333 157.333 70 204c39.333 39.333 88.333 59 147 59c52 0 95.667 -15.5 131 -46.5s56 -71.833 62 -122.5h-52
c-5.33301 35.333 -20.833 64.166 -46.5 86.499s-57.167 33.5 -94.5 33.5c-46.667 0 -83.667 -14.333 -111 -43c-36.667 -38 -55 -95 -55 -171c0 -76.667 18.333 -134 55 -172c26.667 -28 63.667 -42 111 -42c37.333 0 68.833 11.5 94.5 34.5s41.5 52.167 47.5 87.5h53z
M319 -48l-68 -166l-55 26l75 140h48z" />
    <glyph glyph-name="egrave" unicode="&#xe8;" horiz-adv-x="539" 
d="M489 271c0 -4 -0.165039 -9.5 -0.498047 -16.5s-0.5 -12.5 -0.5 -16.5h-382c1.33301 -60 18.666 -110 51.999 -150c30 -35.333 70.333 -53 121 -53c44.667 0 81 14.667 109 44c20 21.333 32.667 45 38 71h52c-6.66699 -40 -25.334 -75 -56.001 -105
c-38.667 -38.667 -86.334 -58 -143.001 -58c-64.667 0 -117.667 23.667 -159 71c-42.667 50 -64 113.333 -64 190c0 74 16.333 133.333 49 178c42.667 58 99.334 87 170.001 87c64.667 0 116.5 -23.833 155.5 -71.5s58.5 -104.5 58.5 -170.5zM438.002 284
c-1.33301 50 -16.667 92.833 -46 128.5s-68.333 53.5 -117 53.5c-50 0 -90.5 -17.5 -121.5 -52.5s-46.5 -78.167 -46.5 -129.5h331zM352.001 570l-169 99l28 44l158 -116z" />
    <glyph glyph-name="eacute" unicode="&#xe9;" horiz-adv-x="539" 
d="M489 271c0 -4 -0.165039 -9.5 -0.498047 -16.5s-0.5 -12.5 -0.5 -16.5h-382c1.33301 -60 18.666 -110 51.999 -150c30 -35.333 70.333 -53 121 -53c44.667 0 81 14.667 109 44c20 21.333 32.667 45 38 71h52c-6.66699 -40 -25.334 -75 -56.001 -105
c-38.667 -38.667 -86.334 -58 -143.001 -58c-64.667 0 -117.667 23.667 -159 71c-42.667 50 -64 113.333 -64 190c0 74 16.333 133.333 49 178c42.667 58 99.334 87 170.001 87c64.667 0 116.5 -23.833 155.5 -71.5s58.5 -104.5 58.5 -170.5zM438.002 284
c-1.33301 50 -16.667 92.833 -46 128.5s-68.333 53.5 -117 53.5c-50 0 -90.5 -17.5 -121.5 -52.5s-46.5 -78.167 -46.5 -129.5h331zM370.001 666l-169 -99l-17 27l158 116z" />
    <glyph glyph-name="ecircumflex" unicode="&#xea;" horiz-adv-x="539" 
d="M489 271c0 -4 -0.165039 -9.5 -0.498047 -16.5s-0.5 -12.5 -0.5 -16.5h-382c1.33301 -60 18.666 -110 51.999 -150c30 -35.333 70.333 -53 121 -53c44.667 0 81 14.667 109 44c20 21.333 32.667 45 38 71h52c-6.66699 -40 -25.334 -75 -56.001 -105
c-38.667 -38.667 -86.334 -58 -143.001 -58c-64.667 0 -117.667 23.667 -159 71c-42.667 50 -64 113.333 -64 190c0 74 16.333 133.333 49 178c42.667 58 99.334 87 170.001 87c64.667 0 116.5 -23.833 155.5 -71.5s58.5 -104.5 58.5 -170.5zM438.002 284
c-1.33301 50 -16.667 92.833 -46 128.5s-68.333 53.5 -117 53.5c-50 0 -90.5 -17.5 -121.5 -52.5s-46.5 -78.167 -46.5 -129.5h331zM419.001 589l-31 -27l-111 131l-110 -131l-31 27l125 143h33z" />
    <glyph glyph-name="edieresis" unicode="&#xeb;" horiz-adv-x="539" 
d="M489 271c0 -4 -0.165039 -9.5 -0.498047 -16.5s-0.5 -12.5 -0.5 -16.5h-382c1.33301 -60 18.666 -110 51.999 -150c30 -35.333 70.333 -53 121 -53c44.667 0 81 14.667 109 44c20 21.333 32.667 45 38 71h52c-6.66699 -40 -25.334 -75 -56.001 -105
c-38.667 -38.667 -86.334 -58 -143.001 -58c-64.667 0 -117.667 23.667 -159 71c-42.667 50 -64 113.333 -64 190c0 74 16.333 133.333 49 178c42.667 58 99.334 87 170.001 87c64.667 0 116.5 -23.833 155.5 -71.5s58.5 -104.5 58.5 -170.5zM438.002 284
c-1.33301 50 -16.667 92.833 -46 128.5s-68.333 53.5 -117 53.5c-50 0 -90.5 -17.5 -121.5 -52.5s-46.5 -78.167 -46.5 -129.5h331zM400.001 623h-61v63h61v-63zM215.001 623h-60v63h60v-63z" />
    <glyph glyph-name="igrave" unicode="&#xec;" horiz-adv-x="260" 
d="M156 0h-52v500h52v-500zM193 598l-169 99l28 44l158 -116z" />
    <glyph glyph-name="iacute" unicode="&#xed;" horiz-adv-x="260" 
d="M156 0h-52v500h52v-500zM229 697l-169 -99l-17 27l158 116z" />
    <glyph glyph-name="icircumflex" unicode="&#xee;" horiz-adv-x="260" 
d="M156 0h-52v500h52v-500zM272 613l-31 -27l-111 131l-110 -131l-32 27l125 143h33z" />
    <glyph glyph-name="idieresis" unicode="&#xef;" horiz-adv-x="260" 
d="M232 647h-62v63h62v-63zM86 647h-60v63h60v-63zM156 0h-52v500h52v-500z" />
    <glyph glyph-name="eth" unicode="&#xf0;" horiz-adv-x="542" 
d="M486 250c0 -90.667 -22.667 -158.667 -68 -204c-39.333 -39.333 -88.333 -59 -147 -59s-107.667 19.667 -147 59c-45.333 45.333 -68 113.333 -68 204s22.667 158.667 68 204c39.333 39.333 88.333 59 147 59c26 0 51 -4.33301 75 -13l-56 98h-125v40h102l-48 84h57
l47 -84h101v-40h-78l111 -197v-1c19.333 -38.667 29 -88.667 29 -150zM435 250c0 77.333 -17.667 134.333 -53 171c-27.333 28.667 -64.333 43 -111 43s-83.667 -14.333 -111 -43c-35.333 -36.667 -53 -93.667 -53 -171c0 -78 17.667 -135.333 53 -172
c26.667 -28 63.667 -42 111 -42s84.333 14 111 42c35.333 36.667 53 94 53 172z" />
    <glyph glyph-name="ntilde" unicode="&#xf1;" horiz-adv-x="583" 
d="M494 0l-50 0.000976562v327c0 91.333 -43 137 -129 137c-57.333 0 -99.333 -20.5 -126 -61.5s-40 -91.833 -40 -152.5v-250h-50v500h44l6 -91c14 31.333 36.833 56.5 68.5 75.5s65.167 28.5 100.5 28.5c56.667 0 100.167 -16.333 130.5 -49s45.5 -77.334 45.5 -134.001
v-330zM433 650.001c-30.667 -26.667 -58.002 -40 -82.002 -40c-16 0 -37.667 6.83301 -65 20.5s-48 20.5 -62 20.5c-16.667 0 -34 -7.66699 -52 -23l-23 24c30 27.333 57.333 41 82 41c16.667 0 38.334 -6.83301 65.001 -20.5s46.334 -20.5 59.001 -20.5
c18.667 0 36.667 7.66699 54 23z" />
    <glyph glyph-name="ograve" unicode="&#xf2;" horiz-adv-x="546" 
d="M490 250c0 -88 -23.667 -155.667 -71 -203c-40 -40 -88.667 -60 -146 -60s-106 20 -146 60c-47.333 47.333 -71 115 -71 203s23.667 155.667 71 203c40 40 88.667 60 146 60s106 -20 146 -60c47.333 -47.333 71 -115 71 -203zM439 250
c0 74.667 -18.667 131.334 -56 170.001c-28 29.333 -64.667 44 -110 44s-82 -14.667 -110 -44c-37.333 -38.667 -56 -95.334 -56 -170.001s18.667 -131.334 56 -170.001c28 -29.333 64.667 -44 110 -44s82 14.667 110 44c37.333 38.667 56 95.334 56 170.001zM361 594
l-17 -27l-168 99l27 44z" />
    <glyph glyph-name="oacute" unicode="&#xf3;" horiz-adv-x="546" 
d="M490 250c0 -88 -23.667 -155.667 -71 -203c-40 -40 -88.667 -60 -146 -60s-106 20 -146 60c-47.333 47.333 -71 115 -71 203s23.667 155.667 71 203c40 40 88.667 60 146 60s106 -20 146 -60c47.333 -47.333 71 -115 71 -203zM439 250
c0 74.667 -18.667 131.334 -56 170.001c-28 29.333 -64.667 44 -110 44s-82 -14.667 -110 -44c-37.333 -38.667 -56 -95.334 -56 -170.001s18.667 -131.334 56 -170.001c28 -29.333 64.667 -44 110 -44s82 14.667 110 44c37.333 38.667 56 95.334 56 170.001zM373 667
l-169 -99l-17 27l158 116z" />
    <glyph glyph-name="ocircumflex" unicode="&#xf4;" horiz-adv-x="546" 
d="M490 250c0 -88 -23.667 -155.667 -71 -203c-40 -40 -88.667 -60 -146 -60s-106 20 -146 60c-47.333 47.333 -71 115 -71 203s23.667 155.667 71 203c40 40 88.667 60 146 60s106 -20 146 -60c47.333 -47.333 71 -115 71 -203zM439 250
c0 74.667 -18.667 131.334 -56 170.001c-28 29.333 -64.667 44 -110 44s-82 -14.667 -110 -44c-37.333 -38.667 -56 -95.334 -56 -170.001s18.667 -131.334 56 -170.001c28 -29.333 64.667 -44 110 -44s82 14.667 110 44c37.333 38.667 56 95.334 56 170.001zM416 589
l-31 -27l-111 131l-110 -131l-31 27l125 143h33z" />
    <glyph glyph-name="otilde" unicode="&#xf5;" horiz-adv-x="546" 
d="M490 250c0 -88 -23.667 -155.667 -71 -203c-40 -40 -88.667 -60 -146 -60s-106 20 -146 60c-47.333 47.333 -71 115 -71 203s23.667 155.667 71 203c40 40 88.667 60 146 60s106 -20 146 -60c47.333 -47.333 71 -115 71 -203zM439 250
c0 74.667 -18.667 131.334 -56 170.001c-28 29.333 -64.667 44 -110 44s-82 -14.667 -110 -44c-37.333 -38.667 -56 -95.334 -56 -170.001s18.667 -131.334 56 -170.001c28 -29.333 64.667 -44 110 -44s82 14.667 110 44c37.333 38.667 56 95.334 56 170.001zM416 656
c-30 -26 -57.333 -39 -82 -39c-16 0 -37.667 6.66699 -65 20s-48 20 -62 20c-16.667 0 -34 -7.66699 -52 -23l-23 24c30 27.333 57.333 41 82 41c17.333 0 39 -6.83301 65 -20.5s45.667 -20.5 59 -20.5c18 0 36 8 54 24z" />
    <glyph glyph-name="odieresis" unicode="&#xf6;" horiz-adv-x="546" 
d="M396 623h-61v63h61v-63zM211 623h-60v63h60v-63zM490 250c0 -88 -23.667 -155.667 -71 -203c-40 -40 -88.667 -60 -146 -60s-106 20 -146 60c-47.333 47.333 -71 115 -71 203s23.667 155.667 71 203c40 40 88.667 60 146 60s106 -20 146 -60
c47.333 -47.333 71 -115 71 -203zM439 250c0 74.667 -18.667 131.334 -56 170.001c-28 29.333 -64.667 44 -110 44s-82 -14.667 -110 -44c-37.333 -38.667 -56 -95.334 -56 -170.001s18.667 -131.334 56 -170.001c28 -29.333 64.667 -44 110 -44s82 14.667 110 44
c37.333 38.667 56 95.334 56 170.001z" />
    <glyph glyph-name="divide" unicode="&#xf7;" horiz-adv-x="653" 
d="M363 472h-79v84h79v-84zM570 277h-487v46h487v-46zM363 49h-79v83h79v-83z" />
    <glyph glyph-name="oslash" unicode="&#xf8;" horiz-adv-x="546" 
d="M490 250c0 -88 -23.667 -155.667 -71 -203c-40 -40 -88.667 -60 -146 -60c-29.333 0 -57 5.66699 -83 17l-36 -81l-36 16l38 84c-9.33301 6 -19 14 -29 24c-47.333 47.333 -71 115 -71 203s23.667 155.667 71 203c40 40 88.667 60 146 60c34.667 0 66 -7.33301 94 -22
l37 83l37 -16l-40 -89c8 -6.66699 14 -12 18 -16c47.333 -47.333 71 -115 71 -203zM439 250c0 76 -18.667 132.666 -56 169.999l-3 3l-170 -375c18 -8 39 -12 63 -12c45.333 0 82 14.667 110 44c37.333 38.667 56 95.334 56 170.001zM347 446.999
c-21.333 11.333 -45.999 17.002 -73.999 17.002c-45.333 0 -82 -14.667 -110 -44c-37.333 -38.667 -56 -95.334 -56 -170.001s18.667 -131.334 56 -170.001c5.33301 -5.33301 9.66602 -9.33301 12.999 -12z" />
    <glyph glyph-name="ugrave" unicode="&#xf9;" horiz-adv-x="583" 
d="M484 1l-44 -0.000976562l-6 91c-14 -31.333 -36.667 -56.5 -68 -75.5s-65 -28.5 -101 -28.5c-56.667 0 -100.167 16.333 -130.5 49s-45.5 77.334 -45.5 134.001v330h50v-327c0 -91.333 43 -137 129 -137c57.333 0 99.333 20.5 126 61.5s40 91.833 40 152.5v250h50v-500z
M355 566.999l-169 99l28 44l158 -116z" />
    <glyph glyph-name="uacute" unicode="&#xfa;" horiz-adv-x="583" 
d="M484 1l-44 -0.000976562l-6 91c-14 -31.333 -36.667 -56.5 -68 -75.5s-65 -28.5 -101 -28.5c-56.667 0 -100.167 16.333 -130.5 49s-45.5 77.334 -45.5 134.001v330h50v-327c0 -91.333 43 -137 129 -137c57.333 0 99.333 20.5 126 61.5s40 91.833 40 152.5v250h50v-500z
M389 665.999l-169 -99l-17 27l158 116z" />
    <glyph glyph-name="ucircumflex" unicode="&#xfb;" horiz-adv-x="583" 
d="M484 1l-44 -0.000976562l-6 91c-14 -31.333 -36.667 -56.5 -68 -75.5s-65 -28.5 -101 -28.5c-56.667 0 -100.167 16.333 -130.5 49s-45.5 77.334 -45.5 134.001v330h50v-327c0 -91.333 43 -137 129 -137c57.333 0 99.333 20.5 126 61.5s40 91.833 40 152.5v250h50v-500z
M421 588.999l-31 -27l-111 131l-110 -131l-31 27l125 143h33z" />
    <glyph glyph-name="udieresis" unicode="&#xfc;" horiz-adv-x="583" 
d="M484 1l-44 -0.000976562l-6 91c-14 -31.333 -36.667 -56.5 -68 -75.5s-65 -28.5 -101 -28.5c-56.667 0 -100.167 16.333 -130.5 49s-45.5 77.334 -45.5 134.001v330h50v-327c0 -91.333 43 -137 129 -137c57.333 0 99.333 20.5 126 61.5s40 91.833 40 152.5v250h50v-500z
M407 622.999h-61v63h61v-63zM222 622.999h-60v63h60v-63z" />
    <glyph glyph-name="yacute" unicode="&#xfd;" horiz-adv-x="479" 
d="M467 500l-231.998 -607c-26 -68 -71 -102 -135 -102c-12 0 -23.167 0.833008 -33.5 2.5s-17.833 3.16699 -22.5 4.5l-7 2v42c23.333 -4 43.666 -6 60.999 -6c41.333 0 71.666 24.667 90.999 74l32 82l-205 508h54l175 -444l168 444h54zM344.002 656l-169 -99l-17 27
l158 116z" />
    <glyph glyph-name="thorn" unicode="&#xfe;" horiz-adv-x="581" 
d="M527 251c0 -90.667 -24.667 -160.333 -74 -209c-38 -36.667 -84.333 -55 -139 -55c-35.333 0 -67.833 8.5 -97.5 25.5s-51.834 40.833 -66.501 71.5v-285h-51v452v470h51v-305c14.667 30.667 36.834 54.5 66.501 71.5s62.167 25.5 97.5 25.5
c54.667 0 101 -18.333 139 -55c49.333 -48.667 74 -117.667 74 -207zM477 251.001c0 74 -20.333 131.332 -61 171.999c-27.333 27.333 -61.333 41 -102 41c-58 0 -99.833 -20.167 -125.5 -60.5s-38.5 -91.166 -38.5 -152.499c0 -62 12.833 -113.333 38.5 -154
s67.5 -61 125.5 -61c40.667 0 74.667 13.667 102 41c40.667 40.667 61 98.667 61 174z" />
    <glyph glyph-name="ydieresis" unicode="&#xff;" horiz-adv-x="479" 
d="M467 500l-231.998 -607c-26 -68 -71 -102 -135 -102c-12 0 -23.167 0.833008 -33.5 2.5s-17.833 3.16699 -22.5 4.5l-7 2v42c23.333 -4 43.666 -6 60.999 -6c41.333 0 71.666 24.667 90.999 74l32 82l-205 508h54l175 -444l168 444h54zM365.002 623h-61v63h61v-63z
M180.002 623h-60v63h60v-63z" />
    <glyph glyph-name="Gbreve" unicode="&#x11e;" horiz-adv-x="678" 
d="M596 0l-39 0.00195312l-11 109c-18 -37.333 -46.167 -67 -84.5 -89s-79.166 -33 -122.499 -33c-74.667 0 -137 25 -187 75c-60 59.333 -90 156.666 -90 291.999c0 134.667 30 231.667 90 291c52.667 51.333 115 77 187 77s131.333 -19.667 178 -59s72.667 -90 78 -152
h-53c-3.33301 39.333 -19 74.666 -47 105.999c-33.333 36 -85 54 -155 54c-58 0 -107 -19.333 -147 -58c-51.333 -50.667 -77 -137 -77 -259c0 -125.333 26 -212.333 78 -261c38.667 -36.667 87 -55 145 -55c59.333 0 106.666 18.667 141.999 56c25.333 26.667 42 58 50 94
s12 78.667 12 128h-209v51h262v-367zM522 912.002c-3.33301 -43.333 -18.1699 -78 -44.5029 -104s-60.166 -39 -101.499 -39s-75.166 13 -101.499 39s-41.166 60.667 -44.499 104h43c3.33301 -32 14 -57 32 -75s41.667 -27 71 -27s53 9 71 27s28.667 43 32 75h43z" />
    <glyph glyph-name="gbreve" unicode="&#x11f;" horiz-adv-x="533" 
d="M514 -75c0 -35.333 -12.6689 -66.3301 -38.002 -92.9971c-38.667 -39.333 -104.667 -59 -198 -59c-86 0 -148 19.333 -186 58c-23.333 24.667 -35 54.667 -35 90c0 24.667 6.66699 47.667 20 69s31.666 37.333 54.999 48c-17.333 4.66699 -32.166 15.167 -44.499 31.5
s-18.5 33.166 -18.5 50.499c0 40 20 71.667 60 95c-33.333 32 -50 73 -50 123c0 52.667 17.667 95 53 127s80 48 134 48c44 0 83 -11.333 117 -34c6 20.667 18.5 37.167 37.5 49.5s40.167 18.5 63.5 18.5c2 0 5.16699 -0.333008 9.5 -1s7.5 -1 9.5 -1v-43
c-2 0 -5.16699 0.333008 -9.5 1s-7.5 1 -9.5 1c-18 0 -33.167 -4.83301 -45.5 -14.5s-20.166 -22.834 -23.499 -39.501c26.667 -30.667 40 -68 40 -112c0 -52.667 -18 -94.667 -54 -126s-81 -47 -135 -47c-37.333 0 -70.666 7.66699 -99.999 23
c-33.333 -12.667 -50 -33.334 -50 -62.001c0 -22 11.667 -37.667 35 -47c14 -5.33301 36.333 -8 67 -8h109c66 0 115 -16.333 147 -49c26.667 -26.667 40 -59 40 -97zM404.998 338.003c0 39.333 -13.167 70.833 -39.5 94.5s-59.5 35.5 -99.5 35.5s-73 -11.833 -99 -35.5
s-39 -55.167 -39 -94.5s13 -70.5 39 -93.5s59 -34.5 99 -34.5s73.167 11.5 99.5 34.5s39.5 54.167 39.5 93.5zM463.998 -74.9971c0 24 -8.00098 44.667 -24.001 62c-23.333 24.667 -63.666 37 -120.999 37h-132c-23.333 -5.33301 -43 -17 -59 -35s-24 -40.667 -24 -68
c0 -25.333 9 -46.333 27 -63c28 -26.667 77.333 -40 148 -40c76.667 0 129.667 14.667 159 44c17.333 17.333 26 38.333 26 63zM437.997 709.003c-3.33301 -43.333 -18.1699 -78 -44.5029 -104s-60.166 -39 -101.499 -39s-75.166 13 -101.499 39s-41.166 60.667 -44.499 104
h43c3.33301 -32 14 -57 32 -75s41.667 -27 71 -27s53 9 71 27s28.667 43 32 75h43z" />
    <glyph glyph-name="Idotaccent" unicode="&#x130;" horiz-adv-x="269" 
d="M161 0h-53v709h53v-709zM169 842h-69v70h69v-70z" />
    <glyph glyph-name="dotlessi" unicode="&#x131;" horiz-adv-x="260" 
d="M156 0h-52v500h52v-500z" />
    <glyph glyph-name="Lslash" unicode="&#x141;" horiz-adv-x="563" 
d="M545 0h-420v313l-72 -45l-22 36l94 58v347h52v-314l156 96l22 -36l-178 -110v-296h368v-49z" />
    <glyph glyph-name="lslash" unicode="&#x142;" horiz-adv-x="318" 
d="M285 478l-115.999 -72v-304c0 -40 17.333 -60 52 -60c19.333 0 33.666 0.666992 42.999 2v-44c-14.667 -4 -29.667 -6 -45 -6c-66.667 0 -100 35.333 -100 106v275l-66 -41l-22 36l88 55v297h50v-266l94 58z" />
    <glyph glyph-name="OE" unicode="&#x152;" horiz-adv-x="1050" 
d="M996 0l-454.001 0.000976562v100c-7.33301 -14 -17.666 -27.667 -30.999 -41c-50 -48 -111.333 -72 -184 -72s-134 24 -184 72c-36 34.667 -59.167 76 -69.5 124s-15.5 105.333 -15.5 172c0 31.333 0.833008 58 2.5 80s5 47 10 75s13.5 53.833 25.5 77.5
s27.667 44.5 47 62.5c50 48 111.333 72 184 72s134 -24 184 -72c14.667 -14.667 25 -28.334 31 -41.001v100h454v-50h-401v-260h353v-50h-353v-299h401v-50zM541.999 355.001c0 30 -0.333008 53.167 -1 69.5s-3 38 -7 65s-11 50.833 -21 71.5s-23.333 39 -40 55
c-38 36.667 -86.667 55 -146 55s-108 -18.333 -146 -55c-16.667 -16 -30 -34.333 -40 -55s-17 -44.5 -21 -71.5s-6.33301 -48.667 -7 -65s-1 -39.5 -1 -69.5s0.333008 -53.167 1 -69.5s3 -38.166 7 -65.499s11 -51.333 21 -72s23.333 -39 40 -55
c38 -36.667 86.667 -55 146 -55s108 18.333 146 55c16.667 16 30 34.333 40 55s17 44.667 21 72s6.33301 49.166 7 65.499s1 39.5 1 69.5z" />
    <glyph glyph-name="oe" unicode="&#x153;" horiz-adv-x="912" 
d="M862 271c0 -4 -0.166016 -9.5 -0.499023 -16.5s-0.5 -12.5 -0.5 -16.5h-375c0 -1.33301 -0.166992 -3.5 -0.5 -6.5s-0.5 -5.16699 -0.5 -6.5c3.33301 -56 20 -101.667 50 -137s70 -53 120 -53c44 0 79.333 13.667 106 41c20.667 21.333 33.667 46 39 74h52
c-6.66699 -42 -25.667 -78 -57 -108c-36.667 -36.667 -83.334 -55 -140.001 -55c-62.667 0 -114.667 23.667 -156 71c-13.333 15.333 -25.333 33.666 -36 54.999c-10 -24.667 -25 -47 -45 -67c-39.333 -39.333 -88.333 -59 -147 -59s-107.667 19.667 -147 59
c-45.333 45.333 -68 113.333 -68 204s22.667 158.667 68 204c39.333 39.333 88.333 59 147 59s107.667 -19.667 147 -59c19.333 -19.333 34 -40.666 44 -63.999c7.33301 15.333 14.333 27.333 21 36c42.667 58 98.667 87 168 87c72.667 0 129 -30 169 -90
c28 -42 42 -92.667 42 -152zM811.001 284c-0.666992 51.333 -14.668 94.001 -42.001 128.001c-29.333 36 -68.666 54 -117.999 54c-50.667 0 -90.667 -18 -120 -54c-12 -14.667 -22.5 -34.334 -31.5 -59.001s-13.5 -47.667 -13.5 -69h325zM435 250.001
c0 77.333 -17.667 134.333 -53 171c-27.333 28.667 -64.333 43 -111 43s-83.667 -14.333 -111 -43c-35.333 -36.667 -53 -93.667 -53 -171c0 -78 17.667 -135.333 53 -172c26.667 -28 63.667 -42 111 -42s84.333 14 111 42c35.333 36.667 53 94 53 172z" />
    <glyph glyph-name="Scedilla" unicode="&#x15e;" horiz-adv-x="622" 
d="M569 192c0 -53.333 -18.667 -98.668 -56 -136.001c-46.667 -46 -113.667 -69 -201 -69c-84.667 0 -150.667 25.333 -198 76c-37.333 40 -58.666 87 -63.999 141h54c4.66699 -42 22 -78.333 52 -109c38 -38.667 90 -58 156 -58c70 0 123.667 17.667 161 53
c28 26.667 42 60.667 42 102c0 34.667 -12.5 65 -37.5 91s-58.5 41.667 -100.5 47l-132 17c-52.667 6.66699 -94.834 25.167 -126.501 55.5s-47.5 71.5 -47.5 123.5c0 51.333 20.667 96 62 134c45.333 41.333 103.666 62 174.999 62c38 0 74.5 -7.16699 109.5 -21.5
s62.5 -33.166 82.5 -56.499c32.667 -38 50.667 -79 54 -123h-53c-4.66699 35.333 -17.667 65.333 -39 90c-33.333 40.667 -84.666 61 -153.999 61c-56.667 0 -101.667 -14.333 -135 -43c-32 -28.667 -48 -63 -48 -103c0 -72.667 41.667 -114 125 -124l134 -17
c54.667 -6.66699 99.167 -28 133.5 -64s51.5 -79 51.5 -129zM307 -58.002l-66 -160l-53 25l72 135h47z" />
    <glyph glyph-name="scedilla" unicode="&#x15f;" horiz-adv-x="512" 
d="M456 139c0 -35.333 -11.332 -66 -33.999 -92c-36 -40 -90 -60 -162 -60c-71.333 0 -126 21.333 -164 64c-26 30 -40 63.667 -42 101h51c2.66699 -29.333 15 -55 37 -77c27.333 -26.667 66.666 -40 117.999 -40c54 0 93.333 12.333 118 37c18 18 27 39.333 27 64
c0 23.333 -8 43.333 -24 60s-38.667 27 -68 31l-97 13c-52 6 -89.667 22.667 -113 50c-18.667 22 -28 48.333 -28 79c0 38 14.333 70.333 43 97c34 31.333 79.667 47 137 47c67.333 0 117.666 -19.667 150.999 -59c24 -28.667 36.667 -59.334 38 -92.001h-50
c-2.66699 24 -11 44 -25 60c-24.667 29.333 -62.667 44 -114 44c-38.667 0 -68.667 -7.66699 -90 -23c-26 -18.667 -39 -41.667 -39 -69c0 -22.667 7.16699 -41.167 21.5 -55.5s39.5 -23.833 75.5 -28.5l95 -13c44.667 -6 78.834 -22.167 102.501 -48.5
s35.5 -56.166 35.5 -89.499zM271.001 -58l-66 -160l-53 25l72 135h47z" />
    <glyph glyph-name="Scaron" unicode="&#x160;" horiz-adv-x="622" 
d="M569 192c0 -53.333 -18.667 -98.668 -56 -136.001c-46.667 -46 -113.667 -69 -201 -69c-84.667 0 -150.667 25.333 -198 76c-37.333 40 -58.666 87 -63.999 141h54c4.66699 -42 22 -78.333 52 -109c38 -38.667 90 -58 156 -58c70 0 123.667 17.667 161 53
c28 26.667 42 60.667 42 102c0 34.667 -12.5 65 -37.5 91s-58.5 41.667 -100.5 47l-132 17c-52.667 6.66699 -94.834 25.167 -126.501 55.5s-47.5 71.5 -47.5 123.5c0 51.333 20.667 96 62 134c45.333 41.333 103.666 62 174.999 62c38 0 74.5 -7.16699 109.5 -21.5
s62.5 -33.166 82.5 -56.499c32.667 -38 50.667 -79 54 -123h-53c-4.66699 35.333 -17.667 65.333 -39 90c-33.333 40.667 -84.666 61 -153.999 61c-56.667 0 -101.667 -14.333 -135 -43c-32 -28.667 -48 -63 -48 -103c0 -72.667 41.667 -114 125 -124l134 -17
c54.667 -6.66699 99.167 -28 133.5 -64s51.5 -79 51.5 -129zM448 894.998l-122 -140h-33l-122 140l30 26l109 -128l108 128z" />
    <glyph glyph-name="scaron" unicode="&#x161;" horiz-adv-x="512" 
d="M456 139c0 -35.333 -11.332 -66 -33.999 -92c-36 -40 -90 -60 -162 -60c-71.333 0 -126 21.333 -164 64c-26 30 -40 63.667 -42 101h51c2.66699 -29.333 15 -55 37 -77c27.333 -26.667 66.666 -40 117.999 -40c54 0 93.333 12.333 118 37c18 18 27 39.333 27 64
c0 23.333 -8 43.333 -24 60s-38.667 27 -68 31l-97 13c-52 6 -89.667 22.667 -113 50c-18.667 22 -28 48.333 -28 79c0 38 14.333 70.333 43 97c34 31.333 79.667 47 137 47c67.333 0 117.666 -19.667 150.999 -59c24 -28.667 36.667 -59.334 38 -92.001h-50
c-2.66699 24 -11 44 -25 60c-24.667 29.333 -62.667 44 -114 44c-38.667 0 -68.667 -7.66699 -90 -23c-26 -18.667 -39 -41.667 -39 -69c0 -22.667 7.16699 -41.167 21.5 -55.5s39.5 -23.833 75.5 -28.5l95 -13c44.667 -6 78.834 -22.167 102.501 -48.5
s35.5 -56.166 35.5 -89.499zM382.001 684l-112 -129h-30l-112 129l28 24l100 -117l99 117z" />
    <glyph glyph-name="Ydieresis" unicode="&#x178;" horiz-adv-x="545" 
d="M543 709l-245 -428v-281h-51v281l-245 428h56l216 -377l216 377h53zM395 799h-61v63h61v-63zM210 799h-60v63h60v-63z" />
    <glyph glyph-name="Zcaron" unicode="&#x17d;" horiz-adv-x="618" 
d="M566 0h-516v56l451 604h-444v49h504v-56l-452 -604h457v-49zM173 893l31 27l111 -131l110 131l31 -27l-125 -143h-33z" />
    <glyph glyph-name="zcaron" unicode="&#x17e;" horiz-adv-x="492" 
d="M438 0h-377v56l320 397h-320v47h374v-55l-320 -397h323v-48zM377 683l-112 -129h-30l-112 129l28 24l100 -117l99 117z" />
    <glyph glyph-name="florin" unicode="&#x192;" horiz-adv-x="528" 
d="M472 663c-18.667 4.66699 -37.666 7 -56.999 7c-47.333 0 -77 -29.667 -89 -89l-32 -155h151v-45h-160l-34 -169h-1l-42 -208c-17.333 -84 -62.333 -126 -135 -126c-14 0 -33 1.33301 -57 4v46c22 -2 40.667 -3 56 -3c47.333 0 77 29.333 89 88l75 368h-112v45h122
l33 163c17.333 84 62.666 126 135.999 126c8 0 27 -1.66699 57 -5v-47z" />
    <glyph glyph-name="circumflex" unicode="&#x2c6;" horiz-adv-x="355" 
d="M319 589l-31 -27l-111 131l-110 -131l-31 27l125 143h33z" />
    <glyph glyph-name="caron" unicode="&#x2c7;" horiz-adv-x="353" 
d="M318 900l-125 -143h-33l-125 143l31 27l111 -131l110 131z" />
    <glyph glyph-name="breve" unicode="&#x2d8;" horiz-adv-x="363" 
d="M328 709c-3.33301 -43.333 -18.1699 -78 -44.5029 -104s-60.166 -39 -101.499 -39s-75.166 13 -101.499 39s-41.166 60.667 -44.499 104h43c3.33301 -32 14 -57 32 -75s41.667 -27 71 -27s53 9 71 27s28.667 43 32 75h43z" />
    <glyph glyph-name="dotaccent" unicode="&#x2d9;" horiz-adv-x="275" 
d="M172 639h-69v70h69v-70z" />
    <glyph glyph-name="ring" unicode="&#x2da;" horiz-adv-x="220" 
d="M217 670c0 -30.667 -10.333 -55.834 -31 -75.501s-46 -29.5 -76 -29.5s-55.333 9.83301 -76 29.5s-31 44.834 -31 75.501s9.66699 55.834 29 75.501s45.333 29.5 78 29.5s58.667 -9.83301 78 -29.5s29 -44.834 29 -75.501zM178 670c0 19.333 -6.16699 35.833 -18.5 49.5
s-28.833 20.5 -49.5 20.5s-37.334 -6.83301 -50.001 -20.5s-19 -30.167 -19 -49.5s6.33301 -35.833 19 -49.5s29.334 -20.5 50.001 -20.5s37.167 6.83301 49.5 20.5s18.5 30.167 18.5 49.5z" />
    <glyph glyph-name="ogonek" unicode="&#x2db;" horiz-adv-x="174" 
d="M146 -193l-53 -25l-65 160h46z" />
    <glyph glyph-name="tilde" unicode="&#x2dc;" horiz-adv-x="360" 
d="M322 650c-30.667 -26.667 -58 -40 -82 -40c-16 0 -37.667 6.83301 -65 20.5s-48 20.5 -62 20.5c-16.667 0 -34 -7.66699 -52 -23l-23 24c30 27.333 57.333 41 82 41c17.333 0 39 -6.83301 65 -20.5s45.667 -20.5 59 -20.5c18.667 0 36.667 7.66699 54 23z" />
    <glyph glyph-name="hungarumlaut" unicode="&#x2dd;" horiz-adv-x="459" 
d="M441 666l-171 -104l-18 27l159 122zM228 666l-171 -104l-18 27l159 122z" />
    <glyph glyph-name="Delta" unicode="&#x394;" horiz-adv-x="668" 
d="M654 0h-638l283 712h68zM566 57l-234 595l-232 -595h466z" />
    <glyph glyph-name="Delta" unicode="&#x2206;" horiz-adv-x="668" 
d="M654 0h-638l283 712h68zM566 57l-234 595l-232 -595h466z" />
    <glyph glyph-name="Omega" unicode="&#x3a9;" horiz-adv-x="743" 
d="M683 0l-247.999 -0.000976562v180c60 10.667 106.167 37.167 138.5 79.5s48.5 94.833 48.5 157.5c0 73.333 -24.833 133.166 -74.5 179.499s-110.834 69.5 -183.501 69.5s-133.5 -23.667 -182.5 -71s-73.5 -106.666 -73.5 -177.999c0 -62 16.167 -114.667 48.5 -158
s78.5 -69.666 138.5 -78.999v-180h-248v53h199v87c-61.333 16 -109.833 50 -145.5 102s-53.5 110.333 -53.5 175c0 87.333 31.167 159.833 93.5 217.5s137.5 86.5 225.5 86.5c86.667 0 161.167 -29 223.5 -87s93.5 -130 93.5 -216c0 -66 -17.667 -124.5 -53 -175.5
s-84 -85.167 -146 -102.5v-87h199v-53z" />
    <glyph glyph-name="Omega" unicode="&#x2126;" horiz-adv-x="743" 
d="M683 0l-247.999 -0.000976562v180c60 10.667 106.167 37.167 138.5 79.5s48.5 94.833 48.5 157.5c0 73.333 -24.833 133.166 -74.5 179.499s-110.834 69.5 -183.501 69.5s-133.5 -23.667 -182.5 -71s-73.5 -106.666 -73.5 -177.999c0 -62 16.167 -114.667 48.5 -158
s78.5 -69.666 138.5 -78.999v-180h-248v53h199v87c-61.333 16 -109.833 50 -145.5 102s-53.5 110.333 -53.5 175c0 87.333 31.167 159.833 93.5 217.5s137.5 86.5 225.5 86.5c86.667 0 161.167 -29 223.5 -87s93.5 -130 93.5 -216c0 -66 -17.667 -124.5 -53 -175.5
s-84 -85.167 -146 -102.5v-87h199v-53z" />
    <glyph glyph-name="pi" unicode="&#x3c0;" horiz-adv-x="641" 
d="M563 1c-14.667 -4 -29.332 -6 -43.999 -6c-68 0 -102 35.667 -102 107v353h-214v-455h-48v455h-82v45h475v-45h-80v-351c0 -41.333 17.333 -62 52 -62c19.333 0 33.666 0.666992 42.999 2v-43z" />
    <glyph glyph-name="endash" unicode="&#x2013;" horiz-adv-x="614" 
d="M539 279h-464v46h464v-46z" />
    <glyph glyph-name="emdash" unicode="&#x2014;" horiz-adv-x="1097" 
d="M1022 279h-947v46h947v-46z" />
    <glyph glyph-name="quoteleft" unicode="&#x2018;" horiz-adv-x="233" 
d="M163 691c-21.333 -11.333 -36 -23.832 -44 -37.499s-12 -32.834 -12 -57.501h55v-90h-92v91c0 57.333 25.333 98 76 122z" />
    <glyph glyph-name="quoteright" unicode="&#x2019;" horiz-adv-x="213" 
d="M158 618c0 -57.333 -25.333 -98.001 -76 -122.001l-17 28c21.333 11.333 36 23.833 44 37.5s12 32.834 12 57.501h-55v90h92v-91z" />
    <glyph glyph-name="quotesinglbase" unicode="&#x201a;" horiz-adv-x="243" 
d="M168 -1c0 -57.333 -25.333 -98.001 -76 -122.001l-17 28c21.333 11.333 36 23.833 44 37.5s12 32.834 12 57.501h-55v90h92v-91z" />
    <glyph glyph-name="quotedblleft" unicode="&#x201c;" horiz-adv-x="386" 
d="M326 699c-21.333 -11.333 -36 -23.832 -44 -37.499s-12 -32.834 -12 -57.501h55v-90h-92v91c0 57.333 25.333 98 76 122zM163 699.001c-21.333 -11.333 -36 -23.832 -44 -37.499s-12 -32.834 -12 -57.501h55v-90h-92v91c0 57.333 25.333 98 76 122z" />
    <glyph glyph-name="quotedblright" unicode="&#x201d;" horiz-adv-x="376" 
d="M321 618c0 -57.333 -25.333 -98.001 -76 -122.001l-17 28c21.333 11.333 36 23.833 44 37.5s12 32.834 12 57.501h-55v90h92v-91zM158 617.999c0 -57.333 -25.333 -98.001 -76 -122.001l-17 28c21.333 11.333 36 23.833 44 37.5s12 32.834 12 57.501h-55v90h92v-91z" />
    <glyph glyph-name="quotedblbase" unicode="&#x201e;" horiz-adv-x="401" 
d="M326 -1c0 -57.333 -25.333 -98.001 -76 -122.001l-17 28c21.333 11.333 36 23.833 44 37.5s12 32.834 12 57.501h-55v90h92v-91zM163 -1.00098c0 -57.333 -25.333 -98.001 -76 -122.001l-17 28c21.333 11.333 36 23.833 44 37.5s12 32.834 12 57.501h-55v90h92v-91z" />
    <glyph glyph-name="dagger" unicode="&#x2020;" horiz-adv-x="567" 
d="M504 456h-196v-581h-48v581h-197v44h197v209h48v-209h196v-44z" />
    <glyph glyph-name="daggerdbl" unicode="&#x2021;" horiz-adv-x="567" 
d="M505 84h-197v-209h-48v209h-196v44h196v328h-197v44h197v209h48v-209h196v-44h-196v-328h197v-44z" />
    <glyph glyph-name="bullet" unicode="&#x2022;" horiz-adv-x="426" 
d="M328 292c0 -32 -11.167 -59.167 -33.5 -81.5s-49.5 -33.5 -81.5 -33.5s-59.167 11.167 -81.5 33.5s-33.5 49.5 -33.5 81.5s11.167 59.167 33.5 81.5s49.5 33.5 81.5 33.5s59.167 -11.167 81.5 -33.5s33.5 -49.5 33.5 -81.5z" />
    <glyph glyph-name="ellipsis" unicode="&#x2026;" horiz-adv-x="858" 
d="M758 0h-86v89h86v-89zM472 0h-86v89h86v-89zM186 0h-86v89h86v-89z" />
    <glyph glyph-name="perthousand" unicode="&#x2030;" horiz-adv-x="1139" 
d="M1081 168c0 -50 -10.667 -90.667 -32 -122c-27.333 -38.667 -65.666 -58 -114.999 -58c-50 0 -88.667 19.333 -116 58c-21.333 31.333 -32 72 -32 122s10.667 90.667 32 122c27.333 38.667 66 58 116 58c49.333 0 87.666 -19.333 114.999 -58
c21.333 -31.333 32 -72 32 -122zM363 541c0 -50 -10.667 -90.667 -32 -122c-28 -39.333 -66.333 -59 -115 -59c-49.333 0 -88 19.667 -116 59c-21.333 31.333 -32 72 -32 122c0 49.333 10.667 89.666 32 120.999c28 39.333 66.333 59 115 59c49.333 0 88 -19.667 116 -59
c21.333 -31.333 32 -71.666 32 -120.999zM679 694l-518 -706l-35 27l517 704zM732 168c0 -50.667 -10.333 -91.332 -31 -121.999c-27.333 -38.667 -66 -58 -116 -58s-88.667 19.333 -116 58c-21.333 31.333 -32 72 -32 122s10.667 90.667 32 122c27.333 38.667 66 58 116 58
s88.667 -19.333 116 -58c20.667 -30.667 31 -71.334 31 -122.001zM1036 168.002c0 40.667 -8.33301 73.5 -25 98.5s-42.334 37.5 -77.001 37.5s-60.334 -12.5 -77.001 -37.5s-25 -57.833 -25 -98.5s8.33301 -73.5 25 -98.5s42.334 -37.5 77.001 -37.5
s60.334 12.5 77.001 37.5s25 57.833 25 98.5zM318 541.002c0 40 -8.5 72.667 -25.5 98s-42.833 38 -77.5 38s-60.334 -12.5 -77.001 -37.5s-25 -57.833 -25 -98.5c0 -40 8.5 -72.667 25.5 -98s42.833 -38 77.5 -38s60.334 12.5 77.001 37.5s25 57.833 25 98.5zM687 168.002
c0 40.667 -8.33301 73.5 -25 98.5s-42.334 37.5 -77.001 37.5s-60.334 -12.5 -77.001 -37.5s-25 -57.833 -25 -98.5s8.33301 -73.5 25 -98.5s42.334 -37.5 77.001 -37.5s60.334 12.5 77.001 37.5s25 57.833 25 98.5z" />
    <glyph glyph-name="guilsinglleft" unicode="&#x2039;" horiz-adv-x="315" 
d="M250 98l-33 -26l-162 219l162 219l33 -25l-136 -194z" />
    <glyph glyph-name="guilsinglright" unicode="&#x203a;" horiz-adv-x="315" 
d="M260 291l-161 -219l-34 26l137 193l-137 194l34 25z" />
    <glyph glyph-name="fraction" unicode="&#x2044;" horiz-adv-x="589" 
d="M574 694l-518 -706l-35 27l517 704z" />
    <glyph glyph-name="fraction" unicode="&#x2215;" horiz-adv-x="589" 
d="M574 694l-518 -706l-35 27l517 704z" />
    <glyph glyph-name="Euro" unicode="&#x20ac;" horiz-adv-x="593" 
d="M568 35c-46 -32 -102.001 -48 -168.001 -48c-77.333 0 -141.666 26 -192.999 78c-44.667 45.333 -72.667 109.333 -84 192h-84v42h80c-0.666992 10.667 -1 27 -1 49s0.333008 38.333 1 49h-80v42h84c9.33301 79.333 37.333 143 84 191c52 52.667 116.333 79 193 79
c66 0 122 -16 168 -48l-19 -42c-42 28 -91.667 42 -149 42c-66 0 -119.667 -22.667 -161 -68c-34.667 -38 -55.334 -89.333 -62.001 -154h289l-19 -42h-273c-0.666992 -11.333 -1 -28 -1 -50c0 -21.333 0.333008 -37.333 1 -48h235l-19 -42h-213
c6.66699 -64.667 27.334 -116 62.001 -154c41.333 -45.333 95 -68 161 -68c57.333 0 107 14 149 42z" />
    <glyph glyph-name="recordright" unicode="&#x2117;" horiz-adv-x="880" 
d="M807 354c0 -102 -35.667 -189.167 -107 -261.5s-158 -108.5 -260 -108.5s-188.667 36.167 -260 108.5s-107 159.5 -107 261.5s35.667 189.167 107 261.5s158 108.5 260 108.5s188.667 -36.167 260 -108.5s107 -159.5 107 -261.5zM759 354
c0 90.667 -30.833 167.667 -92.5 231s-137.167 95 -226.5 95s-164.833 -31.667 -226.5 -95s-92.5 -140.333 -92.5 -231c0 -90 30.833 -166.667 92.5 -230s137.167 -95 226.5 -95s164.833 31.667 226.5 95s92.5 140 92.5 230zM598 412c0 -34 -11.332 -62.5 -33.999 -85.5
s-54.334 -34.5 -95.001 -34.5h-87v-143h-47v384h135c40.667 0 72.167 -11.667 94.5 -35s33.5 -52 33.5 -86zM552.001 413c0 20 -6.83301 37.167 -20.5 51.5s-34.167 21.5 -61.5 21.5h-88v-147h87c27.333 0 48 7.33301 62 22s21 32 21 52z" />
    <glyph glyph-name="trademark" unicode="&#x2122;" horiz-adv-x="826" 
d="M743 307h-42v353l-123 -344h-29l-123 344v-353h-41v403h63l116 -326l115 326h64v-403zM299 669h-115v-362h-42v362h-115v41h272v-41z" />
    <glyph glyph-name="partialdiff" unicode="&#x2202;" horiz-adv-x="580" 
d="M479 364c0 -33.333 -1.50098 -65.333 -4.50098 -96s-9.16699 -63.667 -18.5 -99s-21.833 -65.833 -37.5 -91.5s-37.167 -47 -64.5 -64s-59.333 -25.5 -96 -25.5c-59.333 0 -106.833 22 -142.5 66s-53.5 96.333 -53.5 157s17.333 111.167 52 151.5
s81.334 60.5 140.001 60.5c66.667 0 122.667 -29.333 168 -88c0.666992 29.333 0.166992 57 -1.5 83s-6 55 -13 87s-16.667 59.5 -29 82.5s-30.333 42.333 -54 58s-51.5 23.5 -83.5 23.5c-35.333 0 -72.333 -15 -111 -45l-33 40c43.333 38 90.333 57 141 57
c44.667 0 83.5 -11 116.5 -33s58.167 -51.333 75.5 -88s29.833 -74.5 37.5 -113.5s11.5 -79.833 11.5 -122.5zM416.999 276c-48 63.333 -101.001 94.999 -159.001 94.999c-42.667 0 -76.5 -15.667 -101.5 -47s-37.5 -69.333 -37.5 -114c0 -44 12.667 -83.833 38 -119.5
s59 -53.5 101 -53.5c27.333 0 51.5 7.83301 72.5 23.5s37.333 36.334 49 62.001s20.334 51 26.001 76s9.5 50.833 11.5 77.5z" />
    <glyph glyph-name="product" unicode="&#x220f;" horiz-adv-x="708" 
d="M636 -214h-60v943h-444v-943h-60v1000h564v-1000z" />
    <glyph glyph-name="summation" unicode="&#x2211;" horiz-adv-x="598" 
d="M573 -214h-547v51l331 452l-317 445v52h521v-57h-445l314 -440l-332 -447h475v-56z" />
    <glyph glyph-name="minus" unicode="&#x2212;" horiz-adv-x="630" 
d="M532 279h-464v46h464v-46z" />
    <glyph glyph-name="radical" unicode="&#x221a;" horiz-adv-x="680" 
d="M690 788h-116l-265 -796h-51l-173 497h54l145 -426l253 769h153v-44z" />
    <glyph glyph-name="infinity" unicode="&#x221e;" horiz-adv-x="731" 
d="M691 251c0 -42 -12.3311 -76.5 -36.998 -103.5s-57.667 -40.5 -99 -40.5c-23.333 0 -47.333 6 -72 18s-44.667 24.333 -60 37s-34 29.667 -56 51l-17 -16c-12 -10.667 -18.833 -16.5 -20.5 -17.5s-7.83398 -6 -18.501 -15s-17.667 -14.5 -21 -16.5
s-9.83301 -6.16699 -19.5 -12.5s-17.334 -10.5 -23.001 -12.5s-12.834 -4.66699 -21.501 -8s-17 -5.5 -25 -6.5s-16.333 -1.5 -25 -1.5c-40 0 -72.5 13.333 -97.5 40s-37.5 60.334 -37.5 101.001c0 40 12.333 74 37 102s56.667 42 96 42c12.667 0 25.667 -2 39 -6
s24.5 -7.83301 33.5 -11.5s20.5 -10.667 34.5 -21s23.333 -17.5 28 -21.5l31 -27.5c16 -14.333 25 -22.5 27 -24.5c23.333 23.333 41.833 41.166 55.5 53.499s33.167 25.333 58.5 39s49.333 20.5 72 20.5c40.667 0 73.834 -13.5 99.501 -40.5s38.5 -60.833 38.5 -101.5z
M639.002 248c0 26.667 -7.49707 48.668 -22.4971 66.001s-35.833 26 -62.5 26c-12.667 0 -25.667 -2.5 -39 -7.5s-28.333 -14 -45 -27s-27.834 -22 -33.501 -27l-34.5 -31.5c1.33301 -0.666992 6.83301 -5.33398 16.5 -14.001l18 -16
c2.33301 -2 8.16602 -6.66699 17.499 -14s16 -12.166 20 -14.499l18.5 -11c8.33301 -5 15.5 -8.33301 21.5 -10s13 -3.33398 21 -5.00098s15.667 -2.5 23 -2.5c25.333 0 45.166 8.33301 59.499 25s21.5 37.667 21.5 63zM331.005 247.001l-32.5029 27
c-18.333 15.333 -32.166 26.333 -41.499 33s-22.166 13.667 -38.499 21s-31.166 11 -44.499 11c-24 0 -43.5 -9 -58.5 -27s-22.5 -39.333 -22.5 -64c0 -26.667 7.66699 -48 23 -64s36 -24 62 -24c40.667 0 91.667 29 153 87z" />
    <glyph glyph-name="integral" unicode="&#x222b;" horiz-adv-x="580" 
d="M400 739c0 -10 -3.16211 -18 -9.49512 -24s-14.5 -9 -24.5 -9c-8.66699 0 -15.834 2 -21.501 6s-9.33398 8.66699 -11.001 14s-4 10 -7 14s-6.83301 6 -11.5 6c-6 0 -11.333 -3 -16 -9s-8.33398 -14.333 -11.001 -25s-4.66699 -21.834 -6 -33.501
s-2.33301 -24.834 -3 -39.501s-1 -27 -1 -37s0.166992 -20.833 0.5 -32.5s0.5 -18.167 0.5 -19.5v-501v-11v-42.5c0 -10.333 -0.833008 -25.5 -2.5 -45.5s-3.83398 -36.333 -6.50098 -49s-7 -27 -13 -43s-13 -28.667 -21 -38s-18.5 -17.333 -31.5 -24s-27.833 -10 -44.5 -10
c-15.333 0 -28.833 4 -40.5 12s-17.5 19.333 -17.5 34c0 9.33301 3.16699 16.833 9.5 22.5s14.166 8.5 23.499 8.5c13.333 0 23.5 -6.16699 30.5 -18.5s12.833 -18.5 17.5 -18.5c24 0 36 61 36 183v518v28v32.5c0 7.66699 0.166992 18.834 0.5 33.501
s1.16602 26.334 2.49902 35.001s3.33301 19.5 6 32.5s6 23.5 10 31.5s9 16.667 15 26s12.667 16.5 20 21.5s16.333 9.33301 27 13s22.334 5.5 35.001 5.5c17.333 0 32.5 -3.83301 45.5 -11.5s19.5 -19.5 19.5 -35.5z" />
    <glyph glyph-name="approxequal" unicode="&#x2248;" horiz-adv-x="641" 
d="M558 387c-22 -22 -42.834 -38.502 -62.501 -49.502s-43.167 -16.5 -70.5 -16.5c-25.333 0 -60.5 10.833 -105.5 32.5s-79.833 32.5 -104.5 32.5c-20 0 -36.5 -3.66699 -49.5 -11s-28.833 -19.666 -47.5 -36.999l-35 35c22 22.667 42.833 39.334 62.5 50.001
s42.834 16 69.501 16c27.333 0 64 -10.5 110 -31.5s79.333 -31.5 100 -31.5s37.5 3.33301 50.5 10s28.833 18.667 47.5 36zM557.999 171.998c-42 -43.333 -86.334 -65.0029 -133.001 -65.0029c-25.333 0 -60.5 10.667 -105.5 32s-79.833 32 -104.5 32
c-20 0 -36.5 -3.66699 -49.5 -11s-28.833 -19.666 -47.5 -36.999l-35 35c22 22.667 42.833 39.334 62.5 50.001s42.834 16 69.501 16c27.333 0 64 -10.333 110 -31s79.333 -31 100 -31c21.333 0 38.5 3.33301 51.5 10s28.5 18.334 46.5 35.001z" />
    <glyph glyph-name="notequal" unicode="&#x2260;" horiz-adv-x="693" 
d="M580 136h-322l-73 -109l-33 22l58 87h-97v46h128l128 191h-256v46h287l72 107l33 -22l-57 -85h132v-46h-163l-128 -191h291v-46z" />
    <glyph glyph-name="lessequal" unicode="&#x2264;" horiz-adv-x="580" 
d="M540 71l-500 191v59l500 191v-59l-425 -161l425 -161v-60zM540 -26h-500v54h500v-54z" />
    <glyph glyph-name="greaterequal" unicode="&#x2265;" horiz-adv-x="580" 
d="M540 262l-500 -191v60l425 161l-425 161v59l500 -191v-59zM540 -26h-500v54h500v-54z" />
    <glyph glyph-name="lozenge" unicode="&#x25ca;" horiz-adv-x="580" 
d="M488 356l-170 -391h-58l-168 391l168 391h58zM428 356l-139 330l-138 -330l138 -330z" />
    <glyph glyph-name="apple" unicode="&#xf000;" horiz-adv-x="720" 
d="M636 -1l-316.998 -0.000976562c-63.333 0 -115.833 16.833 -157.5 50.5s-62.5 81.5 -62.5 143.5c0 38 10.667 72.5 32 103.5s50.666 54.5 87.999 70.5c-33.333 12 -59.5 32.333 -78.5 61s-28.5 60.334 -28.5 95.001c0 60.667 20.167 107.167 60.5 139.5
s89.166 48.5 146.499 48.5c28.667 0 57 -3.33301 85 -10v-45c-25.333 5.33301 -51.333 8 -78 8c-45.333 0 -83.833 -11.833 -115.5 -35.5s-47.5 -58.167 -47.5 -103.5c0 -44.667 14.5 -78.667 43.5 -102s66.167 -35 111.5 -35h155v119h50v-119h113v-44h-113v-299h113v-46z
M473.002 44.999l-0.000976562 298.999h-155c-47.333 0 -87.166 -13.833 -119.499 -41.5s-48.5 -64.5 -48.5 -110.5c0 -47.333 16.167 -83.666 48.5 -108.999s73.833 -38 124.5 -38h150z" />
    <glyph glyph-name="apple" unicode="&#xf8ff;" horiz-adv-x="720" 
d="M636 -1l-316.998 -0.000976562c-63.333 0 -115.833 16.833 -157.5 50.5s-62.5 81.5 -62.5 143.5c0 38 10.667 72.5 32 103.5s50.666 54.5 87.999 70.5c-33.333 12 -59.5 32.333 -78.5 61s-28.5 60.334 -28.5 95.001c0 60.667 20.167 107.167 60.5 139.5
s89.166 48.5 146.499 48.5c28.667 0 57 -3.33301 85 -10v-45c-25.333 5.33301 -51.333 8 -78 8c-45.333 0 -83.833 -11.833 -115.5 -35.5s-47.5 -58.167 -47.5 -103.5c0 -44.667 14.5 -78.667 43.5 -102s66.167 -35 111.5 -35h155v119h50v-119h113v-44h-113v-299h113v-46z
M473.002 44.999l-0.000976562 298.999h-155c-47.333 0 -87.166 -13.833 -119.499 -41.5s-48.5 -64.5 -48.5 -110.5c0 -47.333 16.167 -83.666 48.5 -108.999s73.833 -38 124.5 -38h150z" />
    <glyph glyph-name=".null" horiz-adv-x="0" 
 />
    <glyph glyph-name="nonmarkingreturn" horiz-adv-x="333" 
 />
    <glyph glyph-name="ampersand.alt" horiz-adv-x="720" 
d="M636 -1l-316.998 -0.000976562c-63.333 0 -115.833 16.833 -157.5 50.5s-62.5 81.5 -62.5 143.5c0 38 10.667 72.5 32 103.5s50.666 54.5 87.999 70.5c-33.333 12 -59.5 32.333 -78.5 61s-28.5 60.334 -28.5 95.001c0 60.667 20.167 107.167 60.5 139.5
s89.166 48.5 146.499 48.5c28.667 0 57 -3.33301 85 -10v-45c-25.333 5.33301 -51.333 8 -78 8c-45.333 0 -83.833 -11.833 -115.5 -35.5s-47.5 -58.167 -47.5 -103.5c0 -44.667 14.5 -78.667 43.5 -102s66.167 -35 111.5 -35h155v119h50v-119h113v-44h-113v-299h113v-46z
M473.002 44.999l-0.000976562 298.999h-155c-47.333 0 -87.166 -13.833 -119.499 -41.5s-48.5 -64.5 -48.5 -110.5c0 -47.333 16.167 -83.666 48.5 -108.999s73.833 -38 124.5 -38h150z" />
    <glyph glyph-name="orn.1" horiz-adv-x="842" 
d="M796 282h-676l277 -275l-30 -30l-328 327l327 327l30 -30l-276 -274h676v-45z" />
    <glyph glyph-name="orn.2" horiz-adv-x="842" 
d="M803 304l-328 -327l-30 30l277 275h-676v45h676l-276 274l30 30z" />
    <glyph glyph-name="one.alt" 
d="M498 0h-376v48h163v585l-173 -127v56l178 133h45v-647h163v-48z" />
    <glyph glyph-name="orn.6" horiz-adv-x="926" 
d="M846 -72h-766v220h40v-178h687v178h39v-220z" />
    <glyph glyph-name="orn.5" horiz-adv-x="898" 
d="M818 856h-738v19h738v-19zM818 666h-738v19h738v-19zM818 477h-738v19h738v-19zM818 287h-738v19h738v-19zM818 98h-738v19h738v-19zM818 -92h-738v19h738v-19zM818 -281h-738v19h738v-19z" />
    <glyph glyph-name="orn.3" horiz-adv-x="705" 
d="M659 177l-33 -33l-488 488v-390h-42v467h454v-43h-381z" />
    <glyph glyph-name="orn.4" horiz-adv-x="705" 
d="M609 242h-42v390l-488 -488l-33 33l490 489h-381v43h454v-467z" />
    <glyph glyph-name="zero.alt" 
d="M507 348c0 -150.667 -27.333 -252.334 -82 -305.001c-38.667 -37.333 -85.667 -56 -141 -56s-102.333 18.667 -141 56c-54.667 52.667 -82 154.334 -82 305.001s27.333 252.334 82 305.001c38.667 37.333 85.667 56 141 56s102.333 -18.667 141 -56
c54.667 -52.667 82 -154.334 82 -305.001zM429 562c-8.66699 23.333 -21.334 43 -38.001 59c-28 26.667 -63.667 40 -107 40s-79 -13.333 -107 -40c-19.333 -18.667 -34.166 -45.5 -44.499 -80.5s-16.333 -65.667 -18 -92s-2.5 -59.833 -2.5 -100.5
c0 -69.333 4 -123.333 12 -162zM456 348c0 70.667 -4.33203 125.668 -12.999 165.001l-305 -376c9.33301 -24.667 22.333 -45.334 39 -62.001c28 -26.667 63.667 -40 107 -40s79 13.333 107 40c19.333 18.667 34.166 45.5 44.499 80.5s16.333 65.667 18 92
s2.5 59.833 2.5 100.5z" />
    </font>
</defs>
</svg>
