<?xml version="1.0" standalone="no"?>
<!DOCTYPE svg PUBLIC "-//W3C//DTD SVG 1.1//EN" "http://www.w3.org/Graphics/SVG/1.1/DTD/svg11.dtd" >
<svg>
<metadata>
Created by FontForge 20090914 at Fri Jan  8 00:39:49 2016
 By www-data
</metadata>
<defs>
<font id="AkkuratBold" horiz-adv-x="570" >
  <font-face 
    font-family="Akkurat Bold"
    font-weight="700"
    font-stretch="normal"
    units-per-em="1000"
    panose-1="2 0 7 0 0 0 0 0 0 0"
    ascent="760"
    descent="-240"
    x-height="520"
    cap-height="709"
    bbox="-49 -293 1147 983"
    underline-thickness="45"
    underline-position="-93"
    unicode-range="U+0009-U+F002"
  />
<missing-glyph horiz-adv-x="588" 
d="M539 364c0 -27.333 -8.83496 -49.8311 -26.502 -67.498s-39.834 -26.5 -66.501 -26.5h-72c11.333 -15.333 17 -33.333 17 -54c0 -26.667 -8.83301 -48.834 -26.5 -66.501s-39.834 -26.5 -66.501 -26.5h-249v248c0 27.333 8.83301 49.833 26.5 67.5
s39.834 26.5 66.501 26.5c20 0 38.333 -5.66699 55 -17v71c0 27.333 8.83301 49.833 26.5 67.5s39.834 26.5 66.501 26.5s48.834 -8.83301 66.501 -26.5s26.5 -40.167 26.5 -67.5v-62h63c26.667 0 48.834 -8.83301 66.501 -26.5s26.5 -39.834 26.5 -66.501zM521.998 364.002
c0 22.667 -7 41 -21 55s-32.333 21 -55 21h-79v79c0 22.667 -7.16699 41.167 -21.5 55.5s-32.833 21.5 -55.5 21.5s-41 -7.16699 -55 -21.5s-21 -32.833 -21 -55.5v-232h232c22.667 0 41 7.16699 55 21.5s21 32.833 21 55.5z" />
    <glyph glyph-name="fi" unicode="fi" horiz-adv-x="659" 
d="M583 590h-134v131h134v-131zM580 0h-127v520h127v-520zM379 623c-28 5.33301 -55.332 7.99902 -81.999 7.99902c-22 0 -38.833 -5.66699 -50.5 -17s-17.5 -26.666 -17.5 -45.999v-48h139v-103h-139v-417h-125v417h-88v103h88v50c0 48.667 15.667 88.167 47 118.5
s74.666 45.5 129.999 45.5c29.333 0 62 -3.66699 98 -11v-100z" />
    <glyph glyph-name="fl" unicode="fl" horiz-adv-x="673" 
d="M643 1c-23.333 -4.66699 -41.667 -7 -55 -7c-44.667 0 -79.5 11.333 -104.5 34s-37.5 58 -37.5 106v589h126v-568c0 -16.667 3.33301 -29.167 10 -37.5s20 -12.5 40 -12.5c4 0 8 0.166992 12 0.5s7 0.5 9 0.5v-105zM378.999 623
c-28 5.33301 -55.332 7.99902 -81.999 7.99902c-22 0 -38.833 -5.66699 -50.5 -17s-17.5 -26.666 -17.5 -45.999v-48h139v-103h-139v-417h-125v417h-88v103h88v50c0 48.667 15.667 88.167 47 118.5s74.666 45.5 129.999 45.5c29.333 0 62 -3.66699 98 -11v-100z" />
    <glyph glyph-name=".notdef" horiz-adv-x="588" 
d="M539 364c0 -27.333 -8.83496 -49.8311 -26.502 -67.498s-39.834 -26.5 -66.501 -26.5h-72c11.333 -15.333 17 -33.333 17 -54c0 -26.667 -8.83301 -48.834 -26.5 -66.501s-39.834 -26.5 -66.501 -26.5h-249v248c0 27.333 8.83301 49.833 26.5 67.5
s39.834 26.5 66.501 26.5c20 0 38.333 -5.66699 55 -17v71c0 27.333 8.83301 49.833 26.5 67.5s39.834 26.5 66.501 26.5s48.834 -8.83301 66.501 -26.5s26.5 -40.167 26.5 -67.5v-62h63c26.667 0 48.834 -8.83301 66.501 -26.5s26.5 -39.834 26.5 -66.501zM521.998 364.002
c0 22.667 -7 41 -21 55s-32.333 21 -55 21h-79v79c0 22.667 -7.16699 41.167 -21.5 55.5s-32.833 21.5 -55.5 21.5s-41 -7.16699 -55 -21.5s-21 -32.833 -21 -55.5v-232h232c22.667 0 41 7.16699 55 21.5s21 32.833 21 55.5z" />
    <glyph glyph-name="HT" unicode="&#x9;" horiz-adv-x="708" 
 />
    <glyph glyph-name="CR" unicode="&#xd;" horiz-adv-x="708" 
 />
    <glyph glyph-name="space" unicode=" " horiz-adv-x="209" 
 />
    <glyph glyph-name="exclam" unicode="!" horiz-adv-x="332" 
d="M249 487l-28 -275h-75l-28 275v222h131v-222zM250 0h-132v133h132v-133z" />
    <glyph glyph-name="quotedbl" unicode="&#x22;" horiz-adv-x="525" 
d="M443 563l-25 -171h-83l-25 171v147h133v-147zM215 563l-25 -171h-83l-25 171v147h133v-147z" />
    <glyph glyph-name="numbersign" unicode="#" horiz-adv-x="758" 
d="M700 413h-136l-17 -131h121v-98h-136l-26 -184h-105l26 184h-138l-26 -184h-105l26 184h-121v98h136l18 131h-122v99h136l27 183h104l-26 -183h138l27 183h104l-26 -183h121v-99zM460 413h-138l-18 -131h138z" />
    <glyph glyph-name="dollar" unicode="$" 
d="M553 217c0 -54 -19.0029 -100.668 -57.0029 -140.001c-40 -41.333 -94.333 -65.666 -163 -72.999v-91h-73v90c-67.333 5.33301 -124 29 -170 71c-46.667 42 -70.334 93.333 -71.001 154h123c0.666992 -33.333 13 -61.333 37 -84c20.667 -20 47.667 -31.667 81 -35v198
c-23.333 2.66699 -39.666 5 -48.999 7c-54 8.66699 -96.5 29.5 -127.5 62.5s-46.5 74.833 -46.5 125.5c0 48.667 20.333 92.667 61 132c42 42 96 66 162 72v93h73v-95c58 -7.33301 105.667 -28 143 -62c44 -40.667 67 -88.334 69 -143.001h-123
c-1.33301 24.667 -11.666 47.334 -30.999 68.001c-13.333 14 -32.666 24.333 -57.999 31v-183c4 -0.666992 9.66699 -1.5 17 -2.5s13 -1.83301 17 -2.5c54.667 -8.66699 99.334 -29.5 134.001 -62.5s52 -76.5 52 -130.5zM259.997 424.999v176.001
c-31.333 -4.66699 -56 -15.667 -74 -33c-18 -16.667 -27 -37.667 -27 -63c0 -42 23.667 -67 71 -75c13.333 -2.66699 23.333 -4.33398 30 -5.00098zM431.997 212c0 44 -27.334 71 -82.001 81l-17 3v-186c30.667 5.33301 54.334 16.333 71.001 33
c18.667 18.667 28 41.667 28 69z" />
    <glyph glyph-name="percent" unicode="%" horiz-adv-x="904" 
d="M854 182c0 -50 -10.333 -90 -31 -120c-33.333 -48 -80.333 -72 -141 -72s-107.667 24 -141 72c-20.667 30 -31 70 -31 120s10.333 90 31 120c33.333 48 80.333 72 141 72s107.667 -24 141 -72c20.667 -30 31 -70 31 -120zM743 670l-507 -690l-74 56l505 687zM389 527
c0 -50 -10.333 -90 -31 -120c-33.333 -48 -80.333 -72 -141 -72s-107.667 24 -141 72c-20.667 30 -31 70 -31 120s10.333 90 31 120c33.333 48 80.333 72 141 72s107.667 -24 141 -72c20.667 -30 31 -70 31 -120zM755 182c0 70.667 -24.333 106 -73 106
s-73 -35.333 -73 -106s24.333 -106 73 -106s73 35.333 73 106zM290 527c0 70.667 -24.333 106 -73 106s-73 -35.333 -73 -106s24.333 -106 73 -106s73 35.333 73 106z" />
    <glyph glyph-name="ampersand" unicode="&#x26;" horiz-adv-x="742" 
d="M704 -1l-152.001 -0.000976562l-50 56c-56 -49.333 -123 -74 -201 -74c-65.333 0 -120.833 19.667 -166.5 59s-68.5 91.333 -68.5 156c0 78.667 42 143.667 126 195c-26.667 28.667 -46 54 -58 76s-18 48 -18 78c0 54.667 18.5 98.167 55.5 130.5s83.167 48.5 138.5 48.5
c54 0 100.167 -15.833 138.5 -47.5s57.5 -74.167 57.5 -127.5c0 -42.667 -11.5 -78.667 -34.5 -108s-56.167 -56.666 -99.5 -81.999l123 -134c9.33301 17.333 15.333 46.333 18 87c1.33301 21.333 2 50.333 2 87h183v-99h-82
c-3.33301 -66.667 -17.666 -119.667 -42.999 -159l66 -71.5zM388.999 543.999c0 24 -7.33105 42.832 -21.998 56.499s-33.667 20.5 -57 20.5c-22 0 -40.667 -6.5 -56 -19.5s-23 -31.167 -23 -54.5c0 -6.66699 0.666992 -13 2 -19s3.5 -12 6.5 -18l8 -15.5
c2.33301 -4.33301 6.33301 -9.66602 12 -15.999l12 -13.5c2.33301 -2.66699 7 -7.5 14 -14.5l12.5 -12.5l34.5 19.5c6.33301 3.66699 15.166 10.167 26.499 19.5s19.166 19.333 23.499 30s6.5 23 6.5 37zM427.001 133.998l-81.501 89.5029l-80.5 89.5
c-19.333 -11.333 -34 -20.833 -44 -28.5s-19.167 -18.834 -27.5 -33.501s-12.5 -31.334 -12.5 -50.001c0 -34.667 12.333 -61.834 37 -81.501s54.667 -29.5 90 -29.5c52.667 0 92.334 14.667 119.001 44z" />
    <glyph glyph-name="quotesingle" unicode="'" horiz-adv-x="277" 
d="M205 563l-25 -171h-83l-25 171v147h133v-147z" />
    <glyph glyph-name="parenleft" unicode="(" horiz-adv-x="328" 
d="M318 -115l-71 -53c-121.333 139.333 -182 301 -182 485s60.667 345.667 182 485l71 -53c-53.333 -71.333 -91.5 -139 -114.5 -203s-34.5 -140.333 -34.5 -229s11.5 -165 34.5 -229s61.167 -131.667 114.5 -203z" />
    <glyph glyph-name="parenright" unicode=")" horiz-adv-x="328" 
d="M263 317c0 -184 -60.667 -345.667 -182 -485l-71 53c53.333 71.333 91.5 139 114.5 203s34.5 140.333 34.5 229s-11.5 165 -34.5 229s-61.167 131.667 -114.5 203l71 53c121.333 -139.333 182 -301 182 -485z" />
    <glyph glyph-name="asterisk" unicode="*" horiz-adv-x="525" 
d="M485 506l-151 -40l100 -125l-87 -65l-84 139l-85 -140l-87 65l100 126l-151 40l33 106l145 -60l-10 161l108 -1l-11 -161l146 61z" />
    <glyph glyph-name="plus" unicode="+" horiz-adv-x="679" 
d="M624 255h-228v-250h-113v250h-228v107h228v234h113v-234h228v-107z" />
    <glyph glyph-name="comma" unicode="," horiz-adv-x="292" 
d="M222 12c0 -46 -7.99902 -83.502 -23.999 -112.502s-45 -52.167 -87 -69.5l-35 58c27.333 12.667 45.666 27.334 54.999 44.001s14 39.334 14 68.001h-75v156h152v-144z" />
    <glyph glyph-name="hyphen" unicode="-" horiz-adv-x="463" 
d="M403 252h-343v112h343v-112z" />
    <glyph glyph-name="period" unicode="." horiz-adv-x="293" 
d="M222 0h-152v156h152v-156z" />
    <glyph glyph-name="slash" unicode="/" horiz-adv-x="389" 
d="M399 722l-307 -735h-92l307 735h92z" />
    <glyph glyph-name="zero" unicode="0" 
d="M530 348c0 -68 -5.66699 -127 -17 -177s-33.333 -90.667 -66 -122c-42.667 -41.333 -96.667 -62 -162 -62s-119.333 20.667 -162 62c-32.667 31.333 -54.667 72 -66 122s-17 109 -17 177s5.66699 127 17 177s33.333 90.667 66 122c42.667 41.333 96.667 62 162 62
s119.333 -20.667 162 -62c32.667 -31.333 54.667 -72 66 -122s17 -109 17 -177zM403 348c0 71.333 -2.66699 119 -8 143c-14 68 -50.667 102 -110 102c-16.667 0 -31.5 -2.5 -44.5 -7.5s-23.5 -12 -31.5 -21s-15 -19.5 -21 -31.5s-10.167 -24.833 -12.5 -38.5
s-4.5 -27.834 -6.5 -42.501s-2.83301 -29 -2.5 -43s0.5 -27.667 0.5 -41v-20c0 -71.333 2.66699 -119 8 -143c14 -68 50.667 -102 110 -102c16.667 0 31.5 2.5 44.5 7.5s23.5 12 31.5 21s15 19.5 21 31.5s10.167 24.833 12.5 38.5s4.5 27.834 6.5 42.501s2.83301 29 2.5 43
s-0.5 27.667 -0.5 41v20z" />
    <glyph glyph-name="one" unicode="1" 
d="M394 0h-125v547l-153 -111v136l171 123h107v-695z" />
    <glyph glyph-name="two" unicode="2" 
d="M506 0h-444v100l271 323c24 28 36 57.667 36 89c0 25.333 -7.83301 46.166 -23.5 62.499s-37.167 24.5 -64.5 24.5c-28.667 0 -51.334 -9.5 -68.001 -28.5s-25 -42.833 -25 -71.5h-128c0.666992 62.667 20.334 113.334 59.001 152.001s93 58 163 58
c61.333 0 112.333 -17.833 153 -53.5s61 -83.167 61 -142.5c0 -52 -25.333 -108.667 -76 -170l-192 -230h278v-113z" />
    <glyph glyph-name="three" unicode="3" 
d="M516 199c0 -66.667 -22.332 -118.667 -66.999 -156s-101.334 -56 -170.001 -56c-65.333 0 -120.5 19.667 -165.5 59s-68.5 91 -70.5 155h125c2.66699 -33.333 14.167 -59 34.5 -77s46.166 -27 77.499 -27c32 0 58.333 9.33301 79 28s31 44 31 76c0 34 -11.667 60 -35 78
s-52.333 27 -87 27h-52v109h52c71.333 0 107 31 107 93c0 25.333 -9 46.833 -27 64.5s-40.667 26.5 -68 26.5c-32 0 -57.667 -8 -77 -24s-29.333 -39.333 -30 -70h-126c0.666992 63.333 23.167 113.166 67.5 149.499s99.5 54.5 165.5 54.5c64 0 117 -18.167 159 -54.5
s63 -84.166 63 -143.499c0 -32.667 -9 -63 -27 -91s-42.333 -47.333 -73 -58c34.667 -10 62.334 -30.333 83.001 -61s31 -64.667 31 -102z" />
    <glyph glyph-name="four" unicode="4" 
d="M550 140h-88v-140h-125v140h-310v118l255 437h136l-259 -442h178v163h125v-163h88v-113z" />
    <glyph glyph-name="five" unicode="5" 
d="M533 236c0 -75.333 -21.3301 -135.834 -63.9971 -181.501s-102 -68.5 -178 -68.5c-69.333 0 -126 19.833 -170 59.5s-67.667 92.167 -71 157.5h125c1.33301 -34 12.666 -60.167 33.999 -78.5s49 -27.5 83 -27.5c39.333 0 68.166 12.5 86.499 37.5s27.5 57.833 27.5 98.5
c0 38.667 -9.33301 69.334 -28 92.001s-47.334 34 -86.001 34c-20.667 0 -40.5 -5 -59.5 -15s-33.833 -23.667 -44.5 -41h-123l15 392h422v-112h-314l-8 -159c32 30 78 45 138 45c68 0 120.833 -21.667 158.5 -65s56.5 -99.333 56.5 -168z" />
    <glyph glyph-name="six" unicode="6" 
d="M535 229c0 -70.667 -20.833 -128.665 -62.5 -173.998s-100.5 -68 -176.5 -68c-64 0 -116.5 20.167 -157.5 60.5s-66.833 93.166 -77.5 158.499c-7.33301 41.333 -11 84.666 -11 129.999c0 66.667 5 125.334 15 176.001s30.667 93 62 127c44 46.667 100.667 70 170 70
c66 0 119 -19 159 -57c39.333 -37.333 59 -80 59 -128h-126c-2 21.333 -10 39 -24 53c-16 16.667 -40.667 25 -74 25c-26 0 -49 -9.33301 -69 -28c-32 -29.333 -48 -82.333 -48 -159c14 17.333 33.5 30.166 58.5 38.499s49.5 12.5 73.5 12.5
c73.333 0 129.833 -21.5 169.5 -64.5s59.5 -100.5 59.5 -172.5zM408 234.002c0 38 -9.83105 69.167 -29.498 93.5s-47.834 36.5 -84.501 36.5c-32.667 0 -58.834 -12.333 -78.501 -37s-29.5 -55.667 -29.5 -93c0 -40 9.5 -72.5 28.5 -97.5s46.167 -37.5 81.5 -37.5
c36.667 0 64.5 12 83.5 36s28.5 57 28.5 99z" />
    <glyph glyph-name="seven" unicode="7" 
d="M526 595l-271 -595h-135l272 583h-345v112h479v-100z" />
    <glyph glyph-name="eight" unicode="8" 
d="M525 195c0 -64.667 -23.502 -115.667 -70.502 -153s-103.5 -56 -169.5 -56s-122.5 18.667 -169.5 56s-70.5 88.333 -70.5 153c0 35.333 8.83301 68 26.5 98s42.5 52.667 74.5 68c-25.333 14 -46.166 35.167 -62.499 63.5s-24.5 57.166 -24.5 86.499
c0 62.667 21.667 111.334 65 146.001s97 52 161 52s117.667 -17.333 161 -52s65 -83.334 65 -146.001c0 -29.333 -8.16699 -58.166 -24.5 -86.499s-37.166 -49.5 -62.499 -63.5c32 -15.333 56.833 -38 74.5 -68s26.5 -62.667 26.5 -98zM384.998 509
c0 26.667 -8.66699 48.334 -26 65.001s-42 25 -74 25s-56.667 -8.33301 -74 -25s-26 -38.334 -26 -65.001s8.66699 -48.834 26 -66.501s42 -26.5 74 -26.5s56.667 8.83301 74 26.5s26 39.834 26 66.501zM398.998 203c0 30 -10 54.667 -30 74s-48 29 -84 29
s-64 -9.66699 -84 -29s-30 -44 -30 -74c0 -32 10.5 -57.667 31.5 -77s48.5 -29 82.5 -29s61.5 9.66699 82.5 29s31.5 45 31.5 77z" />
    <glyph glyph-name="nine" unicode="9" 
d="M522 360c0 -66.667 -4.99902 -125.336 -14.999 -176.003s-30.667 -93 -62 -127c-44.667 -46.667 -101.334 -70 -170.001 -70c-66 0 -119 19 -159 57c-39.333 37.333 -59 80 -59 128h126c2 -21.333 10 -39 24 -53c16 -16.667 40.667 -25 74 -25c26 0 49 9.33301 69 28
c32 29.333 48 82.333 48 159c-14 -17.333 -33.5 -30.166 -58.5 -38.499s-49.5 -12.5 -73.5 -12.5c-73.333 0 -129.833 21.5 -169.5 64.5s-59.5 100.5 -59.5 172.5c0 70.667 20.833 128.667 62.5 174s100.5 68 176.5 68c64 0 116.5 -20.167 157.5 -60.5
s66.833 -93.166 77.5 -158.499c7.33301 -41.333 11 -84.666 11 -129.999zM386.001 461.998c0 40 -9.50195 72.5 -28.502 97.5s-46.167 37.5 -81.5 37.5c-36.667 0 -64.5 -12 -83.5 -36s-28.5 -57 -28.5 -99c0 -38 9.83301 -69.167 29.5 -93.5s47.834 -36.5 84.501 -36.5
c32.667 0 58.834 12.333 78.501 37s29.5 55.667 29.5 93z" />
    <glyph glyph-name="colon" unicode=":" horiz-adv-x="321" 
d="M245 369h-151v151h151v-151zM245 0h-151v151h151v-151z" />
    <glyph glyph-name="semicolon" unicode=";" horiz-adv-x="321" 
d="M245 369h-151v151h151v-151zM245 12c0 -46.667 -7.83398 -84.1689 -23.501 -112.502s-44.5 -51.166 -86.5 -68.499l-35 58c26.667 12.667 44.834 27.334 54.501 44.001s14.5 39 14.5 67h-75v151h151v-139z" />
    <glyph glyph-name="less" unicode="&#x3c;" horiz-adv-x="466" 
d="M351 645l70 -70l-254 -253l254 -254l-69 -68l-322 323z" />
    <glyph glyph-name="equal" unicode="=" horiz-adv-x="690" 
d="M600 328h-510v98h510v-98zM600 129h-510v99h510v-99z" />
    <glyph glyph-name="greater" unicode="&#x3e;" horiz-adv-x="466" 
d="M45 575l70 70l321 -322l-322 -323l-69 68l254 254z" />
    <glyph glyph-name="question" unicode="?" horiz-adv-x="522" 
d="M494 529c0 -61.333 -26.332 -114.331 -78.999 -158.998l-24.5 -20.5l-23.5 -19.5c-4.66699 -4 -10.834 -10 -18.501 -18s-13 -15.5 -16 -22.5s-5.83301 -15.667 -8.5 -26s-4 -21.5 -4 -33.5v-28h-124c0 48.667 1.66699 81 5 97c4.66699 20.667 12 39.5 22 56.5
s19.333 29.667 28 38s21.5 19.333 38.5 33s28.833 23.5 35.5 29.5c26 23.333 39 47.333 39 72c0 23.333 -8.66699 43.166 -26 59.499s-41 24.5 -71 24.5c-32 0 -57.667 -8.66699 -77 -26s-29 -42 -29 -74h-129c0 67.333 22.667 119.666 68 156.999s102.666 56 171.999 56
c64.667 0 117.834 -18.667 159.501 -56s62.5 -84 62.5 -140zM327.001 0.00195312h-139v140h139v-140z" />
    <glyph glyph-name="at" unicode="@" horiz-adv-x="927" 
d="M874 384c0 -42 -6.99902 -82.667 -20.999 -122s-37.833 -73.833 -71.5 -103.5s-74.167 -44.5 -121.5 -44.5c-50.667 0 -84.334 23 -101.001 69c-25.333 -44.667 -64.666 -67 -117.999 -67s-93.666 18.833 -120.999 56.5s-41 83.834 -41 138.501
c0 58.667 15.167 108 45.5 148s72.833 60 127.5 60c22 0 42.833 -5.66699 62.5 -17s32.5 -27 38.5 -47l14 53h92l-18 -254c-2 -31.333 7 -47 27 -47c18 0 35 8.83301 51 26.5s27.667 37.5 35 59.5c8.66699 26.667 13 56.334 13 89.001c0 78.667 -24.833 139 -74.5 181
s-115.834 63 -198.501 63c-96.667 0 -173.167 -28.5 -229.5 -85.5s-84.5 -132.167 -84.5 -225.5c0 -84.667 26.333 -154.834 79 -210.501s121.667 -83.5 207 -83.5c92.667 0 175 12.667 247 38v-96c-72 -26.667 -154.667 -40 -248 -40c-119.333 0 -215 37.5 -287 112.5
s-108 170.833 -108 287.5c0 119.333 39.167 215.666 117.5 288.999s180.166 110 305.499 110c110 0 201 -29.5 273 -88.5s108 -142.167 108 -249.5zM546.001 331c0 66 -25 98.999 -75 98.999c-27.333 0 -47.833 -11.667 -61.5 -35s-20.5 -51.333 -20.5 -84
c0 -29.333 5.83301 -53.666 17.5 -72.999s29.5 -29 53.5 -29c30 0 51.833 11.333 65.5 34s20.5 52 20.5 88z" />
    <glyph glyph-name="A" unicode="A" horiz-adv-x="639" 
d="M639 0h-135l-46 136h-282l-46 -136h-130l249 709h141zM418 252l-101 299l-101 -299h202z" />
    <glyph glyph-name="B" unicode="B" horiz-adv-x="664" 
d="M626 206c0 -69.333 -24 -122.331 -72 -158.998c-42 -32 -105 -48 -189 -48h-282v710h282c69.333 0 124 -13 164 -39c26 -16.667 46.167 -38.834 60.5 -66.501s21.5 -56.834 21.5 -87.501c0 -31.333 -7.33301 -61 -22 -89s-36.334 -48.333 -65.001 -61
c32.667 -15.333 57.834 -37.333 75.501 -66s26.5 -60 26.5 -94zM480 508.002c0 32 -10.167 55 -30.5 69s-46.833 21 -79.5 21h-159v-178h162c71.333 0 107 29.333 107 88zM495 209.002c0 68.667 -40.333 103 -121 103h-163v-197h159c34.667 0 64.167 7.33301 88.5 22
s36.5 38.667 36.5 72z" />
    <glyph glyph-name="C" unicode="C" horiz-adv-x="628" 
d="M600 226c-6.66699 -64 -29.333 -115.668 -68 -155.001c-54.667 -56 -122.334 -84 -203.001 -84c-81.333 0 -148.333 26.333 -201 79c-35.333 35.333 -58.833 75.5 -70.5 120.5s-17.5 100.833 -17.5 167.5s5.83301 122.5 17.5 167.5s35.167 85.167 70.5 120.5
c53.333 53.333 120.333 80 201 80c82 0 149.667 -27.333 203 -82c38.667 -39.333 61.334 -90.666 68.001 -153.999h-132c-2.66699 27.333 -13.334 52.333 -32.001 75c-23.333 29.333 -59 44 -107 44c-43.333 0 -79.666 -15.667 -108.999 -47
c-15.333 -16 -26.833 -37.333 -34.5 -64s-12 -49 -13 -67s-1.5 -42.333 -1.5 -73s0.5 -55 1.5 -73s5.33301 -40.333 13 -67s19.167 -48 34.5 -64c29.333 -31.333 65.666 -47 108.999 -47c47.333 0 83 15 107 45c18.667 22.667 29.334 48.667 32.001 78h132z" />
    <glyph glyph-name="D" unicode="D" horiz-adv-x="684" 
d="M641 355c0 -60 -5.5 -113 -16.5 -159s-33.167 -86 -66.5 -120c-48.667 -50.667 -115 -76 -199 -76h-276v709h276c84 0 150.333 -25.333 199 -76c33.333 -34 55.5 -74 66.5 -120s16.5 -98.667 16.5 -158zM510 355c0 29.333 -0.666992 53.1699 -2 71.5029
s-6 40.166 -14 65.499s-19.667 45.666 -35 60.999c-26.667 26.667 -60 40 -100 40h-147v-477h147c40 0 73.333 13.333 100 40c15.333 15.333 27 35.833 35 61.5s12.667 47.667 14 66s2 42.166 2 71.499z" />
    <glyph glyph-name="E" unicode="E" horiz-adv-x="628" 
d="M588 0h-505v709h505v-117h-376v-165h331v-116h-331v-194h376v-117z" />
    <glyph glyph-name="F" unicode="F" horiz-adv-x="588" 
d="M573 592h-361v-190h322v-117h-322v-285h-129v709h490v-117z" />
    <glyph glyph-name="G" unicode="G" horiz-adv-x="684" 
d="M621 0l-83.0029 0.00292969l-15 78c-12 -22.667 -34.333 -43.334 -67 -62.001s-69.667 -28.334 -111 -29.001c-89.333 -1.33301 -159.666 25 -210.999 79c-34.667 36 -58.667 77.167 -72 123.5s-20 101.166 -20 164.499c0 64.667 6.33301 119.334 19 164.001
s37 85 73 121c26.667 26.667 58.834 47.167 96.501 61.5s75.834 21.5 114.501 21.5c87.333 0 157.333 -27 210 -81c40 -40.667 61.667 -88.334 65 -143.001h-132c-1.33301 20 -11.666 41.667 -30.999 65c-24.667 28.667 -62.334 43 -113.001 43c-47.333 0 -86 -16 -116 -48
c-36.667 -38 -55 -106 -55 -204c0 -99.333 18.667 -168.333 56 -207c28 -30 66.333 -45 115 -45c44.667 0 80 13.667 106 41c30.667 32 46 78 46 138h-169v107h294v-388z" />
    <glyph glyph-name="H" unicode="H" horiz-adv-x="715" 
d="M632 0h-129v309h-291v-309h-129v709h129v-277h291v277h129v-709z" />
    <glyph glyph-name="I" unicode="I" horiz-adv-x="297" 
d="M214 0h-131v709h131v-709z" />
    <glyph glyph-name="J" unicode="J" horiz-adv-x="491" 
d="M428 207c0 -68 -19.001 -121.832 -57.001 -161.499s-90.667 -59.5 -158 -59.5c-63.333 0 -113.666 19.333 -150.999 58c-41.333 42 -62 101.333 -62 178h125c0 -44.667 8.66699 -76.334 26 -95.001c16 -17.333 36.667 -26 62 -26c28 0 49.333 8.5 64 25.5
s22 40.5 22 70.5v512h129v-502z" />
    <glyph glyph-name="K" unicode="K" horiz-adv-x="678" 
d="M678 0h-152l-192 335l-122 -143v-192h-129v709h129v-327l283 327h157l-228 -268z" />
    <glyph glyph-name="L" unicode="L" horiz-adv-x="550" 
d="M541 0h-458v709h129v-587h329v-122z" />
    <glyph glyph-name="M" unicode="M" horiz-adv-x="878" 
d="M795 0h-125v506l-184 -496h-95l-183 502v-512h-125v709h174l186 -505l187 505h165v-709z" />
    <glyph glyph-name="N" unicode="N" horiz-adv-x="733" 
d="M650 0h-133l-307 487v-487h-127v709h137l303 -480v480h127v-709z" />
    <glyph glyph-name="O" unicode="O" horiz-adv-x="672" 
d="M630 354c0 -65.333 -6.16699 -120.666 -18.5 -165.999s-36.166 -85.666 -71.499 -120.999c-53.333 -53.333 -121.333 -80 -204 -80s-150.667 26.667 -204 80c-35.333 35.333 -59.166 75.666 -71.499 120.999s-18.5 100.666 -18.5 165.999c0 66 6.16699 121.667 18.5 167
s36.166 85.666 71.499 120.999c53.333 53.333 121.333 80 204 80s150.667 -26.667 204 -80c35.333 -35.333 59.166 -75.666 71.499 -120.999s18.5 -101 18.5 -167zM499 354c0 100.667 -17 168.667 -51 204c-29.333 31.333 -66.666 47 -111.999 47
s-82.666 -15.667 -111.999 -47c-34 -35.333 -51 -103.333 -51 -204c0 -28.667 0.666992 -52.667 2 -72s6 -42 14 -68s19.667 -47 35 -63c29.333 -31.333 66.666 -47 111.999 -47s82.666 15.667 111.999 47c15.333 16 27 37 35 63s12.667 48.667 14 68s2 43.333 2 72z" />
    <glyph glyph-name="P" unicode="P" horiz-adv-x="624" 
d="M611 482c0 -69.333 -21.667 -124.667 -65 -166s-105 -62 -185 -62h-150v-254h-128v709h278c80 0 141.667 -20.5 185 -61.5s65 -96.167 65 -165.5zM481 480.999c0 35.333 -10.5 63.334 -31.5 84.001s-52.167 31 -93.5 31h-145v-229h145c41.333 0 72.5 10.167 93.5 30.5
s31.5 48.166 31.5 83.499z" />
    <glyph glyph-name="Q" unicode="Q" horiz-adv-x="672" 
d="M630 354c0 -65.333 -5.99902 -120.331 -17.999 -164.998s-35.667 -85 -71 -121l62 -78l-77 -60l-66 82c-38 -16.667 -79.333 -25 -124 -25c-82.667 0 -150.667 26.667 -204 80c-35.333 35.333 -59.166 75.666 -71.499 120.999s-18.5 100.666 -18.5 165.999
c0 66 6.16699 121.667 18.5 167s36.166 85.666 71.499 120.999c53.333 53.333 121.333 80 204 80s150.667 -26.667 204 -80c35.333 -35.333 59.166 -75.666 71.499 -120.999s18.5 -101 18.5 -167zM499.001 354.002c0 100.667 -17.001 168.667 -51.001 204
c-29.333 31.333 -66.666 47 -111.999 47s-82.666 -15.667 -111.999 -47c-34 -35.333 -51 -103.333 -51 -204c0 -28.667 0.666992 -52.667 2 -72s6 -42 14 -68s19.667 -47 35 -63c29.333 -31.333 66.666 -47 111.999 -47c16.667 0 32 2.33301 46 7l-76 95l78 61l78 -99
c24.667 36.667 37 98.667 37 186z" />
    <glyph glyph-name="R" unicode="R" horiz-adv-x="659" 
d="M628 0l-140 0.00195312l-118 268h-157v-268h-130v709h299c80 0 141 -21.167 183 -63.5s63 -94.5 63 -156.5c0 -46.667 -11.833 -87.834 -35.5 -123.501s-55.167 -60.834 -94.5 -75.501zM499 489.002c0 30 -10.668 55.334 -32.001 76.001s-49.666 31 -84.999 31h-170v-212
h172c36.667 0 65 9.16699 85 27.5s30 44.166 30 77.499z" />
    <glyph glyph-name="S" unicode="S" horiz-adv-x="632" 
d="M599 211c0 -59.333 -19.666 -108.666 -58.999 -147.999c-50.667 -50.667 -125.334 -76 -224.001 -76c-88 0 -158.667 24.333 -212 73c-49.333 44.667 -74 99.667 -74 165h132c0 -33.333 12.333 -62.333 37 -87c25.333 -25.333 65 -38 119 -38
c57.333 0 98.333 12.667 123 38c18.667 20 28 42.667 28 68c0 46 -28 74 -84 84c-16.667 3.33301 -43.334 6.66602 -80.001 9.99902s-62.334 6.33301 -77.001 9c-52.667 8.66699 -95.834 29.834 -129.501 63.501s-50.5 78.5 -50.5 134.5c0 52 20.667 98.667 62 140
c24 23.333 54.333 41.666 91 54.999s75.667 20 117 20c82.667 0 148.667 -23 198 -69c47.333 -44.667 71.333 -95 72 -151h-132c-1.33301 26 -11.666 49.333 -30.999 70c-11.333 11.333 -27.166 20.5 -47.499 27.5s-40.5 10.5 -60.5 10.5
c-51.333 0 -89.666 -13 -114.999 -39c-16 -17.333 -24 -37.333 -24 -60c0 -43.333 24 -69 72 -77c16.667 -2.66699 43.667 -6 81 -10s61.666 -6.66699 72.999 -8c56.667 -8 103.334 -29.667 140.001 -65s55 -82 55 -140z" />
    <glyph glyph-name="T" unicode="T" horiz-adv-x="561" 
d="M555 589h-210v-589h-129v589h-210v120h549v-120z" />
    <glyph glyph-name="U" unicode="U" horiz-adv-x="682" 
d="M619 272c0 -86.667 -24 -155.834 -72 -207.501s-116.667 -77.5 -206 -77.5s-158 25.833 -206 77.5s-72 120.834 -72 207.501v437h129v-435c0 -52.667 12.333 -94.167 37 -124.5s62 -45.5 112 -45.5s87.333 15.167 112 45.5s37 71.833 37 124.5v435h129v-437z" />
    <glyph glyph-name="V" unicode="V" horiz-adv-x="610" 
d="M610 709l-233 -709h-142l-235 709h137l172 -541l171 541h130z" />
    <glyph glyph-name="W" unicode="W" horiz-adv-x="872" 
d="M855 709l-141 -709h-129l-148 489l-148 -489h-129l-143 709h123l99 -493l146 482h108l143 -482l101 493h118z" />
    <glyph glyph-name="X" unicode="X" horiz-adv-x="603" 
d="M601 0h-142l-159 258l-159 -258h-139l223 361l-221 348h141l159 -248l154 248h140l-218 -349z" />
    <glyph glyph-name="Y" unicode="Y" horiz-adv-x="624" 
d="M624 709l-248 -437v-272h-130v272l-246 437h140l175 -306l175 306h134z" />
    <glyph glyph-name="Z" unicode="Z" horiz-adv-x="615" 
d="M584 0h-555v127l391 465h-385v117h544v-127l-388 -465h393v-117z" />
    <glyph glyph-name="bracketleft" unicode="[" horiz-adv-x="363" 
d="M338 -148h-234v928h234v-85h-140v-758h140v-85z" />
    <glyph glyph-name="backslash" unicode="\" horiz-adv-x="389" 
d="M389 -13h-92l-307 735h92z" />
    <glyph glyph-name="bracketright" unicode="]" horiz-adv-x="363" 
d="M259 -148h-234v85h140v758h-140v85h234v-928z" />
    <glyph glyph-name="asciicircum" unicode="^" horiz-adv-x="538" 
d="M488 404h-138l-83 163l-84 -163h-133l170 318h99z" />
    <glyph glyph-name="underscore" unicode="_" horiz-adv-x="587" 
d="M563 -90h-539v88h539v-88z" />
    <glyph glyph-name="grave" unicode="`" horiz-adv-x="255" 
d="M243 631l-40 -65l-200 112l56 91z" />
    <glyph glyph-name="a" unicode="a" horiz-adv-x="562" 
d="M531 6c-22 -9.33301 -42.666 -14 -61.999 -14c-26 0 -46.667 7 -62 21s-24 31.333 -26 52c-12.667 -22 -33.334 -40.5 -62.001 -55.5s-60.667 -22.5 -96 -22.5c-59.333 0 -105.5 15.833 -138.5 47.5s-49.5 70.167 -49.5 115.5c0 48 16.5 86.333 49.5 115
s75.167 44.667 126.5 48l153 11v32c0 26.667 -6.33301 47 -19 61s-35.667 21 -69 21c-60 0 -91.667 -24.667 -95 -74h-121c3.33301 56 24.833 98.167 64.5 126.5s90.167 42.5 151.5 42.5c102.667 0 167.667 -35.333 195 -106c10 -25.333 15 -60.333 15 -105v-193
c0 -12 2.16699 -20.5 6.5 -25.5s11.833 -7.5 22.5 -7.5l16 2v-92zM364.001 207l0.000976562 24l-132 -10c-20.667 -1.33301 -38.334 -8 -53.001 -20s-22 -28 -22 -48c0 -19.333 7.33301 -35 22 -47s32 -18 52 -18c40 0 72.167 10.5 96.5 31.5s36.5 50.167 36.5 87.5z" />
    <glyph glyph-name="b" unicode="b" horiz-adv-x="601" 
d="M559 259c0 -100.667 -31 -176.334 -93 -227.001c-36 -29.333 -78 -44 -126 -44c-67.333 0 -116 23 -146 69l-8 -57h-108v722h125v-240c28 34 73.333 51 136 51c50 0 92.333 -14 127 -42c62 -51.333 93 -128.666 93 -231.999zM432 261c0 55.333 -11 97.332 -33 125.999
c-21.333 27.333 -49.333 41 -84 41c-78.667 0 -118 -55.667 -118 -167c0 -67.333 15 -114.666 45 -141.999c18.667 -17.333 43 -26 73 -26c34.667 0 62.667 13.667 84 41c22 28.667 33 71 33 127z" />
    <glyph glyph-name="c" unicode="c" horiz-adv-x="531" 
d="M498 184c-2 -43.333 -15.333 -81 -40 -113c-44 -54.667 -103.333 -82 -178 -82c-37.333 0 -72 7.83301 -104 23.5s-57.667 35.167 -77 58.5c-38 48 -57 111.333 -57 190s19 142 57 190c19.333 23.333 45 42.833 77 58.5s66.667 23.5 104 23.5
c74.667 0 134 -27.333 178 -82c24.667 -32 38 -69.667 40 -113h-123c-0.666992 17.333 -5.66699 33.333 -15 48c-16.667 26 -43.334 39 -80.001 39c-30.667 0 -56 -10.667 -76 -32c-23.333 -26 -35 -70 -35 -132s11.667 -105.667 35 -131c20.667 -22 46 -33 76 -33
c36.667 0 63.334 13 80.001 39c9.33301 14.667 14.333 30.667 15 48h123z" />
    <glyph glyph-name="d" unicode="d" horiz-adv-x="601" 
d="M523 0h-108l-8 57c-30 -46 -78.667 -69 -146 -69c-48.667 0 -91 14.667 -127 44c-61.333 50.667 -92 126.334 -92 227.001c0 103.333 31 180.666 93 231.999c34.667 28 77 42 127 42c64 0 109.333 -16.333 136 -49v238h125v-722zM404 261c0 111.333 -39.333 167 -118 167
c-34.667 0 -62.667 -13.667 -84 -41c-22 -28.667 -33 -70.667 -33 -126c0 -56 11 -98.333 33 -127c21.333 -27.333 49.333 -41 84 -41c78.667 0 118 56 118 168z" />
    <glyph glyph-name="e" unicode="e" horiz-adv-x="557" 
d="M518 256c-0.666992 -16 -1.00195 -27.665 -1.00195 -34.998h-348c-1.33301 -42.667 11.334 -76.667 38.001 -102c22.667 -21.333 48.334 -32 77.001 -32c34 0 59.333 8.33301 76 25c12 12 20.333 26.667 25 44h120c-3.33301 -32.667 -18 -64.667 -44 -96
c-41.333 -48.667 -99.666 -73 -174.999 -73c-64.667 0 -119.334 21.333 -164.001 64c-53.333 51.333 -80 120.666 -80 207.999s25 156.666 75 207.999c42.667 44 98 66 166 66c84 0 147.333 -32 190 -96c32 -48.667 47 -109 45 -181zM392.998 312.002
c-0.666992 38 -11.333 68.333 -32 91c-18.667 20 -45 30 -79 30c-38 0 -67 -13.333 -87 -40c-17.333 -22 -26.333 -49 -27 -81h225z" />
    <glyph glyph-name="f" unicode="f" horiz-adv-x="379" 
d="M379 623c-28 5.33301 -55.332 7.99902 -81.999 7.99902c-22 0 -38.833 -5.66699 -50.5 -17s-17.5 -26.666 -17.5 -45.999v-48h139v-103h-139v-417h-125v417h-88v103h88v50c0 48.667 15.667 88.167 47 118.5s74.666 45.5 129.999 45.5c29.333 0 62 -3.66699 98 -11v-100z
" />
    <glyph glyph-name="g" unicode="g" horiz-adv-x="551" 
d="M536 -69c0 -32.667 -7.49414 -60.8359 -22.4941 -84.5029s-35.167 -41.667 -60.5 -54s-51.833 -21.333 -79.5 -27s-57.167 -8.5 -88.5 -8.5c-82 0 -143.333 14.333 -184 43c-42 29.333 -63 67.333 -63 114c0 50 20.667 85.333 62 106
c-16 8.66699 -28.667 21.334 -38 38.001s-14 33.667 -14 51c0 44.667 20.667 79.667 62 105c-34.667 34.667 -52 77.334 -52 128.001c0 60 20.167 106.833 60.5 140.5s91.166 50.5 152.499 50.5c42.667 0 82 -10.667 118 -32c21.333 43.333 56.666 65 105.999 65
c17.333 0 28.666 -0.666992 33.999 -2v-97c-0.666992 0 -2.33398 0.166992 -5.00098 0.5s-4.33398 0.5 -5.00098 0.5c-34.667 0 -55.667 -11 -63 -33c18 -29.333 27 -60.666 27 -93.999c0 -57.333 -20.667 -103.166 -62 -137.499s-91.333 -51.5 -150 -51.5
c-29.333 0 -57.333 4.66699 -84 14c-17.333 -10 -26 -22.333 -26 -37c0 -25.333 19 -38 57 -38h86c79.333 0 135.666 -11.667 168.999 -35c42 -28.667 63 -70.334 63 -125.001zM363.006 341.998c0 28.667 -8.33301 52 -25 70s-39 27 -67 27s-50.333 -9 -67 -27
s-25 -41.333 -25 -70s8.33301 -51.834 25 -69.501s39 -26.5 67 -26.5s50.333 8.83301 67 26.5s25 40.834 25 69.501zM418.006 -72.002c0 15.333 -3.83301 27.665 -11.5 36.998s-19 15.833 -34 19.5s-27.667 5.83398 -38 6.50098s-23.833 1 -40.5 1h-98
c-31.333 -9.33301 -47 -30.666 -47 -63.999c0 -48 43.667 -72 131 -72c92 0 138 24 138 72z" />
    <glyph glyph-name="h" unicode="h" horiz-adv-x="591" 
d="M521 0l-125 0.00195312v321c0 32 -6.5 56.167 -19.5 72.5s-35.167 24.5 -66.5 24.5c-34.667 0 -61.167 -14.833 -79.5 -44.5s-27.5 -62.834 -27.5 -99.501v-274h-125v722h125v-257c14.667 21.333 35 38 61 50s53 18 81 18c54.667 0 97.667 -17.333 129 -52
s47 -79.334 47 -134.001v-347z" />
    <glyph glyph-name="i" unicode="i" horiz-adv-x="286" 
d="M210 592h-134v129h134v-129zM207 0h-127v520h127v-520z" />
    <glyph glyph-name="j" unicode="j" horiz-adv-x="296" 
d="M220 594h-134v129h134v-129zM217 -72c0 -44.667 -12.8311 -80.001 -38.498 -106.001s-61.5 -39 -107.5 -39c-18.667 0 -33.334 0.666992 -44.001 2c-18.667 2.66699 -37.667 6.33398 -57 11.001v106c37.333 -4 57.666 -6 60.999 -6c40 0 60 18.667 60 56v568h126v-592z
" />
    <glyph glyph-name="k" unicode="k" horiz-adv-x="577" 
d="M577 0h-145l-146 227l-83 -90v-137h-125v722h125v-413l197 211h157l-186 -201z" />
    <glyph glyph-name="l" unicode="l" horiz-adv-x="302" 
d="M272 1c-23.333 -4.66699 -41.667 -7 -55 -7c-44.667 0 -79.5 11.333 -104.5 34s-37.5 58 -37.5 106v589h126v-568c0 -16.667 3.33301 -29.167 10 -37.5s20 -12.5 40 -12.5c4 0 8 0.166992 12 0.5s7 0.5 9 0.5v-105z" />
    <glyph glyph-name="m" unicode="m" horiz-adv-x="885" 
d="M815 0h-123.998v323c0 34 -5.83301 59.333 -17.5 76s-32.5 25 -62.5 25c-32.667 0 -57.834 -14.167 -75.501 -42.5s-26.5 -60.833 -26.5 -97.5v-284h-124v323c0 34 -5.83301 59.333 -17.5 76s-32.5 25 -62.5 25c-32.667 0 -58 -14.167 -76 -42.5s-27 -60.833 -27 -97.5
v-284h-124v520h104l10 -69c33.333 54.667 82.666 82 147.999 82c71.333 0 121 -28.333 149 -85c32.667 56.667 85 85 157 85c54 0 95.667 -16.5 125 -49.5s44 -77.167 44 -132.5v-351z" />
    <glyph glyph-name="n" unicode="n" horiz-adv-x="591" 
d="M521 0l-125.001 -0.000976562v319c0 32.667 -6.5 57.167 -19.5 73.5s-35.167 24.5 -66.5 24.5c-40 0 -70 -22 -90 -66c-11.333 -26 -17 -72.333 -17 -139v-212h-125v520h105l9 -67c14.667 26 35.834 45.833 63.501 59.5s57.5 20.5 89.5 20.5
c54.667 0 97.667 -17.167 129 -51.5s47 -79.166 47 -134.499v-347z" />
    <glyph glyph-name="o" unicode="o" 
d="M528 260c0 -76.667 -20.333 -140.667 -61 -192c-19.333 -23.333 -45.166 -42.666 -77.499 -57.999s-67.166 -23 -104.499 -23s-72.166 7.66699 -104.499 23s-58.166 34.666 -77.499 57.999c-40.667 51.333 -61 115.333 -61 192s20.333 140.667 61 192
c19.333 23.333 45.166 42.666 77.499 57.999s67.166 23 104.499 23s72.166 -7.66699 104.499 -23s58.166 -34.666 77.499 -57.999c40.667 -51.333 61 -115.333 61 -192zM401 260c0 60 -12.333 103.667 -37 131c-20.667 22 -47 33 -79 33s-58.333 -11 -79 -33
c-24.667 -27.333 -37 -71 -37 -131s12.333 -103.667 37 -131c20.667 -22 47 -33 79 -33s58.333 11 79 33c24.667 27.333 37 71 37 131z" />
    <glyph glyph-name="p" unicode="p" horiz-adv-x="601" 
d="M559 261c0 -104 -31 -181.333 -93 -232c-34.667 -28 -77 -42 -127 -42c-62.667 0 -108 17 -136 51v-237h-125v719h108l8 -57c30 46 78.667 69 146 69c48 0 90 -14.667 126 -44c62 -51.333 93 -127 93 -227zM432 259c0 56 -11 98.333 -33 127
c-21.333 27.333 -49.333 41 -84 41c-78.667 0 -118 -56 -118 -168c0 -111.333 39.333 -167 118 -167c34.667 0 62.667 13.667 84 41c22 28.667 33 70.667 33 126z" />
    <glyph glyph-name="q" unicode="q" horiz-adv-x="601" 
d="M523 -199l-125.001 -0.000976562v236c-27.333 -33.333 -72.666 -50 -135.999 -50c-50 0 -92.333 14 -127 42c-62 50.667 -93 128 -93 232c0 100.667 31 176.334 93 227.001c36 29.333 78 44 126 44c67.333 0 116 -23 146 -69l8 57h108v-719zM403.999 258.999
c0 112 -39.333 168 -118 168c-34.667 0 -62.667 -13.667 -84 -41c-22 -28.667 -33 -71 -33 -127c0 -55.333 11 -97.333 33 -126c21.333 -27.333 49.333 -41 84 -41c78.667 0 118 55.667 118 167z" />
    <glyph glyph-name="r" unicode="r" horiz-adv-x="395" 
d="M381 404c-15.333 3.33301 -29.667 4.99902 -43 4.99902c-42.667 0 -75.667 -13.667 -99 -41s-35 -62.666 -35 -105.999v-262h-126v520h106l11 -78c11.333 28.667 30.5 50 57.5 64s56.833 21 89.5 21c13.333 0 26.333 -1 39 -3v-120z" />
    <glyph glyph-name="s" unicode="s" horiz-adv-x="521" 
d="M482 161c0 -46 -14.999 -83.9961 -44.999 -113.996c-40 -40 -99.333 -60 -178 -60c-70 0 -126 20 -168 60c-36.667 35.333 -55 75.666 -55 120.999h117c0 -25.333 9.33301 -45.666 28 -60.999c19.333 -15.333 45.666 -23 78.999 -23c70.667 0 106 22 106 66
c0 31.333 -17.333 49.666 -52 54.999c-8 1.33301 -29.5 4 -64.5 8s-61.5 8 -79.5 12c-35.333 7.33301 -64 24 -86 50s-33 55.667 -33 89c0 47.333 17.667 86.333 53 117c40 34.667 92.667 52 158 52c70.667 0 125 -20.333 163 -61c30.667 -32.667 46 -68.334 46 -107.001
h-119c0 17.333 -7 33.666 -21 48.999c-16 16 -38.667 24 -68 24c-23.333 0 -41.333 -2.66699 -54 -8c-26.667 -10.667 -40 -29 -40 -55c0 -28.667 20 -46 60 -52c55.333 -7.33301 92.333 -12.333 111 -15c42.667 -6.66699 77 -22.834 103 -48.501s39 -58.5 39 -98.5z" />
    <glyph glyph-name="t" unicode="t" horiz-adv-x="400" 
d="M372 7c-36 -9.33301 -71.667 -14 -107 -14c-51.333 0 -90.333 14 -117 42s-40 67.333 -40 118v264h-95v103h95v132l125 31v-163h131v-103h-131v-253c0 -38 19.333 -57 58 -57c26 0 53 1.66699 81 5v-105z" />
    <glyph glyph-name="u" unicode="u" horiz-adv-x="590" 
d="M512 0l-103.999 -0.000976562l-9 68c-12.667 -25.333 -32.334 -45.166 -59.001 -59.499s-56.667 -21.5 -90 -21.5c-55.333 0 -99.166 17 -131.499 51s-48.5 79 -48.5 135v347h125v-319c0 -66 30 -99 90 -99c25.333 0 46.666 8.66699 63.999 26
c25.333 23.333 38 62.333 38 117v275h125v-520z" />
    <glyph glyph-name="v" unicode="v" horiz-adv-x="514" 
d="M514 520l-188 -520h-133l-193 520h132l130 -366l123 366h129z" />
    <glyph glyph-name="w" unicode="w" horiz-adv-x="771" 
d="M748 520l-127 -520h-116l-118 351l-116 -351h-116l-132 520h121l83 -341l109 336h103l110 -335l80 340h119z" />
    <glyph glyph-name="x" unicode="x" horiz-adv-x="516" 
d="M513 520l-179 -256l178 -264h-141l-116 174l-114 -174h-137l182 265l-183 255h144l116 -168l113 168h137z" />
    <glyph glyph-name="y" unicode="y" horiz-adv-x="530" 
d="M530 520l-229.001 -609c-33.333 -86.667 -86.666 -130 -159.999 -130c-30.667 0 -62.667 4.33301 -96 13v104c32.667 -6 56 -9 70 -9c29.333 0 49.333 13 60 39l30 73l-205 519h137l136 -376l130 376h127z" />
    <glyph glyph-name="z" unicode="z" horiz-adv-x="507" 
d="M468 0h-424v110l275 307h-273v103h420v-113l-272 -304h274v-103z" />
    <glyph glyph-name="braceleft" unicode="{" horiz-adv-x="379" 
d="M379 -148l-53 -0.00195312c-54 0 -94.833 16.167 -122.5 48.5s-41.5 72.5 -41.5 120.5c0 10 0.166992 30.667 0.5 62s0.5 52 0.5 62c0 42.667 -9.5 73.334 -28.5 92.001s-48.833 29.667 -89.5 33v93c40.667 4 70.5 14.833 89.5 32.5s28.5 48.167 28.5 91.5
c0 10 -0.166992 30.667 -0.5 62s-0.5 52 -0.5 62c0 48 13.833 88.167 41.5 120.5s68.5 48.5 122.5 48.5h53v-85h-34c-32 0 -54.667 -7.66699 -68 -23s-20 -38 -20 -68v-154c-0.666992 -30.667 -10.334 -58.334 -29.001 -83.001s-45 -40.667 -79 -48v-3
c34 -7.33301 60.333 -23.666 79 -48.999s28.334 -53.666 29.001 -84.999v-154c0 -30 6.66699 -52.667 20 -68s36 -23 68 -23h34v-85z" />
    <glyph glyph-name="bar" unicode="|" horiz-adv-x="268" 
d="M183 -148h-98v928h98v-928z" />
    <glyph glyph-name="braceright" unicode="}" horiz-adv-x="379" 
d="M334 270c-40.667 -3.33301 -70.5 -14.3311 -89.5 -32.998s-28.5 -49.334 -28.5 -92.001c0 -10 0.166992 -30.667 0.5 -62s0.5 -52 0.5 -62c0 -48 -13.833 -88.167 -41.5 -120.5s-68.5 -48.5 -122.5 -48.5h-53v85h34c32 0 54.667 7.66699 68 23s20 38 20 68v154
c0.666992 31.333 10.334 59.666 29.001 84.999s45 41.666 79 48.999v3c-34 7.33301 -60.333 23.333 -79 48s-28.334 52.334 -29.001 83.001v154c0 30 -6.66699 52.667 -20 68s-36 23 -68 23h-34v85h53c54 0 94.833 -16.167 122.5 -48.5s41.5 -72.5 41.5 -120.5
c0 -10 -0.166992 -30.667 -0.5 -62s-0.5 -52 -0.5 -62c0 -43.333 9.5 -73.833 28.5 -91.5s48.833 -28.5 89.5 -32.5v-93z" />
    <glyph glyph-name="asciitilde" unicode="~" horiz-adv-x="683" 
d="M623 306c-30.667 -32 -60.334 -56.668 -89.001 -74.001s-60.667 -26 -96 -26c-28 0 -63.667 10.333 -107 31s-73 31 -89 31c-31.333 0 -65.666 -20 -102.999 -60l-79 95c30.667 32.667 60 57.834 88 75.501s59.667 26.5 95 26.5c27.333 0 62.333 -10 105 -30
s72.667 -30 90 -30c34 0 69 18.667 105 56z" />
    <glyph glyph-name="nbspace" unicode="&#xa0;" horiz-adv-x="708" 
 />
    <glyph glyph-name="exclamdown" unicode="&#xa1;" horiz-adv-x="332" 
d="M215 370h-132v135h132v-135zM214 -204h-131v222l28 275h75l28 -275v-222z" />
    <glyph glyph-name="cent" unicode="&#xa2;" 
d="M521 276c-2 -42.667 -15.333 -80.0029 -40 -112.003c-36.667 -47.333 -86 -74.333 -148 -81v-85h-62v87c-61.333 8.66699 -110 35 -146 79s-54 107.333 -54 190s18 146 54 190c36 44.667 84.667 71.334 146 80.001v88h62v-87c62 -6.66699 111.333 -33.667 148 -81
c24.667 -32 38 -69.333 40 -112h-121c-0.666992 16.667 -5.66699 32.334 -15 47.001c-11.333 18.667 -28.666 31 -51.999 37v-324c23.333 6 40.666 18.333 51.999 37c9.33301 14.667 14.333 30.334 15 47.001h121zM271 193.997v320c-16 -6 -30 -15.333 -42 -28
c-22.667 -24.667 -34 -68.667 -34 -132s11.333 -107.333 34 -132c12 -12.667 26 -22 42 -28z" />
    <glyph glyph-name="sterling" unicode="&#xa3;" horiz-adv-x="575" 
d="M549 192c0 -62.667 -16.5 -110.333 -49.5 -143s-80.833 -49 -143.5 -49h-318v110c50.667 0 76 24.667 76 74v130h-75v103h75v91c0 62.667 18.5 112 55.5 148s86.833 54 149.5 54c58 0 105.833 -17.333 143.5 -52s56.5 -80.667 56.5 -138h-125c0 24 -6.5 43.667 -19.5 59
s-31.5 23 -55.5 23c-26 0 -45.667 -8 -59 -24s-20 -37.333 -20 -64v-97h143v-103h-143v-131c0 -40 -12.333 -63 -37 -69v-2h151c27.333 0 46.833 6.5 58.5 19.5s17.5 33.167 17.5 60.5h119z" />
    <glyph glyph-name="currency" unicode="&#xa4;" horiz-adv-x="571" 
d="M564 64l-86 -84l-70 76c-38 -22 -78.333 -33 -121 -33s-83.667 11 -123 33l-69 -76l-87 84l79 67c-24 42 -36 83 -36 123s12 81 36 123l-79 63l88 87l67 -75c38 21.333 79.333 32 124 32c42.667 0 83 -10.667 121 -32l69 75l87 -87l-78 -63c24 -42 36 -83 36 -123
c0 -41.333 -12 -82.333 -36 -123zM410 254c0 36 -11.1689 66.001 -33.502 90.001s-52.166 36 -89.499 36c-40.667 0 -71.667 -11.333 -93 -34s-32 -53.334 -32 -92.001c0 -35.333 11.333 -65.333 34 -90s53 -37 91 -37c38.667 0 68.834 11.667 90.501 35s32.5 54 32.5 92z
" />
    <glyph glyph-name="yen" unicode="&#xa5;" horiz-adv-x="569" 
d="M569 695l-165 -297h114v-73h-170v-90h170v-73h-170v-162h-128v162h-159v73h159v90h-159v73h104l-165 297h139l149 -271l144 271h137z" />
    <glyph glyph-name="brokenbar" unicode="&#xa6;" horiz-adv-x="289" 
d="M206 440h-123v319h123v-319zM206 -50h-123v319h123v-319z" />
    <glyph glyph-name="section" unicode="&#xa7;" horiz-adv-x="549" 
d="M504 173c0 -52.667 -28.668 -98.666 -86.001 -137.999c26.667 -32 40 -68.667 40 -110c0 -45.333 -15.333 -83.333 -46 -114c-35.333 -36.667 -82.666 -55 -141.999 -55c-54 0 -99.167 16.167 -135.5 48.5s-54.5 76.166 -54.5 131.499h109
c0 -24 7.16699 -43.667 21.5 -59s33.833 -23 58.5 -23c23.333 0 42 6.16699 56 18.5s21 29.166 21 50.499c0 23.333 -11.667 45.333 -35 66l-195 167c-44 37.333 -66 83 -66 137c0 51.333 29 97 87 137c-27.333 32.667 -41 69.667 -41 111c0 44 15.667 81.667 47 113
c36 37.333 83.333 56 142 56c54 0 99.167 -16.333 135.5 -49s54.5 -76.667 54.5 -132h-110c0 24 -7 43.833 -21 59.5s-33.333 23.5 -58 23.5c-23.333 0 -42 -6.16699 -56 -18.5s-21 -29.166 -21 -50.499c0 -23.333 11.333 -45.333 34 -66l195 -167
c44 -37.333 66 -83 66 -137zM393.999 165.001c0 25.333 -9.33301 46.333 -28 63l-160 139c-30 -20.667 -45 -42.667 -45 -66c0 -26 9 -47 27 -63l161 -139c30 20.667 45 42.667 45 66z" />
    <glyph glyph-name="dieresis" unicode="&#xa8;" horiz-adv-x="323" 
d="M323 601h-117v121h117v-121zM117 601h-117v121h117v-121z" />
    <glyph glyph-name="copyright" unicode="&#xa9;" horiz-adv-x="838" 
d="M789 354c0 -107.333 -34.833 -195.5 -104.5 -264.5s-158.167 -103.5 -265.5 -103.5s-195.833 34.5 -265.5 103.5s-104.5 157.167 -104.5 264.5c0 106 35.167 193.833 105.5 263.5s158.5 104.5 264.5 104.5s194.167 -34.833 264.5 -104.5s105.5 -157.5 105.5 -263.5z
M696 354c0 81.333 -25.834 148.667 -77.501 202s-118.167 80 -199.5 80s-147.666 -26.667 -198.999 -80s-77 -120.666 -77 -201.999c0 -82 25.5 -149.5 76.5 -202.5s117.5 -79.5 199.5 -79.5c80.667 0 147 26.667 199 80s78 120.666 78 201.999zM596.999 301.001
c-5.33301 -43.333 -23.666 -78.833 -54.999 -106.5s-70.666 -41.5 -117.999 -41.5c-57.333 0 -103 19.167 -137 57.5s-51 85.5 -51 141.5s17 103 51 141s79.667 57 137 57c47.333 0 86.666 -13.833 117.999 -41.5s49.666 -63.167 54.999 -106.5h-102
c-2.66699 16 -10.334 29.5 -23.001 40.5s-28.667 16.5 -48 16.5c-28 0 -49.167 -10.5 -63.5 -31.5s-21.5 -46.167 -21.5 -75.5c0 -32 7.33301 -58 22 -78s35.667 -30 63 -30c19.333 0 35.333 5.5 48 16.5s20.334 24.5 23.001 40.5h102z" />
    <glyph glyph-name="ordfeminine" unicode="&#xaa;" horiz-adv-x="475" 
d="M425 309c-16.667 -7.33301 -32.334 -11 -47.001 -11c-19.333 0 -35 5.33301 -47 16s-18.667 24 -20 40c-9.33301 -16.667 -25 -30.667 -47 -42s-46.333 -17 -73 -17c-44.667 0 -79.334 12.167 -104.001 36.5s-37 53.833 -37 88.5c0 36 12.167 64.5 36.5 85.5
s56.166 33.167 95.499 36.5l116 9v24c0 20.667 -4.66699 36.167 -14 46.5s-26.666 15.5 -51.999 15.5c-45.333 0 -69 -18.667 -71 -56h-92c2.66699 42.667 18.834 74.834 48.501 96.501s67.834 32.5 114.501 32.5c78 0 127 -27 147 -81
c7.33301 -18.667 11 -45.334 11 -80.001v-148c0 -16 7.66699 -24 23 -24l12 2v-70zM298 462v18l-99 -8c-15.333 -1.33301 -28.5 -6.33301 -39.5 -15s-16.5 -20.667 -16.5 -36c0 -14.667 5.33301 -26.667 16 -36s23.667 -14 39 -14c30.667 0 55 8 73 24s27 38.333 27 67z" />
    <glyph glyph-name="guillemotleft" unicode="&#xab;" horiz-adv-x="587" 
d="M532 105l-73 -51l-173 244l173 247l73 -52l-114 -194zM291 105l-73 -51l-173 244l173 247l73 -52l-114 -194z" />
    <glyph glyph-name="logicalnot" unicode="&#xac;" horiz-adv-x="665" 
d="M585 84h-122v167h-408v113h529z" />
    <glyph glyph-name="softhyphen" unicode="&#xad;" horiz-adv-x="463" 
d="M403 252h-343v112h343v-112z" />
    <glyph glyph-name="registered" unicode="&#xae;" horiz-adv-x="838" 
d="M789 354c0 -107.333 -34.833 -195.5 -104.5 -264.5s-158.167 -103.5 -265.5 -103.5s-195.833 34.5 -265.5 103.5s-104.5 157.167 -104.5 264.5c0 106 35.167 193.833 105.5 263.5s158.5 104.5 264.5 104.5s194.167 -34.833 264.5 -104.5s105.5 -157.5 105.5 -263.5z
M695 354c0 81.333 -25.6699 148.667 -77.0029 202s-117.666 80 -198.999 80s-147.666 -26.667 -198.999 -80s-77 -120.666 -77 -201.999c0 -82 25.5 -149.5 76.5 -202.5s117.5 -79.5 199.5 -79.5c80.667 0 146.834 26.667 198.501 80s77.5 120.666 77.5 201.999z
M570.997 178.001h-97l-49 120h-47v-120h-93v365h145c40 0 73 -10.833 99 -32.5s39 -52.167 39 -91.5c0 -50 -19 -84.333 -57 -103zM473.997 422.001c0 12.667 -4.16699 22.167 -12.5 28.5s-18.833 9.5 -31.5 9.5h-53v-79h53c29.333 0 44 13.667 44 41z" />
    <glyph glyph-name="macron" unicode="&#xaf;" horiz-adv-x="305" 
d="M305 631h-300v100h300v-100z" />
    <glyph glyph-name="macron" unicode="&#x2c9;" horiz-adv-x="305" 
d="M305 631h-300v100h300v-100z" />
    <glyph glyph-name="degree" unicode="&#xb0;" horiz-adv-x="446" 
d="M396 555c0 -50 -17 -90.667 -51 -122s-75.333 -47 -124 -47c-48 0 -88.5 16.167 -121.5 48.5s-49.5 72.5 -49.5 120.5c0 47.333 15.5 87 46.5 119s72.5 48 124.5 48c51.333 0 93.333 -15.833 126 -47.5s49 -71.5 49 -119.5zM298 555c0 21.333 -7.5 39.333 -22.5 54
s-33.167 22 -54.5 22s-39.166 -7.33301 -53.499 -22s-21.5 -32.667 -21.5 -54c0 -22 7.16699 -40.5 21.5 -55.5s32.166 -22.5 53.499 -22.5s39.5 7.5 54.5 22.5s22.5 33.5 22.5 55.5z" />
    <glyph glyph-name="plusminus" unicode="&#xb1;" horiz-adv-x="608" 
d="M558 322h-198v-160h-113v160h-197v105h197v160h113v-160h198v-105zM558 0h-508v106h508v-106z" />
    <glyph glyph-name="twosuperior" unicode="&#xb2;" horiz-adv-x="405" 
d="M350 341l-287.998 -0.000976562v73l153 131c0.666992 0.666992 2.16699 2 4.5 4s3.83301 3.33301 4.5 4s2.16699 2 4.5 4s3.83301 3.33301 4.5 4s1.66699 2 3 4s2.33301 3.66699 3 5l2.5 5c1 2 1.66699 3.83301 2 5.5s0.666016 3.66699 0.999023 6s0.5 4.83301 0.5 7.5
c0 12 -4 21.833 -12 29.5s-18.333 11.5 -31 11.5c-32 0 -49.333 -18.333 -52 -55h-95c7.33301 90.667 56.666 136 147.999 136c38.667 0 71.5 -11 98.5 -33s40.5 -52 40.5 -90c0 -37.333 -22.667 -74.666 -68 -111.999l-64 -53h140v-87z" />
    <glyph glyph-name="threesuperior" unicode="&#xb3;" horiz-adv-x="412" 
d="M357 450c0 -24 -7.00293 -45.334 -21.0029 -64.001c-25.333 -34 -69.666 -51 -132.999 -51c-48 0 -86 14.667 -114 44c-20 20 -31.333 47 -34 81h88c1.33301 -16 7.83301 -28 19.5 -36s25.834 -12 42.501 -12c16 0 30 3.33301 42 10s18 17.334 18 32.001
c0 26 -17.667 39 -53 39h-27v73h27c30 0 45 12 45 36c0 12.667 -5.16699 22.334 -15.5 29.001s-22.166 10 -35.499 10c-36.667 0 -57 -16.667 -61 -50h-87c2.66699 37.333 15.667 66.666 39 87.999c28 24.667 64.333 37 109 37c56 0 97.333 -17.333 124 -52
c13.333 -18 20 -37 20 -57c0 -16.667 -4.83301 -32.167 -14.5 -46.5s-22.167 -23.833 -37.5 -28.5c17.333 -5.33301 31.5 -15.833 42.5 -31.5s16.5 -32.5 16.5 -50.5z" />
    <glyph glyph-name="acute" unicode="&#xb4;" horiz-adv-x="255" 
d="M247 678l-200 -112l-40 65l184 138z" />
    <glyph glyph-name="mu" unicode="&#xb5;" horiz-adv-x="598" 
d="M520 0h-103.997l-10 70c-12.667 -25.333 -32.334 -45.5 -59.001 -60.5s-56.334 -22.5 -89.001 -22.5c-23.333 0 -42 3.66699 -56 11v-200h-124v375v112v235h124v-235v-86c0 -66 30.333 -99 91 -99c25.333 0 46.666 8.66699 63.999 26c25.333 23.333 38 62.333 38 117v277
h125v-520z" />
    <glyph glyph-name="mu" unicode="&#x3bc;" horiz-adv-x="598" 
d="M520 0h-103.997l-10 70c-12.667 -25.333 -32.334 -45.5 -59.001 -60.5s-56.334 -22.5 -89.001 -22.5c-23.333 0 -42 3.66699 -56 11v-200h-124v375v112v235h124v-235v-86c0 -66 30.333 -99 91 -99c25.333 0 46.666 8.66699 63.999 26c25.333 23.333 38 62.333 38 117v277
h125v-520z" />
    <glyph glyph-name="paragraph" unicode="&#xb6;" horiz-adv-x="673" 
d="M613 612h-68v-737h-100v737h-97v-737h-99v436c-55.333 0 -102.333 19.5 -141 58.5s-58 85.833 -58 140.5s19.333 101.5 58 140.5s85.667 58.5 141 58.5h364v-97z" />
    <glyph glyph-name="periodcentered" unicode="&#xb7;" horiz-adv-x="315" 
d="M224 215h-152v156h152v-156z" />
    <glyph glyph-name="periodcentered" unicode="&#x2219;" horiz-adv-x="315" 
d="M224 215h-152v156h152v-156z" />
    <glyph glyph-name="cedilla" unicode="&#xb8;" horiz-adv-x="198" 
d="M189 -31l-76 -199l-104 49l83 150h97z" />
    <glyph glyph-name="onesuperior" unicode="&#xb9;" horiz-adv-x="312" 
d="M227 344h-93v256l-95 -67v103l105 73h83v-365z" />
    <glyph glyph-name="ordmasculine" unicode="&#xba;" horiz-adv-x="475" 
d="M419 501c0 -60.667 -14.3311 -108.667 -42.998 -144c-14.667 -18 -34.167 -33 -58.5 -45s-50.833 -18 -79.5 -18s-55.334 6 -80.001 18s-44.334 27 -59.001 45c-28.667 35.333 -43 83.333 -43 144c0 62 14.667 111 44 147c14.667 17.333 34.167 31.833 58.5 43.5
s50.833 17.5 79.5 17.5c58 0 103.667 -20.333 137 -61c29.333 -36 44 -85 44 -147zM323.002 501c0 48.667 -8.66699 82.333 -26 101c-15.333 16.667 -35 25 -59 25c-24.667 0 -44.667 -8.33301 -60 -25c-16.667 -18 -25 -51.667 -25 -101c0 -48.667 8.33301 -82 25 -100
c15.333 -16.667 35.333 -25 60 -25c24 0 43.667 8.33301 59 25c17.333 18.667 26 52 26 100z" />
    <glyph glyph-name="guillemotright" unicode="&#xbb;" horiz-adv-x="587" 
d="M542 298l-173 -244l-73 51l114 194l-114 194l73 52zM301 298l-173 -244l-73 51l114 194l-114 194l73 52z" />
    <glyph glyph-name="onequarter" unicode="&#xbc;" horiz-adv-x="883" 
d="M828 71h-48v-71h-90v71h-179v95l116 208h96l-123 -222h90v82h90v-82h48v-81zM718 670l-507 -690l-74 56l505 687zM262 344h-93v256l-95 -67v103l105 73h83v-365z" />
    <glyph glyph-name="onehalf" unicode="&#xbd;" horiz-adv-x="916" 
d="M814 0l-287.998 -0.000976562v73l153 131c0.666992 0.666992 2.16699 2 4.5 4s3.83301 3.33301 4.5 4s2.16699 2 4.5 4s3.83301 3.33301 4.5 4s1.66699 2 3 4s2.33301 3.66699 3 5l2.5 5c1 2 1.66699 3.83301 2 5.5s0.666016 3.66699 0.999023 6s0.5 4.83301 0.5 7.5
c0 12 -4 21.833 -12 29.5s-18.333 11.5 -31 11.5c-32 0 -49.333 -18.333 -52 -55h-95c7.33301 90.667 56.666 136 147.999 136c38.667 0 71.5 -11 98.5 -33s40.5 -52 40.5 -90c0 -37.333 -22.667 -74.666 -68 -111.999l-64 -53h140v-87zM703.002 669.999l-507 -690l-74 56
l505 687zM257.002 343.999h-93v256l-95 -67v103l105 73h83v-365z" />
    <glyph glyph-name="threequarters" unicode="&#xbe;" horiz-adv-x="920" 
d="M865 71h-48v-71h-90v71h-179v95l116 208h96l-123 -222h90v82h90v-82h48v-81zM769 670l-507 -690l-74 56l505 687zM363 450c0 -24 -7.00293 -45.334 -21.0029 -64.001c-25.333 -34 -69.666 -51 -132.999 -51c-48 0 -86 14.667 -114 44c-20 20 -31.333 47 -34 81h88
c1.33301 -16 7.83301 -28 19.5 -36s25.834 -12 42.501 -12c16 0 30 3.33301 42 10s18 17.334 18 32.001c0 26 -17.667 39 -53 39h-27v73h27c30 0 45 12 45 36c0 12.667 -5.16699 22.334 -15.5 29.001s-22.166 10 -35.499 10c-36.667 0 -57 -16.667 -61 -50h-87
c2.66699 37.333 15.667 66.666 39 87.999c28 24.667 64.333 37 109 37c56 0 97.333 -17.333 124 -52c13.333 -18 20 -37 20 -57c0 -16.667 -4.83301 -32.167 -14.5 -46.5s-22.167 -23.833 -37.5 -28.5c17.333 -5.33301 31.5 -15.833 42.5 -31.5s16.5 -32.5 16.5 -50.5z" />
    <glyph glyph-name="questiondown" unicode="&#xbf;" horiz-adv-x="522" 
d="M334 364h-139v140h139v-140zM490 -8c0 -67.333 -22.668 -119.668 -68.001 -157.001s-102.666 -56 -171.999 -56c-64.667 0 -117.834 18.667 -159.501 56s-62.5 84 -62.5 140c0 61.333 26.333 114.333 79 159l24.5 20.5l23.5 19.5c4.66699 4 10.834 10 18.501 18
s13 15.5 16 22.5s5.83301 15.667 8.5 26s4 21.5 4 33.5v28h124c0 -48.667 -1.66699 -81 -5 -97c-4.66699 -20.667 -12 -39.5 -22 -56.5s-19.333 -29.667 -28 -38s-21.5 -19.333 -38.5 -33s-28.833 -23.5 -35.5 -29.5c-26 -23.333 -39 -47.333 -39 -72
c0 -23.333 8.66699 -43.166 26 -59.499s41 -24.5 71 -24.5c32 0 57.667 8.66699 77 26s29 42 29 74h129z" />
    <glyph glyph-name="Agrave" unicode="&#xc0;" horiz-adv-x="639" 
d="M386 764l-200 112l56 91l184 -138zM639 0h-135l-46 136h-282l-46 -136h-130l249 709h141zM418 252l-101 299l-101 -299h202z" />
    <glyph glyph-name="Aacute" unicode="&#xc1;" horiz-adv-x="639" 
d="M639 0h-135l-46 136h-282l-46 -136h-130l249 709h141zM418 252l-101 299l-101 -299h202zM428 876l-200 -112l-40 65l184 138z" />
    <glyph glyph-name="Acircumflex" unicode="&#xc2;" horiz-adv-x="639" 
d="M639 0h-135l-46 136h-282l-46 -136h-130l249 709h141zM418 252l-101 299l-101 -299h202zM476 830l-61 -55l-103 113l-105 -116l-64 58l138 145h61z" />
    <glyph glyph-name="Atilde" unicode="&#xc3;" horiz-adv-x="639" 
d="M480 828c-38.667 -37.333 -76.002 -56 -112.002 -56c-19.333 0 -41.5 6.33301 -66.5 19s-42.167 19 -51.5 19c-22 0 -42.667 -10.333 -62 -31l-49 61c38.667 37.333 76 56 112 56c18.667 0 40.334 -6.66699 65.001 -20s42.334 -20 53.001 -20c18.667 0 39 11 61 33z
M638.998 0h-135l-46 136h-282l-46 -136h-130l249 709h141zM417.998 252l-101 299l-101 -299h202z" />
    <glyph glyph-name="Adieresis" unicode="&#xc4;" horiz-adv-x="639" 
d="M639 0h-135l-46 136h-282l-46 -136h-130l249 709h141zM418 252l-101 299l-101 -299h202zM479 791h-117v121h117v-121zM273 791h-117v121h117v-121z" />
    <glyph glyph-name="Aring" unicode="&#xc5;" horiz-adv-x="639" 
d="M639 0h-135l-46 136h-282l-46 -136h-130l235 669c-29.333 24.667 -44 56.667 -44 96c0 35.333 12.5 65.333 37.5 90s55.167 37 90.5 37s65.5 -12.333 90.5 -37s37.5 -54.667 37.5 -90c0 -39.333 -14.333 -71.333 -43 -96zM375 765c0 15.333 -5.5 28.333 -16.5 39
s-24.167 16 -39.5 16s-28.166 -5.33301 -38.499 -16s-15.5 -23.667 -15.5 -39s5.16699 -28.5 15.5 -39.5s23.166 -16.5 38.499 -16.5s28.5 5.5 39.5 16.5s16.5 24.167 16.5 39.5zM418 252l-101 299l-101 -299h202z" />
    <glyph glyph-name="AE" unicode="&#xc6;" horiz-adv-x="957" 
d="M917 0h-462v179h-237l-77 -179h-141l323 709h594v-120h-333v-160h285v-120h-285v-189h333v-120zM455 298v291h-55l-128 -291h183z" />
    <glyph glyph-name="Ccedilla" unicode="&#xc7;" horiz-adv-x="628" 
d="M600 226c-6.66699 -64 -29.333 -115.668 -68 -155.001c-54.667 -56 -122.334 -84 -203.001 -84c-81.333 0 -148.333 26.333 -201 79c-35.333 35.333 -58.833 75.5 -70.5 120.5s-17.5 100.833 -17.5 167.5s5.83301 122.5 17.5 167.5s35.167 85.167 70.5 120.5
c53.333 53.333 120.333 80 201 80c82 0 149.667 -27.333 203 -82c38.667 -39.333 61.334 -90.666 68.001 -153.999h-132c-2.66699 27.333 -13.334 52.333 -32.001 75c-23.333 29.333 -59 44 -107 44c-43.333 0 -79.666 -15.667 -108.999 -47
c-15.333 -16 -26.833 -37.333 -34.5 -64s-12 -49 -13 -67s-1.5 -42.333 -1.5 -73s0.5 -55 1.5 -73s5.33301 -40.333 13 -67s19.167 -48 34.5 -64c29.333 -31.333 65.666 -47 108.999 -47c47.333 0 83 15 107 45c18.667 22.667 29.334 48.667 32.001 78h132zM398.001 -41.001
l-76 -199l-104 49l83 150h97z" />
    <glyph glyph-name="Egrave" unicode="&#xc8;" horiz-adv-x="628" 
d="M588 0h-505v709h505v-117h-376v-165h331v-116h-331v-194h376v-117zM445 830l-40 -65l-200 112l56 91z" />
    <glyph glyph-name="Eacute" unicode="&#xc9;" horiz-adv-x="628" 
d="M588 0h-505v709h505v-117h-376v-165h331v-116h-331v-194h376v-117zM451 876l-200 -112l-40 65l184 138z" />
    <glyph glyph-name="Ecircumflex" unicode="&#xca;" horiz-adv-x="628" 
d="M588 0h-505v709h505v-117h-376v-165h331v-116h-331v-194h376v-117zM498 830l-61 -55l-103 113l-105 -116l-64 58l138 145h61z" />
    <glyph glyph-name="Edieresis" unicode="&#xcb;" horiz-adv-x="628" 
d="M588 0h-505v709h505v-117h-376v-165h331v-116h-331v-194h376v-117zM509 791h-117v121h117v-121zM303 791h-117v121h117v-121z" />
    <glyph glyph-name="Igrave" unicode="&#xcc;" horiz-adv-x="297" 
d="M214 0h-131v709h131v-709zM265 835l-40 -65l-200 112l56 91z" />
    <glyph glyph-name="Iacute" unicode="&#xcd;" horiz-adv-x="297" 
d="M214 0h-131v709h131v-709zM269 881l-200 -112l-40 65l184 138z" />
    <glyph glyph-name="Icircumflex" unicode="&#xce;" horiz-adv-x="297" 
d="M214 0h-131v709h131v-709zM314 830l-61 -55l-103 113l-105 -116l-64 58l138 145h61z" />
    <glyph glyph-name="Idieresis" unicode="&#xcf;" horiz-adv-x="297" 
d="M214 0h-131v709h131v-709zM311 791h-117v121h117v-121zM105 791h-117v121h117v-121z" />
    <glyph glyph-name="Eth" unicode="&#xd0;" horiz-adv-x="684" 
d="M641 355c0 -60 -5.5 -113 -16.5 -159s-33.167 -86 -66.5 -120c-48.667 -50.667 -115 -76 -199 -76h-276v326h-63v84h63v299h276c84 0 150.333 -25.333 199 -76c33.333 -34 55.5 -74 66.5 -120s16.5 -98.667 16.5 -158zM510 355c0 29.333 -0.666992 53.1699 -2 71.5029
s-6 40.166 -14 65.499s-19.667 45.666 -35 60.999c-26.667 26.667 -60 40 -100 40h-147v-183h131v-84h-131v-210h147c40 0 73.333 13.333 100 40c15.333 15.333 27 35.833 35 61.5s12.667 47.667 14 66s2 42.166 2 71.499z" />
    <glyph glyph-name="Ntilde" unicode="&#xd1;" horiz-adv-x="733" 
d="M650 0h-133l-307 487v-487h-127v709h137l303 -480v480h127v-709zM537 852c-38.667 -40 -76.999 -60 -114.999 -60c-20 0 -42.667 6.83301 -68 20.5s-43 20.5 -53 20.5c-22.667 0 -43.667 -11 -63 -33l-51 64c40 40 78.333 60 115 60c19.333 0 41.666 -7 66.999 -21
s43.333 -21 54 -21c19.333 0 40.333 11.333 63 34z" />
    <glyph glyph-name="Ograve" unicode="&#xd2;" horiz-adv-x="672" 
d="M630 354c0 -65.333 -6.16699 -120.666 -18.5 -165.999s-36.166 -85.666 -71.499 -120.999c-53.333 -53.333 -121.333 -80 -204 -80s-150.667 26.667 -204 80c-35.333 35.333 -59.166 75.666 -71.499 120.999s-18.5 100.666 -18.5 165.999c0 66 6.16699 121.667 18.5 167
s36.166 85.666 71.499 120.999c53.333 53.333 121.333 80 204 80s150.667 -26.667 204 -80c35.333 -35.333 59.166 -75.666 71.499 -120.999s18.5 -101 18.5 -167zM499 354c0 100.667 -17 168.667 -51 204c-29.333 31.333 -66.666 47 -111.999 47
s-82.666 -15.667 -111.999 -47c-34 -35.333 -51 -103.333 -51 -204c0 -28.667 0.666992 -52.667 2 -72s6 -42 14 -68s19.667 -47 35 -63c29.333 -31.333 66.666 -47 111.999 -47s82.666 15.667 111.999 47c15.333 16 27 37 35 63s12.667 48.667 14 68s2 43.333 2 72z
M451 830l-40 -65l-200 112l56 91z" />
    <glyph glyph-name="Oacute" unicode="&#xd3;" horiz-adv-x="672" 
d="M630 354c0 -65.333 -6.16699 -120.666 -18.5 -165.999s-36.166 -85.666 -71.499 -120.999c-53.333 -53.333 -121.333 -80 -204 -80s-150.667 26.667 -204 80c-35.333 35.333 -59.166 75.666 -71.499 120.999s-18.5 100.666 -18.5 165.999c0 66 6.16699 121.667 18.5 167
s36.166 85.666 71.499 120.999c53.333 53.333 121.333 80 204 80s150.667 -26.667 204 -80c35.333 -35.333 59.166 -75.666 71.499 -120.999s18.5 -101 18.5 -167zM499 354c0 100.667 -17 168.667 -51 204c-29.333 31.333 -66.666 47 -111.999 47
s-82.666 -15.667 -111.999 -47c-34 -35.333 -51 -103.333 -51 -204c0 -28.667 0.666992 -52.667 2 -72s6 -42 14 -68s19.667 -47 35 -63c29.333 -31.333 66.666 -47 111.999 -47s82.666 15.667 111.999 47c15.333 16 27 37 35 63s12.667 48.667 14 68s2 43.333 2 72z
M445 876l-200 -112l-40 65l184 138z" />
    <glyph glyph-name="Ocircumflex" unicode="&#xd4;" horiz-adv-x="672" 
d="M630 354c0 -65.333 -6.16699 -120.666 -18.5 -165.999s-36.166 -85.666 -71.499 -120.999c-53.333 -53.333 -121.333 -80 -204 -80s-150.667 26.667 -204 80c-35.333 35.333 -59.166 75.666 -71.499 120.999s-18.5 100.666 -18.5 165.999c0 66 6.16699 121.667 18.5 167
s36.166 85.666 71.499 120.999c53.333 53.333 121.333 80 204 80s150.667 -26.667 204 -80c35.333 -35.333 59.166 -75.666 71.499 -120.999s18.5 -101 18.5 -167zM499 354c0 100.667 -17 168.667 -51 204c-29.333 31.333 -66.666 47 -111.999 47
s-82.666 -15.667 -111.999 -47c-34 -35.333 -51 -103.333 -51 -204c0 -28.667 0.666992 -52.667 2 -72s6 -42 14 -68s19.667 -47 35 -63c29.333 -31.333 66.666 -47 111.999 -47s82.666 15.667 111.999 47c15.333 16 27 37 35 63s12.667 48.667 14 68s2 43.333 2 72z
M504 830l-61 -55l-103 113l-105 -116l-64 58l138 145h61z" />
    <glyph glyph-name="Otilde" unicode="&#xd5;" horiz-adv-x="672" 
d="M630 354c0 -65.333 -6.16699 -120.666 -18.5 -165.999s-36.166 -85.666 -71.499 -120.999c-53.333 -53.333 -121.333 -80 -204 -80s-150.667 26.667 -204 80c-35.333 35.333 -59.166 75.666 -71.499 120.999s-18.5 100.666 -18.5 165.999c0 66 6.16699 121.667 18.5 167
s36.166 85.666 71.499 120.999c53.333 53.333 121.333 80 204 80s150.667 -26.667 204 -80c35.333 -35.333 59.166 -75.666 71.499 -120.999s18.5 -101 18.5 -167zM499 354c0 100.667 -17 168.667 -51 204c-29.333 31.333 -66.666 47 -111.999 47
s-82.666 -15.667 -111.999 -47c-34 -35.333 -51 -103.333 -51 -204c0 -28.667 0.666992 -52.667 2 -72s6 -42 14 -68s19.667 -47 35 -63c29.333 -31.333 66.666 -47 111.999 -47s82.666 15.667 111.999 47c15.333 16 27 37 35 63s12.667 48.667 14 68s2 43.333 2 72z
M507 834c-37.333 -37.333 -74.6709 -56 -112.004 -56c-19.333 0 -41.5 6.33301 -66.5 19s-42.167 19 -51.5 19c-21.333 0 -41.666 -10.333 -60.999 -31l-50 61c38.667 37.333 76 56 112 56c18.667 0 40.334 -6.5 65.001 -19.5s42.334 -19.5 53.001 -19.5
c18.667 0 39.334 10.667 62.001 32z" />
    <glyph glyph-name="Odieresis" unicode="&#xd6;" horiz-adv-x="672" 
d="M630 354c0 -65.333 -6.16699 -120.666 -18.5 -165.999s-36.166 -85.666 -71.499 -120.999c-53.333 -53.333 -121.333 -80 -204 -80s-150.667 26.667 -204 80c-35.333 35.333 -59.166 75.666 -71.499 120.999s-18.5 100.666 -18.5 165.999c0 66 6.16699 121.667 18.5 167
s36.166 85.666 71.499 120.999c53.333 53.333 121.333 80 204 80s150.667 -26.667 204 -80c35.333 -35.333 59.166 -75.666 71.499 -120.999s18.5 -101 18.5 -167zM499 354c0 100.667 -17 168.667 -51 204c-29.333 31.333 -66.666 47 -111.999 47
s-82.666 -15.667 -111.999 -47c-34 -35.333 -51 -103.333 -51 -204c0 -28.667 0.666992 -52.667 2 -72s6 -42 14 -68s19.667 -47 35 -63c29.333 -31.333 66.666 -47 111.999 -47s82.666 15.667 111.999 47c15.333 16 27 37 35 63s12.667 48.667 14 68s2 43.333 2 72z
M498 793h-117v121h117v-121zM292 793h-117v121h117v-121z" />
    <glyph glyph-name="multiply" unicode="&#xd7;" horiz-adv-x="687" 
d="M551 17l-208 208l-208 -208l-72 72l208 208l-208 208l72 72l208 -207l208 207l73 -72l-208 -208l208 -208z" />
    <glyph glyph-name="Oslash" unicode="&#xd8;" horiz-adv-x="672" 
d="M630 354c0 -65.333 -6.16602 -120.667 -18.499 -166s-36.166 -85.666 -71.499 -120.999c-53.333 -53.333 -121.333 -80 -204 -80c-44.667 0 -86 8.33301 -124 25l-40 -84l-67 30l43 94c-4 3.33301 -9.33301 8.33301 -16 15
c-35.333 35.333 -59.166 75.666 -71.499 120.999s-18.5 100.666 -18.5 165.999c0 66 6.16699 121.667 18.5 167s36.166 85.666 71.499 120.999c53.333 53.333 121.333 80 204 80c41.333 0 79.666 -7.33301 114.999 -22l33 70l67 -30l-35 -76
c10.667 -9.33301 18.667 -16.666 24 -21.999c35.333 -35.333 59.166 -75.666 71.499 -120.999s18.5 -101 18.5 -167zM499.001 353.999c0 91.333 -12.998 154.667 -38.998 190l-197 -422c23.333 -12 47.666 -18 72.999 -18c45.333 0 82.666 15.667 111.999 47
c15.333 16 27 37 35 63s12.667 48.667 14 68s2 43.333 2 72zM400.003 591c-20.667 9.33301 -42.001 14.001 -64.001 14.001c-45.333 0 -82.666 -15.667 -111.999 -47c-34 -35.333 -51 -103.333 -51 -204c0 -82.667 11 -142.334 33 -179.001z" />
    <glyph glyph-name="Ugrave" unicode="&#xd9;" horiz-adv-x="682" 
d="M619 272c0 -86.667 -24 -155.834 -72 -207.501s-116.667 -77.5 -206 -77.5s-158 25.833 -206 77.5s-72 120.834 -72 207.501v437h129v-435c0 -52.667 12.333 -94.167 37 -124.5s62 -45.5 112 -45.5s87.333 15.167 112 45.5s37 71.833 37 124.5v435h129v-437zM448 835
l-40 -65l-200 112l56 91z" />
    <glyph glyph-name="Uacute" unicode="&#xda;" horiz-adv-x="682" 
d="M619 272c0 -86.667 -24 -155.834 -72 -207.501s-116.667 -77.5 -206 -77.5s-158 25.833 -206 77.5s-72 120.834 -72 207.501v437h129v-435c0 -52.667 12.333 -94.167 37 -124.5s62 -45.5 112 -45.5s87.333 15.167 112 45.5s37 71.833 37 124.5v435h129v-437zM471 881
l-200 -112l-40 65l184 138z" />
    <glyph glyph-name="Ucircumflex" unicode="&#xdb;" horiz-adv-x="682" 
d="M619 272c0 -86.667 -24 -155.834 -72 -207.501s-116.667 -77.5 -206 -77.5s-158 25.833 -206 77.5s-72 120.834 -72 207.501v437h129v-435c0 -52.667 12.333 -94.167 37 -124.5s62 -45.5 112 -45.5s87.333 15.167 112 45.5s37 71.833 37 124.5v435h129v-437zM509 830
l-61 -55l-103 113l-105 -116l-64 58l138 145h61z" />
    <glyph glyph-name="Udieresis" unicode="&#xdc;" horiz-adv-x="682" 
d="M619 272c0 -86.667 -24 -155.834 -72 -207.501s-116.667 -77.5 -206 -77.5s-158 25.833 -206 77.5s-72 120.834 -72 207.501v437h129v-435c0 -52.667 12.333 -94.167 37 -124.5s62 -45.5 112 -45.5s87.333 15.167 112 45.5s37 71.833 37 124.5v435h129v-437zM502 792
h-117v121h117v-121zM296 792h-117v121h117v-121z" />
    <glyph glyph-name="Yacute" unicode="&#xdd;" horiz-adv-x="624" 
d="M624 709l-248 -437v-272h-130v272l-246 437h140l175 -306l175 306h134zM433 876l-200 -112l-40 65l184 138z" />
    <glyph glyph-name="Thorn" unicode="&#xde;" horiz-adv-x="594" 
d="M581 364c0 -72.667 -20.833 -129.5 -62.5 -170.5s-102.5 -61.5 -182.5 -61.5h-125v-132h-128v709h128v-119h125c79.333 0 140 -20.167 182 -60.5s63 -95.5 63 -165.5zM451 363c0 76 -40.001 114 -120.001 114h-120v-233h120c42.667 0 73.334 10 92.001 30
s28 49.667 28 89z" />
    <glyph glyph-name="germandbls" unicode="&#xdf;" horiz-adv-x="609" 
d="M584 211c0 -64.667 -19.832 -117.669 -59.499 -159.002s-91.834 -62 -156.501 -62c-35.333 0 -66.666 3.33301 -93.999 10v109c21.333 -4 43.666 -6 66.999 -6c36.667 0 65.334 11.167 86.001 33.5s31 51.5 31 87.5c0 82 -45.333 123 -136 123h-21v104h21
c26.667 0 47.834 7.5 63.501 22.5s23.5 35.5 23.5 61.5c0 27.333 -8.16699 49 -24.5 65s-37.833 24 -64.5 24c-66 0 -99 -40 -99 -120v-504h-123v417h-83v103h85c0.666992 66 21.667 117.833 63 155.5s94.333 56.5 159 56.5c61.333 0 112.166 -17.167 152.499 -51.5
s60.5 -79.166 60.5 -134.499c0 -31.333 -8.66699 -60.666 -26 -87.999s-40.333 -45.333 -69 -54c45.333 -10 80.666 -32.833 105.999 -68.5s38 -77.167 38 -124.5z" />
    <glyph glyph-name="agrave" unicode="&#xe0;" horiz-adv-x="562" 
d="M531 6c-22 -9.33301 -42.666 -14 -61.999 -14c-26 0 -46.667 7 -62 21s-24 31.333 -26 52c-12.667 -22 -33.334 -40.5 -62.001 -55.5s-60.667 -22.5 -96 -22.5c-59.333 0 -105.5 15.833 -138.5 47.5s-49.5 70.167 -49.5 115.5c0 48 16.5 86.333 49.5 115
s75.167 44.667 126.5 48l153 11v32c0 26.667 -6.33301 47 -19 61s-35.667 21 -69 21c-60 0 -91.667 -24.667 -95 -74h-121c3.33301 56 24.833 98.167 64.5 126.5s90.167 42.5 151.5 42.5c102.667 0 167.667 -35.333 195 -106c10 -25.333 15 -60.333 15 -105v-193
c0 -12 2.16699 -20.5 6.5 -25.5s11.833 -7.5 22.5 -7.5l16 2v-92zM364.001 207l0.000976562 24l-132 -10c-20.667 -1.33301 -38.334 -8 -53.001 -20s-22 -28 -22 -48c0 -19.333 7.33301 -35 22 -47s32 -18 52 -18c40 0 72.167 10.5 96.5 31.5s36.5 50.167 36.5 87.5z
M357.002 566l-200 112l56 91l184 -138z" />
    <glyph glyph-name="aacute" unicode="&#xe1;" horiz-adv-x="562" 
d="M531 6c-22 -9.33301 -42.666 -14 -61.999 -14c-26 0 -46.667 7 -62 21s-24 31.333 -26 52c-12.667 -22 -33.334 -40.5 -62.001 -55.5s-60.667 -22.5 -96 -22.5c-59.333 0 -105.5 15.833 -138.5 47.5s-49.5 70.167 -49.5 115.5c0 48 16.5 86.333 49.5 115
s75.167 44.667 126.5 48l153 11v32c0 26.667 -6.33301 47 -19 61s-35.667 21 -69 21c-60 0 -91.667 -24.667 -95 -74h-121c3.33301 56 24.833 98.167 64.5 126.5s90.167 42.5 151.5 42.5c102.667 0 167.667 -35.333 195 -106c10 -25.333 15 -60.333 15 -105v-193
c0 -12 2.16699 -20.5 6.5 -25.5s11.833 -7.5 22.5 -7.5l16 2v-92zM364.001 207l0.000976562 24l-132 -10c-20.667 -1.33301 -38.334 -8 -53.001 -20s-22 -28 -22 -48c0 -19.333 7.33301 -35 22 -47s32 -18 52 -18c40 0 72.167 10.5 96.5 31.5s36.5 50.167 36.5 87.5z
M382.002 678l-200 -112l-40 65l184 138z" />
    <glyph glyph-name="acircumflex" unicode="&#xe2;" horiz-adv-x="562" 
d="M531 6c-22 -9.33301 -42.666 -14 -61.999 -14c-26 0 -46.667 7 -62 21s-24 31.333 -26 52c-12.667 -22 -33.334 -40.5 -62.001 -55.5s-60.667 -22.5 -96 -22.5c-59.333 0 -105.5 15.833 -138.5 47.5s-49.5 70.167 -49.5 115.5c0 48 16.5 86.333 49.5 115
s75.167 44.667 126.5 48l153 11v32c0 26.667 -6.33301 47 -19 61s-35.667 21 -69 21c-60 0 -91.667 -24.667 -95 -74h-121c3.33301 56 24.833 98.167 64.5 126.5s90.167 42.5 151.5 42.5c102.667 0 167.667 -35.333 195 -106c10 -25.333 15 -60.333 15 -105v-193
c0 -12 2.16699 -20.5 6.5 -25.5s11.833 -7.5 22.5 -7.5l16 2v-92zM364.001 207l0.000976562 24l-132 -10c-20.667 -1.33301 -38.334 -8 -53.001 -20s-22 -28 -22 -48c0 -19.333 7.33301 -35 22 -47s32 -18 52 -18c40 0 72.167 10.5 96.5 31.5s36.5 50.167 36.5 87.5z
M437.002 629l-61 -55l-103 113l-105 -116l-64 58l138 145h61z" />
    <glyph glyph-name="atilde" unicode="&#xe3;" horiz-adv-x="562" 
d="M531 6c-22 -9.33301 -42.666 -14 -61.999 -14c-26 0 -46.667 7 -62 21s-24 31.333 -26 52c-12.667 -22 -33.334 -40.5 -62.001 -55.5s-60.667 -22.5 -96 -22.5c-59.333 0 -105.5 15.833 -138.5 47.5s-49.5 70.167 -49.5 115.5c0 48 16.5 86.333 49.5 115
s75.167 44.667 126.5 48l153 11v32c0 26.667 -6.33301 47 -19 61s-35.667 21 -69 21c-60 0 -91.667 -24.667 -95 -74h-121c3.33301 56 24.833 98.167 64.5 126.5s90.167 42.5 151.5 42.5c102.667 0 167.667 -35.333 195 -106c10 -25.333 15 -60.333 15 -105v-193
c0 -12 2.16699 -20.5 6.5 -25.5s11.833 -7.5 22.5 -7.5l16 2v-92zM364.001 207l0.000976562 24l-132 -10c-20.667 -1.33301 -38.334 -8 -53.001 -20s-22 -28 -22 -48c0 -19.333 7.33301 -35 22 -47s32 -18 52 -18c40 0 72.167 10.5 96.5 31.5s36.5 50.167 36.5 87.5z
M443.002 672c-39.333 -39.333 -77.002 -59 -113.002 -59c-19.333 0 -41.5 6.66699 -66.5 20s-42.167 20 -51.5 20c-22.667 0 -43.334 -10.667 -62.001 -32l-50 63c39.333 39.333 77 59 113 59c18.667 0 40.334 -6.83301 65.001 -20.5s42.334 -20.5 53.001 -20.5
c20.667 0 41.334 11 62.001 33z" />
    <glyph glyph-name="adieresis" unicode="&#xe4;" horiz-adv-x="562" 
d="M531 6c-22 -9.33301 -42.666 -14 -61.999 -14c-26 0 -46.667 7 -62 21s-24 31.333 -26 52c-12.667 -22 -33.334 -40.5 -62.001 -55.5s-60.667 -22.5 -96 -22.5c-59.333 0 -105.5 15.833 -138.5 47.5s-49.5 70.167 -49.5 115.5c0 48 16.5 86.333 49.5 115
s75.167 44.667 126.5 48l153 11v32c0 26.667 -6.33301 47 -19 61s-35.667 21 -69 21c-60 0 -91.667 -24.667 -95 -74h-121c3.33301 56 24.833 98.167 64.5 126.5s90.167 42.5 151.5 42.5c102.667 0 167.667 -35.333 195 -106c10 -25.333 15 -60.333 15 -105v-193
c0 -12 2.16699 -20.5 6.5 -25.5s11.833 -7.5 22.5 -7.5l16 2v-92zM364.001 207l0.000976562 24l-132 -10c-20.667 -1.33301 -38.334 -8 -53.001 -20s-22 -28 -22 -48c0 -19.333 7.33301 -35 22 -47s32 -18 52 -18c40 0 72.167 10.5 96.5 31.5s36.5 50.167 36.5 87.5z
M442.002 601h-117v121h117v-121zM236.002 601h-117v121h117v-121z" />
    <glyph glyph-name="aring" unicode="&#xe5;" horiz-adv-x="562" 
d="M531 6c-22 -9.33301 -42.666 -14 -61.999 -14c-26 0 -46.667 7 -62 21s-24 31.333 -26 52c-12.667 -22 -33.334 -40.5 -62.001 -55.5s-60.667 -22.5 -96 -22.5c-59.333 0 -105.5 15.833 -138.5 47.5s-49.5 70.167 -49.5 115.5c0 48 16.5 86.333 49.5 115
s75.167 44.667 126.5 48l153 11v32c0 26.667 -6.33301 47 -19 61s-35.667 21 -69 21c-60 0 -91.667 -24.667 -95 -74h-121c3.33301 56 24.833 98.167 64.5 126.5s90.167 42.5 151.5 42.5c102.667 0 167.667 -35.333 195 -106c10 -25.333 15 -60.333 15 -105v-193
c0 -12 2.16699 -20.5 6.5 -25.5s11.833 -7.5 22.5 -7.5l16 2v-92zM364.001 207l0.000976562 24l-132 -10c-20.667 -1.33301 -38.334 -8 -53.001 -20s-22 -28 -22 -48c0 -19.333 7.33301 -35 22 -47s32 -18 52 -18c40 0 72.167 10.5 96.5 31.5s36.5 50.167 36.5 87.5z
M396.002 710c0 -34 -11.833 -62.833 -35.5 -86.5s-52.5 -35.5 -86.5 -35.5s-62.833 11.833 -86.5 35.5s-35.5 52.5 -35.5 86.5s11.833 62.667 35.5 86s52.5 35 86.5 35s62.833 -11.667 86.5 -35s35.5 -52 35.5 -86zM327.002 710c0 14.667 -5.16699 27 -15.5 37
s-22.833 15 -37.5 15s-27 -5 -37 -15s-15 -22.333 -15 -37s5 -27.167 15 -37.5s22.333 -15.5 37 -15.5s27.167 5.16699 37.5 15.5s15.5 22.833 15.5 37.5z" />
    <glyph glyph-name="ae" unicode="&#xe6;" horiz-adv-x="860" 
d="M821 219l-344.004 0.000976562c4 -90 41.667 -135 113 -135c50.667 0 84.334 23.333 101.001 70h121c-4 -32.667 -18.333 -63.667 -43 -93c-40.667 -49.333 -99 -74 -175 -74c-45.333 0 -85.166 9.5 -119.499 28.5s-58.166 43.167 -71.499 72.5
c-35.333 -67.333 -96 -101 -182 -101c-50 0 -93.5 14.167 -130.5 42.5s-55.5 68.166 -55.5 119.499c0 48.667 16.5 86.5 49.5 113.5s75.167 42.5 126.5 46.5l140 2v45c0 28 -6.5 48.167 -19.5 60.5s-33.5 18.5 -61.5 18.5c-57.333 0 -88 -23.667 -92 -71h-121
c3.33301 56 24.333 98.167 63 126.5s88.667 42.5 150 42.5c67.333 0 120 -20.333 158 -61c36 40.667 89.333 61 160 61c82.667 0 145.334 -31.667 188.001 -95c30 -44 45 -107.667 45 -191v-28zM694.996 311.001c-0.666992 37.333 -9.66797 67.167 -27.001 89.5
s-44.333 33.5 -81 33.5c-36 0 -63.167 -11.5 -81.5 -34.5s-28.166 -52.5 -29.499 -88.5h219zM350.995 219.002c-62.667 0 -103 -0.667969 -121 -2.00098c-48.667 -3.33301 -73 -24.666 -73 -63.999c0 -19.333 7.16699 -34.666 21.5 -45.999s31.5 -17 51.5 -17
c39.333 0 69.333 12.167 90 36.5s31 55.166 31 92.499z" />
    <glyph glyph-name="ccedilla" unicode="&#xe7;" horiz-adv-x="531" 
d="M498 184c-2 -43.333 -15.333 -81 -40 -113c-44 -54.667 -103.333 -82 -178 -82c-37.333 0 -72 7.83301 -104 23.5s-57.667 35.167 -77 58.5c-38 48 -57 111.333 -57 190s19 142 57 190c19.333 23.333 45 42.833 77 58.5s66.667 23.5 104 23.5
c74.667 0 134 -27.333 178 -82c24.667 -32 38 -69.667 40 -113h-123c-0.666992 17.333 -5.66699 33.333 -15 48c-16.667 26 -43.334 39 -80.001 39c-30.667 0 -56 -10.667 -76 -32c-23.333 -26 -35 -70 -35 -132s11.667 -105.667 35 -131c20.667 -22 46 -33 76 -33
c36.667 0 63.334 13 80.001 39c9.33301 14.667 14.333 30.667 15 48h123zM350 -44l-76 -199l-104 49l83 150h97z" />
    <glyph glyph-name="egrave" unicode="&#xe8;" horiz-adv-x="557" 
d="M518 256c-0.666992 -16 -1.00195 -27.665 -1.00195 -34.998h-348c-1.33301 -42.667 11.334 -76.667 38.001 -102c22.667 -21.333 48.334 -32 77.001 -32c34 0 59.333 8.33301 76 25c12 12 20.333 26.667 25 44h120c-3.33301 -32.667 -18 -64.667 -44 -96
c-41.333 -48.667 -99.666 -73 -174.999 -73c-64.667 0 -119.334 21.333 -164.001 64c-53.333 51.333 -80 120.666 -80 207.999s25 156.666 75 207.999c42.667 44 98 66 166 66c84 0 147.333 -32 190 -96c32 -48.667 47 -109 45 -181zM392.998 312.002
c-0.666992 38 -11.333 68.333 -32 91c-18.667 20 -45 30 -79 30c-38 0 -67 -13.333 -87 -40c-17.333 -22 -26.333 -49 -27 -81h225zM363.999 567.002l-200 112l56 91l184 -138z" />
    <glyph glyph-name="eacute" unicode="&#xe9;" horiz-adv-x="557" 
d="M518 256c-0.666992 -16 -1.00195 -27.665 -1.00195 -34.998h-348c-1.33301 -42.667 11.334 -76.667 38.001 -102c22.667 -21.333 48.334 -32 77.001 -32c34 0 59.333 8.33301 76 25c12 12 20.333 26.667 25 44h120c-3.33301 -32.667 -18 -64.667 -44 -96
c-41.333 -48.667 -99.666 -73 -174.999 -73c-64.667 0 -119.334 21.333 -164.001 64c-53.333 51.333 -80 120.666 -80 207.999s25 156.666 75 207.999c42.667 44 98 66 166 66c84 0 147.333 -32 190 -96c32 -48.667 47 -109 45 -181zM392.998 312.002
c-0.666992 38 -11.333 68.333 -32 91c-18.667 20 -45 30 -79 30c-38 0 -67 -13.333 -87 -40c-17.333 -22 -26.333 -49 -27 -81h225zM408.999 678.002l-200 -112l-40 65l184 138z" />
    <glyph glyph-name="ecircumflex" unicode="&#xea;" horiz-adv-x="557" 
d="M518 256c-0.666992 -16 -1.00195 -27.665 -1.00195 -34.998h-348c-1.33301 -42.667 11.334 -76.667 38.001 -102c22.667 -21.333 48.334 -32 77.001 -32c34 0 59.333 8.33301 76 25c12 12 20.333 26.667 25 44h120c-3.33301 -32.667 -18 -64.667 -44 -96
c-41.333 -48.667 -99.666 -73 -174.999 -73c-64.667 0 -119.334 21.333 -164.001 64c-53.333 51.333 -80 120.666 -80 207.999s25 156.666 75 207.999c42.667 44 98 66 166 66c84 0 147.333 -32 190 -96c32 -48.667 47 -109 45 -181zM392.998 312.002
c-0.666992 38 -11.333 68.333 -32 91c-18.667 20 -45 30 -79 30c-38 0 -67 -13.333 -87 -40c-17.333 -22 -26.333 -49 -27 -81h225zM440.999 629.002l-61 -55l-103 113l-105 -116l-64 58l138 145h61z" />
    <glyph glyph-name="edieresis" unicode="&#xeb;" horiz-adv-x="557" 
d="M518 256c-0.666992 -16 -1.00195 -27.665 -1.00195 -34.998h-348c-1.33301 -42.667 11.334 -76.667 38.001 -102c22.667 -21.333 48.334 -32 77.001 -32c34 0 59.333 8.33301 76 25c12 12 20.333 26.667 25 44h120c-3.33301 -32.667 -18 -64.667 -44 -96
c-41.333 -48.667 -99.666 -73 -174.999 -73c-64.667 0 -119.334 21.333 -164.001 64c-53.333 51.333 -80 120.666 -80 207.999s25 156.666 75 207.999c42.667 44 98 66 166 66c84 0 147.333 -32 190 -96c32 -48.667 47 -109 45 -181zM392.998 312.002
c-0.666992 38 -11.333 68.333 -32 91c-18.667 20 -45 30 -79 30c-38 0 -67 -13.333 -87 -40c-17.333 -22 -26.333 -49 -27 -81h225zM452.999 601.002h-117v121h117v-121zM246.999 601.002h-117v121h117v-121z" />
    <glyph glyph-name="igrave" unicode="&#xec;" horiz-adv-x="286" 
d="M207 0h-127v520h127v-520zM210 567l-178 103l50 84l164 -127z" />
    <glyph glyph-name="iacute" unicode="&#xed;" horiz-adv-x="286" 
d="M207 0h-127v520h127v-520zM238 671l-178 -103l-36 60l164 127z" />
    <glyph glyph-name="icircumflex" unicode="&#xee;" horiz-adv-x="286" 
d="M207 0h-127v520h127v-520zM291 619l-55 -50l-91 104l-94 -107l-57 53l123 134h54z" />
    <glyph glyph-name="idieresis" unicode="&#xef;" horiz-adv-x="286" 
d="M207 0h-127v520h127v-520zM287 608h-104v107h104v-107zM103 608h-104v107h104v-107z" />
    <glyph glyph-name="eth" unicode="&#xf0;" horiz-adv-x="562" 
d="M520 259c0 -78.667 -19.0039 -142 -57.0039 -190c-19.333 -23.333 -45.166 -42.833 -77.499 -58.5s-67.166 -23.5 -104.499 -23.5s-72.166 7.83301 -104.499 23.5s-58.166 35.167 -77.499 58.5c-38 48 -57 111.333 -57 190c0 80 19.333 144.333 58 193
c19.333 23.333 45 42.666 77 57.999s66.667 23 104 23h6l-30 50h-110v67h71l-41 72h125l42 -72h96v-67h-56l91 -149c30 -49.333 45 -107.666 45 -174.999zM392.996 259c0 64 -11.333 108.333 -34 133c-20.667 22 -46.667 33 -78 33s-57.333 -11 -78 -33
c-22.667 -24.667 -34 -69 -34 -133c0 -63.333 11.333 -107.333 34 -132c20.667 -22 46.667 -33 78 -33s57.333 11 78 33c22.667 24.667 34 68.667 34 132z" />
    <glyph glyph-name="ntilde" unicode="&#xf1;" horiz-adv-x="591" 
d="M521 0l-125.001 -0.000976562v319c0 32.667 -6.5 57.167 -19.5 73.5s-35.167 24.5 -66.5 24.5c-40 0 -70 -22 -90 -66c-11.333 -26 -17 -72.333 -17 -139v-212h-125v520h105l9 -67c14.667 26 35.834 45.833 63.501 59.5s57.5 20.5 89.5 20.5
c54.667 0 97.667 -17.167 129 -51.5s47 -79.166 47 -134.499v-347zM475.999 671.999c-39.333 -39.333 -76.6699 -59 -112.003 -59c-19.333 0 -41.666 6.66699 -66.999 20s-42.666 20 -51.999 20c-21.333 0 -42 -10.667 -62 -32l-50 63c39.333 39.333 77 59 113 59
c18.667 0 40.334 -6.83301 65.001 -20.5s42.667 -20.5 54 -20.5c20 0 40.333 11 61 33z" />
    <glyph glyph-name="ograve" unicode="&#xf2;" 
d="M528 260c0 -76.667 -20.333 -140.667 -61 -192c-19.333 -23.333 -45.166 -42.666 -77.499 -57.999s-67.166 -23 -104.499 -23s-72.166 7.66699 -104.499 23s-58.166 34.666 -77.499 57.999c-40.667 51.333 -61 115.333 -61 192s20.333 140.667 61 192
c19.333 23.333 45.166 42.666 77.499 57.999s67.166 23 104.499 23s72.166 -7.66699 104.499 -23s58.166 -34.666 77.499 -57.999c40.667 -51.333 61 -115.333 61 -192zM401 260c0 60 -12.333 103.667 -37 131c-20.667 22 -47 33 -79 33s-58.333 -11 -79 -33
c-24.667 -27.333 -37 -71 -37 -131s12.333 -103.667 37 -131c20.667 -22 47 -33 79 -33s58.333 11 79 33c24.667 27.333 37 71 37 131zM367 567l-200 112l56 91l184 -138z" />
    <glyph glyph-name="oacute" unicode="&#xf3;" 
d="M528 260c0 -76.667 -20.333 -140.667 -61 -192c-19.333 -23.333 -45.166 -42.666 -77.499 -57.999s-67.166 -23 -104.499 -23s-72.166 7.66699 -104.499 23s-58.166 34.666 -77.499 57.999c-40.667 51.333 -61 115.333 -61 192s20.333 140.667 61 192
c19.333 23.333 45.166 42.666 77.499 57.999s67.166 23 104.499 23s72.166 -7.66699 104.499 -23s58.166 -34.666 77.499 -57.999c40.667 -51.333 61 -115.333 61 -192zM401 260c0 60 -12.333 103.667 -37 131c-20.667 22 -47 33 -79 33s-58.333 -11 -79 -33
c-24.667 -27.333 -37 -71 -37 -131s12.333 -103.667 37 -131c20.667 -22 47 -33 79 -33s58.333 11 79 33c24.667 27.333 37 71 37 131zM410 678l-200 -112l-40 65l184 138z" />
    <glyph glyph-name="ocircumflex" unicode="&#xf4;" 
d="M528 260c0 -76.667 -20.333 -140.667 -61 -192c-19.333 -23.333 -45.166 -42.666 -77.499 -57.999s-67.166 -23 -104.499 -23s-72.166 7.66699 -104.499 23s-58.166 34.666 -77.499 57.999c-40.667 51.333 -61 115.333 -61 192s20.333 140.667 61 192
c19.333 23.333 45.166 42.666 77.499 57.999s67.166 23 104.499 23s72.166 -7.66699 104.499 -23s58.166 -34.666 77.499 -57.999c40.667 -51.333 61 -115.333 61 -192zM401 260c0 60 -12.333 103.667 -37 131c-20.667 22 -47 33 -79 33s-58.333 -11 -79 -33
c-24.667 -27.333 -37 -71 -37 -131s12.333 -103.667 37 -131c20.667 -22 47 -33 79 -33s58.333 11 79 33c24.667 27.333 37 71 37 131zM445 629l-61 -55l-103 113l-105 -116l-64 58l138 145h61z" />
    <glyph glyph-name="otilde" unicode="&#xf5;" 
d="M528 260c0 -76.667 -20.333 -140.667 -61 -192c-19.333 -23.333 -45.166 -42.666 -77.499 -57.999s-67.166 -23 -104.499 -23s-72.166 7.66699 -104.499 23s-58.166 34.666 -77.499 57.999c-40.667 51.333 -61 115.333 -61 192s20.333 140.667 61 192
c19.333 23.333 45.166 42.666 77.499 57.999s67.166 23 104.499 23s72.166 -7.66699 104.499 -23s58.166 -34.666 77.499 -57.999c40.667 -51.333 61 -115.333 61 -192zM401 260c0 60 -12.333 103.667 -37 131c-20.667 22 -47 33 -79 33s-58.333 -11 -79 -33
c-24.667 -27.333 -37 -71 -37 -131s12.333 -103.667 37 -131c20.667 -22 47 -33 79 -33s58.333 11 79 33c24.667 27.333 37 71 37 131zM444 678c-37.333 -38.667 -74.6689 -58 -112.002 -58c-19.333 0 -41.666 6.66699 -66.999 20s-42.666 20 -51.999 20
c-20.667 0 -41.334 -11 -62.001 -33l-50 63c38 39.333 75.667 59 113 59c18.667 0 40.334 -6.83301 65.001 -20.5s42.667 -20.5 54 -20.5c20 0 40.333 11 61 33z" />
    <glyph glyph-name="odieresis" unicode="&#xf6;" 
d="M528 260c0 -76.667 -20.333 -140.667 -61 -192c-19.333 -23.333 -45.166 -42.666 -77.499 -57.999s-67.166 -23 -104.499 -23s-72.166 7.66699 -104.499 23s-58.166 34.666 -77.499 57.999c-40.667 51.333 -61 115.333 -61 192s20.333 140.667 61 192
c19.333 23.333 45.166 42.666 77.499 57.999s67.166 23 104.499 23s72.166 -7.66699 104.499 -23s58.166 -34.666 77.499 -57.999c40.667 -51.333 61 -115.333 61 -192zM401 260c0 60 -12.333 103.667 -37 131c-20.667 22 -47 33 -79 33s-58.333 -11 -79 -33
c-24.667 -27.333 -37 -71 -37 -131s12.333 -103.667 37 -131c20.667 -22 47 -33 79 -33s58.333 11 79 33c24.667 27.333 37 71 37 131zM451 601h-117v121h117v-121zM245 601h-117v121h117v-121z" />
    <glyph glyph-name="divide" unicode="&#xf7;" horiz-adv-x="648" 
d="M394 436h-137v139h137v-139zM588 243h-528v114h528v-114zM394 30h-137v139h137v-139z" />
    <glyph glyph-name="oslash" unicode="&#xf8;" 
d="M528 260c0 -76.667 -20.333 -140.667 -61 -192c-19.333 -23.333 -45.166 -42.666 -77.499 -57.999s-67.166 -23 -104.499 -23c-32 0 -61 5 -87 15l-35 -77l-63 28l37 82c-14.667 11.333 -26 22.333 -34 33c-40.667 51.333 -61 115.333 -61 192s20.333 140.667 61 192
c19.333 23.333 45.166 42.666 77.499 57.999s67.166 23 104.499 23c25.333 0 50 -3.66699 74 -11l29 62l63 -28l-29 -64c18.667 -12.667 33.667 -26 45 -40c40.667 -51.333 61 -115.333 61 -192zM401 260c0 54.667 -9.66602 95.333 -28.999 122l-127 -279
c11.333 -4.66699 24.666 -7 39.999 -7c32 0 58.333 11 79 33c24.667 27.333 37 71 37 131zM313.001 420.999c-9.33301 2 -18.667 2.99902 -28 2.99902c-32 0 -58.333 -11 -79 -33c-24.667 -27.333 -37 -71 -37 -131c0 -47.333 7 -83.666 21 -108.999z" />
    <glyph glyph-name="ugrave" unicode="&#xf9;" horiz-adv-x="590" 
d="M512 0l-103.999 -0.000976562l-9 68c-12.667 -25.333 -32.334 -45.166 -59.001 -59.499s-56.667 -21.5 -90 -21.5c-55.333 0 -99.166 17 -131.499 51s-48.5 79 -48.5 135v347h125v-319c0 -66 30 -99 90 -99c25.333 0 46.666 8.66699 63.999 26
c25.333 23.333 38 62.333 38 117v275h125v-520zM361.001 565.999l-200 112l56 91l184 -138z" />
    <glyph glyph-name="uacute" unicode="&#xfa;" horiz-adv-x="590" 
d="M512 0l-103.999 -0.000976562l-9 68c-12.667 -25.333 -32.334 -45.166 -59.001 -59.499s-56.667 -21.5 -90 -21.5c-55.333 0 -99.166 17 -131.499 51s-48.5 79 -48.5 135v347h125v-319c0 -66 30 -99 90 -99c25.333 0 46.666 8.66699 63.999 26
c25.333 23.333 38 62.333 38 117v275h125v-520zM422.001 677.999l-200 -112l-40 65l184 138z" />
    <glyph glyph-name="ucircumflex" unicode="&#xfb;" horiz-adv-x="590" 
d="M512 0l-103.999 -0.000976562l-9 68c-12.667 -25.333 -32.334 -45.166 -59.001 -59.499s-56.667 -21.5 -90 -21.5c-55.333 0 -99.166 17 -131.499 51s-48.5 79 -48.5 135v347h125v-319c0 -66 30 -99 90 -99c25.333 0 46.666 8.66699 63.999 26
c25.333 23.333 38 62.333 38 117v275h125v-520zM451.001 628.999l-61 -55l-103 113l-105 -116l-64 58l138 145h61z" />
    <glyph glyph-name="udieresis" unicode="&#xfc;" horiz-adv-x="590" 
d="M512 0l-103.999 -0.000976562l-9 68c-12.667 -25.333 -32.334 -45.166 -59.001 -59.499s-56.667 -21.5 -90 -21.5c-55.333 0 -99.166 17 -131.499 51s-48.5 79 -48.5 135v347h125v-319c0 -66 30 -99 90 -99c25.333 0 46.666 8.66699 63.999 26
c25.333 23.333 38 62.333 38 117v275h125v-520zM457.001 600.999h-117v121h117v-121zM251.001 600.999h-117v121h117v-121z" />
    <glyph glyph-name="yacute" unicode="&#xfd;" horiz-adv-x="530" 
d="M530 520l-229.001 -609c-33.333 -86.667 -86.666 -130 -159.999 -130c-30.667 0 -62.667 4.33301 -96 13v104c32.667 -6 56 -9 70 -9c29.333 0 49.333 13 60 39l30 73l-205 519h137l136 -376l130 376h127zM412.999 675l-200 -112l-40 65l184 138z" />
    <glyph glyph-name="thorn" unicode="&#xfe;" horiz-adv-x="592" 
d="M550 260c0 -92 -24.667 -163.665 -74 -214.998c-36.667 -38 -82.334 -57 -137.001 -57c-28 0 -54.833 5.16699 -80.5 15.5s-44.5 25.166 -56.5 44.499v-247h-124v459v462h124v-249c12 19.333 30.833 34.166 56.5 44.499s52.5 15.5 80.5 15.5
c54.667 0 100.334 -19 137.001 -57c49.333 -51.333 74 -123.333 74 -216zM424 260.002c0 60 -11.667 104.668 -35 134.001c-19.333 24 -45.333 36 -78 36c-76.667 0 -115 -56.667 -115 -170c0 -112.667 38.333 -169 115 -169c32.667 0 58.667 12 78 36
c23.333 29.333 35 73.666 35 132.999z" />
    <glyph glyph-name="ydieresis" unicode="&#xff;" horiz-adv-x="530" 
d="M530 520l-229.001 -609c-33.333 -86.667 -86.666 -130 -159.999 -130c-30.667 0 -62.667 4.33301 -96 13v104c32.667 -6 56 -9 70 -9c29.333 0 49.333 13 60 39l30 73l-205 519h137l136 -376l130 376h127zM433.999 601h-117v121h117v-121zM227.999 601h-117v121h117v-121
z" />
    <glyph glyph-name="Gbreve" unicode="&#x11e;" horiz-adv-x="684" 
d="M621 0l-83.0029 0.00292969l-15 78c-12 -22.667 -34.333 -43.334 -67 -62.001s-69.667 -28.334 -111 -29.001c-89.333 -1.33301 -159.666 25 -210.999 79c-34.667 36 -58.667 77.167 -72 123.5s-20 101.166 -20 164.499c0 64.667 6.33301 119.334 19 164.001
s37 85 73 121c26.667 26.667 58.834 47.167 96.501 61.5s75.834 21.5 114.501 21.5c87.333 0 157.333 -27 210 -81c40 -40.667 61.667 -88.334 65 -143.001h-132c-1.33301 20 -11.666 41.667 -30.999 65c-24.667 28.667 -62.334 43 -113.001 43c-47.333 0 -86 -16 -116 -48
c-36.667 -38 -55 -106 -55 -204c0 -99.333 18.667 -168.333 56 -207c28 -30 66.333 -45 115 -45c44.667 0 80 13.667 106 41c30.667 32 46 78 46 138h-169v107h294v-388zM531.997 956.003c-4 -54 -20.335 -96.667 -49.002 -128s-68.667 -47 -120 -47
s-91.166 15.667 -119.499 47s-44.5 74 -48.5 128h94c3.33301 -29.333 10.833 -50.666 22.5 -63.999s28.834 -20 51.501 -20s40 6.66699 52 20s19.667 34.666 23 63.999h94z" />
    <glyph glyph-name="gbreve" unicode="&#x11f;" horiz-adv-x="551" 
d="M536 -69c0 -32.667 -7.49414 -60.8359 -22.4941 -84.5029s-35.167 -41.667 -60.5 -54s-51.833 -21.333 -79.5 -27s-57.167 -8.5 -88.5 -8.5c-82 0 -143.333 14.333 -184 43c-42 29.333 -63 67.333 -63 114c0 50 20.667 85.333 62 106
c-16 8.66699 -28.667 21.334 -38 38.001s-14 33.667 -14 51c0 44.667 20.667 79.667 62 105c-34.667 34.667 -52 77.334 -52 128.001c0 60 20.167 106.833 60.5 140.5s91.166 50.5 152.499 50.5c42.667 0 82 -10.667 118 -32c21.333 43.333 56.666 65 105.999 65
c17.333 0 28.666 -0.666992 33.999 -2v-97c-0.666992 0 -2.33398 0.166992 -5.00098 0.5s-4.33398 0.5 -5.00098 0.5c-34.667 0 -55.667 -11 -63 -33c18 -29.333 27 -60.666 27 -93.999c0 -57.333 -20.667 -103.166 -62 -137.499s-91.333 -51.5 -150 -51.5
c-29.333 0 -57.333 4.66699 -84 14c-17.333 -10 -26 -22.333 -26 -37c0 -25.333 19 -38 57 -38h86c79.333 0 135.666 -11.667 168.999 -35c42 -28.667 63 -70.334 63 -125.001zM363.006 341.998c0 28.667 -8.33301 52 -25 70s-39 27 -67 27s-50.333 -9 -67 -27
s-25 -41.333 -25 -70s8.33301 -51.834 25 -69.501s39 -26.5 67 -26.5s50.333 8.83301 67 26.5s25 40.834 25 69.501zM418.006 -72.002c0 15.333 -3.83301 27.665 -11.5 36.998s-19 15.833 -34 19.5s-27.667 5.83398 -38 6.50098s-23.833 1 -40.5 1h-98
c-31.333 -9.33301 -47 -30.666 -47 -63.999c0 -48 43.667 -72 131 -72c92 0 138 24 138 72zM473.006 766.997c-4 -54 -20.335 -96.667 -49.002 -128s-68.667 -47 -120 -47s-91.166 15.667 -119.499 47s-44.5 74 -48.5 128h94c3.33301 -29.333 10.833 -50.666 22.5 -63.999
s28.834 -20 51.501 -20s40 6.66699 52 20s19.667 34.666 23 63.999h94z" />
    <glyph glyph-name="Idotaccent" unicode="&#x130;" horiz-adv-x="297" 
d="M214 0h-131v709h131v-709zM215 781h-133v128h133v-128z" />
    <glyph glyph-name="dotlessi" unicode="&#x131;" horiz-adv-x="286" 
d="M207 0h-127v520h127v-520z" />
    <glyph glyph-name="Lslash" unicode="&#x141;" horiz-adv-x="566" 
d="M557 0h-458v274l-53 -33l-43 69l96 60v339h129v-258l109 69l44 -70l-153 -95v-233h329v-122z" />
    <glyph glyph-name="lslash" unicode="&#x142;" horiz-adv-x="389" 
d="M373 464l-109.001 -69v-240c0 -16.667 3.33301 -29.167 10 -37.5s20 -12.5 40 -12.5c4 0 8 0.166992 12 0.5s7 0.5 9 0.5v-105c-23.333 -4.66699 -41.666 -7 -54.999 -7c-44.667 0 -79.5 11.333 -104.5 34s-37.5 58 -37.5 106v181l-45 -28l-43 69l88 56v311h126v-231
l65 41z" />
    <glyph glyph-name="OE" unicode="&#x152;" horiz-adv-x="1030" 
d="M990 0h-505.004v36c-43.333 -32.667 -95.666 -49 -156.999 -49c-84.667 0 -153 26.667 -205 80c-33.333 34.667 -55.166 75.167 -65.499 121.5s-15.5 101.833 -15.5 166.5s5 120 15 166s32 86.333 66 121c52 53.333 120.333 80 205 80
c28.667 0 57.834 -4.66699 87.501 -14s52.834 -21 69.501 -35v36h505v-117h-376v-165h331v-116h-331v-194h376v-117zM482.996 355v13.002c0 30.667 -0.5 54.667 -1.5 72s-5.33301 38.5 -13 63.5s-19.167 45.167 -34.5 60.5c-27.333 27.333 -62.666 41 -105.999 41
s-78.666 -13.667 -105.999 -41c-15.333 -15.333 -26.833 -35.5 -34.5 -60.5s-12 -46.167 -13 -63.5s-1.5 -41.333 -1.5 -72v-13v-13c0 -30.667 0.5 -54.834 1.5 -72.501s5.33301 -39 13 -64s19.167 -45.167 34.5 -60.5c27.333 -27.333 62.666 -41 105.999 -41
s78.666 13.667 105.999 41c15.333 15.333 26.833 35.666 34.5 60.999s12 46.5 13 63.5s1.5 41.167 1.5 72.5v13z" />
    <glyph glyph-name="oe" unicode="&#x153;" horiz-adv-x="904" 
d="M865 256c-0.666992 -16 -1.00391 -27.667 -1.00391 -35h-344c-1.33301 -45.333 11.334 -80.666 38.001 -105.999c22 -20.667 46.333 -31 73 -31c33.333 0 59 9 77 27c12 12 20.333 27 25 45h120c-3.33301 -32.667 -18 -64.667 -44 -96
c-41.333 -48.667 -99.333 -73 -174 -73c-64 0 -118.333 21.333 -163 64l-13 13c-19.333 -22.667 -44.666 -41.167 -75.999 -55.5s-65.333 -21.5 -102 -21.5c-37.333 0 -72.166 7.83301 -104.499 23.5s-58.166 35.167 -77.499 58.5c-38 48 -57 111.333 -57 190
c0 80 19.333 144.333 58 193c19.333 23.333 45 42.666 77 57.999s66.667 23 104 23c36.667 0 70.5 -7.16699 101.5 -21.5s56.167 -32.5 75.5 -54.5l9 9c43.333 44.667 98.333 67 165 67c83.333 0 146.333 -32.333 189 -97c31.333 -47.333 46 -107.333 44 -180zM739.996 312
c-1.33301 40 -11.666 70.667 -30.999 92c-18.667 20 -44.667 30 -78 30c-37.333 0 -66 -13.333 -86 -40c-16.667 -20.667 -25.334 -48 -26.001 -82h221zM392.996 259c0 64 -11.333 108.333 -34 133c-20.667 22 -46.667 33 -78 33s-57.333 -11 -78 -33
c-22.667 -24.667 -34 -69 -34 -133c0 -63.333 11.333 -107.333 34 -132c20.667 -22 46.667 -33 78 -33s57.333 11 78 33c22.667 24.667 34 68.667 34 132z" />
    <glyph glyph-name="Scedilla" unicode="&#x15e;" horiz-adv-x="632" 
d="M599 211c0 -59.333 -19.666 -108.666 -58.999 -147.999c-50.667 -50.667 -125.334 -76 -224.001 -76c-88 0 -158.667 24.333 -212 73c-49.333 44.667 -74 99.667 -74 165h132c0 -33.333 12.333 -62.333 37 -87c25.333 -25.333 65 -38 119 -38
c57.333 0 98.333 12.667 123 38c18.667 20 28 42.667 28 68c0 46 -28 74 -84 84c-16.667 3.33301 -43.334 6.66602 -80.001 9.99902s-62.334 6.33301 -77.001 9c-52.667 8.66699 -95.834 29.834 -129.501 63.501s-50.5 78.5 -50.5 134.5c0 52 20.667 98.667 62 140
c24 23.333 54.333 41.666 91 54.999s75.667 20 117 20c82.667 0 148.667 -23 198 -69c47.333 -44.667 71.333 -95 72 -151h-132c-1.33301 26 -11.666 49.333 -30.999 70c-11.333 11.333 -27.166 20.5 -47.499 27.5s-40.5 10.5 -60.5 10.5
c-51.333 0 -89.666 -13 -114.999 -39c-16 -17.333 -24 -37.333 -24 -60c0 -43.333 24 -69 72 -77c16.667 -2.66699 43.667 -6 81 -10s61.666 -6.66699 72.999 -8c56.667 -8 103.334 -29.667 140.001 -65s55 -82 55 -140zM374.001 -31l-76 -199l-104 49l83 150h97z" />
    <glyph glyph-name="scedilla" unicode="&#x15f;" horiz-adv-x="521" 
d="M482 161c0 -46 -14.999 -83.9961 -44.999 -113.996c-40 -40 -99.333 -60 -178 -60c-70 0 -126 20 -168 60c-36.667 35.333 -55 75.666 -55 120.999h117c0 -25.333 9.33301 -45.666 28 -60.999c19.333 -15.333 45.666 -23 78.999 -23c70.667 0 106 22 106 66
c0 31.333 -17.333 49.666 -52 54.999c-8 1.33301 -29.5 4 -64.5 8s-61.5 8 -79.5 12c-35.333 7.33301 -64 24 -86 50s-33 55.667 -33 89c0 47.333 17.667 86.333 53 117c40 34.667 92.667 52 158 52c70.667 0 125 -20.333 163 -61c30.667 -32.667 46 -68.334 46 -107.001
h-119c0 17.333 -7 33.666 -21 48.999c-16 16 -38.667 24 -68 24c-23.333 0 -41.333 -2.66699 -54 -8c-26.667 -10.667 -40 -29 -40 -55c0 -28.667 20 -46 60 -52c55.333 -7.33301 92.333 -12.333 111 -15c42.667 -6.66699 77 -22.834 103 -48.501s39 -58.5 39 -98.5z
M316.001 -30.9961l-76 -199l-104 49l83 150h97z" />
    <glyph glyph-name="Scaron" unicode="&#x160;" horiz-adv-x="632" 
d="M599 211c0 -59.333 -19.666 -108.666 -58.999 -147.999c-50.667 -50.667 -125.334 -76 -224.001 -76c-88 0 -158.667 24.333 -212 73c-49.333 44.667 -74 99.667 -74 165h132c0 -33.333 12.333 -62.333 37 -87c25.333 -25.333 65 -38 119 -38
c57.333 0 98.333 12.667 123 38c18.667 20 28 42.667 28 68c0 46 -28 74 -84 84c-16.667 3.33301 -43.334 6.66602 -80.001 9.99902s-62.334 6.33301 -77.001 9c-52.667 8.66699 -95.834 29.834 -129.501 63.501s-50.5 78.5 -50.5 134.5c0 52 20.667 98.667 62 140
c24 23.333 54.333 41.666 91 54.999s75.667 20 117 20c82.667 0 148.667 -23 198 -69c47.333 -44.667 71.333 -95 72 -151h-132c-1.33301 26 -11.666 49.333 -30.999 70c-11.333 11.333 -27.166 20.5 -47.499 27.5s-40.5 10.5 -60.5 10.5
c-51.333 0 -89.666 -13 -114.999 -39c-16 -17.333 -24 -37.333 -24 -60c0 -43.333 24 -69 72 -77c16.667 -2.66699 43.667 -6 81 -10s61.666 -6.66699 72.999 -8c56.667 -8 103.334 -29.667 140.001 -65s55 -82 55 -140zM282.001 772l-140 148l65 59l107 -118l105 115
l62 -56l-136 -148h-63z" />
    <glyph glyph-name="scaron" unicode="&#x161;" horiz-adv-x="521" 
d="M482 161c0 -46 -14.999 -83.9961 -44.999 -113.996c-40 -40 -99.333 -60 -178 -60c-70 0 -126 20 -168 60c-36.667 35.333 -55 75.666 -55 120.999h117c0 -25.333 9.33301 -45.666 28 -60.999c19.333 -15.333 45.666 -23 78.999 -23c70.667 0 106 22 106 66
c0 31.333 -17.333 49.666 -52 54.999c-8 1.33301 -29.5 4 -64.5 8s-61.5 8 -79.5 12c-35.333 7.33301 -64 24 -86 50s-33 55.667 -33 89c0 47.333 17.667 86.333 53 117c40 34.667 92.667 52 158 52c70.667 0 125 -20.333 163 -61c30.667 -32.667 46 -68.334 46 -107.001
h-119c0 17.333 -7 33.666 -21 48.999c-16 16 -38.667 24 -68 24c-23.333 0 -41.333 -2.66699 -54 -8c-26.667 -10.667 -40 -29 -40 -55c0 -28.667 20 -46 60 -52c55.333 -7.33301 92.333 -12.333 111 -15c42.667 -6.66699 77 -22.834 103 -48.501s39 -58.5 39 -98.5z
M238.001 572.004l-126 134l59 53l96 -106l94 103l56 -50l-122 -134h-57z" />
    <glyph glyph-name="Ydieresis" unicode="&#x178;" horiz-adv-x="624" 
d="M624 709l-248 -437v-272h-130v272l-246 437h140l175 -306l175 306h134zM477 779h-117v121h117v-121zM271 779h-117v121h117v-121z" />
    <glyph glyph-name="Zcaron" unicode="&#x17d;" horiz-adv-x="615" 
d="M584 0h-555v127l391 465h-385v117h544v-127l-388 -465h393v-117zM258 765l-140 148l65 59l107 -118l105 115l62 -56l-136 -148h-63z" />
    <glyph glyph-name="zcaron" unicode="&#x17e;" horiz-adv-x="507" 
d="M468 0h-424v110l275 307h-273v103h420v-113l-272 -304h274v-103zM224 572l-126 134l59 53l96 -106l94 103l56 -50l-122 -134h-57z" />
    <glyph glyph-name="florin" unicode="&#x192;" horiz-adv-x="532" 
d="M499 608c-18.667 4 -32.999 6.00098 -42.999 6.00098c-28 0 -49 -5.33301 -63 -16s-24.333 -29.334 -31 -56.001c-4 -18 -9.66699 -48.333 -17 -91h130v-112h-155l-62 -310c-10 -47.333 -29.833 -84.333 -59.5 -111s-68.167 -40 -115.5 -40
c-28.667 0 -56.334 4 -83.001 12v106c18 -4 36.333 -6 55 -6c26.667 0 46 6 58 18s20.667 31.333 26 58l55 273h-94v112h117l24 119c9.33301 46.667 29.833 84.167 61.5 112.5s71.167 42.5 118.5 42.5c17.333 0 43.333 -2.66699 78 -8v-109z" />
    <glyph glyph-name="circumflex" unicode="&#x2c6;" horiz-adv-x="365" 
d="M349 629l-61 -55l-103 113l-105 -116l-64 58l138 145h61z" />
    <glyph glyph-name="caron" unicode="&#x2c7;" horiz-adv-x="358" 
d="M348 924l-140 -148h-63l-136 148l62 56l105 -115l107 118z" />
    <glyph glyph-name="breve" unicode="&#x2d8;" horiz-adv-x="350" 
d="M346 767c-4 -54 -20.335 -96.667 -49.002 -128s-68.667 -47 -120 -47s-91.166 15.667 -119.499 47s-44.5 74 -48.5 128h94c3.33301 -29.333 10.833 -50.666 22.5 -63.999s28.834 -20 51.501 -20s40 6.66699 52 20s19.667 34.666 23 63.999h94z" />
    <glyph glyph-name="dotaccent" unicode="&#x2d9;" horiz-adv-x="265" 
d="M201 592h-133v128h133v-128z" />
    <glyph glyph-name="ring" unicode="&#x2da;" horiz-adv-x="248" 
d="M248 710c0 -34 -11.833 -62.833 -35.5 -86.5s-52.5 -35.5 -86.5 -35.5s-62.833 11.833 -86.5 35.5s-35.5 52.5 -35.5 86.5s11.833 62.667 35.5 86s52.5 35 86.5 35s62.833 -11.667 86.5 -35s35.5 -52 35.5 -86zM179 710c0 14.667 -5.16699 27 -15.5 37
s-22.833 15 -37.5 15s-27 -5 -37 -15s-15 -22.333 -15 -37s5 -27.167 15 -37.5s22.333 -15.5 37 -15.5s27.167 5.16699 37.5 15.5s15.5 22.833 15.5 37.5z" />
    <glyph glyph-name="ogonek" unicode="&#x2db;" horiz-adv-x="198" 
d="M194 -185l-110 -52l-80 210h102z" />
    <glyph glyph-name="tilde" unicode="&#x2dc;" horiz-adv-x="382" 
d="M369 672c-38.667 -40 -76.999 -60 -114.999 -60c-20 0 -42.667 6.83301 -68 20.5s-43 20.5 -53 20.5c-22.667 0 -43.667 -11 -63 -33l-51 64c40 40 78.333 60 115 60c19.333 0 41.666 -7 66.999 -21s43.333 -21 54 -21c19.333 0 40.333 11.333 63 34z" />
    <glyph glyph-name="hungarumlaut" unicode="&#x2dd;" horiz-adv-x="510" 
d="M504 725l-202 -117l-42 65l185 144zM249 725l-202 -117l-42 65l185 144z" />
    <glyph glyph-name="Delta" unicode="&#x394;" horiz-adv-x="580" 
d="M629 0h-678l262 712h136zM449 119l-168 446l-157 -446h325z" />
    <glyph glyph-name="Delta" unicode="&#x2206;" horiz-adv-x="580" 
d="M629 0h-678l262 712h136zM449 119l-168 446l-157 -446h325z" />
    <glyph glyph-name="Omega" unicode="&#x3a9;" horiz-adv-x="793" 
d="M727 0l-284.001 0.00292969v200c10.667 2 18.334 4 23.001 6c32.667 10 59.667 29 81 57c28 36.667 42 81.667 42 135c0 31.333 -5.33301 60 -16 86c-10.667 26.667 -25.667 49 -45 67c-16.667 16 -36.667 28.667 -60 38c-21.333 8.66699 -44.666 13 -69.999 13
c-24.667 0 -48 -4.33301 -70 -13s-42.333 -21.334 -61 -38.001c-19.333 -18.667 -34.666 -41.667 -45.999 -69c-10.667 -26 -16 -55 -16 -87c0 -24.667 4.33301 -50.667 13 -78c7.33301 -24 19 -45.333 35 -64c12 -14 25.667 -25 41 -33s33.666 -14.667 54.999 -20v-200
h-283v112h179v35c-2 0.666992 -5 1.5 -9 2.5s-6.66699 1.83301 -8 2.5c-38 12 -70.333 34 -97 66c-21.333 25.333 -37.333 54 -48 86c-11.333 34 -17 68.667 -17 104c0 46 8.33301 88 25 126c12.667 30 30.667 57.667 54 83s50 46 80 62c51.333 28 108.666 42 171.999 42
c55.333 0 105.666 -10 150.999 -30s83.333 -49 114 -87c43.333 -53.333 65 -118 65 -194c0 -40 -6 -77 -18 -111c-12 -34.667 -30 -64.334 -54 -89.001c-16 -16.667 -32.333 -30 -49 -40c-15.333 -8.66699 -34.666 -16.334 -57.999 -23.001v-35h179v-112z" />
    <glyph glyph-name="Omega" unicode="&#x2126;" horiz-adv-x="793" 
d="M727 0l-284.001 0.00292969v200c10.667 2 18.334 4 23.001 6c32.667 10 59.667 29 81 57c28 36.667 42 81.667 42 135c0 31.333 -5.33301 60 -16 86c-10.667 26.667 -25.667 49 -45 67c-16.667 16 -36.667 28.667 -60 38c-21.333 8.66699 -44.666 13 -69.999 13
c-24.667 0 -48 -4.33301 -70 -13s-42.333 -21.334 -61 -38.001c-19.333 -18.667 -34.666 -41.667 -45.999 -69c-10.667 -26 -16 -55 -16 -87c0 -24.667 4.33301 -50.667 13 -78c7.33301 -24 19 -45.333 35 -64c12 -14 25.667 -25 41 -33s33.666 -14.667 54.999 -20v-200
h-283v112h179v35c-2 0.666992 -5 1.5 -9 2.5s-6.66699 1.83301 -8 2.5c-38 12 -70.333 34 -97 66c-21.333 25.333 -37.333 54 -48 86c-11.333 34 -17 68.667 -17 104c0 46 8.33301 88 25 126c12.667 30 30.667 57.667 54 83s50 46 80 62c51.333 28 108.666 42 171.999 42
c55.333 0 105.666 -10 150.999 -30s83.333 -49 114 -87c43.333 -53.333 65 -118 65 -194c0 -40 -6 -77 -18 -111c-12 -34.667 -30 -64.334 -54 -89.001c-16 -16.667 -32.333 -30 -49 -40c-15.333 -8.66699 -34.666 -16.334 -57.999 -23.001v-35h179v-112z" />
    <glyph glyph-name="pi" unicode="&#x3c0;" horiz-adv-x="636" 
d="M581 1c-32 -5.33301 -54.333 -8 -67 -8c-95.333 0 -143 48.333 -143 145v266h-121v-406h-124v406h-76v101h520v-101h-75v-248c0 -17.333 3.5 -30 10.5 -38s19.167 -12 36.5 -12c4 0 11 0.333008 21 1s16 1 18 1v-107z" />
    <glyph glyph-name="endash" unicode="&#x2013;" horiz-adv-x="659" 
d="M599 252h-539v112h539v-112z" />
    <glyph glyph-name="emdash" unicode="&#x2014;" horiz-adv-x="1149" 
d="M1089 252h-1029v111h1029v-111z" />
    <glyph glyph-name="quoteleft" unicode="&#x2018;" horiz-adv-x="267" 
d="M205 414h-143.999v135c0 43.333 7.66699 78.5 23 105.5s42.666 48.833 81.999 65.5l32 -58c-25.333 -12 -42.333 -25.5 -51 -40.5s-13 -35.5 -13 -61.5h71v-146z" />
    <glyph glyph-name="quoteright" unicode="&#x2019;" horiz-adv-x="247" 
d="M196 573c0 -43.333 -7.66797 -78.5 -23.001 -105.5s-42.666 -48.833 -81.999 -65.5l-33 58c25.333 12 42.5 25.5 51.5 40.5s13.5 35.5 13.5 61.5h-72v147h145v-136z" />
    <glyph glyph-name="quotesinglbase" unicode="&#x201a;" horiz-adv-x="287" 
d="M217 11c0 -44 -7.66602 -79.832 -22.999 -107.499s-43.333 -49.834 -84 -66.501l-33 59c25.333 12 42.666 25.667 51.999 41s14 36.333 14 63h-73v150h147v-139z" />
    <glyph glyph-name="quotedblleft" unicode="&#x201c;" horiz-adv-x="483" 
d="M419 413h-144v135c0 42.667 7.83301 77.667 23.5 105s43.167 49.333 82.5 66l32 -58c-25.333 -12 -42.5 -25.5 -51.5 -40.5s-13.5 -35.5 -13.5 -61.5h71v-146zM207 413h-143v135c0 43.333 7.5 78.5 22.5 105.5s42.167 48.833 81.5 65.5l32 -58
c-25.333 -12 -42.5 -25.5 -51.5 -40.5s-13.5 -35.5 -13.5 -61.5h72v-146z" />
    <glyph glyph-name="quotedblright" unicode="&#x201d;" horiz-adv-x="463" 
d="M409 574c0 -43.333 -7.5 -78.5 -22.5 -105.5s-42.167 -48.833 -81.5 -65.5l-32 58c25.333 12 42.5 25.5 51.5 40.5s13.5 35.5 13.5 61.5h-72v146h143v-135zM198 574c0 -42.667 -7.83301 -77.667 -23.5 -105s-43.167 -49.333 -82.5 -66l-32 58
c25.333 12 42.5 25.5 51.5 40.5s13.5 35.5 13.5 61.5h-71v146h144v-135z" />
    <glyph glyph-name="quotedblbase" unicode="&#x201e;" horiz-adv-x="504" 
d="M434 11c0 -44 -7.66602 -79.832 -22.999 -107.499s-43.333 -49.834 -84 -66.501l-33 59c25.333 12 42.666 25.667 51.999 41s14 36.333 14 63h-73v150h147v-139zM217.001 11.001c0 -44 -7.66602 -79.832 -22.999 -107.499s-43.333 -49.834 -84 -66.501l-33 59
c25.333 12 42.666 25.667 51.999 41s14 36.333 14 63h-73v150h147v-139z" />
    <glyph glyph-name="dagger" unicode="&#x2020;" horiz-adv-x="562" 
d="M522 415h-184v-540h-114v540h-184v105h184v189h114v-189h184v-105z" />
    <glyph glyph-name="daggerdbl" unicode="&#x2021;" horiz-adv-x="562" 
d="M522 64h-184v-189h-114v189h-184v105h184v246h-184v105h184v189h114v-189h184v-105h-184v-246h184v-105z" />
    <glyph glyph-name="bullet" unicode="&#x2022;" horiz-adv-x="432" 
d="M357 292c0 -38.667 -13.833 -71.834 -41.5 -99.501s-60.834 -41.5 -99.501 -41.5s-71.834 13.833 -99.501 41.5s-41.5 60.834 -41.5 99.501s13.833 71.834 41.5 99.501s60.834 41.5 99.501 41.5s71.834 -13.833 99.501 -41.5s41.5 -60.834 41.5 -99.501z" />
    <glyph glyph-name="ellipsis" unicode="&#x2026;" horiz-adv-x="999" 
d="M907 0h-145v146h145v-146zM572 0h-145v146h145v-146zM237 0h-145v146h145v-146z" />
    <glyph glyph-name="perthousand" unicode="&#x2030;" horiz-adv-x="1165" 
d="M1147 172c0 -47.333 -10.001 -85.333 -30.001 -114c-31.333 -46 -76 -69 -134 -69c-57.333 0 -102 23 -134 69c-19.333 28 -29 66 -29 114s9.66699 86 29 114c32.667 45.333 77.334 68 134.001 68c58 0 102.667 -22.667 134 -68c20 -28.667 30 -66.667 30 -114z
M781.999 172c0 -47.333 -10.001 -85.333 -30.001 -114c-31.333 -46 -76 -69 -134 -69c-57.333 0 -102 23 -134 69c-19.333 28 -29 66 -29 114s9.66699 86 29 114c32.667 45.333 77.334 68 134.001 68c58 0 102.667 -22.667 134 -68c20 -28.667 30 -66.667 30 -114z
M701.998 670l-507 -690l-74 56l505 687zM371.998 537c0 -47.333 -10 -85.333 -30 -114c-32 -46 -76.667 -69 -134 -69c-56.667 0 -101.334 23 -134.001 69c-19.333 28 -29 66 -29 114s9.66699 86 29 114c32.667 45.333 77.334 68 134.001 68c58 0 102.667 -22.667 134 -68
c20 -28.667 30 -66.667 30 -114zM1053 172c0 66.667 -23.334 100 -70.001 100c-46 0 -69 -33.333 -69 -100c0 -31.333 4.83301 -56 14.5 -74s27.834 -27 54.501 -27c46.667 0 70 33.667 70 101zM687.997 172c0 30.667 -4.83398 55 -14.501 73s-28.167 27 -55.5 27
c-46 0 -69 -33.333 -69 -100c0 -31.333 4.83301 -56 14.5 -74s27.834 -27 54.501 -27c27.333 0 45.833 9 55.5 27s14.5 42.667 14.5 74zM277.996 537c0 67.333 -23.334 101 -70.001 101c-46 0 -69 -33.667 -69 -101c0 -31.333 4.83301 -56 14.5 -74s27.834 -27 54.501 -27
c27.333 0 45.833 9 55.5 27s14.5 42.667 14.5 74z" />
    <glyph glyph-name="guilsinglleft" unicode="&#x2039;" horiz-adv-x="336" 
d="M286 105l-73 -51l-173 244l173 247l73 -52l-114 -194z" />
    <glyph glyph-name="guilsinglright" unicode="&#x203a;" horiz-adv-x="336" 
d="M296 298l-173 -244l-73 51l114 194l-114 194l73 52z" />
    <glyph glyph-name="fraction" unicode="&#x2044;" horiz-adv-x="587" 
d="M584 670l-507 -690l-74 56l505 687z" />
    <glyph glyph-name="fraction" unicode="&#x2215;" horiz-adv-x="587" 
d="M584 670l-507 -690l-74 56l505 687z" />
    <glyph glyph-name="Euro" unicode="&#x20ac;" horiz-adv-x="621" 
d="M606 54c-59.333 -44.667 -126.001 -67.001 -200.001 -67.001c-84 0 -153.333 27.333 -208 82c-44.667 44.667 -73 101 -85 169h-78v73h70c-0.666992 8 -1 20.333 -1 37c0 4 0.166992 9.66699 0.5 17s0.5 13 0.5 17h-70v73h77c12.667 70 41.334 127.333 86.001 172
c54.667 54.667 124 82 208 82c74 0 140.667 -22.333 200 -67l-47 -101c-48 36.667 -99 55 -153 55c-50.667 0 -91.667 -16.667 -123 -50c-22 -23.333 -36.667 -53.666 -44 -90.999h281l-35 -73h-254v-35v-36h234l-35 -73h-191c7.33301 -34.667 22 -64 44 -88
c31.333 -33.333 72.333 -50 123 -50c56.667 0 107.667 18.333 153 55z" />
    <glyph glyph-name="recordright" unicode="&#x2117;" horiz-adv-x="838" 
d="M788 354c0 -107.333 -34.6689 -195.333 -104.002 -264s-157.666 -103 -264.999 -103s-195.666 34.333 -264.999 103s-104 156.667 -104 264c0 106 35 193.833 105 263.5s158 104.5 264 104.5s194 -34.833 264 -104.5s105 -157.5 105 -263.5zM694.998 354
c0 81.333 -25.6689 148.667 -77.002 202s-117.666 80 -198.999 80s-147.5 -26.5 -198.5 -79.5s-76.5 -120.5 -76.5 -202.5s25.333 -149.333 76 -202s117 -79 199 -79c80.667 0 146.834 26.5 198.501 79.5s77.5 120.167 77.5 201.5zM589.996 408.001
c0 -46.667 -13.333 -82 -40 -106s-63.667 -36 -111 -36h-51v-104h-100v386h151c44 0 80.167 -12.5 108.5 -37.5s42.5 -59.167 42.5 -102.5zM492.996 408.001c0 16.667 -4.83203 29.5 -14.499 38.5s-22.834 13.5 -39.501 13.5h-52v-106h52c36 0 54 18 54 54z" />
    <glyph glyph-name="trademark" unicode="&#x2122;" horiz-adv-x="857" 
d="M797 328h-95v256l-78 -246h-73l-78 245v-255h-95v381h135l77 -241l76 241h131v-381zM326 624h-110v-296h-96v296h-110v85h316v-85z" />
    <glyph glyph-name="partialdiff" unicode="&#x2202;" horiz-adv-x="580" 
d="M531 358c0 -52 -4.00293 -100.001 -12.0029 -144.001c-5.33301 -26 -11.666 -48.667 -18.999 -68c-8 -20 -18 -39 -30 -57c-45.333 -68 -110.666 -102 -195.999 -102c-68.667 0 -123.334 21.667 -164.001 65c-19.333 20.667 -34.666 45.667 -45.999 75
c-10.667 28 -16 58.333 -16 91c0 34.667 6.66699 67.334 20 98.001c14 32 32.667 57.333 56 76c19.333 16.667 41.333 29 66 37c24 8 49.667 12 77 12c25.333 0 49 -4 71 -12c21.333 -8 43 -20.333 65 -37v15c0 31.333 -3.33301 61.333 -10 90
c-10.667 47.333 -30 81.333 -58 102c-22.667 16.667 -47 25 -73 25c-26.667 0 -52.667 -7 -78 -21c-8.66699 -4.66699 -22.667 -15 -42 -31l-68 77c20 16 39.333 29.667 58 41c36.667 20.667 78 31 124 31c46.667 0 88.334 -10 125.001 -30
c38 -20.667 68.667 -49.334 92 -86.001c38.667 -59.333 58 -141.666 58 -246.999zM401.997 271.999l0.000976562 18.9971c-4 4.66699 -11.667 11.667 -23 21c-8 6.66699 -15.667 12 -23 16c-21.333 12.667 -44.666 19 -69.999 19c-30.667 0 -55.667 -9.33301 -75 -28
c-12.667 -11.333 -22.667 -26.666 -30 -45.999c-6.66699 -17.333 -10 -37.666 -10 -60.999c0 -19.333 2.66699 -38 8 -56c5.33301 -17.333 12.666 -31.333 21.999 -42c7.33301 -8.66699 18.666 -16.667 33.999 -24c12.667 -6 26.667 -9 42 -9c42 0 74 21 96 63
c9.33301 18.667 16.333 38.667 21 60c5.33301 24.667 8 47.334 8 68.001z" />
    <glyph glyph-name="product" unicode="&#x220f;" horiz-adv-x="759" 
d="M696 -214h-128v880h-376v-880h-129v1000h633v-1000z" />
    <glyph glyph-name="summation" unicode="&#x2211;" horiz-adv-x="654" 
d="M634 -214h-614v105l298 401l-285 390v104h589v-120h-419l267 -373l-285 -387h449v-120z" />
    <glyph glyph-name="minus" unicode="&#x2212;" horiz-adv-x="659" 
d="M599 252h-539v112h539v-112z" />
    <glyph glyph-name="radical" unicode="&#x221a;" horiz-adv-x="697" 
d="M707 728h-113l-254 -736h-106l-189 528h133l109 -321l211 633h209v-104z" />
    <glyph glyph-name="infinity" unicode="&#x221e;" horiz-adv-x="845" 
d="M797 267c0 -30.667 -4.33301 -58.002 -13 -82.002c-8 -22.667 -22 -44 -42 -64c-34 -32.667 -75.667 -49 -125 -49c-21.333 0 -42 3.66699 -62 11c-17.333 6.66699 -37 17.667 -59 33c-12 8.66699 -23.667 18.334 -35 29.001c-9.33301 8 -22 22 -38 42
c-21.333 -24 -34 -38 -38 -42c-10 -10 -20 -18.667 -30 -26c-22 -16.667 -42 -28.334 -60 -35.001c-20 -7.33301 -41.333 -11 -64 -11c-48.667 0 -89.667 15 -123 45c-40 36 -60 85.333 -60 148c0 30.667 5 58.667 15 84s24.333 46.333 43 63c16 14 34.333 25 55 33
s42.667 12 66 12c46 0 89.333 -16.667 130 -50c16.667 -15.333 26.667 -24.666 30 -27.999c6.66699 -7.33301 18.667 -22 36 -44c26.667 33.333 51 59 73 77c37.333 30 78 45 122 45c28 0 54.333 -5.66699 79 -17c33.333 -15.333 58.333 -37.666 75 -66.999s25 -65 25 -107z
M693 264.998c0 28.667 -8.99902 50.333 -26.999 65c-14 12 -31 18 -51 18c-12.667 0 -25.667 -3 -39 -9c-12.667 -6 -26.334 -15.333 -41.001 -28c-18 -16 -33.667 -32 -47 -48c24 -28.667 46 -49 66 -61c20.667 -12.667 42 -19 64 -19c13.333 0 24.333 2 33 6
c14 6 24.667 16 32 30c6.66699 12.667 10 28 10 46zM358.001 262.997c-13.333 16 -30.001 32.333 -50.001 49c-14 11.333 -28.333 20.333 -43 27c-13.333 6 -26 9 -38 9c-20.667 0 -38 -7.33301 -52 -22c-15.333 -15.333 -23 -36 -23 -62c0 -24 7 -43.333 21 -58
s33 -22 57 -22c26.667 0 54.334 11.667 83.001 35c18.667 15.333 33.667 30 45 44z" />
    <glyph glyph-name="integral" unicode="&#x222b;" horiz-adv-x="580" 
d="M505 705c0 -8.66699 -1.66504 -17.3359 -4.99805 -26.0029s-7.33301 -15 -12 -19c-13.333 -11.333 -27 -17 -41 -17c-14.667 0 -27 5 -37 15c-6 6 -10 11 -12 15c-2.66699 6 -5.66699 15 -9 27c-3.33301 9.33301 -6.33301 16 -9 20s-6.33398 6 -11.001 6
c-12.667 0 -19 -11.667 -19 -35c0 -10.667 0.333008 -20.667 1 -30l3 -46c0.666992 -8 1 -34 1 -78l1 -388v-45c0 -50.667 -1 -92.667 -3 -126c-0.666992 -20 -3 -41 -7 -63c-2.66699 -14.667 -7.33398 -29.334 -14.001 -44.001c-13.333 -28 -31.666 -48.667 -54.999 -62
c-25.333 -14.667 -52.666 -22 -81.999 -22c-18 0 -35.667 3 -53 9c-16.667 6 -30.334 14.333 -41.001 25c-8 8 -14 16.333 -18 25c-4.66699 10.667 -7 19.334 -7 26.001c0 8.66699 1.33301 16 4 22c3.33301 8 7 13.667 11 17c4.66699 4.66699 11.667 8.66699 21 12
c8.66699 3.33301 16.667 5 24 5c9.33301 0 17.666 -2.33301 24.999 -7c9.33301 -5.33301 15.666 -11.333 18.999 -18c3.33301 -6 7.33301 -18 12 -36c2 -7.33301 4.33301 -13 7 -17c3.33301 -4 7 -6 11 -6c6.66699 0 11.334 3 14.001 9c3.33301 6.66699 5 15.334 5 26.001
c0 12.667 -1 31.334 -3 56.001c-2 26.667 -3 56.334 -3 89.001v455v27l1 45c1.33301 48 4.33301 84 9 108c7.33301 35.333 22.333 63.333 45 84c29.333 27.333 67 41 113 41c16.667 0 32 -2.33301 46 -7c17.333 -6 30.333 -12.333 39 -19
c9.33301 -6.66699 16.333 -14.667 21 -24c5.33301 -9.33301 8 -19 8 -29z" />
    <glyph glyph-name="approxequal" unicode="&#x2248;" horiz-adv-x="640" 
d="M580 377c-20 -21.333 -36.335 -37.666 -49.002 -48.999s-29.667 -22.166 -51 -32.499s-43.333 -15.5 -66 -15.5c-28 0 -62.667 10 -104 30c-4.66699 2 -12 5.33301 -22 10s-17.667 8 -23 10c-15.333 6.66699 -28.666 10 -39.999 10c-12 0 -24.333 -3.33301 -37 -10
s-22.5 -13.167 -29.5 -19.5s-16.167 -15.5 -27.5 -27.5l-71 84c20 21.333 36.333 37.666 49 48.999s29.667 22.166 51 32.499s43.333 15.5 66 15.5c25.333 0 59.333 -9.66699 102 -29c24 -10.667 39 -17 45 -19c16.667 -6 30.334 -9 41.001 -9c12 0 24.167 3 36.5 9
s22 12.167 29 18.5s16.167 15.5 27.5 27.5zM579.998 157c-19.333 -20.667 -35.666 -36.834 -48.999 -48.501s-30.5 -22.5 -51.5 -32.5s-42.833 -15 -65.5 -15c-29.333 0 -64 9.66699 -104 29c-5.33301 2 -13 5.5 -23 10.5s-17.333 8.5 -22 10.5c-14 6 -27.333 9 -40 9
c-26.667 0 -58 -18.667 -94 -56l-71 84c19.333 20.667 35.666 36.834 48.999 48.501s30.5 22.5 51.5 32.5s42.833 15 65.5 15c26.667 0 60.667 -9.33301 102 -28c2 -1.33301 8.66699 -4.5 20 -9.5s19.666 -8.5 24.999 -10.5c16.667 -6 30.334 -9 41.001 -9
c12 0 24.167 3 36.5 9s22 12.167 29 18.5s16.167 15.5 27.5 27.5z" />
    <glyph glyph-name="notequal" unicode="&#x2260;" horiz-adv-x="690" 
d="M600 129h-339l-101 -131l-58 44l67 87h-79v99h155l77 100h-232v98h308l97 126l57 -45l-62 -81h110v-98h-186l-77 -100h263v-99z" />
    <glyph glyph-name="lessequal" unicode="&#x2264;" horiz-adv-x="580" 
d="M554 112l-530 168v124l530 167v-129l-359 -100l359 -102v-128zM554 -42h-530v125h530v-125z" />
    <glyph glyph-name="greaterequal" unicode="&#x2265;" horiz-adv-x="580" 
d="M556 280l-530 -168v128l359 102l-359 100v129l530 -167v-124zM556 -42h-530v125h530v-125z" />
    <glyph glyph-name="lozenge" unicode="&#x25ca;" horiz-adv-x="580" 
d="M530 356l-183 -391h-115l-182 391l183 391h114zM404 356l-114 267l-113 -267l113 -268z" />
    <glyph glyph-name="apple" unicode="&#xf000;" horiz-adv-x="719" 
d="M663 0l-350.001 -0.00195312c-66.667 0 -121.667 17 -165 51s-65 83.333 -65 148c0 32.667 9.83301 65.334 29.5 98.001s44.167 55 73.5 67c-28 16.667 -50 38.5 -66 65.5s-24 56.5 -24 88.5c0 62 21.667 109.5 65 142.5s97 49.5 161 49.5
c39.333 0 72.333 -3.33301 99 -10v-108c-33.333 6.66699 -63.666 10 -90.999 10c-30.667 0 -56.667 -7.66699 -78 -23s-32 -37.666 -32 -66.999c0 -31.333 9.83301 -54.833 29.5 -70.5s45.5 -23.5 77.5 -23.5h116v104h117v-104h103v-106h-103v-206h103v-106z
M442.999 105.998l0.000976562 206h-121c-34.667 0 -62.667 -9.33301 -84 -28s-32 -44.667 -32 -78c0 -32.667 10.167 -57.5 30.5 -74.5s47.166 -25.5 80.499 -25.5h126z" />
    <glyph glyph-name="apple" unicode="&#xf8ff;" horiz-adv-x="719" 
d="M663 0l-350.001 -0.00195312c-66.667 0 -121.667 17 -165 51s-65 83.333 -65 148c0 32.667 9.83301 65.334 29.5 98.001s44.167 55 73.5 67c-28 16.667 -50 38.5 -66 65.5s-24 56.5 -24 88.5c0 62 21.667 109.5 65 142.5s97 49.5 161 49.5
c39.333 0 72.333 -3.33301 99 -10v-108c-33.333 6.66699 -63.666 10 -90.999 10c-30.667 0 -56.667 -7.66699 -78 -23s-32 -37.666 -32 -66.999c0 -31.333 9.83301 -54.833 29.5 -70.5s45.5 -23.5 77.5 -23.5h116v104h117v-104h103v-106h-103v-206h103v-106z
M442.999 105.998l0.000976562 206h-121c-34.667 0 -62.667 -9.33301 -84 -28s-32 -44.667 -32 -78c0 -32.667 10.167 -57.5 30.5 -74.5s47.166 -25.5 80.499 -25.5h126z" />
    <glyph glyph-name=".null" horiz-adv-x="0" 
 />
    <glyph glyph-name="nonmarkingreturn" horiz-adv-x="333" 
 />
    <glyph glyph-name="ampersand.alt" horiz-adv-x="719" 
d="M663 0l-350.001 -0.00195312c-66.667 0 -121.667 17 -165 51s-65 83.333 -65 148c0 32.667 9.83301 65.334 29.5 98.001s44.167 55 73.5 67c-28 16.667 -50 38.5 -66 65.5s-24 56.5 -24 88.5c0 62 21.667 109.5 65 142.5s97 49.5 161 49.5
c39.333 0 72.333 -3.33301 99 -10v-108c-33.333 6.66699 -63.666 10 -90.999 10c-30.667 0 -56.667 -7.66699 -78 -23s-32 -37.666 -32 -66.999c0 -31.333 9.83301 -54.833 29.5 -70.5s45.5 -23.5 77.5 -23.5h116v104h117v-104h103v-106h-103v-206h103v-106z
M442.999 105.998l0.000976562 206h-121c-34.667 0 -62.667 -9.33301 -84 -28s-32 -44.667 -32 -78c0 -32.667 10.167 -57.5 30.5 -74.5s47.166 -25.5 80.499 -25.5h126z" />
    <glyph glyph-name="orn.1" horiz-adv-x="797" 
d="M752 275h-540l204 -204l-70 -70l-321 323l321 323l70 -69l-204 -205h540v-98z" />
    <glyph glyph-name="orn.2" horiz-adv-x="797" 
d="M772 323l-321 -323l-70 70l204 204h-540v98h540l-204 205l70 69z" />
    <glyph glyph-name="one.alt" 
d="M239 109v438l-153 -111v136l171 123h107v-586h139v-109h-403v109h139z" />
    <glyph glyph-name="orn.6" horiz-adv-x="953" 
d="M895 -99h-837v248h84v-162h670v162h83v-248z" />
    <glyph glyph-name="orn.5" horiz-adv-x="932" 
d="M172 897l-107 -107v28l79 79h28zM372 897l-307 -307v27l280 280h27zM773 897l-708 -708v27l681 681h27zM572 897l-507 -508v28l480 480h27zM867 790l-802 -801v27l802 802v-28zM867 590l-802 -802v28l802 801v-27zM867 -212l-82 -81h-27l109 109v-28zM867 389l-683 -682
h-27l710 710v-28zM867 -11l-282 -282h-27l309 309v-27zM867 189l-482 -482h-28l510 509v-27z" />
    <glyph glyph-name="orn.3" horiz-adv-x="630" 
d="M590 232l-69 -70l-382 382v-288h-99v453h457v-96h-289z" />
    <glyph glyph-name="orn.4" horiz-adv-x="650" 
d="M585 256h-99v288l-382 -382l-69 70l382 381h-289v96h457v-453z" />
    <glyph glyph-name="zero.alt" 
d="M530 348c0 -68 -5.66699 -127 -17 -177s-33.333 -90.667 -66 -122c-42.667 -41.333 -96.667 -62 -162 -62s-119.333 20.667 -162 62c-32.667 31.333 -54.667 72 -66 122s-17 109 -17 177s5.66699 127 17 177s33.333 90.667 66 122c42.667 41.333 96.667 62 162 62
s119.333 -20.667 162 -62c32.667 -31.333 54.667 -72 66 -122s17 -109 17 -177zM385 536c-20 42 -53.3359 62.998 -100.003 62.998c-16.667 0 -31.667 -2.66699 -45 -8s-24.166 -12.666 -32.499 -21.999s-15.666 -20.166 -21.999 -32.499s-10.666 -25.5 -12.999 -39.5
s-4.5 -28.5 -6.5 -43.5s-2.83301 -29.833 -2.5 -44.5s0.5 -28.667 0.5 -42v-19v-19.5v-25.5v-23zM405.997 347.998l0.00292969 21.502v27.5v25l-222 -260c19.333 -43.333 53 -65 101 -65c16.667 0 31.667 2.66699 45 8s24.166 12.666 32.499 21.999
s15.666 20.166 21.999 32.499s10.666 25.5 12.999 39.5s4.5 28.5 6.5 43.5s2.83301 29.833 2.5 44.5s-0.5 28.667 -0.5 42v19z" />
    </font>
</defs>
</svg>
